<?xml version="1.0" encoding="UTF-8"?>
<svg id="Layer_1" data-name="Layer 1" xmlns="http://www.w3.org/2000/svg" viewBox="0 0 419.29 299.7">
  <defs>
    <style>
      .cls-1 {
        fill: #05f;
      }

      .cls-2 {
        fill: #00ba59;
      }

      .cls-3 {
        fill: #ffde00;
      }

      .cls-4 {
        fill: #fff;
      }

      .cls-5 {
        fill: #ff000d;
      }
    </style>
  </defs>
  <g>
    <path d="M413.53,104.84c3.09,.04,5.56,2.59,5.51,5.68l-1.19,75.7c-.02,1.5-.63,2.89-1.7,3.93-1.05,1.02-2.43,1.58-3.89,1.58h-.09c-3.08-.05-5.55-2.6-5.5-5.68l.62-40.1c.01-.1-.03-.19-.1-.26-.06-.06-.15-.1-.25-.1l-14.98-.24c-.18,0-.34,.14-.35,.33-1.48,16.01-10.15,26.25-22.15,26.25-.17,0-.33,0-.5-.01-5.29-.04-10.05-2.07-13.76-5.87-5.41-5.54-8.3-14.51-8.13-25.24,.29-18.22,9.39-30.41,22.68-30.41h.17c11.82,.28,20.35,10.32,21.72,25.58,.02,.19,.17,.33,.35,.33l15.1,.24c.11-.01,.18-.04,.25-.1,.07-.07,.11-.16,.11-.25l.4-25.86c.03-1.49,.63-2.89,1.7-3.93,1.08-1.04,2.5-1.61,3.98-1.57Zm4.86,5.67c.04-2.73-2.14-4.98-4.87-5.02-1.33-.04-2.57,.47-3.51,1.39-.95,.92-1.49,2.15-1.51,3.47l-.4,25.86c-.01,.26-.12,.52-.31,.7-.19,.19-.46,.27-.71,.29l-15.1-.24c-.51-.01-.94-.4-.98-.92-1.35-14.91-9.63-24.72-21.09-24.99h-.17c-12.9,0-21.74,11.93-22.02,29.77-.17,10.56,2.66,19.36,7.95,24.78,3.59,3.67,8.18,5.63,13.3,5.67,11.9,.28,20.52-9.78,21.99-25.65,.05-.52,.48-.92,1-.92h.01l14.98,.24c.27,0,.52,.11,.71,.3,.19,.2,.29,.45,.28,.72l-.62,40.1c-.05,2.72,2.14,4.97,4.86,5.02,1.34,.03,2.57-.48,3.52-1.4s1.48-2.15,1.5-3.47l1.19-75.7Z"/>
    <path class="cls-4" d="M413.52,105.49c2.73,.04,4.91,2.29,4.87,5.02l-1.19,75.7c-.02,1.32-.55,2.55-1.5,3.47s-2.18,1.43-3.52,1.4c-2.72-.05-4.91-2.3-4.86-5.02l.62-40.1c0-.27-.09-.52-.28-.72-.19-.19-.44-.3-.71-.3l-14.98-.24h-.01c-.52,0-.95,.4-1,.92-1.47,15.87-10.09,25.93-21.99,25.65-5.12-.04-9.71-2-13.3-5.67-5.29-5.42-8.12-14.22-7.95-24.78,.28-17.84,9.12-29.77,22.02-29.77h.17c11.46,.27,19.74,10.08,21.09,24.99,.04,.52,.47,.91,.98,.92l15.1,.24c.25-.02,.52-.1,.71-.29,.19-.18,.3-.44,.31-.7l.4-25.86c.02-1.32,.56-2.55,1.51-3.47,.94-.92,2.18-1.43,3.51-1.39Zm-31.65,35.86c.1-13.08-4.53-21.27-12.09-21.39-7.43-.12-12.36,8.13-12.56,21.01-.14,8.37,1.72,14.94,5.22,18.51,1.87,1.9,4.12,2.88,6.67,2.88,.1,0,.2,0,.3,0,2.49,0,4.71-.91,6.59-2.69,3.59-3.41,5.67-9.91,5.87-18.33Z"/>
    <path d="M369.78,119.96c7.56,.12,12.19,8.31,12.09,21.39-.2,8.42-2.28,14.92-5.87,18.33-1.88,1.78-4.1,2.69-6.59,2.69-.1,0-.2,0-.3,0-2.55,0-4.8-.98-6.67-2.88-3.5-3.57-5.36-10.14-5.22-18.51,.2-12.88,5.13-21.13,12.56-21.01Zm11.43,21.38c.11-12.67-4.28-20.62-11.44-20.73h-.15c-6.95,0-11.56,7.97-11.75,20.37-.13,8.2,1.66,14.6,5.03,18.04,1.75,1.78,3.84,2.69,6.22,2.69,.12,0,.23,.01,.35,.01,2.3,0,4.34-.86,6.08-2.51,3.46-3.29,5.48-9.63,5.66-17.87Z"/>
    <path d="M334.22,276.05c2.61,0,4.72,2.12,4.72,4.72s-2.11,4.71-4.72,4.71h-69.85c-2.61,0-4.72-2.11-4.72-4.71s2.11-4.72,4.72-4.72h69.85Zm4.07,4.72c0-2.24-1.82-4.07-4.07-4.07h-69.85c-2.25,0-4.07,1.83-4.07,4.07s1.82,4.06,4.07,4.06h69.85c2.25,0,4.07-1.82,4.07-4.06Z"/>
    <path class="cls-4" d="M334.22,276.7c2.25,0,4.07,1.83,4.07,4.07s-1.82,4.06-4.07,4.06h-69.85c-2.25,0-4.07-1.82-4.07-4.06s1.82-4.07,4.07-4.07h69.85Z"/>
    <path d="M335.03,112.16v76.11c0,2.92-2.38,5.3-5.3,5.3s-5.3-2.38-5.3-5.3V112.16c0-2.92,2.38-5.3,5.3-5.3s5.3,2.38,5.3,5.3Zm-.65,76.11V112.16c0-2.56-2.09-4.65-4.65-4.65s-4.65,2.09-4.65,4.65v76.11c0,2.56,2.08,4.65,4.65,4.65s4.65-2.09,4.65-4.65Z"/>
    <path class="cls-4" d="M334.38,112.16v76.11c0,2.56-2.09,4.65-4.65,4.65s-4.65-2.09-4.65-4.65V112.16c0-2.56,2.08-4.65,4.65-4.65s4.65,2.09,4.65,4.65Z"/>
    <path d="M332.15,257.07c.66-1.21,.74-2.64,.22-3.91-.52-1.28-1.58-2.25-2.9-2.66-14.76-4.6-25.42-16.61-25.33-28.57v-.78c0-2.94-2.39-5.33-5.33-5.33s-5.34,2.39-5.34,5.33v.78c-.08,11.92-10.73,23.93-25.32,28.57-1.29,.41-2.32,1.36-2.84,2.61-.51,1.25-.45,2.66,.18,3.86,1.01,1.94,3.26,2.9,5.35,2.27,11.34-3.4,21.44-11.39,27.02-21.37,.22-.38,.6-.61,1.03-.61h.01c.43,0,.82,.24,1.02,.62,5.43,10.09,15.49,18.09,26.92,21.41,2.05,.6,4.28-.34,5.31-2.22Zm.82-4.16c.59,1.46,.5,3.09-.25,4.47-.46,.85-1.15,1.54-1.96,2.01-.8,.47-1.72,.73-2.67,.73-.48,0-.96-.07-1.44-.2-11.58-3.37-21.79-11.5-27.3-21.73-.09-.17-.26-.28-.46-.28s-.36,.1-.46,.27c-5.66,10.13-15.91,18.24-27.4,21.68-2.39,.72-4.96-.37-6.12-2.59-.72-1.37-.79-2.98-.2-4.41s1.77-2.52,3.25-2.98c14.32-4.55,24.78-16.31,24.86-27.95v-.78c0-3.3,2.69-5.98,5.99-5.98s5.98,2.68,5.98,5.98v.78c-.09,11.68,10.38,23.43,24.87,27.94,1.51,.47,2.72,1.58,3.31,3.04Z"/>
    <path class="cls-4" d="M332.37,253.16c.52,1.27,.44,2.7-.22,3.91-1.03,1.88-3.26,2.82-5.31,2.22-11.43-3.32-21.49-11.32-26.92-21.41-.2-.38-.59-.61-1.02-.62h-.01c-.43,0-.81,.23-1.03,.61-5.58,9.98-15.68,17.97-27.02,21.37-2.09,.63-4.34-.33-5.35-2.27-.63-1.2-.69-2.61-.18-3.86,.52-1.25,1.55-2.2,2.84-2.61,14.59-4.64,25.24-16.65,25.32-28.57v-.78c0-2.94,2.4-5.33,5.34-5.33s5.33,2.39,5.33,5.33v.78c-.09,11.96,10.57,23.97,25.33,28.57,1.32,.41,2.38,1.38,2.9,2.66Z"/>
    <path d="M331.71,5.94V47.12c0,3.13-2.55,5.69-5.69,5.69s-5.69-2.56-5.69-5.69V5.94c0-3.14,2.55-5.69,5.69-5.69s5.69,2.55,5.69,5.69Zm-.65,41.18V5.94c0-2.78-2.26-5.04-5.04-5.04s-5.04,2.26-5.04,5.04V47.12c0,2.78,2.26,5.04,5.04,5.04s5.04-2.26,5.04-5.04Z"/>
    <path d="M328.17,60.76c2.61,2.6,3.93,5.72,3.93,9.28,0,10.59-11.5,16.92-30.76,16.92-12.93,0-22.39-2.66-27.38-7.7-2.54-2.56-3.81-5.66-3.78-9.22-.03-3.52,1.25-6.61,3.83-9.2,5.01-5.03,14.73-7.76,27.33-7.71,12.28-.06,21.82,2.65,26.83,7.63Zm3.28,9.28c0-3.38-1.26-6.35-3.74-8.82-4.89-4.86-14.24-7.5-26.37-7.44h-.44c-12.22,0-21.6,2.67-26.43,7.52-2.45,2.46-3.67,5.4-3.64,8.74-.03,3.38,1.18,6.33,3.59,8.76,4.79,4.84,14.35,7.51,26.92,7.51,18.86,0,30.11-6.08,30.11-16.27Z"/>
    <path class="cls-4" d="M331.06,5.94V47.12c0,2.78-2.26,5.04-5.04,5.04s-5.04-2.26-5.04-5.04V5.94c0-2.78,2.26-5.04,5.04-5.04s5.04,2.26,5.04,5.04Z"/>
    <path class="cls-4" d="M327.71,61.22c2.48,2.47,3.74,5.44,3.74,8.82,0,10.19-11.25,16.27-30.11,16.27-12.57,0-22.13-2.67-26.92-7.51-2.41-2.43-3.62-5.38-3.59-8.76-.03-3.34,1.19-6.28,3.64-8.74,4.83-4.85,14.21-7.52,26.43-7.52h.44c12.13-.06,21.48,2.58,26.37,7.44Zm-6.53,8.82c0-5.57-6.86-8.52-19.84-8.52s-20.23,2.95-20.23,8.52,6.99,8.43,20.22,8.53h0c12.79-.1,19.84-3.13,19.84-8.53Z"/>
    <path d="M318.05,113.72v70.45c0,2.92-2.38,5.3-5.3,5.3s-5.3-2.38-5.3-5.3v-12.38c0-.26-.21-.47-.46-.47h-9.75c-2.44,0-4.43-1.98-4.43-4.42s1.99-4.42,4.43-4.42h9.75c.25,0,.46-.21,.46-.47v-48.29c0-2.92,2.38-5.3,5.3-5.3s5.3,2.38,5.3,5.3Zm-.65,70.45V113.72c0-2.56-2.08-4.65-4.65-4.65s-4.65,2.09-4.65,4.65v48.29c0,.62-.5,1.12-1.11,1.12h-9.75c-2.08,0-3.77,1.69-3.77,3.77s1.69,3.77,3.77,3.77h9.75c.61,0,1.11,.5,1.11,1.12v12.38c0,2.56,2.09,4.65,4.65,4.65s4.65-2.09,4.65-4.65Z"/>
    <path class="cls-4" d="M317.4,113.72v70.45c0,2.56-2.08,4.65-4.65,4.65s-4.65-2.09-4.65-4.65v-12.38c0-.62-.5-1.12-1.11-1.12h-9.75c-2.08,0-3.77-1.69-3.77-3.77s1.69-3.77,3.77-3.77h9.75c.61,0,1.11-.5,1.11-1.12v-48.29c0-2.56,2.09-4.65,4.65-4.65s4.65,2.09,4.65,4.65Z"/>
    <path d="M301.34,61.52c12.98,0,19.84,2.95,19.84,8.52s-7.05,8.43-19.84,8.53h0c-13.23-.1-20.22-3.05-20.22-8.53s6.99-8.52,20.23-8.52Zm0,16.4c12.37-.1,19.19-2.9,19.19-7.88,0-6.5-10.44-7.87-19.19-7.87-12.81,0-19.58,2.73-19.58,7.87,0,6.72,12.26,7.82,19.58,7.88Z"/>
    <path d="M313.17,36.6c2.01,1.73,2.28,4.74,.61,6.85l-.05,.07c-.86,1.08-2.14,1.78-3.52,1.9-.15,.01-.3,.01-.45,.01-1.21,0-2.36-.43-3.27-1.25-3.43-3.06-6.11-7.24-7.97-12.43-1.17,3.39-3.15,6.55-4.97,9.24-1.7,2.5-4.18,3.94-6.81,3.94-1.32,0-2.6-.36-3.77-1.04s-2.23-1.68-3.08-2.94c-1.74-2.57-3.84-5.92-5.01-9.46-1.85,5.22-4.51,9.44-7.9,12.57-1.03,.94-2.37,1.39-3.76,1.27-1.41-.13-2.71-.84-3.57-1.97-1.57-2.06-1.29-5.04,.65-6.78,8.09-7.25,9.29-18.7,9.29-24.88v-1.08c0-2.92,2.38-5.3,5.31-5.3s5.3,2.38,5.3,5.3v1.08c0,6.78,1.04,16.28,5.99,23.07,.12,.16,.31,.26,.51,.26s.39-.1,.51-.26c4.96-6.81,6-16.3,6-23.07v-1.08c0-2.92,2.37-5.3,5.3-5.3s5.3,2.38,5.3,5.3v1.08c-.07,7.6,1.5,18.1,9.36,24.9Zm.1,6.44c1.45-1.83,1.22-4.44-.52-5.95-8.06-6.97-9.66-17.65-9.59-25.39v-1.08c0-2.56-2.09-4.65-4.65-4.65s-4.65,2.09-4.65,4.65v1.08c0,6.86-1.07,16.5-6.13,23.45-.24,.34-.62,.53-1.03,.53s-.79-.19-1.03-.53c-5.06-6.93-6.12-16.58-6.12-23.45v-1.08c0-2.56-2.09-4.65-4.65-4.65s-4.65,2.09-4.65,4.65v1.08c0,6.29-1.24,17.95-9.51,25.37-1.69,1.51-1.94,4.1-.57,5.9,.74,.98,1.88,1.6,3.11,1.71,1.21,.1,2.37-.29,3.26-1.1,3.51-3.24,6.22-7.7,8.05-13.25l.33-1.02,.29,1.03c1.06,3.81,3.34,7.48,5.22,10.25,1.59,2.35,3.89,3.69,6.31,3.69s4.7-1.33,6.27-3.66c1.96-2.89,4.11-6.34,5.19-9.99l.29-.99,.33,.98c1.83,5.51,4.56,9.91,8.1,13.08,.89,.79,2.04,1.17,3.23,1.07,1.2-.11,2.32-.71,3.07-1.65l.05-.08Z"/>
    <path class="cls-4" d="M312.75,37.09c1.74,1.51,1.97,4.12,.52,5.95l-.05,.08c-.75,.94-1.87,1.54-3.07,1.65-1.19,.1-2.34-.28-3.23-1.07-3.54-3.17-6.27-7.57-8.1-13.08l-.33-.98-.29,.99c-1.08,3.65-3.23,7.1-5.19,9.99-1.57,2.33-3.86,3.66-6.27,3.66s-4.72-1.34-6.31-3.69c-1.88-2.77-4.16-6.44-5.22-10.25l-.29-1.03-.33,1.02c-1.83,5.55-4.54,10.01-8.05,13.25-.89,.81-2.05,1.2-3.26,1.1-1.23-.11-2.37-.73-3.11-1.71-1.37-1.8-1.12-4.39,.57-5.9,8.27-7.42,9.51-19.08,9.51-25.37v-1.08c0-2.56,2.08-4.65,4.65-4.65s4.65,2.09,4.65,4.65v1.08c0,6.87,1.06,16.52,6.12,23.45,.24,.34,.62,.53,1.03,.53s.79-.19,1.03-.53c5.06-6.95,6.13-16.59,6.13-23.45v-1.08c0-2.56,2.08-4.65,4.65-4.65s4.65,2.09,4.65,4.65v1.08c-.07,7.74,1.53,18.42,9.59,25.39Z"/>
    <path d="M303.63,151.86c.01,.15,.02,.29,.02,.44,0,2.09-1.52,3.92-3.61,4.26-3.8,.61-8.05,1.11-12.98,1.53-.24,.02-.42,.22-.42,.46v22.89c0,2.92-2.38,5.3-5.31,5.3s-5.3-2.38-5.3-5.3v-22.21c0-.13-.05-.25-.14-.34-.09-.08-.21-.12-.34-.13-4.07,.13-8.15,.21-11.78,.25-2.35,0-4.35-1.69-4.71-3.99-.21-1.36,.18-2.73,1.07-3.78,.9-1.04,2.19-1.65,3.56-1.65,9.53-.04,23.52-.26,35.13-1.6,1.16-.14,2.31,.19,3.22,.92,.91,.74,1.48,1.78,1.59,2.95Zm-3.69,4.06c1.9-.31,3.24-2.06,3.04-4-.09-.99-.58-1.88-1.35-2.5s-1.75-.91-2.74-.79c-11.63,1.35-25.66,1.57-35.19,1.61-1.19,0-2.3,.52-3.07,1.42s-1.11,2.09-.92,3.26c.3,1.97,2.03,3.44,4.01,3.44h.04c3.63-.04,7.7-.12,11.77-.25h.04c.29,0,.56,.11,.77,.32,.22,.21,.34,.49,.34,.8v22.21c0,2.56,2.09,4.65,4.65,4.65s4.65-2.09,4.65-4.65v-22.89c0-.58,.44-1.06,1.02-1.11,4.92-.42,9.15-.91,12.94-1.52Z"/>
    <path class="cls-4" d="M302.98,151.92c.2,1.94-1.14,3.69-3.04,4-3.79,.61-8.02,1.1-12.94,1.52-.58,.05-1.02,.53-1.02,1.11v22.89c0,2.56-2.08,4.65-4.65,4.65s-4.65-2.09-4.65-4.65v-22.21c0-.31-.12-.59-.34-.8-.21-.21-.48-.32-.77-.32h-.04c-4.07,.13-8.14,.21-11.77,.25h-.04c-1.98,0-3.71-1.47-4.01-3.44-.19-1.17,.15-2.36,.92-3.26s1.88-1.42,3.07-1.42c9.53-.04,23.56-.26,35.19-1.61,.99-.12,1.97,.17,2.74,.79s1.26,1.51,1.35,2.5Z"/>
    <path d="M281.63,111.94c11.15,0,19.25,6.94,19.25,16.52s-8.1,16.52-19.25,16.52c-6.15,0-11.51-1.99-15.09-5.61-2.9-2.92-4.41-6.7-4.36-10.92-.05-4.18,1.47-7.95,4.38-10.88,3.59-3.64,8.94-5.63,15.07-5.63Zm0,32.39c10.95,0,18.6-6.53,18.6-15.87s-7.82-15.87-18.6-15.87c-5.95,0-11.14,1.93-14.61,5.43-2.78,2.82-4.23,6.42-4.19,10.43-.04,4.05,1.4,7.66,4.18,10.47,3.45,3.49,8.64,5.41,14.62,5.41Z"/>
    <path class="cls-4" d="M300.23,128.46c0,9.34-7.65,15.87-18.6,15.87-5.98,0-11.17-1.92-14.62-5.41-2.78-2.81-4.22-6.42-4.18-10.47-.04-4.01,1.41-7.61,4.19-10.43,3.47-3.5,8.66-5.43,14.61-5.43,10.78,0,18.6,6.67,18.6,15.87Zm-8.72,0c0-2.32-.81-4.36-2.36-5.87-1.79-1.77-4.45-2.7-7.52-2.65-.08,0-.17,0-.25,0-5.79,0-9.73,3.4-9.84,8.53,.1,5.19,4.06,8.61,10.08,8.71h.01c5.91-.1,9.88-3.6,9.88-8.71Z"/>
    <path d="M289.15,122.59c1.55,1.51,2.36,3.55,2.36,5.87,0,5.11-3.97,8.61-9.88,8.71h-.01c-6.02-.1-9.98-3.52-10.08-8.71,.11-5.13,4.05-8.53,9.84-8.53,.08,0,.17,0,.25,0,3.07-.05,5.73,.88,7.52,2.65Zm1.71,5.87c0-2.15-.75-4.02-2.16-5.41-1.67-1.64-4.19-2.5-7.07-2.46-.08,0-.16-.01-.24-.01-5.42,0-9.1,3.15-9.2,7.88,.1,4.8,3.8,7.97,9.44,8.06,5.61-.1,9.23-3.26,9.23-8.06Z"/>
    <path d="M248.97,285.25c2.54,0,4.61,2.07,4.61,4.62s-2.07,4.62-4.61,4.62h-58.1c-.64,0-1.16-.52-1.16-1.16v-19.37c0-3.14,2.55-5.69,5.69-5.69s5.69,2.55,5.69,5.69v10.78c0,.28,.23,.51,.51,.51h47.37Zm3.96,4.62c0-2.19-1.78-3.97-3.96-3.97h-47.37c-.64,0-1.16-.52-1.16-1.16v-10.78c0-2.78-2.26-5.04-5.04-5.04s-5.04,2.26-5.04,5.04v19.37c0,.28,.23,.5,.51,.5h58.1c2.18,0,3.96-1.78,3.96-3.96Z"/>
    <path d="M252.4,7.01V82.73c0,3.08-2.51,5.59-5.59,5.59s-5.6-2.51-5.6-5.59V7.01c0-3.08,2.51-5.59,5.6-5.59s5.59,2.51,5.59,5.59Zm-.65,75.72V7.01c0-2.72-2.22-4.94-4.94-4.94s-4.95,2.22-4.95,4.94V82.73c0,2.72,2.22,4.94,4.95,4.94s4.94-2.22,4.94-4.94Z"/>
    <path class="cls-4" d="M248.97,285.9c2.18,0,3.96,1.78,3.96,3.97s-1.78,3.96-3.96,3.96h-58.1c-.28,0-.51-.22-.51-.5v-19.37c0-2.78,2.26-5.04,5.04-5.04s5.04,2.26,5.04,5.04v10.78c0,.64,.52,1.16,1.16,1.16h47.37Z"/>
    <path class="cls-4" d="M251.75,7.01V82.73c0,2.72-2.22,4.94-4.94,4.94s-4.95-2.22-4.95-4.94V7.01c0-2.72,2.22-4.94,4.95-4.94s4.94,2.22,4.94,4.94Z"/>
    <path d="M251.63,215.23v54.25c0,3.13-2.55,5.69-5.69,5.69s-5.69-2.56-5.69-5.69v-1.63c0-.06-.04-.1-.1-.1h-12.65c-2.22,0-4.03-1.81-4.03-4.03s1.81-4.03,4.03-4.03h12.65c.06,0,.1-.05,.1-.1v-44.36c0-3.14,2.55-5.7,5.69-5.7s5.69,2.56,5.69,5.7Zm-.65,54.25v-54.25c0-2.78-2.26-5.04-5.04-5.04s-5.04,2.26-5.04,5.04v44.36c0,.41-.33,.75-.75,.75h-12.65c-1.86,0-3.38,1.51-3.38,3.38s1.52,3.38,3.38,3.38h12.65c.42,0,.75,.34,.75,.75v1.63c0,2.77,2.26,5.04,5.04,5.04s5.04-2.27,5.04-5.04Z"/>
    <path d="M251.59,109.49v75.71c0,3.09-2.51,5.6-5.59,5.6s-5.6-2.51-5.6-5.6V109.49c0-3.09,2.51-5.59,5.6-5.59s5.59,2.5,5.59,5.59Zm-.65,75.71V109.49c0-2.73-2.22-4.94-4.94-4.94s-4.95,2.21-4.95,4.94v75.71c0,2.73,2.22,4.95,4.95,4.95s4.94-2.22,4.94-4.95Z"/>
    <path class="cls-4" d="M250.98,215.23v54.25c0,2.77-2.26,5.04-5.04,5.04s-5.04-2.27-5.04-5.04v-1.63c0-.41-.33-.75-.75-.75h-12.65c-1.86,0-3.38-1.52-3.38-3.38s1.52-3.38,3.38-3.38h12.65c.42,0,.75-.34,.75-.75v-44.36c0-2.78,2.26-5.04,5.04-5.04s5.04,2.26,5.04,5.04Z"/>
    <path class="cls-4" d="M250.94,109.49v75.71c0,2.73-2.22,4.95-4.94,4.95s-4.95-2.22-4.95-4.95V109.49c0-2.73,2.22-4.94,4.95-4.94s4.94,2.21,4.94,4.94Z"/>
    <path d="M235.54,60.47c.28,2.49-1.42,4.72-3.89,5.09-12.76,1.93-24.34,2.38-38.9,2.47h-6.07c-1.03,0-1.86-.84-1.86-1.87v-31.45c0-1.03,.83-1.87,1.86-1.87h27.88c.67,0,1.22-.55,1.22-1.22v-12.13c0-.68-.55-1.22-1.22-1.22h-25.13c-2.54,0-4.61-2.07-4.61-4.62s2.07-4.62,4.61-4.62h34.76c1.03,0,1.86,.84,1.86,1.87v29.11c0,1.03-.83,1.87-1.86,1.87h-27.88c-.67,0-1.22,.55-1.22,1.22v14.26c0,.33,.13,.64,.37,.87,.23,.23,.55,.36,.87,.35,13.2-.14,23.99-.85,33.95-2.25,1.26-.18,2.5,.15,3.5,.93,.99,.76,1.61,1.87,1.75,3.12v.09Zm-3.98,4.45c2.12-.32,3.59-2.24,3.35-4.37v-.1c-.14-1.07-.67-2.02-1.52-2.68-.86-.66-1.93-.95-3.01-.8-9.99,1.4-20.81,2.12-34.04,2.26-.49,.02-.97-.18-1.33-.54-.36-.35-.56-.82-.56-1.33v-14.26c0-1.03,.84-1.87,1.87-1.87h27.88c.67,0,1.21-.55,1.21-1.22V10.9c0-.67-.54-1.22-1.21-1.22h-34.76c-2.18,0-3.96,1.78-3.96,3.97s1.78,3.97,3.96,3.97h25.13c1.03,0,1.87,.84,1.87,1.87v12.13c0,1.03-.84,1.87-1.87,1.87h-27.88c-.67,0-1.21,.54-1.21,1.22v31.45c0,.67,.54,1.22,1.21,1.22h6.07c14.53-.09,26.09-.54,38.8-2.46Z"/>
    <path class="cls-4" d="M234.9,60.55c.24,2.13-1.23,4.05-3.35,4.37-12.71,1.92-24.27,2.37-38.8,2.46h-6.07c-.67,0-1.21-.55-1.21-1.22v-31.45c0-.68,.54-1.22,1.21-1.22h27.88c1.03,0,1.87-.84,1.87-1.87v-12.13c0-1.03-.84-1.87-1.87-1.87h-25.13c-2.18,0-3.96-1.78-3.96-3.97s1.78-3.97,3.96-3.97h34.76c.67,0,1.21,.55,1.21,1.22v29.11c0,.67-.54,1.22-1.21,1.22h-27.88c-1.03,0-1.87,.84-1.87,1.87v14.26c0,.51,.2,.98,.56,1.33,.36,.36,.84,.56,1.33,.54,13.23-.14,24.05-.86,34.04-2.26,1.08-.15,2.15,.14,3.01,.8,.85,.66,1.38,1.61,1.51,2.68v.1Z"/>
    <path d="M234.77,249.96c.01,.11,.01,.22,.01,.32,0,2.07-1.53,3.88-3.61,4.17-5.38,.79-11.24,1.41-17.41,1.84-.21,.01-.37,.19-.37,.41v10.53c0,3.09-2.51,5.59-5.6,5.59s-5.59-2.5-5.59-5.59v-9.87c0-.11-.05-.22-.13-.3s-.18-.12-.3-.11c-6.52,.22-12.86,.26-18.21,.26h-.01c-2.25,0-4.18-1.68-4.49-3.91-.18-1.29,.2-2.6,1.06-3.59,.85-.99,2.09-1.56,3.39-1.57,14.52-.12,31.41-.45,46.61-2.05,1.15-.12,2.26,.22,3.15,.95,.88,.74,1.41,1.77,1.5,2.92Zm-3.69,3.85c1.85-.27,3.18-1.94,3.04-3.81-.07-.96-.52-1.84-1.27-2.46s-1.69-.9-2.66-.8c-15.23,1.6-32.14,1.93-46.67,2.05-1.12,.01-2.18,.5-2.91,1.35-.73,.84-1.06,1.96-.91,3.07,.27,1.91,1.92,3.35,3.85,3.35h.01c5.34,0,11.68-.04,18.19-.26h.04c.27,0,.53,.1,.74,.3,.2,.2,.32,.47,.32,.76v9.87c0,2.73,2.22,4.94,4.94,4.94s4.95-2.21,4.95-4.94v-10.53c0-.56,.43-1.02,.98-1.06,6.15-.43,11.99-1.05,17.36-1.83Z"/>
    <path d="M234.73,162.95c.28,2.48-1.42,4.72-3.89,5.09-12.76,1.93-24.34,2.37-38.9,2.46h-6.07c-1.03,0-1.86-.83-1.86-1.86v-31.46c0-1.03,.83-1.87,1.86-1.87h27.88c.67,0,1.22-.54,1.22-1.21v-12.14c0-.67-.55-1.22-1.22-1.22h-25.13c-2.54,0-4.61-2.07-4.61-4.62s2.07-4.61,4.61-4.61h34.76c1.03,0,1.86,.83,1.86,1.86v29.12c0,1.03-.83,1.86-1.86,1.86h-27.88c-.67,0-1.22,.55-1.22,1.22v14.27c0,.33,.13,.63,.37,.86,.23,.24,.55,.35,.87,.36,13.2-.14,23.99-.86,33.95-2.26,1.26-.17,2.5,.16,3.5,.93,.99,.77,1.61,1.88,1.75,3.12v.1Zm-3.98,4.45c2.12-.32,3.59-2.24,3.35-4.38v-.09c-.14-1.07-.67-2.03-1.52-2.69-.86-.66-1.93-.94-3.01-.79-9.99,1.4-20.81,2.12-34.04,2.26-.5-.01-.97-.19-1.33-.54-.36-.36-.56-.83-.56-1.33v-14.27c0-1.03,.84-1.87,1.87-1.87h27.88c.67,0,1.21-.54,1.21-1.21v-29.12c0-.67-.54-1.21-1.21-1.21h-34.76c-2.18,0-3.96,1.78-3.96,3.96s1.78,3.97,3.96,3.97h25.13c1.03,0,1.87,.84,1.87,1.87v12.14c0,1.03-.84,1.86-1.87,1.86h-27.88c-.67,0-1.21,.55-1.21,1.22v31.46c0,.67,.54,1.21,1.21,1.21h6.07c14.53-.09,26.09-.53,38.8-2.45Z"/>
    <path class="cls-4" d="M234.12,250c.14,1.87-1.19,3.54-3.04,3.81-5.37,.78-11.21,1.4-17.36,1.83-.55,.04-.98,.5-.98,1.06v10.53c0,2.73-2.22,4.94-4.95,4.94s-4.94-2.21-4.94-4.94v-9.87c0-.29-.12-.56-.32-.76-.21-.2-.47-.3-.74-.3h-.04c-6.51,.22-12.85,.26-18.19,.26h-.01c-1.93,0-3.58-1.44-3.85-3.35-.15-1.11,.18-2.23,.91-3.07,.73-.85,1.79-1.34,2.91-1.35,14.53-.12,31.44-.45,46.67-2.05,.97-.1,1.91,.18,2.66,.8s1.2,1.5,1.27,2.46Z"/>
    <path class="cls-4" d="M234.09,163.02c.24,2.14-1.23,4.06-3.35,4.38-12.71,1.92-24.27,2.36-38.8,2.45h-6.07c-.67,0-1.21-.54-1.21-1.21v-31.46c0-.67,.54-1.22,1.21-1.22h27.88c1.03,0,1.87-.83,1.87-1.86v-12.14c0-1.03-.84-1.87-1.87-1.87h-25.13c-2.18,0-3.96-1.78-3.96-3.97s1.78-3.96,3.96-3.96h34.76c.67,0,1.21,.54,1.21,1.21v29.12c0,.67-.54,1.21-1.21,1.21h-27.88c-1.03,0-1.87,.84-1.87,1.87v14.27c0,.5,.2,.97,.56,1.33,.36,.35,.83,.53,1.33,.54,13.23-.14,24.05-.86,34.04-2.26,1.08-.15,2.15,.13,3.01,.79,.85,.66,1.38,1.62,1.51,2.69v.09Z"/>
    <path d="M228.41,228.2c0,3.64-1.37,6.92-3.97,9.49-3.81,3.79-9.95,5.87-17.32,5.87h-.62c-12.88,0-21.57-6.15-21.67-15.35,.1-9.33,8.8-15.55,21.68-15.55h.6c7.29,0,13.41,2.09,17.25,5.9,2.65,2.63,4.05,5.96,4.05,9.64Zm-4.42,9.03c2.47-2.45,3.77-5.57,3.77-9.03s-1.33-6.67-3.85-9.17c-3.78-3.75-9.85-5.78-17.09-5.72h-.01c-12.69-.09-21.23,5.89-21.33,14.9,.1,8.88,8.68,14.77,21.33,14.69,7.32,.04,13.43-1.95,17.18-5.67Z"/>
    <path class="cls-4" d="M227.76,228.2c0,3.46-1.3,6.58-3.77,9.03-3.75,3.72-9.86,5.71-17.18,5.67-12.65,.08-21.23-5.81-21.33-14.69,.1-9.01,8.64-14.99,21.33-14.9h.01c7.24-.06,13.31,1.97,17.09,5.72,2.52,2.5,3.85,5.67,3.85,9.17Zm-20.94,7.74c7.08-.1,11.54-3.07,11.64-7.74-.1-4.73-4.78-7.85-11.64-7.74-4.39-.06-7.94,1.04-9.98,3.09-1.26,1.26-1.9,2.87-1.86,4.65-.04,1.74,.55,3.25,1.74,4.48,1.97,2.04,5.55,3.2,10.09,3.26h.01Z"/>
    <path d="M218.46,228.2c-.1,4.67-4.56,7.64-11.64,7.74h-.01c-4.54-.06-8.12-1.22-10.09-3.26-1.19-1.23-1.78-2.74-1.74-4.48-.04-1.78,.6-3.39,1.86-4.65,2.04-2.05,5.59-3.15,9.98-3.09,6.86-.11,11.54,3.01,11.64,7.74Zm-11.64,7.09c6.69-.1,10.9-2.82,10.99-7.09-.09-4.33-4.52-7.2-10.99-7.09h-.34c-4.07,0-7.32,1.02-9.18,2.9-1.14,1.15-1.71,2.56-1.67,4.19-.03,1.57,.49,2.93,1.56,4.03,1.84,1.91,5.26,3,9.63,3.06Z"/>
    <path d="M175.13,169.95c2.55,0,4.62,2.07,4.62,4.62s-2.07,4.62-4.62,4.62H105.08c-2.55,0-4.62-2.08-4.62-4.62s2.07-4.62,4.62-4.62h70.05Zm3.97,4.62c0-2.19-1.78-3.97-3.97-3.97H105.08c-2.19,0-3.97,1.78-3.97,3.97s1.78,3.97,3.97,3.97h70.05c2.19,0,3.97-1.78,3.97-3.97Z"/>
    <path class="cls-4" d="M175.13,170.6c2.19,0,3.97,1.78,3.97,3.97s-1.78,3.97-3.97,3.97H105.08c-2.19,0-3.97-1.78-3.97-3.97s1.78-3.97,3.97-3.97h70.05Z"/>
    <path d="M173.64,66.56c2.55,0,4.62,2.07,4.62,4.62s-2.07,4.61-4.62,4.61H103.59c-2.55,0-4.62-2.07-4.62-4.61s2.07-4.62,4.62-4.62h70.05Zm3.97,4.62c0-2.19-1.78-3.97-3.97-3.97H103.59c-2.19,0-3.97,1.78-3.97,3.97s1.78,3.96,3.97,3.96h70.05c2.19,0,3.97-1.78,3.97-3.96Z"/>
    <path class="cls-4" d="M173.64,67.21c2.19,0,3.97,1.78,3.97,3.97s-1.78,3.96-3.97,3.96H103.59c-2.19,0-3.97-1.78-3.97-3.96s1.78-3.97,3.97-3.97h70.05Z"/>
    <path d="M173.2,288.69c.62,1.26,.64,2.72,.06,4-.78,1.72-2.47,2.78-4.29,2.78-.32,0-.63-.03-.95-.09-11.24-2.25-20.74-8.1-26.05-16.05-.06-.09-.16-.15-.26-.15-.11,0-.21,.06-.27,.15-5.4,7.97-14.89,13.82-26.04,16.05-2.18,.43-4.33-.67-5.24-2.69-.58-1.28-.56-2.74,.06-4,.63-1.29,1.79-2.21,3.19-2.54,13.49-3.2,22.62-11.3,22.71-20.16v-.08c0-3.09,2.51-5.6,5.59-5.6,1.49,0,2.89,.59,3.95,1.65,1.06,1.05,1.64,2.46,1.64,3.95v.08c0,8.84,9.13,16.95,22.71,20.16,1.39,.33,2.56,1.26,3.19,2.54Zm-.53,3.74c.5-1.11,.48-2.37-.06-3.46-.54-1.1-1.55-1.9-2.75-2.19-13.88-3.28-23.21-11.64-23.21-20.79v-.08c0-1.32-.51-2.56-1.45-3.49-.94-.94-2.18-1.46-3.49-1.46-2.73,0-4.94,2.22-4.94,4.95v.08c-.09,9.17-9.42,17.52-23.21,20.79-1.21,.29-2.21,1.09-2.75,2.19-.54,1.09-.56,2.35-.06,3.45,.79,1.74,2.65,2.69,4.52,2.32,10.98-2.2,20.32-7.95,25.63-15.78,.18-.27,.48-.43,.81-.43s.62,.17,.8,.44c5.22,7.81,14.56,13.56,25.64,15.77,1.88,.37,3.73-.58,4.52-2.31Z"/>
    <path class="cls-4" d="M172.61,288.97c.54,1.09,.56,2.35,.06,3.46-.79,1.73-2.64,2.68-4.52,2.31-11.08-2.21-20.42-7.96-25.64-15.77-.18-.27-.48-.44-.8-.44s-.63,.16-.81,.43c-5.31,7.83-14.65,13.58-25.63,15.78-1.87,.37-3.73-.58-4.52-2.32-.5-1.1-.48-2.36,.06-3.45,.54-1.1,1.54-1.9,2.75-2.19,13.79-3.27,23.12-11.62,23.21-20.79v-.08c0-2.73,2.21-4.95,4.94-4.95,1.31,0,2.55,.52,3.49,1.46,.94,.93,1.45,2.17,1.45,3.49v.08c0,9.15,9.33,17.51,23.21,20.79,1.2,.29,2.21,1.09,2.75,2.19Z"/>
    <path d="M171.5,213.75v46.45c0,2.87-2.33,5.2-5.2,5.2h-.2c-2.87,0-5.2-2.33-5.2-5.2v-20.88c0-.47-.38-.85-.85-.85h-6.44c-.46,0-.84,.38-.84,.85v13.66c0,2.87-2.34,5.2-5.21,5.2s-5.2-2.33-5.2-5.2v-37.66c0-2.87,2.33-5.21,5.2-5.21s5.21,2.34,5.21,5.21v12.88c0,.46,.38,.84,.84,.84h6.44c.47,0,.85-.38,.85-.84v-14.45c0-2.86,2.33-5.2,5.2-5.2h.2c2.87,0,5.2,2.34,5.2,5.2Zm-.65,46.45v-46.45c0-2.51-2.04-4.55-4.55-4.55h-.2c-2.51,0-4.55,2.04-4.55,4.55v14.45c0,.82-.67,1.49-1.5,1.49h-6.44c-.82,0-1.49-.67-1.49-1.49v-12.88c0-2.51-2.05-4.56-4.56-4.56s-4.55,2.05-4.55,4.56v37.66c0,2.51,2.04,4.55,4.55,4.55s4.56-2.04,4.56-4.55v-13.66c0-.83,.67-1.5,1.49-1.5h6.44c.83,0,1.5,.67,1.5,1.5v20.88c0,2.51,2.04,4.55,4.55,4.55h.2c2.51,0,4.55-2.04,4.55-4.55Z"/>
    <path class="cls-4" d="M170.85,213.75v46.45c0,2.51-2.04,4.55-4.55,4.55h-.2c-2.51,0-4.55-2.04-4.55-4.55v-20.88c0-.83-.67-1.5-1.5-1.5h-6.44c-.82,0-1.49,.67-1.49,1.5v13.66c0,2.51-2.05,4.55-4.56,4.55s-4.55-2.04-4.55-4.55v-37.66c0-2.51,2.04-4.56,4.55-4.56s4.56,2.05,4.56,4.56v12.88c0,.82,.67,1.49,1.49,1.49h6.44c.83,0,1.5-.67,1.5-1.49v-14.45c0-2.51,2.04-4.55,4.55-4.55h.2c2.51,0,4.55,2.04,4.55,4.55Z"/>
    <path d="M170.78,114.66v38.69c0,1.01-.83,1.83-1.84,1.83h-58.06c-1.01,0-1.83-.82-1.83-1.83v-38.69c0-3.08,2.51-5.59,5.59-5.59s5.59,2.51,5.59,5.59v8.06c0,.65,.53,1.18,1.18,1.18h37c.65,0,1.18-.53,1.18-1.18v-8.06c0-3.08,2.51-5.59,5.59-5.59s5.6,2.51,5.6,5.59Zm-.66,38.69v-38.69c0-2.73-2.21-4.94-4.94-4.94s-4.94,2.21-4.94,4.94v8.06c0,1.01-.82,1.83-1.83,1.83h-37c-1.01,0-1.83-.82-1.83-1.83v-8.06c0-2.73-2.21-4.94-4.94-4.94s-4.94,2.21-4.94,4.94v38.69c0,.65,.53,1.18,1.18,1.18h58.06c.65,0,1.18-.53,1.18-1.18Z"/>
    <path class="cls-4" d="M170.12,114.66v38.69c0,.65-.53,1.18-1.18,1.18h-58.06c-.65,0-1.18-.53-1.18-1.18v-38.69c0-2.73,2.21-4.94,4.94-4.94s4.94,2.21,4.94,4.94v8.06c0,1.01,.82,1.83,1.83,1.83h37c1.01,0,1.83-.82,1.83-1.83v-8.06c0-2.73,2.22-4.94,4.94-4.94s4.94,2.21,4.94,4.94Zm-9.88,30.18v-10.79c0-1.08-.88-1.96-1.96-1.96h-36.74c-1.08,0-1.96,.88-1.96,1.96v10.79c0,1.08,.88,1.95,1.96,1.95h36.74c1.08,0,1.96-.87,1.96-1.95Z"/>
    <path d="M169.29,11.27V49.96c0,1.01-.83,1.83-1.84,1.83h-58.06c-1.01,0-1.83-.82-1.83-1.83V11.27c0-3.09,2.51-5.6,5.59-5.6s5.59,2.51,5.59,5.6v8.05c0,.65,.53,1.18,1.18,1.18h37c.65,0,1.18-.53,1.18-1.18V11.27c0-3.09,2.51-5.6,5.59-5.6s5.6,2.51,5.6,5.6Zm-.66,38.69V11.27c0-2.73-2.21-4.95-4.94-4.95s-4.94,2.22-4.94,4.95v8.05c0,1.01-.82,1.83-1.83,1.83h-37c-1.01,0-1.83-.82-1.83-1.83V11.27c0-2.73-2.21-4.95-4.94-4.95s-4.94,2.22-4.94,4.95V49.96c0,.65,.53,1.18,1.18,1.18h58.06c.65,0,1.18-.53,1.18-1.18Z"/>
    <path class="cls-4" d="M168.63,11.27V49.96c0,.65-.53,1.18-1.18,1.18h-58.06c-.65,0-1.18-.53-1.18-1.18V11.27c0-2.73,2.21-4.95,4.94-4.95s4.94,2.22,4.94,4.95v8.05c0,1.01,.82,1.83,1.83,1.83h37c1.01,0,1.83-.82,1.83-1.83V11.27c0-2.73,2.22-4.95,4.94-4.95s4.94,2.22,4.94,4.95Zm-9.88,30.18v-10.8c0-1.07-.88-1.95-1.96-1.95h-36.74c-1.08,0-1.96,.88-1.96,1.95v10.8c0,1.07,.88,1.95,1.96,1.95h36.74c1.08,0,1.96-.88,1.96-1.95Z"/>
    <path d="M160.24,134.05v10.79c0,1.08-.88,1.95-1.96,1.95h-36.74c-1.08,0-1.96-.87-1.96-1.95v-10.79c0-1.08,.88-1.96,1.96-1.96h36.74c1.08,0,1.96,.88,1.96,1.96Zm-.65,10.79v-10.79c0-.72-.59-1.31-1.31-1.31h-36.74c-.72,0-1.31,.59-1.31,1.31v10.79c0,.72,.59,1.3,1.31,1.3h36.74c.72,0,1.31-.58,1.31-1.3Z"/>
    <path d="M158.75,30.65v10.8c0,1.07-.88,1.95-1.96,1.95h-36.74c-1.08,0-1.96-.88-1.96-1.95v-10.8c0-1.07,.88-1.95,1.96-1.95h36.74c1.08,0,1.96,.88,1.96,1.95Zm-.65,10.8v-10.8c0-.71-.59-1.3-1.31-1.3h-36.74c-.72,0-1.31,.59-1.31,1.3v10.8c0,.71,.59,1.3,1.31,1.3h36.74c.72,0,1.31-.59,1.31-1.3Z"/>
    <path d="M137.94,235.22c.05,6.2-2.07,11.76-5.96,15.65-3.59,3.59-8.52,5.56-13.89,5.56h-.38c-5.42,0-10.35-1.96-13.92-5.52-3.87-3.87-5.97-9.44-5.92-15.69-.05-6.08,2.01-11.54,5.8-15.36,3.62-3.64,8.67-5.65,14.23-5.65s10.56,2.02,14.2,5.69c3.81,3.85,5.89,9.29,5.84,15.32Zm-6.42,15.19c3.77-3.76,5.81-9.16,5.77-15.19,.04-5.86-1.96-11.14-5.65-14.86-3.52-3.55-8.4-5.5-13.74-5.5s-10.27,1.94-13.77,5.46c-3.66,3.7-5.66,8.99-5.61,14.9-.05,6.08,1.99,11.49,5.73,15.23,3.48,3.48,8.35,5.38,13.65,5.32,5.27,.04,10.11-1.86,13.62-5.36Z"/>
    <path class="cls-4" d="M137.29,235.22c.04,6.03-2,11.43-5.77,15.19-3.51,3.5-8.35,5.4-13.62,5.36-5.3,.06-10.17-1.84-13.65-5.32-3.74-3.74-5.78-9.15-5.73-15.23-.05-5.91,1.95-11.2,5.61-14.9,3.5-3.52,8.39-5.46,13.77-5.46s10.22,1.95,13.74,5.5c3.69,3.72,5.69,9,5.65,14.86Zm-8.91,0c0-3.81-1.23-7.11-3.45-9.29-1.87-1.84-4.32-2.8-7.02-2.74-2.85-.06-5.35,.92-7.25,2.79-2.21,2.17-3.43,5.45-3.43,9.24,0,7.43,4.29,12.42,10.67,12.42s10.48-5.1,10.48-12.42Z"/>
    <path d="M124.93,225.93c2.22,2.18,3.45,5.48,3.45,9.29,0,7.32-4.31,12.42-10.48,12.42s-10.67-4.99-10.67-12.42c0-3.79,1.22-7.07,3.43-9.24,1.9-1.87,4.4-2.85,7.25-2.79,2.7-.06,5.15,.9,7.02,2.74Zm2.79,9.29c0-3.63-1.15-6.77-3.25-8.83-1.74-1.71-4.01-2.6-6.56-2.55h-.18c-2.6,0-4.88,.89-6.61,2.6-2.09,2.05-3.23,5.17-3.23,8.78,0,7.04,4.02,11.77,10.01,11.77s9.82-4.84,9.82-11.77Z"/>
    <path d="M96.43,253.56v.39c0,2.39-1.94,4.33-4.33,4.33H21.66c-2.39,0-4.33-1.94-4.33-4.33v-.39c0-2.38,1.94-4.32,4.33-4.32h28.89c.29,0,.54-.25,.54-.55v-3.88c0-.28-.23-.52-.51-.54-16.19-1.12-25.15-6.45-25.25-15,.1-9.61,11.6-15.05,31.55-14.96,13.45-.06,23.09,2.39,27.84,7.12,2.2,2.19,3.32,4.83,3.32,7.84,0,8.65-8.97,13.98-25.25,15.01-.29,.02-.51,.25-.51,.54v3.87c0,.3,.24,.55,.54,.55h29.28c2.39,0,4.33,1.94,4.33,4.32Zm-.65,.39v-.39c0-2.02-1.65-3.67-3.68-3.67h-29.28c-.66,0-1.19-.54-1.19-1.2v-3.87c0-.63,.49-1.15,1.12-1.19,15.89-1,24.64-6.1,24.64-14.36,0-2.83-1.05-5.32-3.12-7.38-4.63-4.6-14.1-6.99-27.39-6.93h-.53c-19.22,0-30.27,5.2-30.37,14.31,.09,8.16,8.84,13.26,24.64,14.35,.63,.05,1.12,.57,1.12,1.19v3.88c0,.66-.54,1.2-1.19,1.2H21.66c-2.03,0-3.68,1.65-3.68,3.67v.39c0,2.03,1.65,3.68,3.68,3.68H92.1c2.03,0,3.68-1.65,3.68-3.68Z"/>
    <path class="cls-4" d="M95.78,253.56v.39c0,2.03-1.65,3.68-3.68,3.68H21.66c-2.03,0-3.68-1.65-3.68-3.68v-.39c0-2.02,1.65-3.67,3.68-3.67h28.89c.65,0,1.19-.54,1.19-1.2v-3.88c0-.62-.49-1.14-1.12-1.19-15.8-1.09-24.55-6.19-24.64-14.35,.1-9.11,11.15-14.31,30.37-14.31h.53c13.29-.06,22.76,2.33,27.39,6.93,2.07,2.06,3.12,4.55,3.12,7.38,0,8.26-8.75,13.36-24.64,14.36-.63,.04-1.12,.56-1.12,1.19v3.87c0,.66,.53,1.2,1.19,1.2h29.28c2.03,0,3.68,1.65,3.68,3.67Zm-20.05-20.88c.94-.96,1.4-2.11,1.38-3.41,.02-1.17-.41-2.23-1.3-3.14-2.61-2.67-8.98-4.02-18.93-4.02-13.36,0-20.43,2.48-20.43,7.16,0,4.94,6.68,7.35,20.43,7.35,10.09,0,16.25-1.29,18.85-3.94Z"/>
    <path d="M89.35,109.39v75.91c0,2.98-2.42,5.4-5.4,5.4s-5.4-2.42-5.4-5.4V109.39c0-2.97,2.42-5.4,5.4-5.4s5.4,2.43,5.4,5.4Zm-.65,75.91V109.39c0-2.62-2.13-4.75-4.75-4.75s-4.75,2.13-4.75,4.75v75.91c0,2.62,2.13,4.75,4.75,4.75s4.75-2.13,4.75-4.75Z"/>
    <path d="M89.01,294.93v.2c0,2.38-1.94,4.32-4.32,4.32H27.7c-.66,0-1.2-.53-1.2-1.19v-20.32c0-.65,.54-1.19,1.2-1.19h47.24c.3,0,.54-.24,.54-.54v-3.92c0-.3-.24-.55-.54-.55H30.83c-2.39,0-4.33-1.94-4.33-4.32s1.94-4.33,4.33-4.33h54.65c.65,0,1.19,.54,1.19,1.19v19.34c0,.66-.54,1.2-1.19,1.2H38.23c-.3,0-.54,.24-.54,.54v4.7c0,.3,.24,.55,.54,.55h46.46c2.38,0,4.32,1.94,4.32,4.32Zm-.65,.2v-.2c0-2.03-1.65-3.67-3.67-3.67H38.23c-.66,0-1.19-.54-1.19-1.2v-4.7c0-.66,.53-1.19,1.19-1.19h47.25c.3,0,.54-.25,.54-.55v-19.34c0-.29-.24-.54-.54-.54H30.83c-2.03,0-3.68,1.65-3.68,3.68s1.65,3.67,3.68,3.67h44.11c.66,0,1.19,.54,1.19,1.2v3.92c0,.66-.53,1.19-1.19,1.19H27.7c-.3,0-.55,.25-.55,.54v20.32c0,.3,.25,.54,.55,.54h56.99c2.02,0,3.67-1.65,3.67-3.67Z"/>
    <path class="cls-4" d="M88.7,109.39v75.91c0,2.62-2.13,4.75-4.75,4.75s-4.75-2.13-4.75-4.75V109.39c0-2.62,2.13-4.75,4.75-4.75s4.75,2.13,4.75,4.75Z"/>
    <path d="M88.41,6.92V82.83c0,2.97-2.42,5.4-5.4,5.4s-5.4-2.43-5.4-5.4V6.92c0-2.98,2.42-5.4,5.4-5.4s5.4,2.42,5.4,5.4Zm-.65,75.91V6.92c0-2.62-2.13-4.75-4.75-4.75s-4.75,2.13-4.75,4.75V82.83c0,2.61,2.13,4.74,4.75,4.74s4.75-2.13,4.75-4.74Z"/>
    <path class="cls-4" d="M88.36,294.93v.2c0,2.02-1.65,3.67-3.67,3.67H27.7c-.3,0-.55-.24-.55-.54v-20.32c0-.29,.25-.54,.55-.54h47.24c.66,0,1.19-.53,1.19-1.19v-3.92c0-.66-.53-1.2-1.19-1.2H30.83c-2.03,0-3.68-1.65-3.68-3.67s1.65-3.68,3.68-3.68h54.65c.3,0,.54,.25,.54,.54v19.34c0,.3-.24,.55-.54,.55H38.23c-.66,0-1.19,.53-1.19,1.19v4.7c0,.66,.53,1.2,1.19,1.2h46.46c2.02,0,3.67,1.64,3.67,3.67Z"/>
    <path class="cls-4" d="M87.76,6.92V82.83c0,2.61-2.13,4.74-4.75,4.74s-4.75-2.13-4.75-4.74V6.92c0-2.62,2.13-4.75,4.75-4.75s4.75,2.13,4.75,4.75Z"/>
    <path d="M77.11,229.27c.02,1.3-.44,2.45-1.38,3.41-2.6,2.65-8.76,3.94-18.85,3.94-13.75,0-20.43-2.41-20.43-7.35,0-4.68,7.07-7.16,20.43-7.16,9.95,0,16.32,1.35,18.93,4.02,.89,.91,1.32,1.97,1.3,3.14Zm-1.85,2.96c.83-.85,1.22-1.81,1.2-2.96,.02-1.01-.35-1.91-1.12-2.68-2.44-2.51-8.83-3.83-18.46-3.83-12.75,0-19.78,2.31-19.78,6.51,0,4.44,6.66,6.7,19.78,6.7,9.77,0,15.95-1.26,18.38-3.74Z"/>
    <path d="M71.79,110.95v70.25c0,2.98-2.42,5.4-5.4,5.4s-5.4-2.42-5.4-5.4v-34.87c0-.39-.32-.71-.71-.71h-5.92c-.57,0-1.06,.46-1.1,1.04-1.2,16.33-8.33,26.09-19.07,26.09-11.46,0-18.86-12.23-18.86-31.16,0-11.9,2.89-21.32,8.15-26.53,2.97-2.94,6.52-4.43,10.57-4.43h.3c10.26,0,17.27,9.16,18.77,24.56,.07,.68,.64,1.2,1.33,1.2h5.54c.55,0,1-.45,1-1v-24.44c0-2.97,2.42-5.4,5.4-5.4s5.4,2.43,5.4,5.4Zm-.65,70.25V110.95c0-2.62-2.13-4.75-4.75-4.75s-4.75,2.13-4.75,4.75v24.44c0,.91-.74,1.65-1.65,1.65h-5.54c-1.03,0-1.88-.77-1.98-1.78-1.46-15.03-8.24-23.98-18.12-23.98h-.3c-3.87,0-7.27,1.42-10.11,4.24-5.13,5.09-7.96,14.35-7.96,26.07,0,18.53,7.15,30.51,18.21,30.51,10.36,0,17.25-9.53,18.42-25.49,.07-.92,.84-1.64,1.75-1.64h5.92c.75,0,1.36,.61,1.36,1.36v34.87c0,2.62,2.13,4.75,4.75,4.75s4.75-2.13,4.75-4.75Z"/>
    <path class="cls-4" d="M71.14,110.95v70.25c0,2.62-2.13,4.75-4.75,4.75s-4.75-2.13-4.75-4.75v-34.87c0-.75-.61-1.36-1.36-1.36h-5.92c-.91,0-1.68,.72-1.75,1.64-1.17,15.96-8.06,25.49-18.42,25.49-11.06,0-18.21-11.98-18.21-30.51,0-11.72,2.83-20.98,7.96-26.07,2.84-2.82,6.24-4.24,10.11-4.24h.3c9.88,0,16.66,8.95,18.12,23.98,.1,1.01,.95,1.78,1.98,1.78h5.54c.91,0,1.65-.74,1.65-1.65v-24.44c0-2.62,2.13-4.75,4.75-4.75s4.75,2.13,4.75,4.75Zm-27.45,30.64c0-9.4-1.66-15.99-4.79-19.07-1.34-1.32-2.94-1.97-4.7-1.94-1.66-.03-3.13,.58-4.39,1.82-3.09,3.03-4.73,9.67-4.73,19.19,0,13.35,3.32,21.01,9.11,21.01,6.12,0,9.5-7.46,9.5-21.01Z"/>
    <path d="M70.85,8.48V78.73c0,2.97-2.42,5.4-5.4,5.4s-5.4-2.43-5.4-5.4V43.85c0-.38-.32-.7-.71-.7h-5.92c-.57,0-1.06,.45-1.1,1.04-1.2,16.33-8.33,26.08-19.07,26.08-11.46,0-18.86-12.23-18.86-31.16,0-11.89,2.89-21.31,8.15-26.53,3-2.97,6.58-4.48,10.71-4.43h.16c10.26,0,17.27,9.17,18.77,24.57,.07,.68,.64,1.19,1.33,1.19h5.54c.55,0,1-.45,1-1V8.48c0-2.98,2.42-5.4,5.4-5.4s5.4,2.42,5.4,5.4Zm-.65,70.25V8.48c0-2.62-2.13-4.75-4.75-4.75s-4.75,2.13-4.75,4.75v24.43c0,.91-.74,1.65-1.65,1.65h-5.54c-1.03,0-1.88-.76-1.98-1.78-1.47-15.1-8.34-24.06-18.28-23.98h-.12c-3.86,0-7.28,1.43-10.13,4.24-5.13,5.1-7.96,14.35-7.96,26.07,0,18.54,7.15,30.51,18.21,30.51,10.36,0,17.25-9.52,18.42-25.48,.07-.92,.84-1.64,1.75-1.64h5.92c.75,0,1.36,.61,1.36,1.35v34.88c0,2.62,2.13,4.75,4.75,4.75s4.75-2.13,4.75-4.75Z"/>
    <path class="cls-4" d="M70.2,8.48V78.73c0,2.62-2.13,4.75-4.75,4.75s-4.75-2.13-4.75-4.75V43.85c0-.74-.61-1.35-1.36-1.35h-5.92c-.91,0-1.68,.72-1.75,1.64-1.17,15.96-8.06,25.48-18.42,25.48-11.06,0-18.21-11.97-18.21-30.51,0-11.72,2.83-20.97,7.96-26.07,2.85-2.81,6.27-4.24,10.13-4.24h.12c9.94-.08,16.81,8.88,18.28,23.98,.1,1.02,.95,1.78,1.98,1.78h5.54c.91,0,1.65-.74,1.65-1.65V8.48c0-2.62,2.13-4.75,4.75-4.75s4.75,2.13,4.75,4.75Zm-27.45,30.63c0-9.39-1.66-15.99-4.79-19.07-1.34-1.31-2.94-1.96-4.7-1.93-1.65-.03-3.13,.58-4.39,1.81-3.09,3.04-4.73,9.68-4.73,19.19,0,13.36,3.32,21.01,9.11,21.01,3.55,0,9.5-2.72,9.5-21.01Z"/>
    <path d="M38.9,122.52c3.13,3.08,4.79,9.67,4.79,19.07,0,13.55-3.38,21.01-9.5,21.01-5.79,0-9.11-7.66-9.11-21.01,0-9.52,1.64-16.16,4.73-19.19,1.26-1.24,2.73-1.85,4.39-1.82,1.76-.03,3.36,.62,4.7,1.94Zm4.14,19.07c0-9.22-1.59-15.66-4.59-18.61-1.21-1.19-2.64-1.77-4.25-1.75h-.11c-1.44,0-2.72,.55-3.82,1.63-2.97,2.91-4.54,9.39-4.54,18.73,0,12.94,3.09,20.36,8.46,20.36s8.85-7.42,8.85-20.36Z"/>
    <path d="M37.96,20.04c3.13,3.08,4.79,9.68,4.79,19.07,0,18.29-5.95,21.01-9.5,21.01-5.79,0-9.11-7.65-9.11-21.01,0-9.51,1.64-16.15,4.73-19.19,1.26-1.23,2.74-1.84,4.39-1.81,1.76-.03,3.36,.62,4.7,1.93Zm4.14,19.07c0-9.22-1.59-15.65-4.59-18.6-1.21-1.19-2.63-1.78-4.25-1.75-.04,0-.07-.01-.11-.01-1.44,0-2.72,.55-3.82,1.64-2.97,2.91-4.54,9.38-4.54,18.72,0,12.94,3.09,20.36,8.46,20.36s8.85-7.42,8.85-20.36Z"/>
  </g>
  <path d="M413.34,127.15c1.29,2.55,.26,5.67-2.29,6.96-.95,.46-1.96,.64-2.94,.5l.28-17.26,4.96,9.8Z"/>
  <path d="M16.47,152.5l-.62,.24c-.65-3.41-1-7.18-1-11.26,0-2.89,.17-5.65,.52-8.23l.67-.14c-.36,2.62-.53,5.42-.53,8.37,0,4,.33,7.68,.96,11.02Z"/>
  <path d="M16.24,53.13l-.6,.12c-1.12-4.17-1.72-9.01-1.72-14.38,0-1.91,.07-3.74,.24-5.51l.64-.1c-.15,1.81-.24,3.67-.24,5.61,0,5.34,.59,10.14,1.69,14.26Z"/>
  <path d="M15.85,152.74l-8.71,3.53c-.64,.26-1.29,.38-1.93,.38-2.05,0-4.01-1.22-4.82-3.24-1.07-2.63,.22-5.67,2.86-6.73l9.09-3.69c-1.19-.72-2.08-1.93-2.38-3.41-.57-2.79,1.27-5.53,4.06-6.08l1.34-.26c-.34,2.58-.52,5.34-.52,8.23,0,4.08,.34,7.85,1,11.26Z"/>
  <path d="M15.64,53.25l-.9,.17c-2.79,.57-5.53-1.26-6.1-4.05-.52-2.62,1.05-5.2,3.55-5.98-1.67-.65-2.94-2.17-3.22-4.08-.4-2.81,1.58-5.44,4.41-5.86l.77-.1c-.17,1.77-.24,3.6-.24,5.51,0,5.37,.6,10.21,1.72,14.38Z"/>
  <g>
    <g>
      <rect class="cls-5" x="7.76" y="40.14" width="41.73" height="10.41" rx="5.21" ry="5.21" transform="translate(-8.36 6.51) rotate(-11.34)"/>
      <rect class="cls-1" x="8.21" y="30.12" width="57.33" height="10.41" rx="5.21" ry="5.21" transform="translate(-4.59 5.52) rotate(-8.06)"/>
      <rect class="cls-2" x="54.74" y="43.58" width="43.64" height="10.41" rx="5.21" ry="5.21" transform="translate(2.41 -3.59) rotate(2.73)"/>
      <rect class="cls-3" x="34.22" y="31.67" width="46.48" height="10.41" rx="5.21" ry="5.21"/>
    </g>
    <g>
      <rect class="cls-5" x="91.18" y="34.81" width="31.71" height="10.49" rx="5.25" ry="5.25" transform="translate(20.31 -34.38) rotate(20.12)"/>
      <rect class="cls-1" x="96.48" y="22.36" width="39.06" height="10.49" rx="5.25" ry="5.25" transform="translate(22.05 -45.83) rotate(24.62)"/>
      <rect class="cls-2" x="137.48" y="34.33" width="38.02" height="10.49" rx="5.25" ry="5.25" transform="translate(58.45 -88.66) rotate(38.41)"/>
      <rect class="cls-3" x="117.6" y="22.36" width="39.76" height="10.49" rx="5.25" ry="5.25" transform="translate(36.43 -69.61) rotate(32.54)"/>
    </g>
    <rect class="cls-3" x="219.76" y="51.7" width="18.42" height="10.33" rx="5.17" ry="5.17" transform="translate(-6.92 61.06) rotate(-14.97)"/>
    <g>
      <rect class="cls-5" x="249.2" y="31.65" width="20.35" height="10.39" rx="5.19" ry="5.19" transform="translate(10.86 119.77) rotate(-26.54)"/>
      <rect class="cls-5" x="258.05" y="26.23" width="20.35" height="10.39" rx="5.19" ry="5.19" transform="translate(-1.61 42.55) rotate(-9.04)"/>
      <rect class="cls-1" x="259.26" y="18.79" width="24.77" height="10.39" rx="5.19" ry="5.19" transform="translate(5.09 81.54) rotate(-17.23)"/>
      <rect class="cls-1" x="276.64" y="14.26" width="24.77" height="10.39" rx="5.19" ry="5.19" transform="translate(-.53 27.92) rotate(-5.52)"/>
      <rect class="cls-2" x="304.16" y="30.32" width="14.87" height="10.39" rx="5.19" ry="5.19" transform="translate(89.5 -185.9) rotate(38.41)"/>
      <rect class="cls-2" x="312.64" y="37.71" width="29.37" height="10.39" rx="5.19" ry="5.19" transform="translate(58.4 -148.57) rotate(27.98)"/>
      <rect class="cls-3" x="285.24" y="19.5" width="17.22" height="10.39" rx="5.19" ry="5.19" transform="translate(-.98 18.82) rotate(-3.66)"/>
      <rect class="cls-3" x="294.91" y="19.5" width="30.29" height="10.39" rx="5.19" ry="5.19" transform="translate(5.37 -37.85) rotate(7.05)"/>
    </g>
    <g>
      <rect class="cls-5" x="-1.21" y="139.61" width="43.48" height="10.45" rx="5.22" ry="5.22" transform="translate(-52.84 18.28) rotate(-22.03)"/>
      <rect class="cls-1" x="9.57" y="129.24" width="47.12" height="10.45" rx="5.22" ry="5.22" transform="translate(-25.49 9) rotate(-11.2)"/>
      <rect class="cls-2" x="50.46" y="145.27" width="42.46" height="10.45" rx="5.22" ry="5.22" transform="translate(24.94 -9.51) rotate(9.18)"/>
      <rect class="cls-3" x="32.49" y="133.55" width="42.25" height="10.45" rx="5.22" ry="5.22" transform="translate(5.22 -1.9) rotate(2.14)"/>
    </g>
    <g>
      <rect class="cls-5" x="88.97" y="137.61" width="31.65" height="10.47" rx="5.24" ry="5.24" transform="translate(76.26 -32) rotate(26.99)"/>
      <rect class="cls-1" x="96.51" y="126.17" width="38.98" height="10.47" rx="5.24" ry="5.24" transform="translate(66.91 -36.86) rotate(25.17)"/>
      <rect class="cls-2" x="137.42" y="138.28" width="34.48" height="10.47" rx="5.24" ry="5.24" transform="translate(146.78 -67.32) rotate(45)"/>
      <rect class="cls-3" x="116.02" y="127.15" width="39.68" height="10.47" rx="5.24" ry="5.24" transform="translate(111.65 -55.76) rotate(38.41)"/>
    </g>
    <g>
      <rect class="cls-5" x="190.13" y="164.12" width="17.54" height="10.42" rx="5.21" ry="5.21" transform="translate(-49.08 87.24) rotate(-22.09)"/>
      <rect class="cls-1" x="200.07" y="152.95" width="20.24" height="10.42" rx="5.21" ry="5.21" transform="translate(-46.78 101.92) rotate(-24.61)"/>
      <rect class="cls-2" x="235.72" y="167.19" width="16.9" height="10.42" rx="5.21" ry="5.21" transform="translate(-54.62 164.27) rotate(-33.67)"/>
      <rect class="cls-3" x="220.22" y="155.71" width="19.78" height="10.42" rx="5.21" ry="5.21" transform="translate(-48.55 126.38) rotate(-27.9)"/>
    </g>
    <g>
      <rect class="cls-5" x="14.18" y="221.21" width="19.76" height="10.53" rx="5.26" ry="5.26" transform="translate(-49.08 10.79) rotate(-12.67)"/>
      <rect class="cls-5" x="27.38" y="218.45" width="21.46" height="10.53" rx="5.26" ry="5.26" transform="translate(9.86 -1.46) rotate(2.52)"/>
      <rect class="cls-1" x="31.51" y="211.83" width="29.14" height="10.53" rx="5.26" ry="5.26" transform="translate(-15.66 3.92) rotate(-4.17)"/>
      <rect class="cls-1" x="21.2" y="212.56" width="20.79" height="10.53" rx="5.26" ry="5.26" transform="translate(9.6 -1.18) rotate(2.52)"/>
      <rect class="cls-2" x="79.6" y="218.49" width="24.13" height="10.53" rx="5.26" ry="5.26" transform="translate(84.18 -17.93) rotate(20.5)"/>
      <rect class="cls-2" x="68.84" y="213.51" width="19.03" height="10.53" rx="5.26" ry="5.26" transform="translate(15.57 -4.97) rotate(4.03)"/>
      <rect class="cls-3" x="53.3" y="207.22" width="25.37" height="10.53" rx="5.26" ry="5.26" transform="translate(30.16 -7.11) rotate(7.98)"/>
      <rect class="cls-3" x="43.78" y="205.88" width="19.24" height="10.53" rx="5.26" ry="5.26"/>
    </g>
    <g>
      <rect class="cls-5" x="103.07" y="234.74" width="21.89" height="10.23" rx="5.11" ry="5.11" transform="translate(28.32 -11.51) rotate(6.6)"/>
      <rect class="cls-5" x="84.43" y="239.87" width="30.85" height="10.23" rx="5.11" ry="5.11" transform="translate(-101.41 73.28) rotate(-27.36)"/>
      <rect class="cls-1" x="92.59" y="232.46" width="28.39" height="10.23" rx="5.11" ry="5.11" transform="translate(-104.48 85.22) rotate(-30)"/>
      <rect class="cls-1" x="110.92" y="226.08" width="28.39" height="10.23" rx="5.11" ry="5.11"/>
      <rect class="cls-2" x="141.24" y="235.63" width="29.19" height="10.23" rx="5.11" ry="5.11" transform="translate(-45.37 36.39) rotate(-11.64)"/>
      <rect class="cls-2" x="160.56" y="236.81" width="23.08" height="10.23" rx="5.11" ry="5.11" transform="translate(99.91 -46.06) rotate(21.36)"/>
      <rect class="cls-3" x="131.87" y="225.29" width="27.17" height="10.23" rx="5.11" ry="5.11" transform="translate(74.08 -32.56) rotate(17.08)"/>
      <rect class="cls-3" x="115.73" y="226.93" width="27.17" height="10.23" rx="5.11" ry="5.11" transform="translate(-69.88 56.29) rotate(-19.45)"/>
    </g>
    <g>
      <rect class="cls-5" x="176.81" y="243.3" width="40.55" height="10.35" rx="5.17" ry="5.17" transform="translate(45.5 -30.1) rotate(9.87)"/>
      <rect class="cls-5" x="159.89" y="247.43" width="56.08" height="10.35" rx="5.17" ry="5.17" transform="translate(-19.19 15.48) rotate(-4.49)"/>
      <rect class="cls-5" x="205.6" y="247.24" width="13.81" height="10.35" rx="5.17" ry="5.17" transform="translate(-38.73 38.52) rotate(-9.5)"/>
      <rect class="cls-1" x="184.48" y="232.93" width="38.52" height="10.35" rx="5.17" ry="5.17" transform="translate(84.24 -51.59) rotate(18.14)"/>
      <rect class="cls-1" x="165.21" y="238.3" width="57.78" height="10.35" rx="5.17" ry="5.17" transform="translate(-6.52 5.34) rotate(-1.55)"/>
      <rect class="cls-1" x="209.69" y="238.33" width="14.95" height="10.35" rx="5.17" ry="5.17" transform="translate(44.94 -33.62) rotate(9.87)"/>
      <rect class="cls-2" x="229.2" y="240.85" width="46.96" height="10.35" rx="5.17" ry="5.17" transform="translate(89.14 -66.43) rotate(18.14)"/>
      <rect class="cls-2" x="208.65" y="241.65" width="61.28" height="10.35" rx="5.17" ry="5.17" transform="translate(36.7 -30.92) rotate(8.01)"/>
      <rect class="cls-2" x="263.42" y="248.67" width="12.62" height="10.35" rx="5.17" ry="5.17" transform="translate(-38.18 47.98) rotate(-9.5)"/>
      <rect class="cls-3" x="204.76" y="231.16" width="43.71" height="10.35" rx="5.17" ry="5.17" transform="translate(96.61 -64.18) rotate(20.4)"/>
      <rect class="cls-3" x="181.72" y="233.13" width="60.14" height="10.35" rx="5.17" ry="5.17" transform="translate(26.75 -21.32) rotate(6.15)"/>
      <rect class="cls-3" x="233.98" y="236.64" width="14.73" height="10.35" rx="5.17" ry="5.17"/>
    </g>
    <g>
      <rect class="cls-5" x="262.2" y="239.18" width="30.9" height="10.23" rx="5.11" ry="5.11" transform="translate(391.52 -107.56) rotate(66.59)"/>
      <rect class="cls-1" x="273.31" y="230.5" width="28.66" height="10.23" rx="5.11" ry="5.11" transform="translate(411.15 -115.1) rotate(70.08)"/>
      <rect class="cls-2" x="317.11" y="237.93" width="29.17" height="10.23" rx="5.11" ry="5.11" transform="translate(410.91 -160.46) rotate(64.88)"/>
      <rect class="cls-3" x="292.76" y="228.43" width="27.57" height="10.23" rx="5.11" ry="5.11" transform="translate(471.36 -114.8) rotate(78.02)"/>
    </g>
    <g>
      <rect class="cls-5" x="248.26" y="151.09" width="44" height="10.42" rx="5.21" ry="5.21" transform="translate(48.17 -63.12) rotate(14.61)"/>
      <rect class="cls-5" x="274.85" y="148.58" width="22.13" height="10.42" rx="5.21" ry="5.21" transform="translate(506.86 -84.08) rotate(104.61)"/>
      <rect class="cls-1" x="256.68" y="134.68" width="46.91" height="10.42" rx="5.21" ry="5.21" transform="translate(5.27 -10.09) rotate(2.08)"/>
      <rect class="cls-1" x="286.24" y="142.26" width="19.77" height="10.42" rx="5.21" ry="5.21" transform="translate(556.29 -56.85) rotate(115.38)"/>
      <rect class="cls-2" x="300.6" y="150.66" width="42.89" height="10.42" rx="5.21" ry="5.21" transform="translate(79.27 -106.94) rotate(21.44)"/>
      <rect class="cls-2" x="328.01" y="151.09" width="21.44" height="10.42" rx="5.21" ry="5.21" transform="translate(575.42 -132.05) rotate(104.61)"/>
      <rect class="cls-3" x="280.16" y="141.11" width="43.49" height="10.42" rx="5.21" ry="5.21" transform="translate(91.86 -115.29) rotate(25.38)"/>
      <rect class="cls-3" x="307.4" y="141.11" width="20.66" height="10.42" rx="5.21" ry="5.21" transform="translate(32.15 348.32) rotate(-60)"/>
    </g>
    <g>
      <rect class="cls-5" x="342.16" y="123.1" width="22" height="10.41" rx="5.06" ry="5.06" transform="translate(239.59 -229.86) rotate(52.44)"/>
      <rect class="cls-1" x="350.49" y="111.61" width="23.66" height="10.41" rx="5.06" ry="5.06" transform="translate(234.06 -241.61) rotate(52.44)"/>
      <rect class="cls-2" x="394.46" y="117.68" width="23.73" height="10.41" rx="5.06" ry="5.06" transform="translate(325.05 -293.77) rotate(62.14)"/>
      <rect class="cls-3" x="371.28" y="111.55" width="24.5" height="10.41" rx="5.06" ry="5.06" transform="translate(307.49 -276.88) rotate(62.14)"/>
    </g>
  </g>
</svg>