<?xml version="1.0" encoding="UTF-8"?>
<svg id="Layer_1" data-name="Layer 1" xmlns="http://www.w3.org/2000/svg" viewBox="0 0 429.97 309.38">
  <defs>
    <style>
      .cls-1 {
        fill: #fff;
      }
    </style>
  </defs>
  <path class="cls-1" d="M340.57,278.6c4.42,0,8.03,3.6,8.03,8.03s-3.6,8.04-8.03,8.04h-70.4c-4.44,0-8.04-3.6-8.04-8.04s3.6-8.03,8.04-8.03h70.4Z"/>
  <path class="cls-1" d="M106.85,259.63l-2.79,1.42-.02,.16c-.76,3.5-3.91,6.04-7.47,6.04h-3.12l.3,.48c.41,.71,.62,1.49,.62,2.29v19.48c0,1.58-.83,3.05-2.18,3.85l-.53,.32,.57,.27c2.75,1.23,4.51,3.96,4.51,6.96v.2c0,4.23-3.43,7.65-7.63,7.65H31.67c-2.49,0-4.49-2.02-4.49-4.49v-20.47c0-1.79,1.08-3.43,2.75-4.12l.5-.21-.43-.36c-1.79-1.46-2.82-3.62-2.82-5.91,0-2.02,.8-3.94,2.22-5.38l.55-.55h-4.37c-4.21,0-7.63-3.43-7.63-7.65v-.39c0-4.21,3.43-7.63,7.63-7.63h17.93l-2.17-.64c-6.43-1.9-10.92-4.92-13.33-8.95l-.12-.2-1.35,.3c-2.29,.51-4.65,.11-6.64-1.15-2.01-1.26-3.37-3.23-3.91-5.52-1.03-4.62,1.86-9.32,6.45-10.48l.27-.07-.02-.28c-.05-.43-.05-.85-.04-1.28,.09-2.36,1.12-4.53,2.86-6.13,1.72-1.58,3.98-2.4,6.34-2.31l8.04,.36h.04c.37-.09,.75-.14,1.12-.16l4.33-.32,.07-.21c1.19-3.62,4.55-6.05,8.36-6.05h8.63c1.01,0,1.99,.16,2.98,.5l13.69,1.94c2.97,.41,5.58,2.38,6.82,5.15l.09,.18,1.65,.11c2.36,.18,4.6,1.31,6.13,3.14l.07,.07,11.26,4.21,.16-.16c4.3-4.72,10.44-7.33,17.29-7.33,7.21,0,13.83,3.07,18.15,8.43l.14,.14,.2-.04c.82-.18,1.67-.23,2.52-.16l.36,.02v-4.01c0-4.69,3.82-8.5,8.52-8.5s8.52,3.82,8.52,8.5v9.13l1.63,.51v-11.2c0-4.71,3.84-8.52,8.52-8.52h.2c4.71,0,8.52,3.82,8.52,8.52v19.78l3.82,1.49,.04-.53c.23-2.18,1.28-4.19,2.93-5.65l.11-.11v-.46c.11-11.13,10.46-18.91,25.14-18.91h.64c8.19,0,15.15,2.45,19.64,6.91,3.28,3.25,5.04,7.4,5.04,11.97l.02,.23,5.36,1.99v-15.23c0-4.97,4.05-9,9.02-9s9,4.03,9,9v21.95l11.35,3.71-1.12-2.57c-1.92-4.46,.12-9.66,4.6-11.59,1.74-.76,3.64-.92,5.5-.5l.36,.09,.04-.37c.34-3.37,2.61-6.29,5.77-7.44,2.72-.98,5.77-.57,8.13,1.12l.41,.3,.11-.5c.85-4.37,4.69-7.53,9.13-7.53,3.18,0,6.11,1.62,7.83,4.3l.07,.11,.12,.04c3.25,.82,5.79,3.46,6.46,6.71l3.39,15.93,.02,.11,.09,.07c1.44,1.3,3.04,2.5,4.74,3.57l.94,.6-2.4-5.11c-.99-2.13-1.1-4.53-.3-6.75,.8-2.22,2.41-3.98,4.55-4.97,2.13-1.01,4.51-1.12,6.73-.32,2.22,.82,3.99,2.41,4.99,4.55l8.2,17.49c2.06,4.4,.16,9.68-4.24,11.74-1.51,.71-3.21,.98-4.9,.75l-.16-.02-.12,.12c-2.18,2.52-5.66,3.55-8.86,2.63-8.72-2.54-16.58-7.4-22.73-14.08l-.05-.04c-1.19-.87-2.11-1.97-2.75-3.3l-.04-.05c-.2-.25-.39-.5-.57-.76l-.51-.69-.09,.85c-.34,3.36-2.61,6.27-5.77,7.4-.94,.36-1.97,.53-3.07,.53h-.36l.02,.36c.23,3.68-1.9,7.16-5.29,8.61-2.57,1.12-5.58,.92-8.01-.53l-.14-.07-.16,.05c-1.53,.64-3.11,1.19-4.67,1.67-3.66,1.1-7.51-.32-9.62-3.55-.3-.34-.59-.69-.83-1.08l-.09-.11-6.68-.94v12.22c0,4.97-4.03,9.02-9,9.02-4.26,0-7.99-3.04-8.84-7.21l-.05-.27h-9.69c-4.05,0-7.33-3.28-7.33-7.33,0-1.56,.48-3.05,1.4-4.33l.43-.59-.73,.07c-.71,.07-1.44,.14-2.15,.21h-.09l-.05,.04c-.69,.43-1.42,.75-2.18,.98l-.23,.05v7.1c0,4.92-4.01,8.91-8.91,8.91-1.03,0-2.06-.18-3.04-.53l-.44-.16v6.66h44.96c4.39,0,7.94,3.57,7.94,7.94s-3.55,7.94-7.94,7.94h-58.54c-2.45,0-4.44-2.01-4.44-4.46v-19.51c0-4.97,4.03-9,9-9,1.07,0,2.11,.18,3.14,.57l.43,.16v-5.5h-.34c-.69,.02-1.38,.04-2.1,.05l-22.16,1.78-.05,.21c-.98,3.76-4.37,6.39-8.26,6.39h-.2c-4.69,0-8.52-3.82-8.52-8.52v-2.13l-.04-.07c-.53-1.03-.83-2.15-.92-3.3-.12-1.53,.16-3.09,.83-4.49l.28-.6-1.79,.37v2.95c0,3.89-2.65,7.28-6.41,8.26l-.41,.09,.2,.37c.73,1.31,1.12,2.81,1.12,4.31v.07c0,7.37,8.19,14.26,20.35,17.13,2.38,.57,4.33,2.13,5.42,4.3,1.05,2.17,1.08,4.65,.11,6.84-1.3,2.88-4.17,4.74-7.32,4.74-.53,0-1.07-.05-1.6-.16-10.44-2.1-19.55-7.08-25.64-14.06l-.25-.28-.25,.28c-6.16,7-15.25,11.98-25.6,14.06-3.69,.73-7.37-1.15-8.91-4.58-.99-2.18-.96-4.67,.11-6.82,1.07-2.18,3.04-3.75,5.4-4.31,12.11-2.86,20.29-9.77,20.37-17.2,0-4.15,2.95-7.81,7-8.7l.43-.09-.2-.39c-.62-1.21-.94-2.5-.94-3.85v-6.91l-.62,1.24c-3.89,7.78-11.58,12.41-20.54,12.41h-.41c-5.91,0-11.22-1.94-15.36-5.59l-.16-.14Zm135.74,2.47l-.02-2.24-.57,.73c-.27,.34-.57,.66-.89,.94l-.64,.57h2.11Zm-143.98-21.39l.5-.36-3.94-1.47-.11,.32c-1.74,5.47-6.57,9.41-14.36,11.74l-2.15,.64h8.95l.09-.16c.83-1.54,2.1-2.77,3.66-3.57l3.87-2.01,.04-.14c.53-2.02,1.76-3.8,3.46-4.99Z"/>
  <path class="cls-1" d="M401.9,128.03c0,1.72-.48,3.39-1.4,4.83l-.07,.12,.04,.12c.36,1.42,.66,2.91,.89,4.42l.04,.28,6.2,.09-5.68-11.24v1.37Zm-91.6,7.33l-.64,2.57c-.04,.16-.09,.34-.14,.5l-.05,.23,.83,.57v-3.87Zm-88.38,17.06l1.67,.64c2.17,.83,3.91,2.45,4.86,4.56,.25,.53,.44,1.1,.57,1.67l.11,.43,6.78-3.6c1.97-1.05,4.24-1.3,6.41-.71l.43,.12v-41.51c0-4.92,3.99-8.91,8.91-8.91s8.91,3.99,8.91,8.91v26.54l.59-.83c.36-.48,.75-.92,1.19-1.33,.71-.66,1.53-1.21,2.4-1.6l.23-.11-.04-.25c-.18-1.07-.27-2.18-.25-3.32-.05-5.1,1.81-9.68,5.36-13.28,4.24-4.28,10.46-6.64,17.51-6.64,11.13,0,19.81,5.95,22.11,15.13l.64,2.59v-12.64c0-4.74,3.87-8.61,8.63-8.61,3.55,0,6.71,2.13,8.03,5.45l.41,1.05,.21-1.1c.78-4.05,4.33-6.98,8.45-6.98,4.76,0,8.63,3.87,8.63,8.63v31.28l.39-.07c1.26-.23,2.54-.2,3.8,.14,.3,.07,.62,.18,.96,.32l.46,.18-.02-.5c-.02-.94-.04-1.78-.02-2.54,.05-3.07,.34-6.04,.85-8.84l.02-.14-2.36-3.2c-1.38-1.88-1.97-4.21-1.62-6.55,.34-2.33,1.58-4.39,3.46-5.79,1.58-1.17,3.48-1.76,5.45-1.72l.46,.02-.14-.44c-.44-1.31-.55-2.68-.34-4.07,.34-2.33,1.58-4.39,3.46-5.79,1.9-1.38,4.21-1.97,6.55-1.62,2.33,.34,4.39,1.58,5.79,3.46l.8,1.08,.2-.02c1.26-.2,2.52-.28,3.75-.27,.66,.02,1.31,.05,1.95,.12l.23,.02,.09-.21c.85-1.7,2.24-3.12,3.92-3.98,4.35-2.18,9.66-.44,11.84,3.89l6.2,12.27v-1.37c0-.94,.16-1.86,.46-2.77,.73-2.24,2.29-4.07,4.39-5.11,1.74-.89,3.68-1.15,5.59-.8l.32,.05,.05-.32c.32-1.86,1.21-3.55,2.59-4.88,1.67-1.63,3.87-2.52,6.2-2.52h.14c2.38,.04,4.6,.99,6.27,2.72,1.65,1.7,2.54,3.96,2.5,6.34l-1.19,76.29c-.04,2.38-1.01,4.6-2.72,6.27-1.67,1.62-3.87,2.5-6.2,2.5h-.14c-2.38-.04-4.62-.99-6.27-2.7-1.65-1.72-2.54-3.98-2.5-6.36l.59-37.48-9.53-.16-.05,.28c-2.5,16.65-12.39,26.79-25.82,26.46-6.18-.05-11.75-2.43-16.12-6.91-2.1-2.15-3.89-4.79-5.33-7.87l-.39-.82-1.26,4.88c-.39,1.51-1.19,2.89-2.31,4.01-1.35,1.42-3.18,2.36-5.13,2.65l-.28,.05v17.19c0,4.76-3.87,8.63-8.63,8.63s-8.61-3.87-8.61-8.63v-1.99l-.62,1.4c-1.4,3.09-4.49,5.08-7.87,5.08-4.76,0-8.63-3.87-8.63-8.61v-9.68h-7.01c-2.82,0-5.43-1.54-6.78-4.03l-.62-1.14v12.09c0,4.74-3.87,8.61-8.61,8.61s-8.63-3.87-8.63-8.61v-14.97l-18.07-4.72v4.97l.04,.14c1.19,2.45,1.19,5.26,0,7.69l-.04,.07v10.6c0,4.92-3.99,8.91-8.91,8.91s-8.91-3.99-8.91-8.91v-3.36l-.16-.09c-1.05-.66-1.95-1.53-2.65-2.59-1.58-2.38-1.92-5.4-.87-8.08l.27-.71-.69,.28c-.59,.23-1.19,.41-1.78,.5-.67,.09-1.35,.2-2.02,.28l-.05,.02c-1.24,.44-2.52,.62-3.84,.5h-.07c-4.94,.59-10.05,1.01-15.62,1.28l-.16,.02-.09,.12c-.96,1.28-2.25,2.27-3.73,2.86l-6.6,2.68c-2.17,.89-4.58,.87-6.75-.05-2.17-.91-3.85-2.61-4.74-4.79l-.16-.39h-1.97c-.87,0-1.72-.23-2.49-.66l-.59-.32-2.08-3.8v-32.08c0-2.86,2.31-5.17,5.15-5.17h26.05v-8.13h-23.26c-4.39,0-7.94-3.55-7.94-7.92s3.55-7.94,7.94-7.94h35.01c2.84,0,5.17,2.31,5.17,5.15v29.35c0,2.84-2.33,5.15-5.17,5.15h-6.94Zm-3,0h-16.1v10.81l.64-1.4c.87-1.99,2.43-3.57,4.37-4.46l8.95-4.1c.16-.07,.34-.14,.5-.21l1.65-.64Z"/>
  <path class="cls-1" d="M188.08,178.47c.07,.43,.11,.78,.11,1.14,0,4.37-3.57,7.92-7.94,7.92H109.65c-4.39,0-7.94-3.55-7.94-7.92s3.55-7.94,7.94-7.94h70.59c1.86,0,3.69,.67,5.11,1.88l.55,.46,2.08,3.8,.09,.66Z"/>
  <path class="cls-1" d="M179.13,119.23v39.01c0,2.82-2.29,5.11-5.11,5.11h-.36l-.09,.09c-1.6,1.38-3.66,2.15-5.79,2.15s-4.19-.76-5.79-2.15l-.09-.09h-46.41c-2.82,0-5.13-2.29-5.13-5.11v-.34l-14.04-7.16,1.46,1.46c2.02,2.02,2.97,4.88,2.5,7.65-.34,2.1-1.44,4.01-3.09,5.38l-.11,.09v25.11c0,4.81-3.92,8.72-8.74,8.72s-8.72-3.91-8.72-8.72v-3.68l-.64,2.1c-1.1,3.62-4.53,6.16-8.33,6.16-4.81,0-8.72-3.91-8.72-8.72v-23.7l-2.98-.48-.09,.28c-3.41,11.86-10.94,18.66-20.67,18.66s-16.71-6.62-20.13-18.18l-.11-.36-5.18,2.1c-4.51,1.83-9.66-.36-11.49-4.86-1.81-4.51,.37-9.66,4.86-11.49l4.86-1.95-.09-.3c-.07-.27-.14-.55-.21-.83-.44-2.31,.02-4.65,1.33-6.6,1.12-1.69,2.73-2.89,4.63-3.5l.18-.07,.04-.18c2.68-14.58,10.39-22.92,21.16-22.92h.3c8.97,0,15.96,5.66,19.65,15.94l.05,.14,.14,.05c1.17,.43,2.27,1.1,3.16,1.95l.57,.53v-15.02c0-4.81,3.91-8.72,8.72-8.72,3.87,0,7.32,2.59,8.38,6.32l.46,1.63,.18-1.69c.44-4.47,4.17-7.85,8.66-7.85,4.81,0,8.74,3.92,8.74,8.72v20.74l.43-.14c.69-.23,1.4-.37,2.1-.43l.46-.04-.18-.43c-.05-.12-.11-.27-.16-.41-.8-2.22-.69-4.62,.3-6.75,1.76-3.71,5.93-5.75,9.94-4.85l.39,.09v-2.49c0-4.9,3.99-8.91,8.91-8.91s8.84,3.94,8.91,8.79l.02,.34,.34-.02c2.24-.18,4.42,.48,6.16,1.86l5.02,3.98h21.57v-6.04c0-4.9,3.99-8.91,8.91-8.91s8.91,4.01,8.91,8.91Z"/>
  <path class="cls-1" d="M266.11,52.63c-1.3-.11-2.56-.53-3.66-1.21l-.16-.11-.53,.27c-.85,.43-1.78,.71-2.72,.85l-.28,.04v34.59c0,4.92-3.99,8.91-8.91,8.91s-8.91-3.99-8.91-8.91v-4.81l-.21-.09c-2.31-.92-4.12-2.81-4.97-5.13-.43-1.17-.6-2.4-.51-3.64l.04-.41-.41,.05c-7.17,1.08-14.35,1.74-22.58,2.11l-.16,.02-.09,.11c-.99,1.19-2.27,2.1-3.71,2.61l-8.27,3.04c-.98,.36-1.99,.55-3.02,.55-3.69,0-7.03-2.33-8.29-5.79l-.07-.18-.2-.04c-.46-.07-.91-.21-1.33-.41l-.46-.14v.5c0,4.39-3.55,7.94-7.94,7.94H108.14c-4.37,0-7.94-3.55-7.94-7.94s3.57-7.92,7.94-7.92h70.59c1.76,0,3.43,.57,4.83,1.65l.53,.41v-30.89c0-2.84,2.31-5.15,5.17-5.15h26.03v-8.13h-23.26c-4.37,0-7.94-3.55-7.94-7.94s3.57-7.94,7.94-7.94h35.01c2.86,0,5.17,2.33,5.17,5.17v29.33c0,2.86-2.31,5.17-5.17,5.17h-7.88l1.07,.62c1.7,.98,3.05,2.5,3.8,4.31l.12,.32,.32-.14c.43-.2,.89-.36,1.35-.48l7.88-2.11c2.29-.62,4.69-.28,6.73,.91l.5,.3V10.76c0-4.92,3.99-8.91,8.91-8.91s8.91,3.99,8.91,8.91V29.54l.64-1.79c.14-.41,.32-.8,.51-1.17,1.1-2.1,2.95-3.62,5.18-4.31l4.1-1.28,.04-.21c.2-1.72,.3-3.5,.3-5.31v-1.08c0-4.74,3.87-8.61,8.63-8.61s8.61,3.87,8.61,8.61v1.26l6.55-.62v-.64c0-4.74,3.87-8.61,8.63-8.61s8.61,3.87,8.61,8.61v1.08c-.02,1.47,.05,2.93,.18,4.35l.02,.25,9.91,1.23V9.68c0-4.97,4.03-9.02,9-9.02s9.02,4.05,9.02,9.02V41.9l4.37,2.33c2.08,1.1,3.6,2.95,4.3,5.2,.69,2.25,.46,4.65-.64,6.71-2.29,4.3-7.63,5.93-11.93,3.66l-1.07-.57-.16,.07c-.53,.27-1.14,.46-1.76,.62l-.69,.16,.59,.43c.91,.66,1.72,1.35,2.45,2.08,3.23,3.21,4.94,7.26,4.94,11.68,0,12.73-12.82,20.33-34.29,20.33-13.92,0-24.25-3.02-29.92-8.74-3.14-3.18-4.78-7.17-4.76-11.59-.04-4.39,1.63-8.4,4.81-11.58,5.75-5.79,16.07-8.79,29.9-8.74,6.2-.05,11.74,.59,16.49,1.85l.73,.2-.36-.66c-.48-.91-.78-1.86-.94-2.84l-.02-.16-2.4-1.28-.18,.11c-1.23,.89-2.65,1.42-4.14,1.54-2.25,.2-4.53-.55-6.21-2.06-2.15-1.92-4.03-4.23-5.63-6.85l-.28-.46-.28,.46c-.57,.92-1.17,1.88-1.95,3.02-2.33,3.44-5.82,5.42-9.57,5.42s-7.28-1.97-9.62-5.45c-.69-1.03-1.3-1.95-1.85-2.86l-.12-.21-.23,.07c-.12,.04-.27,.05-.39,.09l-.14,.02-.07,.12c-1.53,2.49-3.3,4.67-5.27,6.48-1.69,1.56-3.99,2.33-6.29,2.13Zm-65.09,.23l11.74-3.69h-11.74v3.69Z"/>
  <path class="cls-1" d="M106.88,54.22c-.11,2.34-1.14,4.51-2.88,6.09-1.76,1.6-4.01,2.4-6.36,2.29l-1.53-.07v24.63c0,4.79-3.91,8.72-8.72,8.72s-8.72-3.92-8.72-8.72v-3.69l-.64,2.1c-1.12,3.64-4.55,6.18-8.34,6.18-4.79,0-8.72-3.91-8.72-8.72v-22.87l-.18-.09c-.8-.43-1.54-.96-2.2-1.62l-.39-.39-.16,.53c-3.34,12.2-10.92,19.19-20.79,19.19-8.9,0-15.8-5.73-19.5-16.12l-.07-.21-.21-.02c-1.53-.09-3-.6-4.3-1.46-1.97-1.31-3.3-3.3-3.76-5.61-.48-2.38,.02-4.78,1.4-6.76l.11-.16-.11-.18c-.57-.99-.96-2.08-1.12-3.21-.32-2.33,.28-4.63,1.7-6.53,.99-1.33,2.36-2.36,3.91-2.95l.18-.07,.04-.2c2.13-16.09,10.19-25.67,21.59-25.67h.3c9.89,0,17.45,7.05,20.72,19.37l.07,.28,2.77-.39V12.23c0-4.81,3.92-8.72,8.72-8.72,3.87,0,7.32,2.59,8.38,6.32l.48,1.63,.18-1.7c.44-4.46,4.17-7.83,8.66-7.83,4.81,0,8.72,3.91,8.72,8.72v23.19l.53-.39c1.19-.92,2.61-1.51,4.08-1.74l.55-.07-.34-.44c-.55-.71-.98-1.49-1.3-2.34-.82-2.2-.73-4.6,.25-6.73,.98-2.15,2.73-3.78,4.95-4.6,1.19-.44,2.41-.62,3.66-.53l.36,.02v-1.97c0-4.92,3.99-8.91,8.91-8.91s8.91,3.99,8.91,8.91v.62l.43-.14c2.54-.83,5.27-.5,7.51,.92l7.24,4.63h17.91v-6.04c0-4.92,4.01-8.91,8.91-8.91s8.93,3.99,8.93,8.91v30.47l.09,.11c3.37,3.11,3.78,8.36,.94,11.95-1.47,1.85-3.57,3-5.91,3.28-2.2,.25-4.4-.32-6.2-1.63l-.09-.05h-52.48c-2.82,0-5.11-2.31-5.11-5.13v-1.69l-2.27-.82,.12,.57c.14,.73,.2,1.44,.16,2.13Z"/>
  <path d="M401.95,137.16l4.56,.07-4.03-7.97c-.18,1.37-.64,2.66-1.37,3.84,.34,1.31,.62,2.68,.83,4.07Zm-1.46-4.3c.92-1.44,1.4-3.11,1.4-4.83v-1.37l5.68,11.24-6.2-.09-.04-.28c-.23-1.51-.53-3-.89-4.42l-.04-.12,.07-.12Z"/>
  <path d="M310.3,135.36v3.87l-.83-.57,.05-.23c.05-.16,.11-.34,.14-.5l.64-2.57Z"/>
  <path d="M270.18,278.6c-4.44,0-8.04,3.6-8.04,8.03s3.6,8.04,8.04,8.04h70.4c4.42,0,8.03-3.6,8.03-8.04s-3.6-8.03-8.03-8.03h-70.4Zm-8.7,8.03c0-4.78,3.91-8.68,8.7-8.68h70.4c4.78,0,8.68,3.91,8.68,8.68s-3.91,8.7-8.68,8.7h-70.4c-4.79,0-8.7-3.91-8.7-8.7Z"/>
  <path d="M242.57,259.86l.02,2.24h-2.11l.64-.57c.32-.28,.62-.6,.89-.94l.57-.73Z"/>
  <path d="M207.55,156.78l8.06-3.69h-12.14v7.3c.98-1.58,2.4-2.82,4.08-3.6Zm9.21-3.5l-8.95,4.1c-1.94,.89-3.5,2.47-4.37,4.46l-.64,1.4v-10.81h16.1l-1.65,.64c-.16,.07-.34,.14-.5,.21Z"/>
  <path d="M201.68,51.97l6.82-2.15h-6.82v2.15Zm-.66-2.81h11.74l-11.74,3.69v-3.69Z"/>
  <path d="M101.72,179.61c0,4.37,3.55,7.92,7.94,7.92h70.59c4.37,0,7.94-3.55,7.94-7.92,0-.36-.04-.71-.11-1.14l-.09-.66,.59,.32c.76,.43,1.62,.66,2.49,.66h1.97l.16,.39c.89,2.18,2.57,3.89,4.74,4.79,2.17,.92,4.58,.94,6.75,.05l6.6-2.68c1.47-.59,2.77-1.58,3.73-2.86l.09-.12,.16-.02c5.58-.27,10.69-.69,15.62-1.28h.07c1.31,.12,2.59-.05,3.84-.5l.05-.02c.67-.09,1.35-.2,2.02-.28,.59-.09,1.19-.27,1.78-.5l.69-.28-.27,.71c-1.05,2.68-.71,5.7,.87,8.08,.69,1.07,1.6,1.94,2.65,2.59l.16,.09v3.36c0,4.92,3.99,8.91,8.91,8.91s8.91-3.99,8.91-8.91v-10.6l.04-.07c1.19-2.43,1.19-5.24,0-7.69l-.04-.14v-4.97l18.07,4.72v14.97c0,4.74,3.87,8.61,8.63,8.61s8.61-3.87,8.61-8.61v-12.09l.62,1.14c1.35,2.49,3.96,4.03,6.78,4.03h7.01v9.68c0,4.74,3.87,8.61,8.63,8.61,3.37,0,6.46-1.99,7.87-5.08l.62-1.4v1.99c0,4.76,3.87,8.63,8.61,8.63s8.63-3.87,8.63-8.63v-17.19l.28-.05c1.95-.28,3.78-1.23,5.13-2.65,1.12-1.12,1.92-2.5,2.31-4.01l1.26-4.88,.39,.82c1.44,3.07,3.23,5.72,5.33,7.87,4.37,4.47,9.94,6.85,16.12,6.91,13.42,.34,23.31-9.8,25.82-26.46l.05-.28,9.53,.16-.59,37.48c-.04,2.38,.85,4.63,2.5,6.36,1.65,1.7,3.89,2.66,6.27,2.7h.14c2.33,0,4.53-.89,6.2-2.5,1.7-1.67,2.68-3.89,2.72-6.27l1.19-76.29c.04-2.38-.85-4.63-2.5-6.34-1.67-1.72-3.89-2.68-6.27-2.72h-.14c-2.33,0-4.53,.89-6.2,2.52-1.38,1.33-2.27,3.02-2.59,4.88l-.05,.32-.32-.05c-1.92-.36-3.85-.09-5.59,.8-2.1,1.05-3.66,2.88-4.39,5.11-.3,.91-.46,1.83-.46,2.77v1.37l-6.2-12.27c-2.18-4.33-7.49-6.07-11.84-3.89-1.69,.85-3.07,2.27-3.92,3.98l-.09,.21-.23-.02c-.64-.07-1.3-.11-1.95-.12-1.23-.02-2.49,.07-3.75,.27l-.2,.02-.8-1.08c-1.4-1.88-3.46-3.12-5.79-3.46-2.34-.36-4.65,.23-6.55,1.62-1.88,1.4-3.12,3.46-3.46,5.79-.21,1.38-.11,2.75,.34,4.07l.14,.44-.46-.02c-1.97-.04-3.87,.55-5.45,1.72-1.88,1.4-3.12,3.46-3.46,5.79-.36,2.34,.23,4.67,1.62,6.55l2.36,3.2-.02,.14c-.51,2.81-.8,5.77-.85,8.84-.02,.76,0,1.6,.02,2.54l.02,.5-.46-.18c-.34-.14-.66-.25-.96-.32-1.26-.34-2.54-.37-3.8-.14l-.39,.07v-31.28c0-4.76-3.87-8.63-8.63-8.63-4.12,0-7.67,2.93-8.45,6.98l-.21,1.1-.41-1.05c-1.31-3.32-4.47-5.45-8.03-5.45-4.76,0-8.63,3.87-8.63,8.61v12.64l-.64-2.59c-2.29-9.18-10.97-15.13-22.11-15.13-7.05,0-13.26,2.36-17.51,6.64-3.55,3.6-5.42,8.19-5.36,13.28-.02,1.14,.07,2.25,.25,3.32l.04,.25-.23,.11c-.87,.39-1.69,.94-2.4,1.6-.44,.41-.83,.85-1.19,1.33l-.59,.83v-26.54c0-4.92-3.99-8.91-8.91-8.91s-8.91,3.99-8.91,8.91v41.51l-.43-.12c-2.17-.59-4.44-.34-6.41,.71l-6.78,3.6-.11-.43c-.12-.57-.32-1.14-.57-1.67-.96-2.11-2.7-3.73-4.86-4.56l-1.67-.64h6.94c2.84,0,5.17-2.31,5.17-5.15v-29.35c0-2.84-2.33-5.15-5.17-5.15h-35.01c-4.39,0-7.94,3.55-7.94,7.94s3.55,7.92,7.94,7.92h23.26v8.13h-26.05c-2.84,0-5.15,2.31-5.15,5.17v32.08l-.55-.46c-1.42-1.21-3.25-1.88-5.11-1.88H109.65c-4.39,0-7.94,3.55-7.94,7.94Zm-.66,0c0-4.74,3.85-8.59,8.59-8.59h70.59c1.79,0,3.55,.57,5.01,1.62v-30.7c0-3.21,2.61-5.82,5.81-5.82h25.39v-6.82h-22.6c-4.74,0-8.59-3.85-8.59-8.58s3.85-8.59,8.59-8.59h35.01c3.21,0,5.82,2.61,5.82,5.81v29.35c0,3.2-2.61,5.81-5.82,5.81h-3.71c1.7,.98,3.07,2.45,3.91,4.28,.2,.44,.37,.91,.5,1.38l6.05-3.2c1.99-1.07,4.28-1.37,6.48-.87v-40.66c0-5.27,4.3-9.57,9.57-9.57s9.57,4.3,9.57,9.57v24.59c.21-.25,.43-.48,.67-.69,.69-.66,1.49-1.19,2.34-1.62-.16-1.03-.23-2.1-.21-3.18-.05-5.27,1.86-10.01,5.56-13.74,4.35-4.4,10.74-6.84,17.97-6.84,10.58,0,19.02,5.26,22.09,13.55v-7.81c0-5.11,4.17-9.27,9.29-9.27,3.52,0,6.64,1.94,8.24,5.01,1.17-3.87,4.76-6.59,8.86-6.59,5.13,0,9.29,4.17,9.29,9.29v30.5c1.24-.18,2.49-.11,3.71,.21,.18,.05,.37,.11,.57,.18-.02-.76-.02-1.46-.02-2.1,.05-3.05,.34-6,.83-8.81l-2.18-2.97c-1.51-2.02-2.13-4.53-1.76-7.03,.37-2.5,1.7-4.72,3.73-6.21,1.58-1.17,3.44-1.81,5.4-1.85-.36-1.28-.43-2.61-.23-3.94,.37-2.5,1.7-4.72,3.73-6.21,2.04-1.51,4.53-2.13,7.03-1.76,2.52,.37,4.72,1.7,6.21,3.73l.57,.78c1.24-.18,2.47-.27,3.68-.25,.59,.02,1.19,.05,1.78,.11,.92-1.76,2.36-3.2,4.12-4.08,4.65-2.36,10.37-.48,12.71,4.19l5.04,9.96c.07-.59,.21-1.17,.41-1.74,.78-2.41,2.47-4.37,4.71-5.5,1.78-.91,3.75-1.21,5.68-.91,.39-1.88,1.31-3.59,2.72-4.94,1.79-1.74,4.15-2.7,6.66-2.7h.16c2.56,.05,4.94,1.08,6.71,2.91,1.74,1.81,2.7,4.17,2.7,6.68v.14l-1.19,76.29c-.05,2.54-1.08,4.94-2.91,6.71-1.79,1.74-4.15,2.7-6.66,2.7h-.16c-2.56-.04-4.94-1.07-6.71-2.91-1.79-1.83-2.73-4.24-2.7-6.8l.57-36.84-8.31-.12c-2.63,16.83-12.71,27.08-26.42,26.72-6.36-.05-12.09-2.5-16.58-7.1-1.97-2.02-3.68-4.46-5.06-7.24l-.82,3.14c-.43,1.62-1.28,3.11-2.49,4.3-1.37,1.46-3.21,2.45-5.22,2.81v16.64c0,5.11-4.15,9.29-9.29,9.29-4.85,0-8.84-3.75-9.23-8.5-1.69,2.7-4.65,4.37-7.87,4.37-5.11,0-9.29-4.15-9.29-9.27v-9.02h-6.36c-2.68,0-5.17-1.28-6.75-3.41v9.68c0,5.11-4.15,9.27-9.27,9.27s-9.29-4.15-9.29-9.27v-14.47l-16.76-4.37v4.03c1.23,2.61,1.23,5.56,0,8.15v10.44c0,5.29-4.3,9.57-9.57,9.57s-9.57-4.28-9.57-9.57v-2.98c-1.07-.71-1.97-1.6-2.7-2.68-1.58-2.36-1.99-5.33-1.15-8.03-.43,.12-.85,.23-1.26,.28-.67,.11-1.33,.2-2.01,.3-1.3,.46-2.65,.64-4.03,.51-4.92,.59-9.98,.99-15.5,1.28-1.01,1.31-2.36,2.33-3.91,2.97l-6.6,2.68c-2.33,.94-4.94,.92-7.24-.07-2.34-.98-4.14-2.81-5.1-5.13h-1.53c-.76,0-1.54-.16-2.25-.46,.02,.21,.02,.41,.02,.62,0,4.72-3.84,8.58-8.58,8.58H109.65c-4.74,0-8.59-3.85-8.59-8.58Z"/>
  <path d="M108.14,67.49c-4.37,0-7.94,3.55-7.94,7.92s3.57,7.94,7.94,7.94h70.59c4.39,0,7.94-3.55,7.94-7.94v-.5l.46,.14c.43,.2,.87,.34,1.33,.41l.2,.04,.07,.18c1.26,3.46,4.6,5.79,8.29,5.79,1.03,0,2.04-.2,3.02-.55l8.27-3.04c1.44-.51,2.72-1.42,3.71-2.61l.09-.11,.16-.02c8.24-.37,15.41-1.03,22.58-2.11l.41-.05-.04,.41c-.09,1.24,.09,2.47,.51,3.64,.85,2.33,2.66,4.21,4.97,5.13l.21,.09v4.81c0,4.92,3.99,8.91,8.91,8.91s8.91-3.99,8.91-8.91V52.47l.28-.04c.94-.14,1.86-.43,2.72-.85l.53-.27,.16,.11c1.1,.67,2.36,1.1,3.66,1.21,2.29,.2,4.6-.57,6.29-2.13,1.97-1.81,3.75-3.99,5.27-6.48l.07-.12,.14-.02c.12-.04,.27-.05,.39-.09l.23-.07,.12,.21c.55,.91,1.15,1.83,1.85,2.86,2.34,3.48,5.86,5.45,9.62,5.45s7.24-1.97,9.57-5.42c.78-1.14,1.38-2.1,1.95-3.02l.28-.46,.28,.46c1.6,2.63,3.48,4.94,5.63,6.85,1.69,1.51,3.96,2.25,6.21,2.06,1.49-.12,2.91-.66,4.14-1.54l.18-.11,2.4,1.28,.02,.16c.16,.98,.46,1.94,.94,2.84l.36,.66-.73-.2c-4.76-1.26-10.3-1.9-16.49-1.85-13.83-.05-24.15,2.95-29.9,8.74-3.18,3.18-4.85,7.19-4.81,11.58-.02,4.42,1.62,8.42,4.76,11.59,5.66,5.72,16,8.74,29.92,8.74,21.47,0,34.29-7.6,34.29-20.33,0-4.42-1.7-8.47-4.94-11.68-.73-.73-1.54-1.42-2.45-2.08l-.59-.43,.69-.16c.62-.16,1.23-.36,1.76-.62l.16-.07,1.07,.57c4.3,2.27,9.64,.64,11.93-3.66,1.1-2.06,1.33-4.46,.64-6.71-.69-2.25-2.22-4.1-4.3-5.2l-4.37-2.33V9.68c0-4.97-4.05-9.02-9.02-9.02s-9,4.05-9,9.02v11.61l-9.91-1.23-.02-.25c-.12-1.42-.2-2.88-.18-4.35v-1.08c0-4.74-3.87-8.61-8.61-8.61s-8.63,3.87-8.63,8.61v.64l-6.55,.62v-1.26c0-4.74-3.87-8.61-8.61-8.61s-8.63,3.87-8.63,8.61v1.08c0,1.81-.11,3.59-.3,5.31l-.04,.21-4.1,1.28c-2.24,.69-4.08,2.22-5.18,4.31-.2,.37-.37,.76-.51,1.17l-.64,1.79V10.76c0-4.92-3.99-8.91-8.91-8.91s-8.91,3.99-8.91,8.91V52.89l-.5-.3c-2.04-1.19-4.44-1.53-6.73-.91l-7.88,2.11c-.46,.12-.92,.28-1.35,.48l-.32,.14-.12-.32c-.75-1.81-2.1-3.34-3.8-4.31l-1.07-.62h7.88c2.86,0,5.17-2.31,5.17-5.17V14.67c0-2.84-2.31-5.17-5.17-5.17h-35.01c-4.37,0-7.94,3.57-7.94,7.94s3.57,7.94,7.94,7.94h23.26v8.13h-26.03c-2.86,0-5.17,2.31-5.17,5.15v30.89l-.53-.41c-1.4-1.08-3.07-1.65-4.83-1.65H108.14Zm-8.59,7.92c0-4.72,3.85-8.58,8.59-8.58h70.59c1.69,0,3.3,.48,4.71,1.4v-29.58c0-3.2,2.61-5.81,5.82-5.81h25.39v-6.82h-22.62c-4.74,0-8.59-3.85-8.59-8.59s3.85-8.58,8.59-8.58h35.01c3.21,0,5.82,2.59,5.82,5.81v29.33c0,3.21-2.61,5.82-5.82,5.82h-5.56c1.31,.96,2.34,2.25,3.02,3.73,.37-.16,.76-.28,1.15-.39l7.88-2.11c2.27-.6,4.63-.36,6.73,.71V10.76c0-5.29,4.3-9.57,9.57-9.57s9.57,4.28,9.57,9.57v15.36c1.19-2.17,3.14-3.75,5.49-4.49l3.69-1.14c.2-1.63,.28-3.32,.28-5.02v-1.08c0-5.11,4.15-9.27,9.29-9.27s9.27,4.15,9.27,9.27v.55l5.24-.55c0-5.11,4.17-9.27,9.29-9.27s9.27,4.15,9.27,9.27v1.08c-.02,1.37,.04,2.72,.14,4.01l8.65,1.08V9.68c0-5.34,4.33-9.68,9.66-9.68s9.68,4.33,9.68,9.68v31.83l4.03,2.13c2.22,1.19,3.85,3.18,4.6,5.59,.75,2.43,.5,4.99-.67,7.23-2.47,4.62-8.2,6.37-12.82,3.92l-.78-.43c-.36,.16-.71,.3-1.08,.43,.71,.55,1.38,1.14,1.99,1.74,3.36,3.34,5.13,7.55,5.13,12.14,0,13.14-13.07,20.99-34.94,20.99-14.1,0-24.61-3.09-30.38-8.93-3.27-3.3-4.97-7.47-4.95-12.06-.04-4.56,1.7-8.72,5.01-12.04,5.82-5.86,16.17-8.93,29.95-8.93h.39c5.97-.04,11.33,.53,16,1.7-.32-.73-.55-1.47-.67-2.25l-1.74-.92c-1.3,.87-2.77,1.4-4.31,1.54-2.43,.21-4.88-.6-6.71-2.24-2.06-1.83-3.89-4.03-5.47-6.53-.5,.8-1.05,1.63-1.69,2.59-2.47,3.62-6.14,5.7-10.12,5.7s-7.69-2.08-10.16-5.73c-.66-.96-1.23-1.85-1.74-2.68h-.05c-1.53,2.49-3.32,4.67-5.31,6.5-1.83,1.69-4.3,2.52-6.8,2.31-1.31-.12-2.63-.53-3.78-1.23l-.2,.11c-.83,.43-1.72,.71-2.65,.87v34.02c0,5.27-4.3,9.57-9.57,9.57s-9.57-4.3-9.57-9.57v-4.39c-2.38-1.01-4.24-2.98-5.15-5.43-.41-1.12-.6-2.29-.57-3.5-7.01,1.03-14.06,1.69-22.12,2.06-1.05,1.23-2.4,2.15-3.89,2.7l-8.27,3.04c-1.05,.37-2.15,.57-3.25,.57-3.91,0-7.44-2.41-8.84-6.02-.3-.07-.59-.14-.87-.25-.25,4.56-3.99,8.17-8.58,8.17H108.14c-4.74,0-8.59-3.85-8.59-8.59Z"/>
  <path d="M87.1,250.91c.91-1.56,2.22-2.82,3.84-3.66l3.6-1.86c.53-1.92,1.65-3.62,3.2-4.86l-2.15-.8c-1.74,5.02-6.02,8.79-12.75,11.19h4.26Zm.39,.66h-8.95l2.15-.64c7.79-2.33,12.62-6.27,14.36-11.74l.11-.32,3.94,1.47-.5,.36c-1.7,1.19-2.93,2.97-3.46,4.99l-.04,.14-3.87,2.01c-1.56,.8-2.82,2.02-3.66,3.57l-.09,.16Z"/>
  <path d="M25.58,267.89c-4.58,0-8.29-3.71-8.29-8.29v-.39c0-4.56,3.71-8.29,8.29-8.29h13.6c-5.43-1.94-9.34-4.74-11.61-8.38l-.89,.2c-2.47,.55-4.99,.11-7.14-1.24s-3.62-3.46-4.19-5.93c-1.08-4.86,1.88-9.82,6.66-11.19-.04-.37-.04-.73-.02-1.1,.11-2.52,1.19-4.85,3.07-6.57,1.86-1.7,4.28-2.59,6.8-2.49l7.97,.36c.37-.07,.76-.12,1.15-.16l3.91-.28c1.33-3.78,4.9-6.3,8.91-6.3h8.63c1.08,0,2.13,.18,3.14,.53l13.62,1.9c3.12,.44,5.88,2.49,7.24,5.34l1.28,.11c2.5,.16,4.88,1.37,6.53,3.3l10.69,3.99c4.42-4.76,10.67-7.39,17.63-7.39,7.33,0,14.08,3.11,18.54,8.52,.71-.14,1.44-.2,2.17-.16v-3.32c0-5.06,4.12-9.16,9.18-9.16s9.18,4.1,9.18,9.16v8.63l.32,.11v-10.3c0-5.06,4.12-9.18,9.18-9.18h.2c5.06,0,9.18,4.12,9.18,9.18v19.34l2.59,1.01c.3-2.18,1.35-4.17,2.98-5.65v-.18c.12-11.52,10.72-19.57,25.8-19.57h.64c8.34,0,15.48,2.52,20.1,7.1,3.36,3.32,5.17,7.55,5.24,12.2l4.07,1.51v-14.29c0-5.33,4.35-9.66,9.68-9.66s9.66,4.33,9.66,9.66v21.48l9.5,3.09-.53-1.23c-2.06-4.79,.14-10.39,4.94-12.46,1.76-.76,3.68-.98,5.56-.6,.48-3.46,2.86-6.43,6.16-7.62,2.77-1.01,5.84-.66,8.33,.92,1.08-4.42,5.08-7.56,9.66-7.56,3.36,0,6.46,1.67,8.31,4.47,3.43,.92,6.09,3.73,6.84,7.17l3.36,15.82c1.12,1.01,2.33,1.95,3.6,2.82l-1.44-3.05c-1.07-2.29-1.17-4.86-.32-7.24,.87-2.38,2.59-4.3,4.88-5.36s4.86-1.19,7.24-.32c2.38,.85,4.28,2.59,5.36,4.88l8.2,17.49c2.2,4.72,.16,10.37-4.56,12.59-1.58,.75-3.34,1.03-5.1,.83-2.36,2.61-6.04,3.68-9.41,2.7-8.82-2.57-16.78-7.49-23.01-14.26-1.24-.91-2.25-2.1-2.93-3.48-.02-.04-.05-.07-.09-.11-.6,3.25-2.93,6.02-6.07,7.16-.92,.34-1.92,.51-2.97,.57,.09,3.84-2.17,7.39-5.7,8.91-2.72,1.17-5.88,.99-8.47-.48-1.51,.62-3.05,1.15-4.6,1.62-3.92,1.19-8.08-.34-10.32-3.78-.27-.28-.53-.62-.78-.98l-5.65-.78v11.45c0,5.34-4.33,9.68-9.66,9.68-4.49,0-8.42-3.12-9.43-7.47h-9.16c-4.4,0-7.99-3.59-7.99-7.99,0-1.47,.39-2.88,1.14-4.12-.46,.04-.92,.09-1.4,.12-.64,.39-1.31,.69-2.02,.92v6.6c0,5.27-4.3,9.57-9.57,9.57-.96,0-1.9-.14-2.82-.43v5.08h44.3c4.74,0,8.59,3.85,8.59,8.59s-3.85,8.59-8.59,8.59h-58.54c-2.82,0-5.1-2.29-5.1-5.11v-19.51c0-5.33,4.33-9.66,9.66-9.66,.99,0,1.97,.14,2.91,.46v-3.91c-.59,.02-1.17,.02-1.74,.04l-21.68,1.72c-1.12,3.94-4.72,6.66-8.82,6.66h-.2c-5.06,0-9.18-4.12-9.18-9.18v-1.97c-.37-.76-.64-1.54-.8-2.36-.94,2.75-3.16,4.95-6.04,5.82,.66,1.31,1.01,2.79,1.01,4.26v.07c0,7.07,7.97,13.69,19.85,16.49,2.56,.6,4.69,2.31,5.84,4.65,1.14,2.33,1.19,5.02,.11,7.4-1.4,3.09-4.49,5.1-7.9,5.11-.57,0-1.15-.07-1.72-.18-10.44-2.1-19.58-7.05-25.76-13.99-6.25,6.96-15.36,11.91-25.73,13.99-3.99,.8-7.95-1.24-9.64-4.94-1.07-2.38-1.03-5.08,.12-7.4,1.15-2.34,3.28-4.05,5.84-4.65,11.79-2.79,19.78-9.43,19.85-16.53,0-4.35,2.97-8.19,7.12-9.29-.55-1.19-.83-2.47-.83-3.78v-4.23c-4.17,7.32-11.74,11.63-20.51,11.63h-.39c-6,0-11.4-1.94-15.64-5.61l-2.1,1.08c-.87,3.71-4.24,6.39-8.08,6.39h-2.01c.3,.67,.46,1.4,.46,2.13v19.48c0,1.62-.76,3.12-2.02,4.08,2.68,1.44,4.39,4.26,4.39,7.32v.2c0,4.58-3.71,8.29-8.29,8.29H31.67c-2.84,0-5.15-2.29-5.15-5.13v-20.47c0-1.9,1.05-3.6,2.68-4.51-1.7-1.56-2.68-3.76-2.68-6.09,0-1.95,.67-3.8,1.9-5.29h-2.84Zm-5.68-26.95c1.99,1.26,4.35,1.67,6.64,1.15l1.35-.3,.12,.2c2.41,4.03,6.91,7.05,13.33,8.95l2.17,.64H25.58c-4.21,0-7.63,3.43-7.63,7.63v.39c0,4.23,3.43,7.65,7.63,7.65h4.37l-.55,.55c-1.42,1.44-2.22,3.36-2.22,5.38,0,2.29,1.03,4.46,2.82,5.91l.43,.36-.5,.21c-1.67,.69-2.75,2.33-2.75,4.12v20.47c0,2.47,2.01,4.49,4.49,4.49h57.42c4.21,0,7.63-3.43,7.63-7.65v-.2c0-3-1.76-5.73-4.51-6.96l-.57-.27,.53-.32c1.35-.8,2.18-2.27,2.18-3.85v-19.48c0-.8-.21-1.58-.62-2.29l-.3-.48h3.12c3.57,0,6.71-2.54,7.47-6.04l.02-.16,2.79-1.42,.16,.14c4.14,3.66,9.45,5.59,15.36,5.59h.41c8.97,0,16.65-4.63,20.54-12.41l.62-1.24v6.91c0,1.35,.32,2.65,.94,3.85l.2,.39-.43,.09c-4.05,.89-7,4.55-7,8.7-.07,7.44-8.26,14.35-20.37,17.2-2.36,.57-4.33,2.13-5.4,4.31-1.07,2.15-1.1,4.63-.11,6.82,1.54,3.43,5.22,5.31,8.91,4.58,10.35-2.08,19.44-7.07,25.6-14.06l.25-.28,.25,.28c6.09,6.98,15.2,11.97,25.64,14.06,.53,.11,1.07,.16,1.6,.16,3.14,0,6.02-1.86,7.32-4.74,.98-2.18,.94-4.67-.11-6.84-1.08-2.17-3.04-3.73-5.42-4.3-12.16-2.88-20.35-9.77-20.35-17.13v-.07c0-1.51-.39-3-1.12-4.31l-.2-.37,.41-.09c3.76-.98,6.41-4.37,6.41-8.26v-2.95l1.79-.37-.28,.6c-.67,1.4-.96,2.97-.83,4.49,.09,1.15,.39,2.27,.92,3.3l.04,.07v2.13c0,4.71,3.84,8.52,8.52,8.52h.2c3.89,0,7.28-2.63,8.26-6.39l.05-.21,22.16-1.78c.71-.02,1.4-.04,2.1-.05h.34v5.5l-.43-.16c-1.03-.39-2.08-.57-3.14-.57-4.97,0-9,4.03-9,9v19.51c0,2.45,1.99,4.46,4.44,4.46h58.54c4.39,0,7.94-3.57,7.94-7.94s-3.55-7.94-7.94-7.94h-44.96v-6.66l.44,.16c.98,.36,2.01,.53,3.04,.53,4.9,0,8.91-3.99,8.91-8.91v-7.1l.23-.05c.76-.23,1.49-.55,2.18-.98l.05-.04h.09c.71-.07,1.44-.14,2.15-.21l.73-.07-.43,.59c-.92,1.28-1.4,2.77-1.4,4.33,0,4.05,3.28,7.33,7.33,7.33h9.69l.05,.27c.85,4.17,4.58,7.21,8.84,7.21,4.97,0,9-4.05,9-9.02v-12.22l6.68,.94,.09,.11c.25,.39,.53,.75,.83,1.08,2.11,3.23,5.97,4.65,9.62,3.55,1.56-.48,3.14-1.03,4.67-1.67l.16-.05,.14,.07c2.43,1.46,5.43,1.65,8.01,.53,3.39-1.46,5.52-4.94,5.29-8.61l-.02-.36h.36c1.1,0,2.13-.18,3.07-.53,3.16-1.14,5.43-4.05,5.77-7.4l.09-.85,.51,.69c.18,.27,.37,.51,.57,.76l.04,.05c.64,1.33,1.56,2.43,2.75,3.3l.05,.04c6.14,6.68,14.01,11.54,22.73,14.08,3.2,.92,6.68-.11,8.86-2.63l.12-.12,.16,.02c1.69,.23,3.39-.04,4.9-.75,4.4-2.06,6.3-7.33,4.24-11.74l-8.2-17.49c-.99-2.13-2.77-3.73-4.99-4.55-2.22-.8-4.6-.69-6.73,.32-2.13,.99-3.75,2.75-4.55,4.97-.8,2.22-.69,4.62,.3,6.75l2.4,5.11-.94-.6c-1.7-1.07-3.3-2.27-4.74-3.57l-.09-.07-.02-.11-3.39-15.93c-.67-3.25-3.21-5.89-6.46-6.71l-.12-.04-.07-.11c-1.72-2.68-4.65-4.3-7.83-4.3-4.44,0-8.27,3.16-9.13,7.53l-.11,.5-.41-.3c-2.36-1.69-5.42-2.1-8.13-1.12-3.16,1.15-5.43,4.07-5.77,7.44l-.04,.37-.36-.09c-1.86-.43-3.76-.27-5.5,.5-4.47,1.94-6.52,7.14-4.6,11.59l1.12,2.57-11.35-3.71v-21.95c0-4.97-4.03-9-9-9s-9.02,4.03-9.02,9v15.23l-5.36-1.99-.02-.23c0-4.56-1.76-8.72-5.04-11.97-4.49-4.46-11.45-6.91-19.64-6.91h-.64c-14.68,0-25.03,7.78-25.14,18.91v.46l-.11,.11c-1.65,1.46-2.7,3.46-2.93,5.65l-.04,.53-3.82-1.49v-19.78c0-4.71-3.82-8.52-8.52-8.52h-.2c-4.69,0-8.52,3.82-8.52,8.52v11.2l-1.63-.51v-9.13c0-4.69-3.82-8.5-8.52-8.5s-8.52,3.82-8.52,8.5v4.01l-.36-.02c-.85-.07-1.7-.02-2.52,.16l-.2,.04-.14-.14c-4.31-5.36-10.94-8.43-18.15-8.43s-13,2.61-17.29,7.33l-.16,.16-11.26-4.21-.07-.07c-1.53-1.83-3.76-2.97-6.13-3.14l-1.65-.11-.09-.18c-1.24-2.77-3.85-4.74-6.82-5.15l-13.69-1.94c-.99-.34-1.97-.5-2.98-.5h-8.63c-3.82,0-7.17,2.43-8.36,6.05l-.07,.21-4.33,.32c-.37,.02-.75,.07-1.12,.16h-.04l-8.04-.36c-2.36-.09-4.62,.73-6.34,2.31-1.74,1.6-2.77,3.76-2.86,6.13-.02,.43-.02,.85,.04,1.28l.02,.28-.27,.07c-4.58,1.15-7.47,5.86-6.45,10.48,.53,2.29,1.9,4.26,3.91,5.52Z"/>
  <path d="M15.32,34.57c-1.54,.59-2.91,1.62-3.91,2.95-1.42,1.9-2.02,4.21-1.7,6.53,.16,1.14,.55,2.22,1.12,3.21l.11,.18-.11,.16c-1.38,1.99-1.88,4.39-1.4,6.76,.46,2.31,1.79,4.3,3.76,5.61,1.3,.85,2.77,1.37,4.3,1.46l.21,.02,.07,.21c3.69,10.39,10.6,16.12,19.5,16.12,9.87,0,17.45-7,20.79-19.19l.16-.53,.39,.39c.66,.66,1.4,1.19,2.2,1.62l.18,.09v22.87c0,4.81,3.92,8.72,8.72,8.72,3.8,0,7.23-2.54,8.34-6.18l.64-2.1v3.69c0,4.79,3.91,8.72,8.72,8.72s8.72-3.92,8.72-8.72v-24.63l1.53,.07c2.34,.11,4.6-.69,6.36-2.29,1.74-1.58,2.77-3.75,2.88-6.09,.04-.69-.02-1.4-.16-2.13l-.12-.57,2.27,.82v1.69c0,2.82,2.29,5.13,5.11,5.13h52.48l.09,.05c1.79,1.31,3.99,1.88,6.2,1.63,2.34-.28,4.44-1.44,5.91-3.28,2.84-3.59,2.43-8.84-.94-11.95l-.09-.11V15.04c0-4.92-4.01-8.91-8.93-8.91s-8.91,3.99-8.91,8.91v6.04h-17.91l-7.24-4.63c-2.24-1.42-4.97-1.76-7.51-.92l-.43,.14v-.62c0-4.92-3.99-8.91-8.91-8.91s-8.91,3.99-8.91,8.91v1.97l-.36-.02c-1.24-.09-2.47,.09-3.66,.53-2.22,.82-3.98,2.45-4.95,4.6-.98,2.13-1.07,4.53-.25,6.73,.32,.85,.75,1.63,1.3,2.34l.34,.44-.55,.07c-1.47,.23-2.89,.82-4.08,1.74l-.53,.39V10.65c0-4.81-3.91-8.72-8.72-8.72-4.49,0-8.22,3.37-8.66,7.83l-.18,1.7-.48-1.63c-1.07-3.73-4.51-6.32-8.38-6.32-4.79,0-8.72,3.91-8.72,8.72v15.66l-2.77,.39-.07-.28c-3.27-12.32-10.83-19.37-20.72-19.37h-.3c-11.4,0-19.46,9.59-21.59,25.67l-.04,.2-.18,.07Zm1.92,27.5c-1.56-.14-3.09-.67-4.42-1.54-2.1-1.42-3.53-3.55-4.03-6.02-.5-2.49-.02-5.01,1.38-7.1-.57-1.01-.94-2.11-1.1-3.25-.36-2.5,.28-5.01,1.81-7.03,1.05-1.38,2.43-2.45,4.03-3.09,2.2-16.33,10.51-26.06,22.21-26.06h.3c10.14,0,17.88,7.12,21.27,19.58l1.63-.23V12.23c0-5.17,4.21-9.37,9.37-9.37,3.75,0,7.1,2.25,8.59,5.59,.99-4.15,4.71-7.17,9.11-7.17,5.17,0,9.37,4.21,9.37,9.37v21.89c1.01-.67,2.15-1.14,3.34-1.38-.44-.64-.8-1.33-1.07-2.08-.89-2.38-.8-4.95,.25-7.24,1.07-2.29,2.95-4.05,5.33-4.92,1.15-.44,2.36-.64,3.59-.6v-1.28c0-5.27,4.3-9.57,9.57-9.57s9.41,4.14,9.57,9.29c2.59-.71,5.34-.32,7.63,1.14l7.08,4.53h17.06v-5.38c0-5.27,4.3-9.57,9.57-9.57s9.57,4.3,9.57,9.57v30.18c1.94,1.85,2.93,4.35,2.93,6.89,0,2.06-.66,4.14-2.02,5.86-1.58,1.99-3.84,3.23-6.34,3.52-2.34,.27-4.67-.32-6.59-1.67h-52.27c-3.18,0-5.77-2.59-5.77-5.79v-1.23l-.76-.27c.09,.59,.11,1.15,.09,1.72-.12,2.52-1.23,4.85-3.09,6.55-1.88,1.7-4.31,2.57-6.84,2.45l-.83-.04v23.93c0,5.17-4.21,9.37-9.37,9.37s-9.29-4.12-9.37-9.21c-1.58,3.05-4.81,5.08-8.33,5.08-5.17,0-9.37-4.21-9.37-9.37v-22.48c-.64-.34-1.23-.76-1.78-1.24-3.52,12.16-11.24,19.14-21.29,19.14-9.13,0-16.25-5.81-20.03-16.37Z"/>
  <path d="M12.78,164.61l5.18-2.1,.11,.36c3.43,11.56,10.76,18.18,20.13,18.18s17.26-6.8,20.67-18.66l.09-.28,2.98,.48v23.7c0,4.81,3.91,8.72,8.72,8.72,3.8,0,7.23-2.54,8.33-6.16l.64-2.1v3.68c0,4.81,3.92,8.72,8.72,8.72s8.74-3.91,8.74-8.72v-25.11l.11-.09c1.65-1.37,2.75-3.28,3.09-5.38,.46-2.77-.48-5.63-2.5-7.65l-1.46-1.46,14.04,7.16v.34c0,2.82,2.31,5.11,5.13,5.11h46.41l.09,.09c1.6,1.38,3.66,2.15,5.79,2.15s4.19-.76,5.79-2.15l.09-.09h.36c2.82,0,5.11-2.29,5.11-5.11v-39.01c0-4.9-3.99-8.91-8.91-8.91s-8.91,4.01-8.91,8.91v6.04h-21.57l-5.02-3.98c-1.74-1.38-3.92-2.04-6.16-1.86l-.34,.02-.02-.34c-.07-4.85-4.07-8.79-8.91-8.79s-8.91,4.01-8.91,8.91v2.49l-.39-.09c-4.01-.91-8.19,1.14-9.94,4.85-.99,2.13-1.1,4.53-.3,6.75,.05,.14,.11,.28,.16,.41l.18,.43-.46,.04c-.69,.05-1.4,.2-2.1,.43l-.43,.14v-20.74c0-4.79-3.92-8.72-8.74-8.72-4.49,0-8.22,3.37-8.66,7.85l-.18,1.69-.46-1.63c-1.07-3.73-4.51-6.32-8.38-6.32-4.81,0-8.72,3.91-8.72,8.72v15.02l-.57-.53c-.89-.85-1.99-1.53-3.16-1.95l-.14-.05-.05-.14c-3.69-10.28-10.69-15.94-19.65-15.94h-.3c-10.78,0-18.48,8.34-21.16,22.92l-.04,.18-.18,.07c-1.9,.6-3.52,1.81-4.63,3.5-1.31,1.95-1.78,4.3-1.33,6.6,.07,.28,.14,.57,.21,.83l.09,.3-4.86,1.95c-4.49,1.83-6.68,6.98-4.86,11.49,1.83,4.51,6.98,6.69,11.49,4.86Zm-12.09-4.62c-1.95-4.85,.39-10.39,5.24-12.34l4.3-1.74c-.05-.2-.11-.41-.14-.6-.48-2.49,.02-5.01,1.42-7.12,1.17-1.74,2.82-3.02,4.79-3.69,2.72-14.58,10.85-23.26,21.77-23.26h.3c9.09,0,16.46,5.91,20.22,16.25,.98,.36,1.88,.89,2.7,1.54v-13.53c0-5.17,4.21-9.37,9.37-9.37,3.73,0,7.1,2.25,8.58,5.61,.99-4.17,4.71-7.19,9.11-7.19,5.18,0,9.37,4.21,9.37,9.37v19.85c.46-.14,.94-.23,1.4-.3,0,0-.02-.02-.02-.04-.85-2.38-.75-4.95,.34-7.23,1.83-3.89,6.09-6.05,10.26-5.31v-1.67c0-5.27,4.3-9.57,9.57-9.57s9.3,4.05,9.57,9.09c2.27-.11,4.49,.62,6.27,2.04l4.83,3.82h20.7v-5.38c0-5.27,4.3-9.57,9.57-9.57s9.57,4.3,9.57,9.57v39.01c0,3.18-2.59,5.77-5.77,5.77h-.11c-1.7,1.44-3.89,2.24-6.13,2.24s-4.42-.8-6.13-2.24h-46.16c-3.16,0-5.75-2.56-5.79-5.72l-10.4-5.29c1.42,2.01,2.02,4.51,1.63,6.96-.36,2.2-1.49,4.21-3.21,5.68v24.79c0,5.17-4.19,9.37-9.37,9.37s-9.27-4.12-9.36-9.21c-1.6,3.05-4.81,5.08-8.33,5.08-5.17,0-9.37-4.21-9.37-9.37v-23.13l-1.86-.3c-3.53,11.98-11.26,18.86-21.22,18.86s-17.1-6.68-20.67-18.32l-4.51,1.83c-4.85,1.97-10.37-.37-12.34-5.22Z"/>
</svg>