<?xml version="1.0" encoding="UTF-8"?>
<svg id="Layer_1" data-name="Layer 1" xmlns="http://www.w3.org/2000/svg" viewBox="0 0 467.35 100.38">
  <defs>
    <style>
      .cls-1 {
        fill: #fff;
      }
    </style>
  </defs>
  <g>
    <path class="cls-1" d="M123.55,1.83c-.06-.02-.12-.04-.17-.04h-7.22c-.15,0-.3,.05-.41,.14l-5.11,3.97c-.1,.08-.18,.19-.22,.31l-6.29,18.3c-.1,.29-.32,.5-.62,.59-.29,.09-.6,.02-.83-.17l-4.78-3.83c-.23-.18-.55-.2-.79-.03l-6.09,4.06c-.23,.15-.5,.19-.76,.12-.26-.07-.47-.26-.59-.5l-5.08-11.01s-.05-.09-.08-.13l-8.89-11.56c-.13-.16-.33-.26-.53-.26h-5.52V25.96h-21.92V1.78h-5.82c-.32,0-.6,.23-.66,.54l-4.64,22.61c-.09,.43-.47,.74-.91,.74h-6.11c-.41,0-.76-.26-.88-.65L21.86,3.06V100.13h.27c.32,0,.59-.22,.66-.52l5.42-23.81c.1-.42,.47-.72,.9-.72h6.08c.29,0,.55,.14,.72,.36v-.38h51.57l.85-2.29c.14-.37,.48-.59,.89-.57l-6.27-7.4,.31-.26,11.52,13.59,1.41,1.53,3.16-1.85,12.57-8.43-5.95-7.01,.31-.26,6.08,7.16-.17,.15,.13,.19-10.08,6.76c.23,.08,.41,.25,.51,.47l6.47,14.83c.04,.1,.12,.19,.2,.26l6.96,5.41c.12,.09,.26,.14,.41,.14h6.62s.09-.02,.14-.04h.04s.16-.13,.16-.13V1.97l-.19-.14Zm-33.31,35.35l-.13,.16-7.99-6.33,.25-.32,7.88,6.24,7.07-4.64,.22,.34-7.19,4.72-.11-.17Zm3.99,24.84l-.36-.19,16.55-31.07,.36,.19-16.55,31.07Z"/>
    <path class="cls-1" d="M166.81,93.77c-.15,0-.3-.01-.45-.02l3.83,1.23c.18,.06,.38,.04,.55-.06,.17-.1,.28-.26,.32-.45l.76-3.74c-.96,1.8-2.83,3.04-5.01,3.04Z"/>
    <path class="cls-1" d="M21.27,1.86c-.1-.06-.2-.08-.3-.08h-2.69V100.13h3.18V2.11l-.18-.25Z"/>
    <rect class="cls-1" x="48.04" y="1.78" width="21.1" height="23.78"/>
    <path class="cls-1" d="M169.08,5.59l-5.8,1.1-7.41,16.43,3.53,5.03,10.05-22.29-.07-.25c-.11-.04-.21-.04-.31-.03Z"/>
    <path class="cls-1" d="M164.42,35.3l-.33,.23-4.6-6.56-2.94,6.52-.37-.17,3.04-6.74-3.53-5.03-6.18,13.71-.37-.17,6.28-13.93-3.19-4.54,.19-.43,3.19,4.54,7.19-15.95-5.44,1.04c-.22,.04-.4,.19-.49,.39l-13.19,29.26c-.15,.33-.47,.54-.84,.54h0c-.37,0-.69-.21-.84-.54L124.15,2.48V96.91l12.4-19.28c.03-.05,.06-.11,.08-.16l5.48-16.44c.12-.36,.43-.6,.81-.63,.38-.03,.72,.17,.89,.51l5.85,11.7s.03,.07,.05,.11l5.98,17.33c.07,.2,.23,.36,.43,.42l7.76,2.48c-1.66-1-2.78-2.82-2.78-4.9,0-3.16,2.56-5.72,5.72-5.72,1.05,0,2.02,.3,2.87,.8V6.65l-.05-.17-9.95,22.07,4.74,6.75Z"/>
    <path class="cls-1" d="M172.5,87.44l5.11-25.09s.01-.09,.01-.13v-27.38c0-.06,0-.12-.02-.18l-7.51-26.58V83.37c1.32,.92,2.23,2.38,2.41,4.07Z"/>
    <path class="cls-1" d="M36.09,75.77l6.21,23.86c.08,.3,.35,.5,.65,.5h32.34c.24,0,.46-.13,.58-.34l6.66-11.55s.03-.07,.05-.1l4.74-12.68H35.94c.07,.09,.12,.19,.15,.31Z"/>
    <path class="cls-1" d="M11.66,51.9v-.1s0,.07,0,.1h0Z"/>
    <path class="cls-1" d="M14.77,52.01v.1h-3.12c-.16,3.02-2.65,5.42-5.7,5.42S.51,55.24,.25,52.32v23.16c0,.07,.01,.14,.03,.21l7.76,23.97c.09,.28,.35,.47,.64,.47h9.19V52.01h-3.11Z"/>
    <path class="cls-1" d="M5.94,46.08c3.16,0,5.72,2.56,5.72,5.72h6.21V1.78H8.66c-.29,0-.55,.18-.64,.46L.28,25.46c-.02,.07-.03,.14-.03,.21v25.61c.26-2.92,2.71-5.2,5.69-5.2Z"/>
    <path d="M87.47,75.46l-4.76,12.72s-.03,.08-.06,.12l-6.66,11.56c-.14,.25-.41,.4-.69,.4H42.96c-.36,0-.68-.25-.77-.6l-6.21-23.86c-.09-.35-.41-.6-.77-.6h-6.08c-.37,0-.7,.26-.78,.62l-5.42,23.81c-.08,.36-.41,.62-.78,.62h-.27v.06h-.41v-.06h-3.18v.06h-.41v-.06H8.69c-.35,0-.65-.22-.76-.55L.16,75.73c-.03-.08-.04-.16-.04-.25V25.67c0-.09,.01-.17,.04-.25L7.91,2.2c.11-.33,.41-.55,.76-.55h12.31c.14,0,.27,.05,.39,.11l.1,.13v-.19h.02l-.02-.02-.04-.04c-.15-.08-.3-.13-.45-.13H8.66c-.4,0-.75,.25-.88,.63L.05,25.38c-.03,.09-.05,.19-.05,.29v49.81c0,.1,.02,.2,.04,.28l7.76,23.97c.12,.38,.48,.64,.88,.64h13.45c.43,0,.81-.3,.9-.72l5.42-23.81c.07-.31,.34-.52,.66-.52h6.08c.31,0,.58,.21,.65,.5l6.21,23.86c.11,.41,.47,.69,.89,.69h32.34c.33,0,.64-.18,.8-.46l6.66-11.55s.05-.09,.06-.14l4.77-12.76h-.13Z"/>
    <path d="M21.86,2.64l6.87,22.34c.1,.34,.41,.56,.76,.56h6.11c.38,0,.71-.27,.78-.64L41.03,2.3c.08-.37,.4-.64,.78-.64h33.25c.25,0,.48,.12,.63,.31l8.89,11.56s.07,.1,.09,.15l5.08,11.01c.21,.45,.76,.6,1.17,.33l6.09-4.06c.29-.19,.67-.18,.94,.04l4.78,3.83c.43,.35,1.08,.16,1.26-.36l6.29-18.3c.05-.15,.14-.28,.27-.37l5.11-3.97c.14-.11,.31-.17,.49-.17h7.22c.09,0,.18,.04,.26,.07l.1,.08v-.09h.09l-.11-.09-.08-.04c-.08-.03-.16-.06-.26-.06h-7.22c-.21,0-.41,.07-.57,.19l-5.11,3.97c-.14,.11-.25,.26-.31,.43l-6.29,18.3c-.07,.21-.24,.37-.45,.43-.22,.06-.44,.02-.61-.12l-4.78-3.83c-.32-.25-.75-.27-1.09-.05l-6.09,4.06c-.16,.11-.37,.14-.56,.09-.19-.05-.35-.19-.43-.37l-5.08-11.01c-.03-.06-.06-.12-.11-.18L75.8,1.89c-.17-.23-.45-.36-.73-.36H41.81c-.44,0-.82,.31-.91,.74l-4.64,22.61c-.06,.31-.34,.54-.66,.54h-6.11c-.3,0-.56-.19-.64-.48L21.88,2.28l-.02-.03v.39Z"/>
    <path d="M89.28,72.32c-.34-.03-.69,.13-.82,.49l-.84,2.24h.04v.24l.91-2.44c.11-.31,.4-.41,.63-.41,0,0,.01,0,.02,0l2.73,2.97-2.03-2.39-.65-.7Z"/>
    <polygon points="96.27 79.88 96.27 79.88 96.27 79.88 97.64 78.96 96.21 79.8 96.27 79.88"/>
    <path d="M124.15,2.2l17.96,35.22c.28,.62,1.17,.62,1.45,0l13.19-29.26c.11-.24,.32-.41,.58-.46l11.72-2.23c.15-.03,.3,0,.43,.05l.05,.17,.05-.11s.04,.01,.05,.02l-.03-.11-.02-.06-.06-.02c-.18-.07-.34-.09-.5-.06l-11.72,2.23c-.3,.06-.55,.26-.67,.53l-13.19,29.26c-.11,.24-.35,.39-.61,.39h0c-.27,0-.5-.15-.62-.4L124.19,2s-.04-.05-.03-.03h0s0,.12,0,.12v.11Z"/>
    <path d="M170.09,7.17v.46l7.63,27c.02,.07,.03,.14,.03,.21v27.38c0,.05,0,.11-.02,.16l-5.2,25.55s0,.09,0,.13c0,.25-.04,.49-.07,.73l-.17,.83c-.06,.22-.15,.44-.24,.65l-.86,4.23c-.1,.47-.57,.75-1.03,.6l-4.49-1.44c-.4-.08-.78-.21-1.15-.37l-8.44-2.7c-.24-.08-.43-.26-.51-.5l-5.98-17.33s-.03-.07-.04-.1l-5.85-11.7c-.32-.64-1.25-.57-1.47,.1l-5.48,16.44c-.02,.07-.05,.13-.09,.19l-12.5,19.44v.19h0s12.61-19.56,12.61-19.56c.05-.07,.08-.14,.11-.22l5.48-16.44c.1-.32,.37-.44,.59-.46,.22-.03,.5,.07,.65,.37l5.85,11.7s.02,.05,.03,.08l5.98,17.33c.09,.27,.32,.49,.59,.58l14.08,4.51c.25,.08,.52,.05,.75-.08,.23-.13,.39-.36,.44-.61l6.54-32.12c.01-.06,.02-.12,.02-.18v-27.38c0-.08-.01-.16-.03-.24l-7.75-27.43Z"/>
    <path d="M123.74,97.48l-.1,.07c-.08,.03-.16,.06-.24,.06h-6.62c-.18,0-.35-.06-.49-.17l-6.96-5.41c-.11-.08-.19-.19-.24-.31l-6.47-14.83c-.1-.24-.32-.37-.55-.42l-.03,.02-.34,.23,.27-.16c.24,.03,.44,.17,.53,.38l6.47,14.83c.06,.14,.16,.27,.28,.36l6.96,5.41c.16,.13,.36,.2,.57,.2h6.62c.09,0,.16-.03,.23-.05l.11-.07h0v-.13Z"/>
    <path d="M177.6,34.66c.02,.06,.02,.12,.02,.18v27.38s0,.09-.01,.13l-5.11,25.09c.02,.16,.03,.32,.03,.48l5.2-25.55c.01-.05,.02-.11,.02-.16v-27.38c0-.07,0-.14-.03-.21l-7.63-27v.46l7.51,26.58Z"/>
    <path d="M171.06,94.47c-.04,.19-.15,.35-.32,.45-.17,.1-.36,.12-.55,.06l-3.83-1.23c-.24-.02-.47-.05-.7-.09l4.49,1.44c.45,.15,.93-.14,1.03-.6l.86-4.23c-.07,.16-.14,.31-.22,.47l-.76,3.74Z"/>
    <path d="M156.12,90.47c-.2-.06-.36-.22-.43-.42l-5.98-17.33s-.03-.08-.05-.11l-5.85-11.7c-.17-.34-.51-.54-.89-.51-.38,.03-.69,.27-.81,.63l-5.48,16.44c-.02,.06-.05,.11-.08,.16l-12.4,19.28v.23l12.5-19.44c.04-.06,.07-.12,.09-.19l5.48-16.44c.23-.68,1.15-.74,1.47-.1l5.85,11.7s.03,.06,.04,.1l5.98,17.33c.08,.24,.27,.42,.51,.5l8.44,2.7c-.22-.1-.44-.21-.65-.34l-7.76-2.48Z"/>
    <path d="M8.69,100.13c-.29,0-.55-.19-.64-.47L.28,75.69c-.02-.07-.03-.13-.03-.21v-23.16c-.02-.17-.03-.34-.03-.52s.01-.35,.03-.52V25.67c0-.07,.01-.14,.03-.21L8.02,2.24c.09-.28,.35-.46,.64-.46h9.21v-.07h.41v.07h2.69c.1,0,.2,.03,.3,.08l.18,.25v-.21l-.1-.13c-.12-.07-.25-.11-.39-.11H8.66c-.34,0-.65,.22-.76,.55L.17,25.42c-.03,.08-.04,.17-.04,.25v49.81c0,.08,.01,.17,.04,.25l7.76,23.97c.11,.33,.41,.55,.76,.55h9.19v-.12H8.69Z"/>
    <path d="M28.62,25.02c.12,.39,.47,.65,.88,.65h6.11c.44,0,.82-.31,.91-.74L41.15,2.32c.06-.31,.34-.54,.66-.54h5.82v-.07h.41v.07h21.1v-.07h.41v.07h5.52c.21,0,.41,.1,.53,.26l8.89,11.56s.06,.08,.08,.13l5.08,11.01c.11,.25,.33,.43,.59,.5,.26,.07,.54,.03,.76-.12l6.09-4.06c.25-.16,.56-.15,.79,.03l4.78,3.83c.24,.19,.54,.25,.83,.17,.29-.08,.52-.3,.62-.59l6.29-18.3c.04-.12,.12-.23,.22-.31l5.11-3.97c.12-.09,.26-.14,.41-.14h7.22c.05,0,.11,.02,.17,.04l.19,.14v-.16l-.1-.08c-.09-.03-.17-.07-.26-.07h-7.22c-.18,0-.35,.06-.49,.17l-5.11,3.97c-.12,.1-.21,.22-.27,.37l-6.29,18.3c-.18,.52-.82,.71-1.26,.36l-4.78-3.83c-.27-.22-.65-.23-.94-.04l-6.09,4.06c-.41,.27-.96,.12-1.17-.33l-5.08-11.01c-.03-.05-.06-.11-.09-.15L75.7,1.97c-.15-.2-.39-.31-.63-.31H41.81c-.38,0-.71,.27-.78,.64l-4.64,22.61c-.08,.37-.4,.64-.78,.64h-6.11c-.35,0-.66-.23-.76-.56L21.86,2.64v.43l6.75,21.95Z"/>
    <rect x="18.28" y="100.13" width="3.18" height=".12"/>
    <path d="M142,37.48c.15,.33,.47,.54,.84,.54h0c.37,0,.69-.21,.84-.54l13.19-29.26c.09-.2,.27-.35,.49-.39l5.44-1.04,.03-.06,.49-.09-.03,.06,5.8-1.1c.1-.02,.2,0,.31,.03l.07,.25,.08-.18-.05-.17c-.14-.05-.28-.08-.43-.05l-11.72,2.23c-.26,.05-.47,.22-.58,.46l-13.19,29.26c-.29,.62-1.17,.62-1.45,0L124.15,2.2v.28l17.85,35Z"/>
    <polygon points="169.68 6.37 169.63 6.48 169.68 6.65 169.68 6.37"/>
    <path d="M82.59,88.14s-.03,.07-.05,.1l-6.66,11.55c-.12,.21-.34,.34-.58,.34H42.96c-.31,0-.58-.21-.65-.5l-6.21-23.86c-.03-.11-.08-.21-.15-.31h-.03v-.03c-.17-.22-.43-.36-.72-.36h-6.08c-.43,0-.8,.29-.9,.72l-5.42,23.81c-.07,.31-.34,.52-.66,.52h-.27v.12h.27c.37,0,.7-.26,.78-.62l5.42-23.81c.08-.36,.41-.62,.78-.62h6.08c.36,0,.68,.25,.77,.6l6.21,23.86c.09,.35,.41,.6,.77,.6h32.34c.29,0,.55-.15,.69-.4l6.66-11.56s.04-.08,.06-.12l4.76-12.72h-.13l-4.74,12.68Z"/>
    <path d="M123.59,97.44h-.04c-.05,.03-.1,.05-.14,.05h-6.62c-.15,0-.3-.05-.41-.14l-6.96-5.41c-.09-.07-.16-.16-.2-.26l-6.47-14.83c-.1-.22-.28-.39-.51-.47l-.16,.1c.23,.05,.45,.18,.55,.42l6.47,14.83c.05,.12,.14,.23,.24,.31l6.96,5.41c.14,.11,.31,.17,.49,.17h6.62c.09,0,.16-.04,.24-.06l.1-.07v-.15l-.16,.11Z"/>
    <path d="M89.23,72.2c-.41-.02-.75,.2-.89,.57l-.85,2.29h.13l.84-2.24c.14-.36,.48-.52,.82-.49l.65,.7-.55-.64-.15-.18Z"/>
    <path class="cls-1" d="M190.42,44.62c3.09,0,5.59,2.45,5.7,5.52h4.55V3.91l-3.13-3.21c-.13-.13-.3-.2-.48-.2h-5.1c-.33,0-.61,.24-.67,.56l-6.4,38.17s0,.07,0,.11v9.58c.63-2.47,2.87-4.3,5.54-4.3Z"/>
    <path class="cls-1" d="M299.04,49.92c.07-.16,.07-.34,.01-.5-.02-.05-.68-1.84-1.56-4.24v8.31l1.55-3.57Z"/>
    <path class="cls-1" d="M229.73,24.09V8.81l-12.09-2.76c-.16-.04-.33-.01-.48,.07l-1.16,.65V24.09h13.73Z"/>
    <path class="cls-1" d="M318.9,73.8c.09,.05,.17,.1,.24,.18l6.07,6.9,6.67-20.38-12.99,13.3Z"/>
    <path class="cls-1" d="M319.44,26.35c0,3.09-2.45,5.59-5.52,5.7v4.67h5.52v.41h-12.78v13.94h12.99v10.87h-12.99v11.05c0,.37,.3,.67,.67,.67h11.12c.15,0,.28,.04,.41,.11l-.26-.25,14.21-14.55-7.27,22.19,.1,.07c.21,.08,1.57,.57,10.13,3.67V10.05c-.74,.29-1.62,.63-2.69,1.05-2.71,1.05-5.77,2.24-6.04,2.38-6.12,7.48-6.35,7.48-6.43,7.48h-5.14c2.29,.74,3.96,2.87,3.96,5.4Zm8.38,17.65c3.16,0,5.72,2.56,5.72,5.72s-2.56,5.72-5.72,5.72-5.72-2.56-5.72-5.72,2.56-5.72,5.72-5.72Z"/>
    <path class="cls-1" d="M306.66,21.62v15.1h6.86v-4.67c-3.06-.11-5.52-2.61-5.52-5.7,0-2.54,1.67-4.66,3.96-5.4h-4.63c-.37,0-.67,.3-.67,.67Z"/>
    <path class="cls-1" d="M373.37,56.43l6.55,17.38c.05,.13,.14,.24,.25,.32l6.63,4.51c.11,.08,.24,.12,.38,.12h6.39c.21,0,.41-.1,.53-.26l11.9-15.38c.11-.14,.25-.24,.42-.3l13.4-4.85c.32-.12,.69-.05,.94,.19l7.11,6.56c.17,.16,.41,.22,.63,.16l18.64-4.95c.08-.02,.16-.03,.24-.03h6.37c.06,0,.13,0,.19-.03l6.53-1.92c.15-.04,.28-.14,.37-.27l.94-1.38h-88.47s.06,.08,.07,.12Z"/>
    <path class="cls-1" d="M365.88,57.77c.09-.34,.36-.6,.7-.67l5.73-1.25c.22-.05,.45-.01,.64,.09v-.05h89.1l4.93-7.23c.14-.21,.16-.47,.04-.69l-4.79-9.27c-.08-.16-.23-.28-.4-.34l-7.39-2.25c-.15-.04-.31-.04-.45,.02l-5.41,2.21c-.21,.08-.43,.09-.64,.02l-19.82-6.61c-.24-.08-.51-.02-.69,.16l-6.14,6.14c-.26,.26-.65,.34-1,.2l-14.56-5.82c-.15-.06-.28-.16-.38-.28l-10.3-12.74c-.13-.16-.32-.25-.52-.25h-12.77c-.28,0-.54,.18-.64,.45l-6.48,18.23c-.13,.37-.48,.62-.87,.62h-5.77c-.37,0-.7-.22-.85-.56l-7.21-16.6v58.95l5.93-22.51Zm25.57-23.37l9.39,13.7-.33,.23-8.93-13.04-4.5,12.99-.38-.13,4.76-13.75Z"/>
    <rect class="cls-1" x="306.66" y="51.48" width="12.58" height="10.06"/>
    <path class="cls-1" d="M339.3,86.17c.16,.06,.31,.16,.42,.3l5.62,7.23c.12,.15,.28,.24,.47,.26,.19,.02,.37-.04,.51-.17l13.18-11.78,.05-.2v-10.16h-4.87v-.41h4.87V20.39l-4.32-9.93c-.03-.06-.06-.12-.11-.17l-8.42-9.7c-.13-.15-.31-.23-.51-.23,0,0-.01,0-.02,0-.2,0-.39,.1-.52,.26l-6.12,7.92s-.16,.11-1.56,.66V85.7c.43,.15,.86,.31,1.32,.48Zm14.36-22.72v.2h-5.28v20.05h-.41v-20.05h-5.28v-.41h10.97v.2Zm-5.48-19.44c3.16,0,5.72,2.56,5.72,5.72s-2.56,5.72-5.72,5.72-5.72-2.56-5.72-5.72,2.56-5.72,5.72-5.72Z"/>
    <path class="cls-1" d="M336.19,49.93v35.12c.44,.16,.91,.33,1.39,.5V49.93h-1.39Z"/>
    <path class="cls-1" d="M337.57,49.52V9.35c-.38,.15-.84,.33-1.39,.54V49.52h1.39Z"/>
    <path d="M467.24,47.86l-4.79-9.27c-.11-.22-.31-.39-.55-.46l-7.39-2.25c-.2-.06-.42-.05-.62,.03l-5.41,2.21c-.15,.06-.32,.07-.47,.02l-19.82-6.61c-.33-.11-.7-.03-.95,.22l-6.14,6.14c-.19,.19-.48,.25-.73,.15l-14.56-5.82c-.11-.04-.2-.11-.27-.2l-10.3-12.74c-.18-.22-.44-.34-.72-.34h-12.77c-.39,0-.74,.25-.87,.61l-6.48,18.23c-.1,.27-.35,.45-.64,.45h-5.77c-.27,0-.51-.16-.62-.41l-11.93-27.46c-.04-.09-.09-.17-.15-.24L346.89,.42c-.18-.21-.45-.32-.72-.32-.28,0-.54,.14-.71,.36l-6.11,7.9c-.28,.15-3.5,1.4-6.35,2.5-5.79,2.25-6.08,2.38-6.13,2.44-2.33,2.84-5.88,7.11-6.28,7.4h-6.24c.21,.02,.41,.08,.61,.13h5.66c.24,0,6.34-7.45,6.34-7.45,.06-.07,5.15-2.04,8.81-3.46v-.11l.41-.15v.11c.5-.2,.97-.38,1.39-.54v-.08l.41-.15v.08c.87-.35,1.44-.57,1.46-.6l6.12-7.92c.31-.4,.9-.42,1.24-.04l8.42,9.7c.05,.06,.1,.13,.13,.21l11.93,27.46c.13,.29,.41,.48,.73,.48h5.77c.34,0,.64-.21,.75-.53l6.48-18.23c.11-.32,.41-.53,.75-.53h12.77c.24,0,.47,.11,.62,.3l10.3,12.74c.09,.11,.2,.19,.32,.24l14.56,5.82c.3,.12,.64,.05,.86-.18l6.14-6.14c.21-.21,.53-.29,.82-.19l19.82,6.61c.18,.06,.38,.05,.56-.02l5.41-2.21c.17-.07,.36-.08,.53-.02l7.39,2.25c.21,.06,.38,.21,.48,.4l4.79,9.27c.13,.26,.12,.57-.05,.82l-4.88,7.16h.13l-.28,.41h-.13l-.99,1.45c-.1,.15-.26,.26-.44,.32l-6.53,1.92c-.07,.02-.15,.03-.23,.03h-6.37c-.07,0-.14,0-.21,.03l-18.64,4.95c-.26,.07-.55,0-.75-.19l-7.11-6.56c-.22-.2-.53-.27-.81-.16l-13.4,4.85c-.14,.05-.27,.14-.36,.26l-11.9,15.38c-.15,.2-.38,.31-.63,.31h-6.39c-.16,0-.32-.05-.45-.14l-6.63-4.51c-.14-.09-.24-.22-.3-.38l-6.55-17.38c-.02-.06-.06-.11-.1-.16h-.14c.05,.06,.1,.13,.13,.21l6.56,17.38c.07,.18,.19,.33,.34,.44l6.63,4.51c.15,.1,.33,.16,.52,.16h6.39c.28,0,.56-.13,.73-.36l11.9-15.38c.08-.1,.18-.18,.3-.22l13.4-4.85c.24-.09,.5-.03,.69,.14l7.11,6.56c.23,.21,.56,.3,.86,.21l18.64-4.95c.06-.02,.12-.02,.17-.02h6.37c.09,0,.18-.01,.26-.04l6.53-1.92c.2-.06,.38-.19,.5-.37l6.15-9.02c.19-.28,.21-.64,.06-.95Z"/>
    <path d="M325.29,81.14h-.02c.08,.09,.19,.16,.31,.2h.02s-.3-.2-.3-.2Z"/>
    <path d="M372.34,55.97l-5.73,1.25c-.3,.06-.53,.29-.6,.58l-6.05,22.96v.29l-.12,.45c-.03,.11-.09,.21-.16,.3l-.07,.27-13.21,11.8c-.34,.31-.88,.26-1.16-.11l-5.62-7.23c-.09-.12-.22-.21-.36-.26,0,0-13.67-4.95-13.68-4.95l-.37-.12,.03-.1-.09-.03,.02-.07-6.12-6.95c-.15-.17-.37-.27-.6-.27h-11.12c-.44,0-.8-.36-.8-.8v-11.05h-.06v-.41h.06v-10.06h-.06v-.41h.06v-13.94h-.06v-.41h.06v-15.1c0-.44,.36-.8,.8-.8h5.14c.2-.05,.4-.1,.61-.13h-5.75c-.51,0-.92,.42-.92,.92v51.37c0,.51,.41,.92,.92,.92h11.12c.19,0,.38,.08,.51,.23l6.22,7.06,.35,.24,.03-.04-.02,.05c.07,.02,13.54,4.9,13.68,4.95,.12,.04,.23,.12,.3,.22l5.62,7.23c.16,.2,.39,.33,.65,.35,.03,0,.06,0,.09,0,.23,0,.44-.08,.61-.24l13.21-11.8,.03-.02,6.41-24.32c.06-.25,.26-.44,.51-.49l5.73-1.25c.22-.05,.43,.02,.59,.16v-.16c-.18-.12-.39-.18-.61-.13Z"/>
    <path d="M339.53,8.53l6.12-7.92c.12-.16,.31-.26,.52-.26,0,0,.01,0,.02,0,.2,0,.38,.08,.51,.23l8.42,9.7c.04,.05,.08,.11,.11,.17l4.32,9.93v-.31l.41,.93v.31l7.21,16.6c.15,.34,.48,.56,.85,.56h5.77c.39,0,.74-.25,.87-.62l6.48-18.23c.1-.27,.35-.45,.64-.45h12.77c.21,0,.4,.09,.52,.25l10.3,12.74c.1,.12,.23,.22,.38,.28l14.56,5.82c.34,.14,.73,.06,1-.2l6.14-6.14c.18-.18,.45-.25,.69-.16l19.82,6.61c.21,.07,.44,.06,.64-.02l5.41-2.21c.14-.06,.3-.07,.45-.02l7.39,2.25c.17,.05,.32,.17,.4,.34l4.79,9.27c.11,.22,.1,.48-.04,.69l-4.93,7.23h.15l4.88-7.16c.17-.24,.18-.56,.05-.82l-4.79-9.27c-.1-.19-.27-.33-.48-.4l-7.39-2.25c-.18-.05-.36-.04-.53,.02l-5.41,2.21c-.18,.07-.37,.08-.56,.02l-19.82-6.61c-.29-.1-.6-.02-.82,.19l-6.14,6.14c-.23,.23-.57,.3-.86,.18l-14.56-5.82c-.13-.05-.24-.13-.32-.24l-10.3-12.74c-.15-.19-.38-.3-.62-.3h-12.77c-.34,0-.64,.21-.75,.53l-6.48,18.23c-.11,.32-.41,.53-.75,.53h-5.77c-.32,0-.61-.19-.73-.48l-11.93-27.46c-.03-.07-.08-.14-.13-.21l-8.42-9.7c-.33-.38-.93-.36-1.24,.04l-6.12,7.92s-.58,.25-1.46,.6v.13c1.39-.55,1.53-.62,1.56-.66Z"/>
    <path d="M320.62,20.95c.07,0,.3,0,6.43-7.48,.27-.14,3.33-1.33,6.04-2.38,1.07-.42,1.95-.76,2.69-1.05v-.13c-3.66,1.43-8.76,3.39-8.81,3.46,0,0-6.1,7.45-6.34,7.45h-5.66c.17,.04,.35,.07,.51,.12h5.14Z"/>
    <path d="M460.83,57.68c-.09,.13-.22,.22-.37,.27l-6.53,1.92c-.06,.02-.13,.03-.19,.03h-6.37c-.08,0-.16,.01-.24,.03l-18.64,4.95c-.22,.06-.46,0-.63-.16l-7.11-6.56c-.26-.24-.62-.31-.94-.19l-13.4,4.85c-.17,.06-.31,.17-.42,.3l-11.9,15.38c-.13,.16-.33,.26-.53,.26h-6.39c-.14,0-.27-.04-.38-.12l-6.63-4.51c-.11-.08-.2-.19-.25-.32l-6.55-17.38s-.05-.08-.07-.12h-.14c.04,.05,.08,.1,.1,.16l6.55,17.38c.06,.15,.16,.29,.3,.38l6.63,4.51c.13,.09,.29,.14,.45,.14h6.39c.25,0,.48-.11,.63-.31l11.9-15.38c.09-.12,.22-.21,.36-.26l13.4-4.85c.28-.1,.59-.04,.81,.16l7.11,6.56c.2,.19,.48,.26,.75,.19l18.64-4.95c.07-.02,.14-.03,.21-.03h6.37c.08,0,.15-.01,.23-.03l6.53-1.92c.18-.05,.33-.16,.44-.32l.99-1.45h-.15l-.94,1.38Z"/>
    <path d="M337.57,9.35v-.13c-.42,.16-.88,.35-1.39,.54v.13c.55-.21,1-.39,1.39-.54Z"/>
    <path d="M359.55,81.96v-.14l-.05,.2-13.18,11.78c-.14,.12-.32,.19-.51,.17-.19-.02-.36-.11-.47-.26l-5.62-7.23c-.11-.14-.25-.24-.42-.3-.46-.17-.89-.32-1.32-.48v.03l-.41-.15v-.03c-.48-.17-.94-.34-1.39-.5v.03l-.41-.15v-.03c-8.56-3.1-9.91-3.59-10.13-3.67l-.1-.07-.02,.05h-.02s-.22-.08-.22-.08l.3,.21h-.02s13.68,4.95,13.68,4.95c.14,.05,.27,.14,.36,.26l5.62,7.23c.28,.37,.82,.41,1.16,.11l13.21-11.8,.07-.27s-.05,.07-.08,.1l-.05,.04Z"/>
    <path d="M372.31,55.85l-5.73,1.25c-.34,.08-.61,.33-.7,.67l-5.93,22.51v.49l6.05-22.96c.08-.29,.31-.52,.6-.58l5.73-1.25c.22-.05,.44,0,.61,.13v-.16c-.19-.11-.42-.15-.64-.09Z"/>
    <rect x="306.53" y="37.13" width=".12" height="13.94"/>
    <rect x="306.53" y="51.48" width=".12" height="10.06"/>
    <path d="M306.66,21.62c0-.37,.3-.67,.67-.67h4.63c.17-.05,.34-.09,.51-.12h-5.14c-.44,0-.8,.36-.8,.8v15.1h.12v-15.1Z"/>
    <path d="M325.22,80.88l-6.07-6.9c-.07-.08-.16-.13-.24-.18h0s-.03-.03-.03-.03c-.13-.06-.27-.11-.41-.11h-11.12c-.37,0-.67-.3-.67-.67v-11.05h-.12v11.05c0,.44,.36,.8,.8,.8h11.12c.23,0,.45,.1,.6,.27l6.12,6.95v-.04s.05-.09,.05-.09Z"/>
    <path d="M166.81,82.33c-3.16,0-5.72,2.56-5.72,5.72,0,2.08,1.12,3.9,2.78,4.9l2.49,.8c.15,.01,.3,.02,.45,.02,2.18,0,4.05-1.24,5.01-3.04l.67-3.29c-.18-1.68-1.09-3.14-2.41-4.07V8.09l-.41-1.44V83.13c-.85-.49-1.82-.8-2.87-.8Z"/>
    <polygon points="155.88 23.12 163.28 6.7 162.8 6.79 155.6 22.74 152.42 18.2 152.22 18.63 155.41 23.17 149.13 37.1 149.5 37.26 155.68 23.56 159.21 28.59 156.17 35.33 156.54 35.5 159.48 28.97 164.09 35.53 164.42 35.3 159.68 28.54 169.63 6.48 169.46 5.87 159.41 28.16 155.88 23.12"/>
    <path d="M169.54,5.69l.55,1.93v-.46l-.44-1.56s-.04-.01-.05-.02l-.05,.11Z"/>
    <path d="M165.67,93.66l-1.15-.37c.36,.16,.75,.29,1.15,.37Z"/>
    <path d="M172.29,89.62l.17-.83c.03-.24,.07-.48,.07-.73,0-.05,0-.09,0-.13l-.48,2.34c.09-.21,.18-.42,.24-.65Z"/>
    <polygon points="169.46 5.87 169.63 6.48 169.68 6.37 169.68 6.65 170.09 8.09 170.09 7.63 169.54 5.69 169.46 5.87"/>
    <path d="M163.87,92.95c.21,.12,.42,.24,.65,.34l1.15,.37c.23,.05,.46,.07,.7,.09l-2.49-.8Z"/>
    <path d="M171.83,90.73c.08-.15,.16-.31,.22-.47l.48-2.34c0-.16-.01-.32-.03-.48l-.67,3.29Z"/>
    <polygon points="163.31 6.64 162.82 6.73 162.8 6.79 163.28 6.7 163.31 6.64"/>
    <polygon points="21.86 1.71 21.48 1.71 21.86 2.25 21.86 1.71"/>
    <polygon points="21.65 2.37 21.46 2.11 21.46 100.13 21.86 100.13 21.86 3.06 21.65 2.37"/>
    <polygon points="21.46 1.83 21.46 1.9 21.77 2.32 21.86 2.64 21.86 2.37 21.86 2.25 21.48 1.71 21.46 1.71 21.46 1.83"/>
    <rect x="21.46" y="100.25" width=".41" height=".06"/>
    <rect x="21.46" y="100.13" width=".41" height=".12"/>
    <polygon points="21.65 2.37 21.86 3.06 21.86 2.64 21.77 2.32 21.46 1.9 21.46 2.11 21.65 2.37"/>
    <path d="M17.88,1.78V51.8h-6.21v.1h0s0-.07,0-.1c0-3.16-2.56-5.72-5.72-5.72-2.98,0-5.43,2.29-5.69,5.2v1.04c.26,2.92,2.71,5.2,5.69,5.2s5.55-2.4,5.7-5.42h3.12v-.1h3.11v48.12h.41V1.78h-.41Z"/>
    <rect x="17.88" y="100.25" width=".41" height=".06"/>
    <path d="M.22,51.8c0,.18,.01,.35,.03,.52v-1.04c-.02,.17-.03,.34-.03,.52Z"/>
    <rect x="17.88" y="1.71" width=".41" height=".07"/>
    <rect x="17.88" y="100.13" width=".41" height=".12"/>
    <path d="M35.92,75.81s.02,.02,.03,.03h51.39l.15-.41H35.92v.38Z"/>
    <polygon points="87.66 75.05 87.62 75.05 87.56 75.2 87.49 75.4 87.47 75.46 87.59 75.46 87.6 75.46 87.66 75.29 87.66 75.26 87.66 75.05"/>
    <polygon points="87.33 75.46 87.47 75.46 87.49 75.4 87.56 75.2 87.62 75.05 87.48 75.05 87.33 75.46"/>
    <path d="M35.92,75.46h.03s-.02-.02-.03-.03v.03Z"/>
    <polygon points="69.55 25.96 69.55 1.78 69.14 1.78 69.14 25.56 48.04 25.56 48.04 1.78 47.63 1.78 47.63 25.96 69.55 25.96"/>
    <rect x="69.14" y="1.71" width=".41" height=".07"/>
    <rect x="47.63" y="1.71" width=".41" height=".07"/>
    <polygon points="96.07 79.89 91.95 75.42 96.2 80.42 101.71 76.72 96.12 80 96.07 79.89"/>
    <path d="M112.19,69.41l.17-.15-6.08-7.16-.31,.26,5.95,7.01-12.57,8.43,2.57-1.51h.04c.1,.01,.19,.03,.27,.06l10.08-6.76-.13-.19Z"/>
    <path d="M82.95,64.8l6.27,7.4s.04,0,.06,0h.05s5.45,5.93,5.45,5.93l-11.52-13.59-.31,.26Z"/>
    <path d="M102.08,76.47s-.08-.04-.12-.04l-4.31,2.53-1.37,.92h0s0,0,0,0l-.06-.08-.03,.02h0s0,0,0,0l-6.24-6.79,2.03,2.39,4.11,4.47,.05,.1,5.59-3.28,.34-.23,.03-.02Z"/>
    <path d="M101.96,76.31h-.04s-2.57,1.51-2.57,1.51l-1.71,1.15,4.31-2.53s.08,.03,.12,.04l.16-.1c-.08-.03-.17-.05-.27-.06Z"/>
    <path d="M89.34,72.2h-.05s-.04,0-.06,0l.15,.18,.55,.64,6.24,6.79h0s0,0,0,0l-1.39-1.69-5.45-5.93Z"/>
    <polygon points="97.33 32.29 90.26 36.93 82.38 30.69 82.13 31.01 90.12 37.34 90.25 37.18 90.36 37.35 97.55 32.63 97.33 32.29"/>
    <polygon points="93.88 61.83 94.24 62.02 110.79 30.94 110.43 30.75 93.88 61.83"/>
    <polygon points="123.74 97.62 123.74 97.67 124.15 97.67 124.15 97.34 124.14 97.35 123.74 97.62"/>
    <polygon points="124.15 1.71 123.83 1.71 124.15 1.96 124.15 1.71"/>
    <path d="M123.97,2.14s0,0-.01-.01l-.22-.16V97.33l.25-.18,.16-.24V2.48l-.17-.34Z"/>
    <path d="M123.74,1.79v.02l.31,.23s.02,.02,.03,.03l.07,.14v-.24l-.32-.25h-.09v.07Z"/>
    <path d="M124.15,97.13l-.07,.1s-.02,.02-.03,.03l-.31,.21v.13h0s.4-.26,.4-.26h0v-.22Z"/>
    <path d="M123.99,97.15l-.25,.18v.15l.31-.21s.02-.02,.03-.03l.07-.1v-.23l-.16,.24Z"/>
    <path d="M123.96,2.13s0,0,.01,.01l.17,.34v-.28l-.07-.14s-.02-.02-.03-.03l-.31-.23v.16l.22,.16Z"/>
    <path d="M327.82,55.45c3.16,0,5.72-2.56,5.72-5.72s-2.56-5.72-5.72-5.72-5.72,2.56-5.72,5.72,2.56,5.72,5.72,5.72Z"/>
    <circle cx="348.17" cy="49.73" r="5.72"/>
    <path d="M336.19,85.05V49.93h1.39v35.62c.13,.05,.27,.1,.41,.15V9.19c-.12,.05-.26,.1-.41,.16V49.52h-1.39V9.89c-.13,.05-.26,.1-.41,.16V84.9c.14,.05,.27,.1,.41,.15Z"/>
    <path d="M337.98,8.98l-.41,.15v.08c.14-.06,.28-.11,.41-.16v-.08Z"/>
    <path d="M336.19,9.65l-.41,.15v.11c.14-.05,.27-.11,.41-.16v-.11Z"/>
    <path d="M337.57,85.58l.41,.15v-.03c-.14-.05-.27-.1-.41-.15v.03Z"/>
    <path d="M335.78,84.93l.41,.15v-.03c-.14-.05-.27-.1-.41-.15v.03Z"/>
    <path d="M337.98,9.19v-.13c-.13,.05-.26,.1-.41,.16v.13c.15-.06,.28-.11,.41-.16Z"/>
    <path d="M336.19,9.89v-.13c-.13,.05-.27,.1-.41,.16v.13c.14-.06,.27-.11,.41-.16Z"/>
    <polygon points="354.68 71.25 354.68 71.65 359.55 71.65 359.55 81.82 359.95 80.28 359.95 21.32 359.55 20.39 359.55 71.25 354.68 71.25"/>
    <path d="M359.84,81.51l.12-.45v-.29l-.28,1.05c.07-.09,.13-.19,.16-.3Z"/>
    <path d="M359.55,81.82v.14l.05-.04s.05-.07,.08-.1l.28-1.05v-.49l-.41,1.54Z"/>
    <polygon points="359.95 21.02 359.55 20.08 359.55 20.39 359.95 21.32 359.95 21.02"/>
    <polygon points="342.69 63.65 347.97 63.65 347.97 83.7 348.37 83.7 348.37 63.65 353.65 63.65 353.65 63.45 353.65 63.25 342.69 63.25 342.69 63.65"/>
    <path d="M314.34,20.7c-.21-.02-.41-.06-.62-.06s-.42,.04-.62,.06c0,0,0,0-.01,0h1.27s0,0-.01,0Z"/>
    <path d="M308,26.35c0,3.09,2.45,5.59,5.52,5.7v4.67h-6.86v.41h12.78v-.41h-5.52v-4.67c3.06-.11,5.52-2.61,5.52-5.7,0-2.54-1.67-4.66-3.96-5.4h-3.53c-2.29,.74-3.96,2.87-3.96,5.4Z"/>
    <rect x="306.47" y="36.73" width=".06" height=".41"/>
    <path d="M314.97,20.82c-.2-.05-.4-.1-.61-.13h-1.27c-.21,.02-.41,.08-.61,.13h2.5Z"/>
    <path d="M311.96,20.95h3.53c-.17-.05-.34-.09-.51-.12h-2.5c-.17,.04-.35,.07-.51,.12Z"/>
    <rect x="306.53" y="36.73" width=".12" height=".41"/>
    <polygon points="319.64 51.07 306.66 51.07 306.66 51.48 319.24 51.48 319.24 61.54 306.66 61.54 306.66 61.94 319.64 61.94 319.64 51.07"/>
    <rect x="306.47" y="51.07" width=".06" height=".41"/>
    <rect x="306.47" y="61.54" width=".06" height=".41"/>
    <rect x="306.53" y="61.54" width=".12" height=".41"/>
    <rect x="306.53" y="51.07" width=".12" height=".41"/>
    <path d="M318.61,73.52l.26,.25s.02,.02,.04,.03l12.99-13.3-6.67,20.38,.12,.14,.21,.14,7.27-22.19-14.21,14.55Z"/>
    <path d="M325.29,81.14l-.05-.03-.07-.08-.02,.07,.09,.03-.03,.1,.37,.12c-.12-.05-.22-.12-.31-.21h.02Z"/>
    <path d="M318.9,73.81h0s-.02-.03-.04-.03l.03,.03Z"/>
    <polygon points="325.29 81.14 325.52 81.21 325.53 81.22 325.55 81.16 325.34 81.02 325.22 80.88 325.19 80.97 325.17 81.02 325.24 81.1 325.29 81.14"/>
    <polygon points="391.57 35.29 400.51 48.33 400.84 48.1 391.45 34.4 386.69 48.15 387.07 48.28 391.57 35.29"/>
    <path d="M372.95,55.95c.15,.08,.26,.21,.35,.36h88.47l.28-.41h-89.1v.05Z"/>
    <path d="M372.95,56.1v.16s.04,.03,.06,.05h.14c-.06-.08-.12-.15-.2-.21Z"/>
    <polygon points="462.05 56.31 462.33 55.9 462.2 55.9 461.92 56.31 462.05 56.31"/>
    <polygon points="461.77 56.31 461.92 56.31 462.2 55.9 462.05 55.9 461.77 56.31"/>
    <path d="M372.95,55.95v.16c.08,.05,.15,.12,.2,.21h.14c-.09-.15-.2-.28-.35-.36Z"/>
    <circle cx="271.44" cy="50.34" r="5.72" transform="translate(121.06 281.85) rotate(-67.5)"/>
    <rect x="212.1" y="73.59" width="25.33" height=".41"/>
    <g>
      <path d="M299.29,49.33c.08,.22,.08,.46-.02,.68l-7.19,16.56s-.03,.08-.06,.12l-6.42,10.44c-.05,.08-.12,.16-.2,.23l-6.71,5.53c-.09,.06-.18,.12-.28,.15l-6.43,2.27-.46,.13s-.05,.01-.09,.01h-12.96s-3.74,2.05-3.74,2.05l-3.66,2.15-10.66-7.11h-4.04l-4.85,6.66c-.14,.2-.37,.34-.62,.37l-12.84,1.75c-.2,.03-.41-.01-.58-.11l-6.02-3.47c-.24-.13-.53-.11-.74,.05l-12.72,9.6c-.16,.13-.36,.19-.55,.19-.08,0-.16,0-.24-.03l-6.29-1.63c-.36-.09-.63-.39-.68-.76l-5.59-36.64s-.01-.09-.01-.14v-19.04s0-.1,.01-.15L191.05,1.02c.07-.45,.46-.77,.91-.77h5.1c.25,0,.49,.1,.66,.28l6.67,6.83,5.34,2.32c.18,.07,.39,.06,.57-.04l5.29-2.94v-.02l.41-.22h0s1.04-.57,1.04-.57c.2-.11,.43-.14,.65-.09l13.73,3.14c.18,.04,.34,.13,.47,.27l5.49,5.86c.23,.23,.58,.28,.86,.11l13.25-8.33c.17-.11,.75,.18,5.82,3.5,1.1,.73,2.15,1.41,2.31,1.49l11.62,.06v-.06h.13c.09,0,.19,.02,.27,.05h0s.11,.01,.11,.01c3.99,1.48,5.91,2.2,6.85,2.56h0s.41,.14,.41,.14v.02c.47,.18,.49,.2,.5,.2,5.63,4.95,5.66,5.01,5.68,5.03l7.63,11.95s.04,.06,6.47,17.53Zm-.25,.58c.07-.16,.08-.34,.02-.5-.03-.05-.68-1.83-1.57-4.24v8.31l1.55-3.57Zm-1.95,4.5v-3.88h-3.27c-.11,3.07-2.61,5.52-5.7,5.52s-5.72-2.56-5.72-5.72,2.56-5.72,5.72-5.72,5.59,2.46,5.7,5.52h3.27v-6.06c-1.88-5.09-4.42-12-4.49-12.16l-7.63-11.92c-.08-.09-2.25-2.01-4.01-3.55V80.69l4.28-3.53c.06-.04,.11-.1,.15-.17l6.42-10.43s.03-.05,.04-.08l5.24-12.07Zm-16.53,26.61V16.08c-.48-.42-.9-.79-1.22-1.07-.02-.01-.14-.06-.33-.13V82.3l1.55-1.28Zm-1.96,1.61v-10.37h-3.69v-.41h3.69V14.72c-1.58-.59-5.27-1.97-6.92-2.58h-.04v30.01h-.4V12.14l-11.64-.05c-.08,0-.17-.05-2.43-1.53-1.93-1.26-5.15-3.37-5.58-3.48l-13.22,8.31c-.37,.24-.87,.17-1.17-.15l-5.49-5.86c-.1-.1-.21-.17-.34-.2l-1.23-.28v15.59h-14.55V6.98l-5.17,2.88c-.24,.13-.53,.15-.78,.05l-4.98-2.17V92.05l5.91-4.46c.29-.23,.69-.25,1.01-.06l6.02,3.46c.13,.07,.28,.1,.43,.08l12.84-1.75c.18-.02,.34-.12,.45-.27l4.92-6.76h3.79l-.28-.19,.22-.34,10.91,7.27,.21,.14,.11-.07,8.25-4.81-6.43-4.16,.22-.34,6.71,4.34-.11,.17,.1,.17-1.21,.72h12.7s.02,.01,.04,0h0v-20.93h-5.27v-.41h10.96v.41h-5.28v20.81h0s.03,0,.03,0l6.41-2.26c.08-.03,.15-.07,.21-.12l.07-.06Zm-48.87-58.54V8.81l-12.09-2.77c-.16-.03-.33-.01-.48,.07l-1.16,.65V24.09h13.73Zm-25.48,68.27V7.56h-.03s-3.14-3.23-3.14-3.23V94.75l3.17-2.39Zm-3.58,2.7V50.53h-4.55c-.11,3.07-2.61,5.52-5.7,5.52-2.67,0-4.9-1.83-5.53-4.3v6.63s0,.07,.01,.1l5.58,36.65c.04,.26,.24,.48,.5,.55l6.29,1.63c.21,.05,.42,.01,.58-.12l2.82-2.13Zm0-44.93V3.91l-3.13-3.21c-.12-.13-.3-.2-.48-.2h-5.1c-.33,0-.61,.23-.66,.56l-6.4,38.17s-.01,.07-.01,.11v9.58c.63-2.48,2.86-4.31,5.53-4.31,3.09,0,5.59,2.46,5.7,5.52h4.55Z"/>
      <path class="cls-1" d="M297.09,50.53v3.88l-5.24,12.07s-.02,.05-.04,.08l-6.42,10.43c-.04,.07-.09,.13-.15,.17l-4.28,3.53v-30.36h1.44c0,3.16,2.56,5.72,5.72,5.72s5.59-2.45,5.7-5.52h3.27Z"/>
      <path class="cls-1" d="M297.09,44.07v6.06h-3.27c-.11-3.06-2.61-5.52-5.7-5.52s-5.72,2.56-5.72,5.72h-1.44V16.44c1.76,1.54,3.93,3.46,4.01,3.55l7.63,11.92c.07,.16,2.61,7.07,4.49,12.16Z"/>
      <path class="cls-1" d="M280.56,16.08V81.02l-1.55,1.28V14.88c.19,.07,.31,.12,.33,.13,.32,.28,.74,.65,1.22,1.07Z"/>
      <path class="cls-1" d="M278.6,72.26v10.37l-.07,.06c-.06,.05-.13,.09-.21,.12l-6.41,2.26h-.03s0,0,0,0v-20.81h5.28v-.21h1.44v7.8h-3.69v.41h3.69Z"/>
      <path class="cls-1" d="M278.6,50.33v13.72h-1.44v-.2h-10.96v.41h5.27v20.92h0s-.03,.02-.04,.02h-12.7s1.21-.73,1.21-.73l-.1-.17,.11-.17-6.71-4.34-.22,.34,6.43,4.16-8.25,4.81-.11,.07-.21-.14-10.91-7.27-.22,.34,.28,.19h-3.79l-4.92,6.76c-.11,.15-.27,.25-.45,.27l-12.84,1.75c-.15,.02-.3-.01-.43-.08l-6.02-3.46c-.32-.19-.72-.17-1.01,.06l-5.91,4.46V7.74l4.98,2.17c.25,.1,.54,.08,.78-.05l5.17-2.88V24.49h14.55V8.9l1.23,.28c.13,.03,.24,.1,.34,.2l5.49,5.86c.3,.32,.8,.39,1.17,.15l13.22-8.31c.43,.11,3.65,2.22,5.58,3.48,2.26,1.48,2.35,1.53,2.43,1.53l11.64,.05v30.01h.2v2.46c-3.16,0-5.72,2.56-5.72,5.72s2.56,5.72,5.72,5.72,5.72-2.56,5.72-5.72h1.44Zm-31.37,25.98l18-60.38-.39-.12-18,60.39,.39,.11Zm4.32-57.53l-.22-.34-6.44,3.98-8.4-6.21-.24,.33,8.56,6.33,.1-.15,.08,.12,6.56-4.06Zm-14.11,55.21v-.41h-25.33v.41h25.33Z"/>
      <path class="cls-1" d="M278.6,14.72V50.33h-1.44c0-3.16-2.56-5.72-5.72-5.72v-2.46h.2V12.14h.04c1.65,.61,5.34,1.99,6.92,2.58Z"/>
      <circle cx="271.44" cy="50.33" r="5.72"/>
      <polygon points="265.23 15.93 247.23 76.31 246.84 76.2 264.84 15.81 265.23 15.93"/>
      <polygon points="251.33 18.44 251.55 18.78 244.99 22.84 244.91 22.72 244.81 22.87 236.25 16.54 236.49 16.21 244.89 22.42 251.33 18.44"/>
      <rect x="212.11" y="73.58" width="25.33" height=".41"/>
      <polygon class="cls-1" points="204.25 7.56 204.25 92.36 201.08 94.75 201.08 4.33 204.22 7.55 204.25 7.56"/>
      <path class="cls-1" d="M200.67,50.53v44.53l-2.82,2.13c-.16,.13-.37,.17-.58,.12l-6.29-1.63c-.26-.07-.46-.29-.5-.55l-5.58-36.65s-.01-.06-.01-.1v-6.63c.63,2.47,2.86,4.3,5.53,4.3,3.09,0,5.59-2.45,5.7-5.52h4.55Z"/>
    </g>
  </g>
  <polygon points="105.66 78.97 99.87 82.73 102.9 81.09 105.66 78.97"/>
</svg>