<?xml version="1.0" encoding="UTF-8"?>
<svg id="Layer_1" data-name="Layer 1" xmlns="http://www.w3.org/2000/svg" viewBox="0 0 434.61 278.98">
  <defs>
    <style>
      .cls-1 {
        fill: #ef1818;
      }
    </style>
  </defs>
  <path class="cls-1" d="M137.75,257.6l-6.56,5.41c6.77,8.21,17.61,9.94,25.56,9.94,5.52,0,9.65-.84,10.06-.92l-1.74-8.32c-.19,.04-19.12,3.82-27.32-6.11Z"/>
  <path class="cls-1" d="M210.1,264.58c0-2.38-.65-4.77-2.63-6.57-5.25-4.76-15.04-.27-17.91,1.22l3.91,7.55c2.87-1.49,6.63-2.58,8.12-2.42,.04,.64-.08,2.27-1.39,5.55l5.87,5.36c.24-.12,24.49-12.12,54.07-2.86l2.54-8.11c-22.68-7.1-42.22-3.11-52.59,.27Z"/>
  <path class="cls-1" d="M2.96,57.27c2.33,6,7.94,9.58,15.01,9.58h.01c5.88,0,10.96-2.96,14.31-8.33,3.09-4.95,4.55-11.85,4.31-18.71,2.8,.57,5.76,1.41,8.84,2.5-.59,10.23,.02,20.55,1.85,32.11l8.4-1.33c-1.57-9.92-2.21-18.7-1.92-27.31,.54,.26,1.08,.51,1.63,.78l3.77-7.62c-1.6-.79-3.18-1.51-4.75-2.2,.51-4.62,1.28-9.29,2.33-14.16,1.36-6.27,.35-10.95-3-13.9-5.68-5.01-15.22-1.86-16.29-1.48l2.82,8.02c2.06-.72,6.45-1.4,7.85-.17,.82,.72,.93,2.86,.31,5.73-.94,4.36-1.67,8.61-2.2,12.82-3.8-1.24-7.45-2.13-10.92-2.66-.53-2-1.23-3.92-2.1-5.69C26.96,12.42,13.53,13.73,7.31,16.22l3.13,7.9c1.1-.43,10.85-3.91,15.14,4.88,.22,.46,.43,.93,.63,1.42-7.17,.32-13.23,2.56-17.79,6.73C2.57,42.52,.37,50.6,2.96,57.27Zm11.21-13.85c3.32-3.04,8.08-4.54,13.89-4.54,.4,5.59-.61,11.35-2.97,15.14-1.82,2.91-4.14,4.33-7.1,4.33h0c-3.53,0-6.05-1.48-7.09-4.16-1.11-2.85-.52-7.29,3.28-10.77Z"/>
  <path class="cls-1" d="M64.52,9.07c.44,.26,1.07,.77,1.41,2.22,.18,1-.56,4.67-1.22,7.91-2.31,11.36-6.6,32.51-2.05,64.47l8.42-1.2c-4.34-30.51-.39-49.96,1.97-61.58,1.12-5.54,1.8-8.88,1.16-11.57-.81-3.36-2.66-5.98-5.36-7.57-4.87-2.88-10.71-1.39-11.36-1.21l2.26,8.19c.57-.16,3.21-.59,4.78,.34Z"/>
  <path class="cls-1" d="M8.36,159.94c2.48,1.56,5.22,2.35,8.07,2.35,2.52,0,5.12-.61,7.71-1.84,4.51-2.14,7.71-6.53,9.01-12.34,1.06-4.72,.79-9.93-.66-15.23,2.91,.9,5.82,2.17,8.59,3.67-2.03,15.97-.18,27.85,2.01,38.7l8.33-1.68c-1.91-9.49-3.46-19.21-2.36-31.81,.45,.35,.9,.7,1.33,1.06l5.45-6.52c-1.79-1.5-3.63-2.87-5.51-4.13,.38-2.12,.81-4.3,1.34-6.59,1.64-7.1,.61-12.38-3.08-15.69-6.31-5.67-17.27-2.11-18.5-1.68l2.77,8.04c2.96-1.01,8.19-1.71,10.05-.03,1.15,1.04,1.33,3.76,.47,7.45-.32,1.37-.6,2.71-.87,4.03-4.67-2.22-9.39-3.7-13.92-4.36-1.62-2.99-3.6-5.94-5.91-8.76l-6.57,5.39c.84,1.02,1.67,2.13,2.47,3.31-2.42,.37-4.7,1.04-6.8,2.02C4.34,128.78,.06,135.87,.07,144.76c0,5.95,3.33,12.05,8.29,15.18Zm7.04-26.95c2.32-1.08,4.89-1.59,7.59-1.63,1.98,4.84,2.95,10.06,1.87,14.89-.72,3.21-2.27,5.52-4.36,6.52-2.86,1.36-5.42,1.35-7.59-.02-2.51-1.58-4.33-4.95-4.33-8,0-5.61,2.36-9.67,6.83-11.76Z"/>
  <path class="cls-1" d="M71.2,106.76c-.43-2.43-1.72-4.4-3.76-5.68-4.4-2.78-10.76-1.22-11.99-.88l2.26,8.19c1.86-.5,4.35-.58,5.11-.18,.08,1-.67,4.43-1.33,7.45-2.66,12.21-7.62,34.95-1.7,65.31l8.34-1.63c-5.59-28.63-.87-50.25,1.67-61.87,1.13-5.2,1.82-8.34,1.4-10.73Z"/>
  <polygon class="cls-1" points="107.17 9.58 111.17 11 111.17 11 107.17 9.58"/>
  <polygon class="cls-1" points="111.17 11 111.17 11 111.17 11 111.17 11"/>
  <polygon class="cls-1" points="102.92 55.51 101.57 55.91 98.85 56.72 102.92 55.51"/>
  <path class="cls-1" d="M101.57,55.91l5.43-1.61c-.96-3.23-1.05-6.15-.71-7.17,.17,0,.43,.02,.8,.1,1.46,.31,3.21,.81,5.24,1.39,10.23,2.93,27.36,7.82,54.03,1.58l-1.94-8.28c-5.13,1.2-9.84,1.96-14.19,2.38,2.71-18.58,.32-31.31-7.1-37.84-7.5-6.6-16.95-4.04-17.35-3.92l2.27,8.19c.22-.06,5.54-1.4,9.53,2.17,.63,.57,1.27,1.29,1.87,2.2-5.32,1.96-10.4,4.81-14.99,7.4-4.82,2.72-12.11,6.82-13.88,5.51-2.76-2.05-1.4-11.36,.6-17.02l-8.01-2.85c-.07,.19-1.65,4.68-2.34,9.89-1.06,8.05,.51,13.7,4.68,16.8,1.83,1.36,3.8,1.93,5.91,1.93,5.03,0,10.81-3.26,17.2-6.86,4.27-2.4,8.98-5.05,13.66-6.79,.78,4.69,.83,11.17-.49,20.11l7.72,1.14c-16.06,1.45-27.02-1.69-34.85-3.93-2.18-.62-4.07-1.16-5.82-1.53-4.59-.98-7.29,.69-8.74,2.26-4.01,4.34-2.21,12.31-1.26,15.54l2.72-.8Z"/>
  <path class="cls-1" d="M126.55,67.46c-.79,.27-1.35,.4-1.72,.46-.09-.37-.17-.81-.24-1.15-.43-2.25-1.58-8.23-8.3-7.85-3.68,.21-7.08,2.84-9.42,5.19-3.74-2.63-8.96-4.61-13.98-2.16-2.19,1.07-3.7,2.93-4.25,5.26-1.39,5.86,3.74,13.21,5.35,15.32l6.77-5.14c-2.05-2.72-3.84-6.42-3.88-7.91,2.54-.87,6.38,2.51,7.29,3.49l6.58-.37c1.59-2.19,3.92-4.32,5.33-4.99,.05,.26,.11,.53,.15,.75,.4,2.12,1.02,5.33,4.06,7.09,2.3,1.33,5.25,1.35,9.02,.05,18.67-6.44,45.87-1.45,46.14-1.4l1.58-8.35c-1.2-.23-29.67-5.47-50.49,1.71Z"/>
  <path class="cls-1" d="M256.18,51.71c-.79-12.13-3.95-21.22-5.75-25.52,3.18-3.84,8.69-11.88,7.06-19.77-.49-2.36-1.93-4.13-4.08-5-2.43-.99-8.31-1.42-20.37,6.77l4.78,7.03c4.1-2.78,8.99-5.2,11.46-5.76-.05,4.85-4.99,11.05-6.9,12.99l-.74,4.94c.08,.16,5.72,11.38,6.15,28.16-17.55,7.5-44.3,15.76-50.65,3.84-2.28-4.28,.43-8.93,3.45-11.61,3.18-2.83,7.7-5.56,12.07-8.2,9.66-5.84,20.6-12.46,16.32-21.87-1.16-2.54-3.2-4.4-5.9-5.36-3.53-1.26-8.22-1-13.96,.76-1.65,.51-3.14,1.07-4.34,1.55-6.2-5.61-10.31-5.62-12.3-5.05-1.44,.41-3.99,1.7-4.82,5.65-1.24,5.86,.75,9.98,.98,10.43l7.56-3.88,.04,.08c-.03-.06-.6-1.35-.47-3.39,1.45,.88,3.48,2.52,5.05,4.14l4.94,.87c4.08-2,11.27-4.3,14.47-3.15,.62,.22,.85,.5,1.02,.88,1.15,2.53-7.35,7.67-12.98,11.08-4.7,2.84-9.56,5.78-13.32,9.12-6.9,6.13-9.03,14.96-5.3,21.96,3.73,7.01,10.8,10.51,21.1,10.51,6.22,0,13.61-1.28,22.16-3.84,5.19-1.55,10.19-3.4,14.58-5.18-.47,5.01-1.46,10.35-3.18,15.92l8.12,2.51c2.45-7.94,3.58-15.43,3.87-22.26,4.01-1.86,6.56-3.2,6.81-3.33l-3.98-7.51c-.87,.46-1.86,.96-2.94,1.5Z"/>
  <path class="cls-1" d="M341.74,9.5c.02,.1,.03,.26,.03,.51-.1,3.67-4.38,7.98-5.86,9.2l-.23,6.41c.34,.32,8.21,8.07,5.18,25.09l8.37,1.49c2.66-14.93-1.72-24.57-4.91-29.32,2.57-2.83,5.81-7.41,5.95-12.64,.08-3.2-1.12-5.87-3.38-7.53-4.66-3.42-11.99-1.14-13.41-.65l2.76,8.04c1.97-.67,4.63-.94,5.51-.59Z"/>
  <path class="cls-1" d="M313.8,64.85l1.28-8.4c-8.82-1.34-20.11-.27-25.47,5.14-2.44,2.47-3.49,5.69-2.94,9.08,1.62,9.99,17.84,12.17,28.96,12.17,3,0,5.63-.16,7.5-.36,7.54-.83,25.19-2.77,25.37-15.76,.22-15.91-32.1-20.55-38.59-21.32l-1,8.44c14.77,1.76,31.16,7.43,31.09,12.76-.05,3.68-5.88,6.11-17.8,7.43-6.01,.66-13.16,.37-18.64-.76-6.63-1.36-8.39-3.36-8.49-3.95-.1-.63-.04-1.11,.59-1.74,2.6-2.63,10.75-3.85,18.15-2.72Z"/>
  <path class="cls-1" d="M160.36,118.29c3.06-3.14,3.51-7.37,1.16-10.77-2.67-3.86-7.95-5.21-12.55-3.21-3.22,1.4-7.24,4.83-9.15,13.17-6.9,.78-15.09,.56-22.78-.17-1.51-5.17-4.03-8.99-7.58-11.38-7.32-4.95-15.76-1.61-16.11-1.47l3.17,7.89s4.7-1.77,8.23,.66c1.05,.72,1.95,1.77,2.7,3.12-1.87-.29-3.66-.6-5.31-.93l-1.65,8.34c1.17,.23,4.66,.89,9.42,1.53,.2,1.85,.3,3.88,.29,6.08-.01,2.25-.11,4.24-.28,6-6.88,1.61-11.19,4.36-12.62,7.08-1.75,3.3-1.23,7.31,1.32,10.21,1.82,2.06,4.33,3.18,6.9,3.18,1.05,0,2.12-.19,3.15-.57,3.16-1.18,6.74-4.39,8.66-12.45,5.7-.61,13.37-.49,23.01,1.38,.44,2.64,.99,5.44,1.64,8.41l8.3-1.82c-.34-1.55-.64-3.03-.92-4.46,4.43,1.23,9.2,2.8,14.31,4.8l3.1-7.92c-6.72-2.63-13.01-4.6-18.86-6.04-.74-6.04-.81-10.67-.56-14.15,5.29-1.26,9.89-3.31,13-6.51Zm-7.86-6.23c.31-.12,.6-.16,.85-.16,.49,0,.86,.18,1.05,.33-.03,.04-.08,.09-.13,.14-1.16,1.19-2.78,2.17-4.74,2.94,1.18-2.36,2.47-3.06,2.97-3.25Zm-46.8,37.03c-.23,.09-.46,0-.69-.26-.05-.05-.25-.3-.22-.52,.38-.36,1.33-.93,2.83-1.52-.74,1.46-1.47,2.13-1.92,2.3Zm12.85-13.19c.09-1.47,.15-3.03,.15-4.7,0-1.82-.06-3.54-.18-5.19,6.3,.53,13.46,.76,20.23,.15-.12,3.19,0,6.83,.4,10.97-7.9-1.34-14.8-1.63-20.61-1.23Z"/>
  <path class="cls-1" d="M136.04,163.31c-.64-.66-.71-1.13-.62-1.71,.66-4.27-1.05-6.34-2.6-7.32-4.57-2.89-10.59,1.18-20.58,7.92-4.79,3.23-9.74,6.58-13.37,8.14-1.2,.52-1.84,.56-2.08,.56-.67-.98-.79-4.74-.21-7.69l-8.34-1.65c-.38,1.92-2.03,11.74,3.25,16.02,1.17,.95,2.9,1.82,5.31,1.82,1.53,0,3.32-.35,5.42-1.25,4.37-1.88,9.66-5.45,14.77-8.9,3.01-2.03,7.12-4.81,9.94-6.32,.22,2.34,1.24,4.49,3.03,6.32,8.25,8.46,31.97,7.93,43.35,6.46l-1.09-8.43c-15.56,2-32.13,.19-36.18-3.97Z"/>
  <path class="cls-1" d="M212.9,141.77c6.29-4.56,12.79-9.27,16.8-15.17,3.77-5.54,2.88-9.37,1.47-11.61-3.81-6.05-15.18-5.66-21.53-4.9-4.22-3.4-9.8-6.72-14.57-3.8-6.55,4.01-4.26,16.72-2.97,21.99l8.26-2.01c-1.18-4.86-1.53-10.54-.83-12.48,.78,.23,2.65,1.05,6.06,3.99l3.4,.99c7.35-1.09,13.49-.35,14.88,.67-.06,.32-.3,1.08-1.19,2.39-3.17,4.67-9.06,8.94-14.76,13.06-9.92,7.19-21.16,15.33-15.41,26.55,2.6,5.06,8.57,7.57,18.12,7.57,4.19,0,9.07-.48,14.65-1.44,12.23-2.11,23.44-5.76,23.91-5.92l-2.65-8.08c-.11,.04-11.16,3.64-22.79,5.63-15.47,2.66-22.38,.89-23.68-1.64-2.09-4.07,2.07-7.99,12.83-15.78Z"/>
  <path class="cls-1" d="M255.45,104.4c-3.66-5.79-11.83-4.76-12.75-4.62l1.23,8.41c1.6-.22,3.92,.08,4.33,.75,.02,.03,1.51,2.66-5.08,12.43l.03,4.8c.71,1.03,17.23,25.54,.32,50.02l6.99,4.83c8.42-12.19,11.03-26.39,7.56-41.07-1.74-7.34-4.59-13.07-6.35-16.15,5.32-8.58,6.54-14.94,3.72-19.41Z"/>
  <path class="cls-1" d="M277.06,159.79c.06,.45,.11,1.03,.14,1.76l6.8,3.27c10.49-7.88,20.23-13.9,28.02-17.83-1.66,2.14-3.58,3.88-4.63,4.68l2.69,7.63c3.34-.09,4.2,.64,4.21,.64,.96,2.05-4.22,10.4-9.14,15.79l3.14,2.86-3.14-2.87,6.28,5.73c3.45-3.78,14.4-16.74,10.59-25.06-.76-1.66-1.94-2.95-3.53-3.87,2.19-2.75,4.26-6.29,4.89-10.24,2.45-.68,4.29-.86,5.38-.5,.27,.09,.42,.14,.58,.68,3.99,13.77-2.51,28.35-2.57,28.49l7.73,3.54c.32-.71,7.89-17.54,3.01-34.4-.9-3.11-3.05-5.37-6.05-6.38-1.91-.64-4.67-1.04-9.28,.06-.35-.75-.76-1.48-1.25-2.18,1.33-1.11,2.49-2.36,3.44-3.68,3.94-5.5,4.05-11.79,.25-15.66-6.68-6.81-15.16-4.07-18.71-1.67l4.73,7.06c4.29-2.77,7.35-.02,7.92,.56,.75,.76,.27,2.85-1.09,4.75-2.53,3.53-7.64,6.18-12.87,3.65-2.49-1.2-3.95-2.63-4.32-4.25-.6-2.58,1.32-5.75,2.11-6.75l-3.32-2.65,3.31,2.67-6.61-5.34c-.55,.68-5.35,6.89-3.77,13.91,.66,2.95,2.75,7.09,8.93,10.06,2.72,1.31,5.42,1.88,7.98,1.88,1.52,0,2.99-.21,4.39-.57,.31,.35,.57,.68,.79,1.01-4.03,1.74-8.93,4.26-14.92,7.85-5.87,3.52-11.25,7.16-14.99,9.78-.91-1.7-2.23-2.83-3.93-3.38-1.91-.62-7.1-1.07-14.03,7.98l6.74,5.17c1.24-1.61,2.9-3.28,4.14-4.22Z"/>
  <path class="cls-1" d="M336.81,135.35c4.78-6.14,10.7-15.06,6.9-21.54-3.45-5.88-12.05-4.75-13.02-4.6l1.29,8.4c1.62-.25,3.97,.03,4.39,.49,.01,.03,.93,2.78-6.27,12.02l6.71,5.22Z"/>
  <path class="cls-1" d="M337.78,103.46l4.96,6.9c1.84-1.3,4.84-2.43,5.72-1.89,.03,.02,2.51,1.7,.73,13.29-4.51,29.4-4.21,46.91,1.01,58.57l7.76-3.47c-4.44-9.92-4.55-26.51-.36-53.81,1.79-11.66,.25-18.8-4.7-21.83-6.32-3.87-14.23,1.6-15.11,2.23Z"/>
  <path class="cls-1" d="M421.2,126.6c-6.78,2.2-11.7,2.56-15.2,2.15-.89-2.32-2.21-4.56-3.93-6.62-5.07-6.08-9.03-4.55-10.5-3.61-2.81,1.79-3.49,5.56-1.69,9.38,1.49,3.16,4.46,6.1,9.02,7.85,.07,2.16-.49,4.1-1.45,5.56-2.13,3.25-6.03,4.33-10.69,2.97-3.45-1.01-4.94-4.09-5.18-6.63-.35-3.62,1.42-6.79,4.72-8.49l-3.89-7.56c-6.41,3.3-9.97,9.76-9.29,16.85,.64,6.68,5.06,12.16,11.25,13.97,2.09,.61,4.15,.91,6.12,.91,5.82,0,10.93-2.59,14.06-7.37,1.7-2.59,2.63-5.54,2.82-8.6,4.58,.16,10.05-.6,16.44-2.67l-2.62-8.09Z"/>
  <path class="cls-1" d="M433.23,127.06c-1.65-7.68-4.5-12.86-6.75-15.85,1.35-2.76,2.46-6.64-.12-9.64-4.13-4.8-14.3-1.64-22.1,1.86l3.47,7.76c3.9-1.74,8.37-3.14,11.01-3.52-.25,.48-.58,1.07-1.04,1.79l1.2,5.82c-.06-.04-.15-.1-.26-.19,.18,.16,17.08,17.04-.62,63.44l7.94,3.03c8.06-21.14,10.51-39.47,7.28-54.49Z"/>
  <path class="cls-1" d="M21.24,195.7c-7.18,5.24-8.05,11.16-7.52,15.21,.83,6.25,4.83,10.53,10.99,11.75,1.19,.23,2.41,.35,3.64,.35,7.47,0,15.41-4.11,18.89-10.19,3.16-5.52,2.24-11.78-2.54-17.18l-6.37,5.63c3.11,3.52,2.36,5.86,1.53,7.32-2.22,3.88-8.79,6.66-13.51,5.73-2.53-.5-3.87-1.93-4.21-4.52-.85-6.45,9.65-10.17,9.76-10.21l-1.34-4.03,1.33,4.04-2.66-8.07c-.17,.06-4.17,1.39-7.99,4.18Z"/>
  <path class="cls-1" d="M45.8,236c-1.74-.95-4.48-2.39-7.85-4.03,7.73-4.85,11.82-3.09,11.87-3.07-.11-.05-.16-.08-.16-.08l4.23-7.38c-1.02-.58-10.13-5.2-24.84,6.45-4.05-1.74-8.46-3.46-12.94-4.91-6.05-1.96-10.58-1.41-13.47,1.63-4.84,5.1-1.67,14.29-.98,16.08l7.94-3.03c-1.13-2.99-1.38-6.52-.81-7.19,0,0,1.1-.58,4.7,.59,15.14,4.9,30.04,13.39,30.19,13.48l4.29-.04c.13-.08,13.5-7.95,27.25-8.13l-.11-8.5c-12.67,.17-24.53,5.63-29.3,8.13Z"/>
  <path class="cls-1" d="M36.44,265.35c-.73,.16-1.44,.33-2.15,.5,3.38-3.53,6.78-7.4,9.31-10.99,2.96-4.2,1.7-7.02,.68-8.32-2.48-3.19-7.24-3.28-17.57-.34-3.2,.91-6.26,1.94-8.42,2.69-2.45-2.58-4.93-3.04-6.77-2.88-4.43,.4-8.19,4.65-11.19,12.65l-.04,.12,3.96,1.56-3.95-1.57,7.9,3.14,.1-.25c1.59-4.23,3.08-6.21,3.83-6.92,.24,.25,.58,.69,1.01,1.4l5.16,1.8c5.76-2.19,11.88-4.01,15.99-4.86-7.15,8.84-18.39,18.63-18.52,18.73l4.29,7.18c8.86-3.36,34.63-11,47.21-6.13l3.07-7.93c-7.79-3.02-19.2-2.88-33.91,.42Z"/>
  <path class="cls-1" d="M93.86,218.67c-.44,6.26,1.9,10.15,3.95,12.3,2.54,2.68,6.15,4.32,10.18,4.61,.5,.04,.99,.05,1.47,.05,9.22,0,15.16-6.48,15.65-13.13,.34-4.51-1.1-8.63-4.15-11.92-8.75-9.43-28.37-9.7-30.58-9.7v8.5c4.98,0,19.07,1.28,24.36,6.99,1.46,1.58,2.06,3.32,1.9,5.5-.27,3.57-4.37,5.5-8.03,5.23-2.53-.18-6.71-1.45-6.26-7.83l-8.48-.6Z"/>
  <path class="cls-1" d="M139.03,199.18c-4.91-3.58-11.48-.5-12.21-.14l3.75,7.63c1.29-.62,3.06-.87,3.45-.62,.21,.18,.88,1.68,.26,5.76-3.69,24.34,4.27,38.75,4.61,39.35l7.4-4.18c-.05-.09-3.41-6.19-4.28-17.25,1.29,.43,2.77,.83,4.42,1.18,.87,15.67,6.73,22.42,8.99,24.46l5.68-6.32c-.69-.62-5.12-5.07-6.1-17.21,.25,0,.49,.02,.74,.02,.88,0,1.79-.02,2.72-.07l-.46-8.49c-1.09,.06-2.11,.06-3.11,.04,.16-3.26,.53-6.88,1.19-10.92,1.32-8.11,.15-13.43-3.59-16.26-4.56-3.45-10.24-.94-10.87-.65l3.61,7.7c.54-.25,1.85-.49,2.14-.27,.01,.01,1.42,1.41,.33,8.1-.66,4.05-1.06,7.75-1.25,11.15-1.99-.52-3.51-1.13-4.54-1.61,.13-2.35,.37-4.85,.77-7.49,1.02-6.71-.21-11.39-3.65-13.9Z"/>
  <path class="cls-1" d="M118.99,248.77c1.97-2.59,4.81-4.73,6.12-5.54l-4.44-7.25c-.12,.07-2.98,1.83-5.84,4.67-3.18,3.16-5.2,6.43-6.02,9.76-6.25,2.49-13.73,8.39-19.53,21.83l7.8,3.37c3.87-8.97,8.42-13.59,12.27-15.95,1.13,3.01,3.21,5.34,6.08,6.69,4.13,1.93,9.05,1.36,12.26-1.42,2.71-2.35,3.67-5.89,2.57-9.47-1.11-3.61-5.61-6.27-11.28-6.69Zm3.22,9.65c-.12,.25-1.18,.79-2.54,.46-1.03-.25-1.69-.89-2.1-1.66,2.35,.02,4,.7,4.65,1.15,0,.03,0,.05,0,.05Z"/>
  <path class="cls-1" d="M204.11,208.77c7.8,1.33,10.63,2.2,11.65,6.79,.7,3.13-1.41,6.04-3.67,7.41-1.28,.78-4.61,2.29-7.94-.51-4.15-3.47-1.39-7.93-.45-9.21l-6.79-5.11c-3.61,4.76-6.12,14.23,1.78,20.85,2.86,2.4,6.24,3.61,9.67,3.61,2.76,0,5.55-.78,8.15-2.36,5.92-3.61,8.95-10.25,7.54-16.53-2.37-10.56-11.32-12.08-18.52-13.31-4.14-.71-8.42-1.44-11.79-3.6l-4.6,7.15c4.83,3.11,10.21,4.02,14.96,4.83Z"/>
  <path class="cls-1" d="M199.35,250.44c4.4,0,10.31-.59,17.83-2.51,14.51-3.71,20.88,2.04,21.14,2.29l-.05-.05,6.02-6c-.27-.27-2.79-2.7-7.71-4.37-2.53-.86-5.24-1.36-8.08-1.53-.29-1.51-.31-2.71-.01-3.1,0,0,1.12-.7,5.08,.34l4.9-2.28c2.11-4.39,5.27-8.96,7.04-10.32-2,14.1,.08,25.88,6.37,36.41l7.3-4.36c-6.84-11.47-7.74-24.42-2.91-42,1.93-7.02,1.08-12.09-2.53-15.09-6.62-5.5-18.95,.05-21.36,1.22l3.71,7.65c4.89-2.36,10.83-3.49,12.22-2.33,.42,.35,.91,2.12-.24,6.3-.33,1.19-.63,2.36-.9,3.52-.56-.11-1.07-.14-1.49-.14-5.52,.1-10.34,6.94-13.37,12.51-4.67-.6-8.15,.46-10.37,3.15-2.1,2.55-2.37,5.89-1.97,8.95-1.6,.25-3.23,.56-4.9,.99-15.44,3.94-22.55,1.46-22.62,1.44l.07,.03-3.18,7.88c.55,.22,3.77,1.4,10.01,1.4Zm46.22-27.93s0,.03,0,.05c-.03,0-.05,0-.07,0l.08-.04Z"/>
  <path class="cls-1" d="M312.8,229.89s2.67-2.16,8.51-3.67c5.48-1.42,14.94-2.55,28.89,.09l1.58-8.35c-17.53-3.31-29.28-1.29-36.29,1.19,.18-3.92-.29-8.34-2.54-11.52-1.77-2.49-4.37-3.93-7.53-4.17-2.36-.18-4.63,.62-6.55,2.31-7.5,6.59-9.18,27.73-9.52,34.05l4.24,.23-4.24-.32,8.47,.65v-.11c.05-.76,.44-7.64,1.79-14.79,2.28-12.12,5.16-13.54,5.16-13.54,.78,.06,1.03,.32,1.23,.61,1.67,2.35,.95,9.15-.07,13l6.86,4.34Z"/>
  <path class="cls-1" d="M303.28,253.13c-5.5,1.89-10.24,3.52-13.86,4.28-1.81,.38-5.04,.81-6.39-.6-1.57-1.65-1.34-6.11-.69-8.61l-4.11-1.09,4.1,1.1-8.21-2.2c-.29,1.1-2.72,10.89,2.73,16.64,2.3,2.42,5.43,3.64,9.35,3.64,1.54,0,3.2-.19,4.97-.56,4.13-.87,9.1-2.58,14.87-4.56,17.96-6.17,42.55-14.61,58.4-2.54l5.15-6.76c-19.47-14.82-46.54-5.52-66.31,1.27Z"/>
  <path class="cls-1" d="M284.13,45.67c.05-.08,4.1-6.11,9.62-13.1,3.7,5.28,8.14,9.9,11.91,12.17l4.4-7.27c-1.39-.84-2.96-2.2-4.55-3.86,3.05-1.8,7.19-4.52,12.37-8.56l-2.74,7.29c.26,.1,6.47,2.63,8.63,10.5l8.2-2.24c-3.01-11.02-11.51-15.23-13.45-16.06,.58-.46,1.16-.91,1.76-1.41,3.26-2.65,5.27-5.69,5.81-8.81,.82-4.73-1.93-9.17-6.54-10.55-6.13-1.83-13.9,2.59-24.24,13.81-.36-1.09-.6-2.12-.69-3.05-.43-4.59-2.75-6.53-4.61-7.35-4.84-2.13-10.48,1.7-12.1,2.92l5.14,6.77c.84-.64,2.18-1.37,3.1-1.68,0,.04,0,.08,.01,.13,.27,2.85,1.35,6.12,2.95,9.43-6.74,8.24-11.82,15.83-12.06,16.19l7.07,4.72Zm32.64-33.78c.22,0,.33,.03,.36,.04,.67,.2,.63,.78,.6,.95-.08,.49-.53,1.82-2.8,3.66-6.71,5.44-11.7,8.62-14.78,10.36-.25-.38-.51-.75-.75-1.13,11.24-12.83,16.1-13.88,17.38-13.88Z"/>
</svg>