<?xml version="1.0" encoding="UTF-8"?>
<svg id="Layer_1" data-name="Layer 1" xmlns="http://www.w3.org/2000/svg" viewBox="0 0 443.52 287.11">
  <defs>
    <style>
      .cls-1 {
        fill: #ffeb36;
      }
    </style>
  </defs>
  <path d="M77.91,13.56c-.31-1.27-.76-2.44-1.35-3.49h0s0,0,0,0h0s-2.07-3.63-2.07-3.63c-.15-.28-.3-.55-.47-.82l-.15-.25,.03,.07c-.97-1.49-2.23-2.73-3.76-3.63-5-2.95-11.01-1.43-11.68-1.25l-.19,.05,2.4,8.7,.19-.05s.06-.01,.09-.02l-.28,.07,2.58,3.66c.45-.12,2.14-.41,3.62-.1-.17,1.64-.73,4.42-1.21,6.77-1.11,5.47-2.66,13.19-3.51,23.23l-1.64-3.25-.18-.09c-.68-.33-1.38-.67-2.11-1.01,.5-3.75,1.16-7.56,2.01-11.5,1.07-4.95,.67-8.91-1.15-11.84l.09,.1-2.11-3.73s-.05-.09-.08-.14l-.11-.19,.02,.07c-.54-.9-1.2-1.72-2.01-2.43-5.84-5.15-15.63-1.93-16.72-1.54l-.19,.07,2.93,8.32,.07,.19,2.56,3.65c1.47-.52,4.08-.99,6-.81-.05,.75-.16,1.59-.36,2.5-.95,4.39-1.67,8.57-2.21,12.78-3.41-1.1-6.7-1.91-9.81-2.44-.25-.62-.5-1.26-.79-1.85-.3-.61-.63-1.17-.96-1.72l.08,.07-1.98-3.52,.1,.26C26.97,12.68,13.76,13.97,7.54,16.46l-.19,.08,3.33,8.38,2.55,3.65c.94-.36,8.15-2.91,12.99,1.68,.09,.21,.19,.41,.28,.62-7.31,.38-13.32,2.69-17.89,6.87C2.61,43.24,.36,51.53,3.02,58.37c.36,.93,.82,1.77,1.32,2.58l-.07-.06,2.86,4.2-.08-.18c2.84,4.43,7.79,7.02,13.82,7.02h.01c5.96,0,11.12-3.01,14.51-8.45,3.13-5.02,4.61-12.02,4.38-18.98,1.99,.41,4.06,.95,6.2,1.62-.33,9.36,.31,18.85,2.01,29.61l.03,.2,2.61,3.68,8.52-1.35c-1.59-10.07-2.24-18.97-1.95-27.71,.55,.26,1.1,.52,1.65,.79l3.11-6.29c-.77,10.78-.67,24.08,1.6,40.06l.03,.2,2.61,3.68,8.54-1.21c-4.4-30.95-.4-50.68,2-62.47,1.14-5.62,1.83-9.01,1.18-11.74ZM5.6,62.07c-.9-1.14-1.65-2.41-2.21-3.84-2.6-6.69-.39-14.8,5.5-20.19,4.55-4.16,10.58-6.44,17.92-6.78h.28s-.05-.14-.05-.14c.57,.68,1.1,1.46,1.56,2.4,.23,.47,.44,.95,.64,1.44-7.28,.33-13.42,2.6-18.05,6.83-5.91,5.41-8.14,13.53-5.59,20.27Zm11.41-13.91c2.85-2.61,6.77-4.09,11.49-4.49-.21,4.38-1.26,8.41-3.02,11.23-1.8,2.89-4.1,4.3-7.04,4.3-2.11,0-3.85-.54-5.13-1.55-.48-2.82,.43-6.5,3.7-9.49Zm11.08,10.76c-1.84,2.95-4.2,4.39-7.2,4.39h0c-3.58,0-6.14-1.5-7.19-4.22-.1-.27-.18-.56-.25-.85,1.3,.89,2.99,1.37,5.01,1.37,3.08,0,5.49-1.47,7.38-4.49,1.8-2.89,2.88-7.01,3.09-11.49,.72-.05,1.45-.08,2.2-.08,.4,5.67-.62,11.51-3.02,15.36ZM10.06,20.55l1.45,3.65c-.24,.07-.45,.14-.59,.2l-3.03-7.64c6.18-2.39,18.97-3.52,25.38,8.32-6.98-7.95-17.78-6.69-23.2-4.52Zm38.29,54.91c-1.67-10.61-2.3-19.99-1.98-29.23,.78,.25,1.57,.52,2.37,.8-.53,9.06-.12,18.2,1.23,28.18l-1.63,.26Zm3.44-50.27c-.96,4.43-1.7,8.73-2.23,13-3.85-1.26-7.56-2.17-11.08-2.7-.32-1.2-.72-2.35-1.15-3.48,3.09,.54,6.35,1.35,9.73,2.46l.23,.08,.03-.24c.54-4.28,1.27-8.53,2.23-12.99,.2-.94,.32-1.79,.37-2.56,.65,.1,1.2,.29,1.55,.61,.83,.73,.95,2.9,.32,5.81Zm5.39-12.28c-5.76-5.08-15.44-1.88-16.52-1.5l1.32,3.75c-.28,.07-.54,.15-.77,.22l-2.73-7.76c1.72-.57,10.72-3.25,16.13,1.53,1.21,1.07,2.1,2.37,2.69,3.88-.04-.04-.08-.09-.12-.13Zm1.76,28.95c-.36-.16-.73-.33-1.09-.49,.09-.81,.2-1.63,.3-2.44,.62,.29,1.23,.58,1.81,.86l-1.02,2.07Zm9.34-18.29c-2.23,10.99-6.27,31.06-2.64,61.03l-1.71,.24c-2.31-16.34-2.33-29.88-1.5-40.76l.24-.48c-.06-.03-.13-.06-.19-.09,.83-10.33,2.42-18.24,3.55-23.81,.49-2.43,1.03-5.09,1.21-6.75,.3,.09,.59,.19,.84,.34,.45,.26,1.08,.79,1.43,2.25,.19,1.01-.57,4.74-1.24,8.03Zm4.19-17.7c-4.94-2.92-10.87-1.41-11.53-1.23l1.11,4.01c-.46,.04-.86,.1-1.11,.16l-2.19-7.93c1.23-.3,6.64-1.42,11.18,1.26,2.07,1.22,3.63,3.05,4.62,5.35-.63-.61-1.31-1.17-2.07-1.62Z"/>
  <path class="cls-1" d="M3.21,58.3c2.37,6.09,8.06,9.72,15.23,9.72h.01c5.96,0,11.12-3.01,14.51-8.45,3.13-5.02,4.61-12.02,4.38-18.98,2.84,.58,5.84,1.43,8.96,2.54-.6,10.38,.02,20.85,1.87,32.57l8.52-1.35c-1.59-10.07-2.24-18.97-1.95-27.71,.55,.26,1.1,.52,1.65,.79l3.82-7.73c-1.63-.81-3.23-1.54-4.82-2.23,.52-4.68,1.3-9.42,2.36-14.36,1.38-6.36,.35-11.11-3.04-14.1-5.76-5.08-15.44-1.88-16.52-1.5l2.86,8.13c2.09-.73,6.54-1.42,7.96-.17,.83,.73,.95,2.9,.32,5.81-.96,4.43-1.7,8.73-2.23,13-3.85-1.26-7.56-2.17-11.08-2.7-.54-2.03-1.25-3.97-2.13-5.77C27.54,12.8,13.93,14.13,7.62,16.65l3.18,8.01c1.11-.43,11.01-3.96,15.36,4.95,.23,.47,.44,.95,.64,1.44-7.28,.33-13.42,2.6-18.05,6.83C2.8,43.33,.58,51.53,3.21,58.3Zm11.37-14.05c3.37-3.08,8.2-4.6,14.1-4.61,.4,5.67-.62,11.51-3.02,15.36-1.84,2.95-4.2,4.39-7.2,4.39h0c-3.58,0-6.14-1.5-7.19-4.22-1.12-2.89-.53-7.39,3.33-10.92Z"/>
  <path d="M48.08,75.83l-.02-.12c-1.87-11.87-2.47-22.2-1.88-32.5-3.02-1.07-5.95-1.9-8.71-2.47,.21,7.19-1.39,14.07-4.4,18.9-3.42,5.48-8.61,8.5-14.62,8.51-7.24,0-12.97-3.66-15.36-9.8h0c-2.65-6.81-.41-15.07,5.58-20.54,4.58-4.19,10.62-6.49,17.95-6.85-.18-.43-.37-.86-.57-1.28-4.3-8.8-14.11-5.32-15.21-4.89l-.11,.04-.04-.11-3.23-8.13,.11-.04c6.34-2.54,20.04-3.87,26.44,9.24,.85,1.74,1.56,3.67,2.12,5.71,3.42,.52,7.08,1.41,10.88,2.64,.54-4.24,1.26-8.45,2.22-12.87,.62-2.87,.51-5-.28-5.7-1.38-1.22-5.77-.53-7.84,.19l-.11,.04-.04-.11-2.9-8.25,.11-.04c1.09-.38,10.83-3.6,16.64,1.52,3.43,3.03,4.46,7.81,3.08,14.22-1.07,4.93-1.84,9.6-2.35,14.26,1.75,.77,3.31,1.49,4.74,2.2l.11,.05-.05,.11-3.88,7.84-.11-.05c-.46-.23-.91-.44-1.36-.65l-.12-.06c-.28,8.59,.35,17.33,1.95,27.5l.02,.12-8.76,1.38Zm-10.86-35.39l.15,.03c2.85,.58,5.87,1.44,8.98,2.54l.08,.03v.09c-.6,10.28-.02,20.59,1.85,32.42l8.28-1.31c-1.61-10.2-2.22-18.98-1.93-27.61v-.18s.46,.21,.46,.21c.42,.2,.83,.39,1.26,.6l3.72-7.51c-1.43-.7-2.97-1.42-4.71-2.17l-.08-.03v-.09c.53-4.7,1.3-9.4,2.38-14.38,1.37-6.32,.36-11.02-3-13.99-5.54-4.89-14.78-2.03-16.29-1.52l2.78,7.91c2.16-.73,6.54-1.37,7.97-.11,.86,.76,.99,2.98,.35,5.93-.96,4.46-1.69,8.71-2.23,12.99l-.02,.14-.14-.05c-3.86-1.26-7.58-2.17-11.06-2.69h-.08s-.02-.09-.02-.09c-.55-2.06-1.26-3.99-2.12-5.74C27.51,13.01,14.1,14.24,7.78,16.71l3.09,7.79c1.55-.57,11.13-3.69,15.4,5.05,.23,.47,.45,.96,.64,1.45l.06,.16h-.17c-7.35,.34-13.4,2.62-17.97,6.81C2.92,43.38,.71,51.53,3.32,58.25h0c2.35,6.04,8,9.64,15.12,9.64,5.93,0,11.05-2.98,14.43-8.39,3.01-4.83,4.6-11.72,4.36-18.91v-.15Zm-18.78,19.08c-3.64,0-6.24-1.53-7.32-4.3-1.14-2.93-.54-7.49,3.36-11.06h0c3.36-3.08,8.13-4.64,14.18-4.64h.11v.11c.43,5.94-.7,11.71-3.03,15.43-1.87,2.99-4.26,4.45-7.31,4.45Zm-3.79-15.18c-3.82,3.49-4.41,7.94-3.3,10.79,1.04,2.67,3.55,4.15,7.08,4.15,2.97,0,5.29-1.42,7.11-4.34,2.28-3.66,3.41-9.33,3.01-15.18-5.93,.02-10.6,1.56-13.9,4.57h0Z"/>
  <path class="cls-1" d="M65.65,9.4c.45,.26,1.08,.78,1.43,2.25,.19,1.01-.57,4.74-1.24,8.03-2.34,11.53-6.69,32.98-2.08,65.4l8.54-1.21c-4.4-30.95-.4-50.68,2-62.47,1.14-5.62,1.83-9.01,1.18-11.74-.82-3.41-2.7-6.06-5.44-7.68-4.94-2.92-10.87-1.41-11.53-1.23l2.29,8.31c.58-.16,3.26-.6,4.85,.34Z"/>
  <path d="M63.66,85.22l-.02-.12c-4.61-32.45-.26-53.91,2.09-65.44,.67-3.28,1.42-6.99,1.23-7.98-.34-1.41-.94-1.91-1.37-2.17-1.56-.92-4.19-.49-4.76-.33l-.12,.03-.03-.12L58.36,.66l.12-.03c.66-.19,6.65-1.7,11.62,1.24,2.77,1.64,4.67,4.32,5.49,7.76,.66,2.75-.03,6.15-1.18,11.79-2.39,11.78-6.39,31.5-2,62.43l.02,.12-.12,.02-8.66,1.23Zm-.69-76.52c.93,0,1.96,.14,2.74,.6h0c.47,.27,1.13,.82,1.49,2.32,.19,1.04-.57,4.78-1.23,8.07-2.34,11.51-6.68,32.91-2.1,65.25l8.3-1.18c-4.38-30.9-.38-50.61,2.01-62.39,1.14-5.6,1.83-8.98,1.18-11.69-.81-3.38-2.67-6.01-5.38-7.61-4.67-2.76-10.26-1.52-11.32-1.25l2.23,8.08c.38-.09,1.18-.22,2.08-.22Z"/>
  <path d="M74.87,112.41c-.2-1.15-.61-2.18-1.18-3.1l.07,.08-2.31-4.07,.05,.15c-.68-1.15-1.59-2.14-2.77-2.88-4.54-2.87-11.06-1.26-12.32-.91l-.19,.05,2.35,8.51,.05,.19,2.58,3.66c.63-.17,1.32-.29,2-.36-.25,1.23-.54,2.57-.8,3.79-1.25,5.73-2.99,13.76-3.91,23.75l-1.36-2.82-.15-.13c-.92-.77-1.89-1.53-2.87-2.26,.29-1.48,.59-2.99,.96-4.56,1.28-5.55,.94-9.99-1-13.28l.07,.08-2.11-3.7c-.05-.1-.11-.2-.17-.3l-.26-.45,.07,.17c-.56-.91-1.22-1.75-2.03-2.48-6.49-5.84-17.71-2.18-18.97-1.74l-.19,.07,2.88,8.34,.07,.19,2.56,3.65c2.36-.8,6.14-1.4,8.57-.79,.03,1.2-.14,2.67-.53,4.36-.29,1.25-.56,2.51-.83,3.84-4.33-2.04-8.65-3.4-12.88-4.13l-4.16-5.35,.06,.11c-.89-1.28-1.83-2.55-2.84-3.78l-.13-.16-6.97,5.73,.13,.16c.8,.98,1.58,2.01,2.32,3.08-2.37,.39-4.6,1.07-6.63,2.01C4.44,130.69,.06,137.95,.07,147.04c0,3.57,1.2,7.19,3.19,10.22l-.12-.14,.44,.64c.04,.05,.07,.11,.11,.17l2.37,3.47-.09-.17c1.38,2.05,3.12,3.83,5.14,5.11,2.51,1.59,5.29,2.38,8.19,2.38,2.55,0,5.2-.62,7.82-1.87,4.58-2.17,7.82-6.62,9.14-12.52,1.07-4.79,.8-10.08-.67-15.45,1.95,.6,3.89,1.38,5.79,2.27-1.6,15.3,.34,27.01,2.32,36.84l.04,.2,2.6,3.67,8.45-1.7c-1.94-9.63-3.51-19.49-2.4-32.27,.46,.36,.92,.71,1.35,1.08l4.53-5.41c-.86,11.21-.63,24.75,2.39,40.26l.04,.2,2.6,3.67,8.46-1.65c-5.67-29.05-.88-50.98,1.69-62.76,1.15-5.27,1.85-8.46,1.42-10.88Zm-18.17-10.41c1.6-.42,7.61-1.73,11.81,.92,1.65,1.04,2.78,2.55,3.38,4.39-.27-.22-.53-.46-.83-.65-4.47-2.82-10.92-1.23-12.16-.89l1.09,3.96c-.37,.06-.75,.11-1.1,.2l-2.19-7.93Zm-.15,36.49l-.9,1.08c-.65-.47-1.3-.95-1.96-1.39,.1-.56,.21-1.13,.32-1.69,.87,.65,1.72,1.32,2.54,2.01Zm-25.58-28.4c1.9-.63,12.31-3.73,18.38,1.73,1.21,1.09,2.11,2.42,2.75,3.94-.06-.06-.11-.13-.17-.19-6.4-5.75-17.52-2.14-18.77-1.7l1.3,3.76c-.27,.07-.55,.15-.8,.23l-2.68-7.77Zm12.27,19.83l.23,.11,.05-.25c.29-1.43,.57-2.76,.88-4.08,.38-1.66,.55-3.11,.53-4.34,.48,.16,.92,.36,1.23,.64,1.17,1.06,1.35,3.81,.48,7.56-.32,1.39-.61,2.75-.88,4.09-4.74-2.26-9.53-3.75-14.12-4.42-.66-1.23-1.4-2.45-2.19-3.65,4.51,.69,9.15,2.15,13.78,4.35Zm-27.52,29.15c-1.59-1.01-2.91-2.72-3.67-4.62,.36,.33,.73,.63,1.13,.88,1.14,.72,2.38,1.08,3.71,1.08s2.71-.35,4.18-1.05c2.18-1.04,3.79-3.44,4.53-6.75,.75-3.36,.56-7.17-.53-11.19,.29-.02,.58-.05,.88-.05,2.01,4.91,2.99,10.21,1.9,15.1-.73,3.25-2.3,5.6-4.42,6.61-2.91,1.38-5.5,1.37-7.7-.02Zm-4.39-8.12c0-5.69,2.39-9.81,6.92-11.93,1.98-.92,4.14-1.41,6.4-1.57,1.1,3.99,1.3,7.76,.55,11.08-.71,3.19-2.24,5.49-4.31,6.47-2.84,1.35-5.36,1.34-7.51,0-.59-.37-1.13-.85-1.62-1.38-.27-.88-.43-1.78-.43-2.66Zm.92-23.47c2.08-.97,4.39-1.66,6.84-2.03l.32-.05-.18-.26c-.76-1.11-1.56-2.19-2.39-3.21l6.35-5.22c1.48,1.81,2.82,3.7,4.03,5.62-.5-.67-1.02-1.34-1.56-2l-6.66,5.47c.85,1.04,1.7,2.16,2.51,3.36-2.45,.37-4.76,1.05-6.89,2.05-7.56,3.54-11.9,10.73-11.9,19.75,0,2.36,.53,4.73,1.46,6.94-2.3-3.13-3.69-7.01-3.7-10.85,0-8.93,4.29-16.06,11.78-19.56Zm29.51,13.86c.85,.41,1.7,.83,2.54,1.28-1.79,14.06-.61,24.99,1.18,34.83l-1.43,.29c-1.96-9.73-3.85-21.31-2.29-36.39Zm16.96,1.7l.56-.67c-.15-.13-.31-.24-.46-.37,.91-10.3,2.69-18.56,3.97-24.41,.29-1.31,.58-2.68,.83-3.92,1.21-.09,2.3-.03,2.76,.22,.08,1.02-.68,4.49-1.35,7.56-2.57,11.79-7.23,33.25-2.51,61.82l-1.5,.29c-3.03-15.65-3.2-29.28-2.29-40.53Z"/>
  <path class="cls-1" d="M8.68,162.44c2.51,1.59,5.29,2.38,8.19,2.38,2.55,0,5.2-.62,7.82-1.87,4.58-2.17,7.82-6.62,9.14-12.52,1.07-4.79,.8-10.08-.67-15.45,2.96,.91,5.9,2.2,8.71,3.72-2.06,16.21-.18,28.25,2.04,39.26l8.45-1.7c-1.94-9.63-3.51-19.49-2.4-32.27,.46,.36,.92,.71,1.35,1.08l5.53-6.61c-1.82-1.52-3.69-2.92-5.59-4.19,.38-2.15,.82-4.37,1.36-6.69,1.66-7.2,.61-12.56-3.12-15.92-6.4-5.76-17.52-2.14-18.77-1.7l2.81,8.15c3-1.02,8.31-1.73,10.2-.03,1.17,1.06,1.35,3.81,.48,7.56-.32,1.39-.61,2.75-.88,4.09-4.74-2.26-9.53-3.75-14.12-4.42-1.64-3.04-3.65-6.02-6-8.89l-6.66,5.47c.85,1.04,1.7,2.16,2.51,3.35-2.45,.37-4.77,1.05-6.89,2.05-7.56,3.54-11.9,10.73-11.9,19.75,0,6.04,3.38,12.23,8.41,15.4Zm7.14-27.34c2.35-1.1,4.96-1.61,7.69-1.65,2.01,4.91,2.99,10.21,1.9,15.1-.73,3.25-2.3,5.6-4.42,6.61-2.91,1.38-5.5,1.37-7.7-.02-2.54-1.61-4.39-5.02-4.39-8.12,0-5.69,2.39-9.81,6.92-11.93Z"/>
  <path d="M43.8,178.11l-.02-.12c-2.08-10.34-4.13-22.74-2.05-39.21-2.86-1.54-5.69-2.75-8.41-3.61,1.44,5.37,1.66,10.65,.62,15.3-1.33,5.94-4.6,10.41-9.21,12.6-2.62,1.25-5.27,1.88-7.87,1.88-2.95,0-5.73-.81-8.25-2.4-5.06-3.19-8.46-9.43-8.46-15.5,0-9.06,4.36-16.3,11.96-19.86,2.05-.96,4.32-1.64,6.74-2.03-.76-1.1-1.57-2.18-2.4-3.19l-.08-.09,.09-.08,6.76-5.55,.08,.09c2.32,2.82,4.33,5.8,5.98,8.85,4.57,.67,9.26,2.14,13.95,4.36,.27-1.34,.56-2.66,.85-3.94,.86-3.7,.69-6.41-.45-7.44-1.85-1.67-7.11-.95-10.08,.06l-.11,.04-.04-.11-2.85-8.27,.11-.04c1.25-.43,12.43-4.07,18.89,1.73,3.77,3.39,4.83,8.78,3.16,16.03-.49,2.12-.93,4.29-1.34,6.6,1.92,1.3,3.78,2.7,5.53,4.16l.09,.08-.08,.09-5.61,6.71-.09-.08c-.38-.32-.78-.63-1.17-.94-1.1,12.99,.59,22.94,2.41,32.01l.02,.12-8.69,1.75Zm-10.83-43.3l.21,.07c2.82,.87,5.76,2.13,8.73,3.73l.07,.04v.08c-2.1,16.41-.07,28.79,2,39.1l8.22-1.66c-1.83-9.11-3.52-19.11-2.37-32.18l.02-.22,.35,.27c.36,.28,.73,.57,1.09,.87l5.38-6.43c-1.73-1.45-3.58-2.83-5.48-4.11l-.06-.04v-.08c.43-2.35,.87-4.54,1.37-6.69,1.65-7.16,.62-12.47-3.08-15.8-6.19-5.56-16.85-2.29-18.53-1.72l2.73,7.92c3.04-1.01,8.3-1.68,10.2,.03,1.21,1.09,1.39,3.89,.52,7.67-.31,1.33-.6,2.7-.88,4.09l-.03,.15-.14-.07c-4.74-2.25-9.48-3.74-14.08-4.41h-.06s-.03-.06-.03-.06c-1.63-3.02-3.62-5.98-5.91-8.77l-6.48,5.32c.85,1.04,1.67,2.14,2.44,3.27l.11,.16-.19,.03c-2.47,.38-4.78,1.06-6.86,2.04-7.52,3.51-11.83,10.67-11.83,19.64,0,6,3.36,12.15,8.35,15.3h0c2.48,1.57,5.21,2.36,8.12,2.36,2.56,0,5.18-.62,7.77-1.85,4.54-2.16,7.76-6.57,9.07-12.44,1.05-4.67,.81-9.99-.67-15.39l-.06-.21Zm-16.09,21.51c-1.31,0-2.54-.35-3.67-1.07-2.58-1.63-4.45-5.08-4.45-8.22,0-5.74,2.42-9.9,6.99-12.04h0c2.27-1.06,4.88-1.62,7.74-1.66h.08s.03,.08,.03,.08c2.24,5.48,2.9,10.73,1.9,15.18-.73,3.29-2.33,5.67-4.49,6.69-1.46,.7-2.85,1.04-4.15,1.04Zm-1.02-21.11c-4.49,2.1-6.86,6.19-6.85,11.82,0,3.06,1.82,6.43,4.33,8.01,2.17,1.37,4.72,1.37,7.58,.01,2.09-.99,3.64-3.31,4.36-6.53,.98-4.38,.34-9.55-1.86-14.95-2.8,.05-5.34,.6-7.56,1.64h0Z"/>
  <path class="cls-1" d="M72.43,108.5c-.43-2.47-1.75-4.46-3.81-5.76-4.47-2.82-10.92-1.24-12.16-.89l2.29,8.31c1.89-.51,4.41-.59,5.18-.18,.08,1.02-.68,4.49-1.35,7.56-2.7,12.39-7.73,35.45-1.73,66.25l8.46-1.65c-5.67-29.05-.88-50.98,1.69-62.76,1.15-5.27,1.84-8.46,1.42-10.88Z"/>
  <path d="M60.76,183.94l-.02-.12c-6.01-30.82-.98-53.89,1.73-66.29,.65-3,1.39-6.38,1.35-7.46-.82-.36-3.26-.26-5.04,.22l-.12,.03-.03-.12-2.32-8.43,.12-.03c1.26-.35,7.76-1.94,12.26,.9,2.09,1.32,3.43,3.34,3.87,5.84h0c.43,2.45-.27,5.64-1.42,10.93-2.57,11.77-7.35,33.69-1.69,62.71l.02,.12-.12,.02-8.58,1.67Zm1.4-74.33c.81,0,1.48,.09,1.83,.27l.06,.03v.07c.09,1.04-.67,4.52-1.35,7.6-2.7,12.37-7.72,35.38-1.75,66.09l8.23-1.61c-5.63-29.01-.86-50.92,1.71-62.69,1.15-5.26,1.84-8.43,1.42-10.84h0c-.43-2.43-1.72-4.4-3.76-5.68-4.29-2.71-10.47-1.3-11.95-.91l2.23,8.08c1.06-.27,2.3-.41,3.33-.41Z"/>
  <polygon points="107.04 60.42 105.67 60.82 102.91 61.64 107.04 60.42"/>
  <path d="M100.33,57.98s2.57,3.65,2.57,3.66l2.76-.82,5.5-1.64c-.97-3.28-1.07-6.24-.72-7.27,.17,0,.43,.02,.81,.1,1.48,.31,3.26,.82,5.32,1.41,10.38,2.97,27.75,7.94,54.81,1.6l-1.97-8.4-2.29-4.15-.19,.05c-3.84,.9-7.64,1.58-11.36,2.06,1.39-13.01,.05-22.88-4-29.44l.02,.02-1.58-2.82,.03,.08c-1.22-2.29-2.72-4.24-4.53-5.83-7.67-6.75-17.38-4.14-17.78-4.02l-.19,.05,2.35,8.5,.05,.19,2.58,3.66c.19-.05,4.08-1.02,7.72,.87-5.03,2.01-9.92,4.75-13.9,6.99-4.03,2.27-10.46,5.89-13.05,5.82-.34-3.85,.74-9.49,2.12-13.41,0,0,0,0,0,0h0s-2.18-4.02-2.18-4.02l-.05,.16h0s.05-.16,.05-.16l-.05-.02h0s-4.2-1.49-4.2-1.49h0s-4.06-1.45-4.06-1.45l-.19-.07-.07,.19c-.17,.49-1.7,4.92-2.38,10.07-.81,6.12-.11,10.88,2.05,14.24l-.03-.03,.07,.1s.05,.07,.08,.11l2.73,3.98-.04-.09c.66,.97,1.45,1.81,2.38,2.52-4.05-.52-6.53,1.04-7.91,2.53-4.14,4.48-2.3,12.65-1.32,15.95l.06,.19Zm66.5-15.01l.94,4.02c-4.56,1-8.81,1.67-12.75,2.06,.2-1.39,.37-2.73,.51-4.05,3.69-.47,7.48-1.14,11.29-2.03Zm-19.88,1.32l-2.69-.4c.87-5.93,1.18-11.15,.95-15.6,.59-.24,1.17-.51,1.76-.73,.68,4.09,.81,9.53-.01,16.73Zm-13.84-9.84c3.67-2.07,7.68-4.28,11.7-5.99,.22,4.44-.11,9.65-.98,15.58l-.03,.2,.98,1.15c-11.97,.15-20.69-2.19-27.4-4.11,4.68-.62,9.95-3.58,15.72-6.83Zm-5.08-31.53c1.45-.36,10.2-2.18,17.22,3.99,1.73,1.53,3.18,3.4,4.37,5.6-.57-.65-1.16-1.28-1.8-1.84-7.61-6.69-17.19-4.09-17.6-3.98l1.11,3.99c-.5,.06-.89,.13-1.1,.17l-2.2-7.93Zm-1.5,20.28c4.27-2.41,9.09-5.09,14.19-7.08,.5,.3,.99,.65,1.47,1.07,.64,.58,1.29,1.31,1.9,2.24-5.4,1.99-10.55,4.88-15.21,7.5-4.89,2.76-12.28,6.92-14.08,5.59-.82-.61-1.28-1.86-1.47-3.46,2.51,.02,7.66-2.74,13.2-5.86Zm-23.86-4.67c.62-4.71,1.95-8.8,2.3-9.8l3.87,1.38h0s1.07,.38,1.07,.38l2.81,1c-.28,.8-.54,1.66-.78,2.55l-.58-.2-4.07-1.45c-.07,.19-1.67,4.74-2.37,10.03-.6,4.57-.34,8.34,.72,11.36-2.86-3.28-3.87-8.38-2.96-15.24Zm-.79,23.58c1.14-1.23,3.05-2.52,6.07-2.52,.7,0,1.47,.08,2.3,.24,1.69,1.09,3.49,1.59,5.4,1.59,.19,0,.39-.04,.58-.04,.08,.02,.14,.04,.22,.06,7.19,2.06,16.75,4.79,30.32,4.3-.09,.74-.18,1.46-.3,2.24l7.83,1.15c-16.3,1.47-27.41-1.71-35.35-3.98-2.21-.63-4.13-1.18-5.9-1.56-4.66-.99-7.4,.7-8.87,2.29-2.72,2.94-2.8,7.52-2.27,11.22l-1.31,.39c-.97-3.35-2.63-11.13,1.29-15.38Z"/>
  <path d="M180.03,66.74l-.2-.04c-1.22-.23-30.12-5.57-51.32,1.74-.14,.05-.26,.08-.39,.12-.25-.6-.55-1.2-.94-1.76h0s-1.68-3.02-1.68-3.02c-.09-.19-.2-.37-.31-.55l-.09-.17v.04c-1.19-1.92-3.25-3.55-6.94-3.34-3.79,.22-7.27,2.92-9.57,5.2-2.93-2.03-8.56-4.89-14.24-2.11-2.27,1.11-3.84,3.05-4.42,5.47-1.43,6.03,3.82,13.55,5.46,15.71l.12,.16,1.17,1.78h0c.52,.79,.99,1.42,1.31,1.85l6.87-5.21-2.16-3.87-.12-.16c-.23-.31-.47-.64-.69-.97-.57-1.25-.94-2.36-.96-3.02,2.58-.89,6.47,2.55,7.39,3.54l6.68-.37c1.18-1.62,2.76-3.21,4.08-4.21,.1,.22,.22,.43,.34,.64l-.03-.04,.06,.09c.12,.2,.25,.38,.39,.57l2.47,3.63-.04-.08c.57,.87,1.33,1.67,2.4,2.29,2.33,1.35,5.32,1.37,9.15,.05,18.94-6.53,46.53-1.47,46.81-1.42l1.6-8.47-2.21-4.07Zm-51.38,2.09c20.43-7.05,48.08-2.28,50.92-1.77l-.6,3.21c-8.33-1.23-30.71-3.67-47.94,2.27-.8,.28-1.37,.41-1.74,.47-.09-.37-.17-.82-.24-1.17-.13-.71-.34-1.77-.76-2.9,.12-.04,.24-.07,.37-.11Zm-38.31-.41c.55-2.3,2.04-4.14,4.2-5.2,1.62-.79,3.25-1.11,4.8-1.11,3.79,0,7.17,1.88,9.18,3.28l.14,.1,.12-.12c2.24-2.25,5.7-4.99,9.42-5.2,4.64-.27,6.59,2.56,7.5,5.07-1.2-.91-2.82-1.49-5.07-1.37-3.74,.21-7.18,2.88-9.55,5.26-3.8-2.67-9.09-4.67-14.18-2.19-2.22,1.08-3.75,2.98-4.31,5.33-.73,3.06,.31,6.53,1.7,9.46-2.1-3.2-5.04-8.73-3.95-13.32Zm30.08,4.28c.06,.26,.11,.54,.15,.76,.12,.63,.27,1.36,.48,2.12-.72-.69-1.25-1.47-1.63-2.28,.36-.25,.7-.47,1-.61Z"/>
  <path class="cls-1" d="M103.23,56.92l5.5-1.64c-.97-3.28-1.07-6.24-.72-7.27,.17,0,.43,.02,.81,.1,1.48,.31,3.26,.82,5.32,1.41,10.38,2.97,27.75,7.94,54.81,1.6l-1.97-8.4c-5.2,1.22-9.99,1.98-14.4,2.41,2.75-18.84,.33-31.76-7.2-38.39-7.61-6.69-17.19-4.09-17.6-3.98l2.3,8.31c.23-.06,5.62-1.42,9.67,2.2,.64,.58,1.29,1.31,1.89,2.24-5.4,1.99-10.55,4.88-15.21,7.5-4.89,2.76-12.28,6.92-14.08,5.59-2.8-2.08-1.42-11.52,.61-17.26l-8.12-2.89c-.07,.19-1.67,4.74-2.37,10.03-1.08,8.17,.52,13.9,4.75,17.04,1.86,1.38,3.86,1.96,6,1.96,5.1,0,10.96-3.31,17.45-6.96,4.33-2.44,9.11-5.12,13.85-6.88,.79,4.76,.85,11.33-.49,20.41l7.83,1.15c-16.3,1.47-27.41-1.71-35.35-3.98-2.21-.63-4.13-1.18-5.9-1.56-4.66-.99-7.4,.7-8.87,2.29-4.07,4.4-2.25,12.49-1.27,15.76l2.76-.82Z"/>
  <path d="M100.39,57.88l-.03-.11c-.98-3.29-2.81-11.43,1.3-15.88,1.49-1.62,4.26-3.34,8.98-2.33,1.78,.38,3.69,.93,5.91,1.56,7.86,2.25,18.57,5.31,34.28,4.07l-6.92-1.02,.02-.12c1.2-8.13,1.37-14.93,.52-20.22-4.77,1.79-9.72,4.58-13.7,6.82-6.37,3.59-12.38,6.98-17.51,6.98-2.28,0-4.27-.65-6.07-1.98-4.27-3.17-5.88-8.94-4.8-17.15,.68-5.15,2.2-9.57,2.38-10.06l.04-.11,8.35,2.97-.04,.11c-2.01,5.7-3.4,15.08-.65,17.13,1.72,1.28,9.38-3.02,13.94-5.6,4.29-2.42,9.63-5.43,15.09-7.46-.54-.81-1.14-1.51-1.79-2.09-4-3.58-9.33-2.24-9.56-2.18l-.11,.03-2.36-8.54,.11-.03c.41-.11,10.04-2.74,17.71,4.01,7.54,6.63,9.99,19.53,7.26,38.34,4.59-.46,9.38-1.26,14.23-2.4l.12-.03,.03,.12,1.99,8.51-.12,.03c-27.09,6.34-44.48,1.37-54.87-1.61l-.1-.03c-2.02-.58-3.76-1.07-5.21-1.38-.31-.07-.54-.09-.7-.1-.28,1.01-.23,3.8,.75,7.11l.03,.12-.11,.03-8.38,2.49Zm7.57-18.38c-3.05,0-4.98,1.31-6.13,2.55-3.98,4.31-2.25,12.21-1.28,15.53l8.04-2.39c-.9-3.1-1.06-6.1-.69-7.23l.03-.08h.09c.23,0,.51,.04,.83,.11,1.46,.31,3.21,.81,5.23,1.39l.1,.03c10.36,2.96,27.67,7.92,54.63,1.63l-1.91-8.16c-4.79,1.12-9.51,1.91-14.05,2.36h.04s-1.01,.1-1.01,.1c-16.32,1.48-27.35-1.68-35.4-3.99-2.21-.63-4.12-1.18-5.89-1.56-.95-.2-1.83-.29-2.63-.29Zm36.21,4.46l8.29,1.22v-.05c2.75-18.8,.34-31.68-7.16-38.28-7.21-6.35-16.19-4.29-17.37-3.99l2.24,8.08c.84-.19,5.85-1.16,9.66,2.26,.7,.62,1.34,1.38,1.91,2.26l.08,.13-.14,.05c-5.49,2.02-10.87,5.06-15.19,7.49-5.21,2.94-12.35,6.96-14.21,5.58-1.65-1.22-1.75-4.68-1.55-7.36,.23-3.11,1.03-6.9,2.08-9.92l-7.9-2.81c-.3,.86-1.69,5.05-2.33,9.9-1.07,8.12,.51,13.82,4.7,16.93,1.75,1.3,3.69,1.93,5.92,1.93,5.07,0,11.06-3.37,17.39-6.95,4.03-2.27,9.04-5.09,13.87-6.89l.14-.05,.03,.14c.88,5.31,.72,12.15-.48,20.32Z"/>
  <path class="cls-1" d="M128.58,68.63c-.8,.28-1.37,.41-1.74,.47-.09-.37-.18-.82-.24-1.17-.44-2.29-1.6-8.35-8.42-7.97-3.74,.21-7.18,2.88-9.55,5.26-3.8-2.67-9.09-4.67-14.18-2.19-2.22,1.08-3.75,2.98-4.31,5.33-1.41,5.94,3.8,13.4,5.43,15.54l6.87-5.21c-2.08-2.76-3.9-6.51-3.93-8.02,2.58-.89,6.47,2.55,7.39,3.54l6.68-.37c1.62-2.22,3.98-4.39,5.41-5.06,.06,.26,.11,.54,.15,.76,.41,2.15,1.03,5.41,4.12,7.19,2.33,1.35,5.32,1.37,9.15,.05,18.94-6.53,46.53-1.47,46.81-1.42l1.6-8.47c-1.22-.23-30.1-5.55-51.22,1.74Z"/>
  <path d="M95.54,84.08l-.07-.1c-1.64-2.15-6.87-9.65-5.45-15.64,.57-2.39,2.12-4.31,4.38-5.41,5.68-2.77,11.31,.12,14.22,2.15,2.28-2.28,5.77-5.01,9.56-5.23,.21-.01,.42-.02,.62-.02,6.38,0,7.49,5.84,7.92,8.08,.07,.35,.14,.72,.21,1.05,.46-.08,.99-.23,1.61-.44h0c21.19-7.3,50.06-1.97,51.28-1.74l.12,.02-.02,.12-1.62,8.59-.12-.02c-.29-.05-7.25-1.31-16.43-1.76-8.44-.41-20.55-.2-30.31,3.17-3.86,1.33-6.88,1.32-9.25-.06-3.13-1.81-3.76-5.1-4.17-7.27-.03-.19-.08-.4-.12-.62-1.46,.75-3.72,2.88-5.22,4.95l-.03,.05-6.79,.38-.04-.04c-.88-.95-4.64-4.31-7.18-3.54,.1,1.56,1.93,5.25,3.9,7.86l.07,.1-.1,.07-6.96,5.29Zm3.79-22.05c-1.56,0-3.2,.32-4.83,1.12-2.19,1.07-3.7,2.93-4.25,5.25-1.38,5.81,3.63,13.09,5.33,15.34l6.68-5.07c-2.05-2.74-3.85-6.45-3.89-8v-.09s.08-.03,.08-.03c2.61-.89,6.5,2.5,7.48,3.54l6.56-.37c1.58-2.15,3.95-4.36,5.42-5.05l.14-.06,.03,.15c.06,.27,.11,.54,.15,.77,.41,2.13,1.02,5.35,4.06,7.11,2.3,1.33,5.26,1.34,9.05,.03,9.8-3.38,21.94-3.6,30.41-3.18,8.67,.42,15.36,1.57,16.35,1.74l1.55-8.24c-2.35-.43-30.37-5.37-51.04,1.76h0c-.68,.23-1.27,.39-1.76,.47l-.11,.02-.03-.11c-.09-.36-.17-.78-.24-1.17-.42-2.19-1.51-7.89-7.69-7.89-.19,0-.39,0-.6,.02-3.75,.21-7.22,2.96-9.48,5.23l-.07,.07-.08-.06c-2.01-1.41-5.41-3.3-9.22-3.3Z"/>
  <path d="M265.5,55.05l-2.36-4.18-.18,.09c-.3,.16-.62,.32-.94,.49-1.21-9.74-3.78-17.04-5.34-20.77,3.22-3.9,8.81-12.05,7.16-20.06-.16-.77-.43-1.46-.78-2.1l.03,.04-2.36-4.17v.05c-.75-1.35-1.91-2.38-3.4-2.98-2.5-1.01-8.54-1.47-20.85,6.89l-.17,.11,5.07,7.46h.02s0-.01,0-.01h-.02s2.49,3.64,2.49,3.64c2.4-1.63,5.06-3.12,7.37-4.21-1.67,3.31-4.17,6.33-5.32,7.5l-.04,.05-.78,5.14,.03,.06c.06,.11,5.76,11.53,6.21,28.34-6.44,2.75-18.75,7.54-29.78,9.27-9.56,1.5-16.14,.42-19.64-3.19-.84-3.78,1.55-7.59,4.18-9.92,3.23-2.87,7.81-5.64,12.25-8.32,9.8-5.92,20.9-12.64,16.55-22.19-.26-.57-.58-1.09-.92-1.59l.07,.07-1.85-3.34,.07,.23c-1.24-2.29-3.18-4-5.73-4.91-3.62-1.29-8.43-1.03-14.28,.77-1.41,.43-2.85,.95-4.3,1.53-6.37-5.72-10.61-5.64-12.58-5.08-1.51,.43-4.16,1.77-5.04,5.88-1.28,6.02,.78,10.26,1.02,10.72l.09,.18,2.53,3.64,7.67-3.94,.04,.08c-.03-.07-.61-1.36-.48-3.43,1.47,.9,3.53,2.56,5.12,4.2l5.01,.88c3.2-1.57,8.27-3.31,11.92-3.49-2.48,2.63-8.1,6.04-11.91,8.34-4.77,2.89-9.71,5.87-13.54,9.27-7.07,6.28-9.25,15.33-5.42,22.52,.17,.32,.38,.59,.56,.89l-.17-.19,.8,1.19c.17,.25,.33,.52,.52,.77l1.7,2.51-.08-.23c3.93,6.33,10.83,9.54,20.69,9.54,6.3,0,13.81-1.3,22.48-3.89,4-1.2,7.87-2.56,11.46-3.94-.59,3.66-1.43,7.3-2.53,10.87l-.06,.19,2.69,3.77,8.24,2.54c2.49-8.06,3.63-15.65,3.92-22.58,4.07-1.89,6.66-3.25,6.91-3.38l-4.03-7.62Zm-2.52-3.63l2.05,3.88c-.77,.4-1.6,.82-2.51,1.27-.11-1.62-.26-3.18-.44-4.69,.3-.16,.61-.31,.89-.46Zm-5.78-49.58c1.95,.79,3.29,2.38,3.86,4.45-.41-.29-.86-.53-1.34-.73-2.45-.99-8.34-1.42-20.34,6.66l-2.48-3.64c12.04-8.15,17.88-7.72,20.31-6.74Zm-35.54,64.26c11.14-1.74,23.58-6.6,30-9.35l.13-.05v-.14c-.42-16.6-5.78-27.69-6.23-28.59l.74-4.88c1.23-1.27,3.9-4.52,5.56-8.01,1.46-.66,2.74-1.14,3.68-1.35-.05,4.92-5.07,11.21-7,13.18l-.76,5.01c.08,.16,5.81,11.55,6.24,28.56-17.8,7.61-44.94,15.99-51.38,3.9-.19-.35-.33-.71-.45-1.06,3.7,3.3,10.23,4.24,19.47,2.79Zm-30.89-50.37c.83-3.91,3.33-5.17,4.75-5.58,1.9-.54,6.01-.6,12.29,5.08l.09,.08,.12-.05c1.48-.6,2.95-1.12,4.38-1.57,5.78-1.77,10.5-2.04,14.03-.77,2.69,.96,4.72,2.8,5.87,5.33,.07,.16,.11,.31,.17,.47-1-.9-2.18-1.6-3.54-2.09-3.58-1.28-8.34-1.02-14.16,.77-1.67,.51-3.19,1.08-4.4,1.57-6.29-5.69-10.46-5.7-12.48-5.12-1.46,.42-4.04,1.72-4.89,5.73-.48,2.24-.48,4.23-.3,5.87l-1.05,.54c-.45-.95-2.04-4.86-.89-10.27Zm7.33,26.66c3.81-3.38,8.73-6.36,13.48-9.23,5.3-3.2,10.17-6.28,12.27-8.7,.84,0,1.59,.09,2.19,.31,.63,.22,.86,.51,1.04,.89,1.17,2.57-7.46,7.78-13.17,11.24-4.77,2.88-9.7,5.86-13.51,9.25-6.5,5.78-8.82,13.91-6.09,20.73-.57-.77-1.09-1.58-1.55-2.46-3.74-7.02-1.6-15.88,5.34-22.03Zm52.7,28.69c.99-.38,1.96-.76,2.89-1.14-.39,4.14-1.15,8.52-2.36,13.05l-3.05-.94c1.1-3.6,1.93-7.27,2.52-10.97Z"/>
  <path class="cls-1" d="M260.08,52.66c-.81-12.3-4.01-21.52-5.83-25.88,3.22-3.9,8.81-12.05,7.16-20.06-.49-2.39-1.96-4.19-4.14-5.07-2.47-1-8.43-1.44-20.66,6.87l4.85,7.13c4.16-2.82,9.12-5.27,11.63-5.84-.05,4.92-5.07,11.21-7,13.18l-.76,5.01c.08,.16,5.81,11.55,6.24,28.56-17.8,7.61-44.94,15.99-51.38,3.9-2.31-4.35,.44-9.06,3.5-11.78,3.23-2.87,7.81-5.64,12.25-8.32,9.8-5.92,20.9-12.64,16.55-22.19-1.17-2.58-3.24-4.46-5.99-5.44-3.58-1.28-8.34-1.02-14.16,.77-1.67,.51-3.19,1.08-4.4,1.57-6.29-5.69-10.46-5.7-12.48-5.12-1.46,.42-4.04,1.72-4.89,5.73-1.26,5.94,.76,10.13,1,10.58l7.67-3.94,.04,.08c-.03-.07-.61-1.36-.48-3.43,1.47,.9,3.53,2.56,5.12,4.2l5.01,.88c4.14-2.03,11.43-4.37,14.68-3.2,.63,.22,.86,.51,1.04,.89,1.17,2.57-7.46,7.79-13.17,11.24-4.77,2.88-9.69,5.86-13.51,9.25-7,6.22-9.16,15.17-5.38,22.28,3.79,7.11,10.95,10.67,21.4,10.67,6.3,0,13.81-1.3,22.48-3.89,5.27-1.58,10.33-3.45,14.79-5.26-.48,5.08-1.48,10.5-3.22,16.15l8.24,2.54c2.49-8.06,3.63-15.65,3.92-22.58,4.07-1.89,6.66-3.25,6.91-3.38l-4.03-7.62c-.88,.47-1.89,.98-2.98,1.52Z"/>
  <path d="M256.34,84.87l-.12-.04-8.35-2.58,.04-.12c1.6-5.2,2.68-10.56,3.2-15.93-5.08,2.06-10,3.8-14.61,5.18-8.64,2.59-16.21,3.9-22.51,3.9-10.48,0-17.71-3.61-21.51-10.73-3.81-7.15-1.64-16.16,5.4-22.42,3.83-3.41,8.76-6.39,13.53-9.27,5.33-3.22,14.24-8.61,13.12-11.08-.16-.36-.38-.62-.97-.83-3.22-1.15-10.47,1.17-14.59,3.19l-.04,.02h-.04s-5.05-.89-5.05-.89l-.03-.03c-1.46-1.51-3.41-3.12-4.92-4.07-.08,1.92,.46,3.12,.48,3.17l-.11,.05v.03s-7.77,3.99-7.77,3.99l-.05-.11c-.24-.46-2.28-4.67-1.01-10.66,.86-4.07,3.49-5.4,4.98-5.82,1.96-.56,6.18-.64,12.54,5.1,1.48-.6,2.94-1.12,4.34-1.55,5.84-1.8,10.63-2.05,14.23-.77,2.78,.99,4.87,2.89,6.06,5.5,4.39,9.65-6.76,16.39-16.6,22.34-4.43,2.68-9.01,5.44-12.23,8.31-3.03,2.69-5.75,7.35-3.47,11.63,2.84,5.33,10,7.14,21.3,5.37,11.06-1.73,23.42-6.55,29.85-9.29-.44-16.91-6.16-28.32-6.22-28.43l-.02-.03v-.04s.77-5.05,.77-5.05l.03-.03c1.77-1.81,6.81-8.04,6.96-12.94-2.61,.64-7.48,3.1-11.44,5.79l-.1,.07-.07-.1-4.91-7.23,.1-.07C248.82,.07,254.83,.52,257.31,1.53c2.21,.9,3.71,2.73,4.21,5.16,1.64,7.95-3.74,15.99-7.14,20.11,1.83,4.4,4.98,13.51,5.8,25.67,1.03-.51,1.98-.99,2.81-1.44l.11-.06,4.15,7.84-.11,.06c-.28,.15-2.82,1.48-6.84,3.35-.33,7.59-1.65,15.17-3.93,22.54l-.03,.11Zm-8.17-2.77l8.01,2.47c2.25-7.33,3.56-14.88,3.88-22.43v-.07s.07-.03,.07-.03c3.74-1.73,6.21-3.01,6.79-3.32l-3.92-7.41c-.86,.45-1.82,.94-2.87,1.46l-.16,.08v-.18c-.82-12.28-4.01-21.46-5.84-25.84l-.03-.07,.05-.06c7.84-9.48,7.83-16.58,7.13-19.96-.49-2.35-1.93-4.12-4.06-4.99-2.43-.99-8.33-1.42-20.45,6.79l4.71,6.93c4.04-2.73,9-5.21,11.57-5.79l.15-.03v.15c-.05,4.98-5.17,11.35-7.01,13.23l-.74,4.93c.35,.72,5.81,12.04,6.23,28.58v.08s-.07,.03-.07,.03c-6.42,2.74-18.84,7.6-29.98,9.34-11.41,1.78-18.66-.07-21.55-5.5-2.35-4.41,.43-9.18,3.52-11.92,3.24-2.88,7.83-5.65,12.26-8.33,9.75-5.9,20.81-12.58,16.51-22.03-1.16-2.55-3.21-4.41-5.92-5.38-3.55-1.26-8.29-1.01-14.08,.77-1.42,.44-2.9,.96-4.39,1.57l-.07,.03-.06-.05c-6.3-5.71-10.45-5.64-12.37-5.1-1.44,.41-3.97,1.69-4.81,5.64-1.18,5.59,.54,9.59,.93,10.4l7.47-3.83c-.17-.45-.52-1.62-.41-3.3v-.2s.18,.1,.18,.1c1.54,.94,3.59,2.62,5.12,4.19l4.93,.86c4.16-2.03,11.46-4.37,14.74-3.19,.67,.24,.92,.55,1.11,.95,1.21,2.67-7.47,7.92-13.21,11.39-4.76,2.87-9.68,5.85-13.5,9.24-6.96,6.18-9.11,15.08-5.35,22.13,3.75,7.04,10.91,10.6,21.29,10.6,6.28,0,13.83-1.31,22.44-3.89,4.67-1.4,9.64-3.16,14.78-5.25l.18-.08-.02,.2c-.51,5.41-1.58,10.82-3.19,16.06Z"/>
  <path d="M177.35,173.79l-2.27-4.13-.2,.03c-14.04,1.81-28.85,.55-34.77-2.71,.13-1.96-.26-3.4-.88-4.45l.04,.04-2.24-3.97,.03,.09c-.56-1-1.3-1.7-2.02-2.16-4.74-3-10.89,1.15-21.1,8.04-4.85,3.27-9.86,6.66-13.53,8.24-.06,.03-.1,.04-.16,.06,.04-1.07,.15-2.18,.35-3.2l-2.2-4.06-.05,.25s0-.03,0-.05l.04-.2-8.65-1.72-.2-.04-.04,.2c-.35,1.75-1.7,9.86,1.8,14.75l-.04-.03,2.47,3.6c.47,.7,1.03,1.34,1.71,1.88,1.18,.96,2.94,1.85,5.39,1.85,1.55,0,3.37-.35,5.5-1.27,4.43-1.9,9.8-5.53,14.99-9.03,2.69-1.82,6.24-4.21,9-5.8,.44,.71,.94,1.4,1.57,2.04,.08,.08,.18,.16,.26,.24,.52,1.26,1.28,2.45,2.32,3.52,8.37,8.59,32.43,8.04,43.98,6.55l-1.1-8.55Zm-2.61-3.68l.51,3.92c-15.15,1.62-30.67-.24-34.6-4.26-.65-.67-.72-1.14-.63-1.74,.03-.22,.04-.41,.06-.62,6.13,3.21,20.77,4.45,34.67,2.7Zm-74.17,3.06c3.7-1.59,8.73-4.99,13.61-8.28,10.06-6.79,16.13-10.89,20.64-8.03,1.02,.64,2.09,1.78,2.5,3.71-4.63-2.88-10.73,1.24-20.83,8.06-4.86,3.28-9.88,6.67-13.57,8.26-1.22,.52-1.86,.57-2.11,.57-.42-.61-.62-2.28-.58-4.16,.11-.04,.21-.08,.33-.13Zm-10.71-8.85l8.07,1.6c-.19,1.01-.29,2.11-.32,3.15l-5.46-1.08c-.28,1.4-1.2,6.9,.26,11.5-4.23-4.41-2.96-12.97-2.54-15.17Zm40.8,5.47c.25-.14,.5-.29,.73-.41,.06,.64,.19,1.27,.37,1.88-.42-.47-.78-.97-1.1-1.47Z"/>
  <path d="M98.01,114.43l2.55,3.65s1.28-.48,2.97-.61l-1.58,8-.04,.2,2.68,3.75c.98,.19,3.57,.68,7.16,1.21,.03,.85,.06,1.71,.05,2.6-.01,2.12-.1,4.12-.27,5.93-6.42,1.53-11.2,4.23-12.79,7.25-1.57,2.97-1.37,6.49,.44,9.34l-.02-.02,.04,.05s.05,.06,.07,.1l2.55,3.72s.02,.03,.03,.05l.3,.44-.05-.11c.19,.27,.38,.54,.6,.79,1.84,2.09,4.39,3.23,7,3.23,1.07,0,2.15-.19,3.2-.58,3.2-1.2,6.84-4.46,8.78-12.63,5.38-.58,12.51-.49,21.35,1.05,.32,1.65,.65,3.32,1.03,5.02l.04,.2,2.59,3.67,8.42-1.85c-.34-1.57-.65-3.07-.93-4.52,4.5,1.25,9.33,2.84,14.52,4.87l3.14-8.03-2.18-4.02-.19-.07c-5.78-2.26-11.53-4.13-17.14-5.6-.39-4.42-.4-7.98-.2-10.79,5.36-1.28,10.03-3.36,13.19-6.61,3.1-3.19,3.56-7.47,1.18-10.92l-1.72-3.11,.03,.11c-.18-.34-.36-.69-.58-1.02-2.76-4-8.21-5.4-12.97-3.32-3.18,1.38-7.37,4.82-9.37,13.36-7.6,.84-15.99,.43-22.02-.11-.58-1.24-1.25-2.37-1.99-3.4-1.56-3.56-3.74-6.32-6.51-8.19-7.51-5.08-16.17-1.66-16.53-1.51l-.19,.08,3.29,8.19,.08,.18Zm5.93,3.02c.3-.01,.6,0,.92,0,.72,.13,1.45,.27,2.2,.39,.63,.2,1.25,.49,1.84,.89,1.06,.73,1.97,1.8,2.74,3.16-1.9-.3-3.72-.61-5.39-.94l-.97,4.92c-1.29-.22-2.29-.41-2.9-.53l1.57-7.91Zm-4.86,29.16c1.55-2.94,6.29-5.59,12.67-7.08l.14-.03v-.14c.19-1.86,.29-3.91,.3-6.1,0-.88-.02-1.71-.05-2.55,.64,.09,1.3,.19,2,.28,.2,1.88,.3,3.94,.29,6.17-.01,2.29-.11,4.31-.28,6.09-6.98,1.63-11.35,4.43-12.8,7.18-1.09,2.06-1.3,4.39-.71,6.56-.08-.08-.16-.16-.24-.24-2.53-2.87-3.05-6.85-1.32-10.13Zm44.72-3.4c-8.01-1.36-15.02-1.66-20.91-1.25,.08-1.19,.12-2.47,.14-3.8,5.66-.19,11.78,.23,18.3,1.34l.26,.04-.03-.26c-.24-2.48-.37-4.83-.42-7.06,.75-.05,1.51-.07,2.25-.14-.12,3.23,0,6.92,.4,11.12Zm-2.66-4.15c-5.5-.92-10.74-1.38-15.65-1.38-.84,0-1.63,.05-2.45,.08,0-.19,0-.37,.01-.57,0-1.84-.06-3.59-.18-5.26,5.58,.47,11.81,.67,17.87,.31,.05,2.16,.17,4.43,.4,6.82Zm-31.98,16.02c-.05-.05-.25-.3-.22-.53,.39-.37,1.35-.94,2.87-1.54-.75,1.48-1.49,2.16-1.95,2.34-.24,.09-.47,0-.7-.26Zm34.28-3.17c.53,.09,1.04,.17,1.58,.28,.22,1.32,.47,2.69,.74,4.09l-1.36,.3c-.35-1.58-.66-3.14-.96-4.67Zm13.9-34.13c.32-.12,.6-.17,.86-.17,.5,0,.87,.18,1.07,.33-.03,.04-.08,.09-.13,.14-1.18,1.21-2.82,2.2-4.8,2.99,1.2-2.4,2.5-3.1,3.01-3.29Zm11.79,29.62l-.95,2.43c-5.45-1.99-10.63-3.57-15.49-4.77-.13-1.1-.24-2.13-.33-3.14,5.49,1.45,11.11,3.27,16.77,5.48Zm-27.07-27.82l.14-.02,.03-.14c1.94-8.48,6.06-11.87,9.17-13.23,4.58-1.99,9.83-.65,12.48,3.19,.46,.66,.78,1.36,1.02,2.07-2.91-2.53-7.26-3.23-11.14-1.54-3.26,1.42-7.34,4.9-9.29,13.36-7,.79-15.31,.56-23.1-.17-.37-1.29-.81-2.49-1.31-3.61,6.06,.53,14.43,.93,22,.07Zm-30.93-11.76c2.29,1.55,4.16,3.72,5.61,6.46-.92-1.04-1.93-1.96-3.06-2.72-7.42-5.02-15.98-1.64-16.34-1.49l1.48,3.67c-.25,.07-.45,.13-.59,.17l-3.07-7.63c1.33-.5,9.14-3.08,15.97,1.54Z"/>
  <path class="cls-1" d="M162.87,120.2c3.1-3.19,3.56-7.47,1.18-10.92-2.71-3.92-8.06-5.29-12.73-3.25-3.26,1.42-7.34,4.9-9.29,13.36-7,.79-15.31,.56-23.1-.17-1.53-5.25-4.09-9.12-7.69-11.55-7.42-5.02-15.98-1.64-16.34-1.49l3.21,8s4.77-1.8,8.35,.66c1.06,.73,1.97,1.8,2.74,3.16-1.9-.3-3.72-.61-5.39-.94l-1.67,8.46c1.19,.24,4.72,.9,9.56,1.55,.2,1.88,.3,3.94,.29,6.17-.01,2.29-.11,4.31-.28,6.09-6.98,1.63-11.35,4.43-12.8,7.18-1.77,3.35-1.24,7.42,1.34,10.36,1.84,2.09,4.39,3.23,7,3.23,1.07,0,2.15-.19,3.2-.58,3.2-1.2,6.84-4.46,8.78-12.63,5.79-.62,13.56-.5,23.35,1.4,.45,2.68,1,5.52,1.67,8.54l8.42-1.85c-.34-1.57-.65-3.07-.93-4.52,4.5,1.25,9.33,2.84,14.52,4.87l3.14-8.03c-6.82-2.67-13.2-4.67-19.14-6.13-.75-6.13-.82-10.83-.57-14.35,5.36-1.28,10.03-3.36,13.19-6.61Zm-7.98-6.32c.32-.12,.6-.17,.86-.17,.5,0,.87,.18,1.07,.33-.03,.04-.08,.09-.13,.14-1.18,1.21-2.82,2.2-4.81,2.99,1.2-2.4,2.5-3.1,3.01-3.29Zm-47.47,37.56c-.24,.09-.47,0-.7-.26-.05-.05-.25-.3-.22-.53,.39-.37,1.35-.94,2.87-1.54-.75,1.48-1.49,2.16-1.95,2.34Zm13.03-13.38c.09-1.49,.15-3.08,.16-4.77,0-1.84-.06-3.59-.18-5.26,6.39,.54,13.66,.78,20.53,.15-.12,3.23,0,6.92,.4,11.12-8.01-1.36-15.02-1.66-20.91-1.25Z"/>
  <path d="M107.25,160.21c-2.68,0-5.27-1.19-7.09-3.27-2.62-2.98-3.15-7.1-1.36-10.49,1.59-3.01,6.37-5.71,12.8-7.22,.17-1.83,.26-3.85,.27-5.99,.01-2.14-.08-4.18-.28-6.07-4.74-.64-8.2-1.29-9.47-1.54l-.12-.02,.02-.12,1.7-8.58,.12,.02c1.56,.31,3.28,.61,5.14,.9-.74-1.25-1.6-2.23-2.58-2.9-3.54-2.44-8.19-.67-8.23-.65l-.11,.04-3.3-8.22,.11-.05c.36-.15,9-3.54,16.45,1.5,3.58,2.42,6.17,6.3,7.71,11.54,6.08,.57,14.96,1.06,22.91,.18,1.98-8.55,6.17-11.99,9.34-13.36,4.72-2.06,10.13-.67,12.88,3.3,2.42,3.5,1.95,7.84-1.19,11.07h0c-2.92,3-7.34,5.23-13.16,6.62-.28,4.03-.09,8.8,.56,14.16,6.21,1.53,12.63,3.59,19.07,6.11l.11,.04-.04,.11-3.19,8.14-.11-.04c-4.84-1.89-9.66-3.51-14.32-4.82,.28,1.43,.58,2.89,.89,4.33l.03,.12-.12,.03-8.54,1.88-.03-.12c-.64-2.9-1.19-5.75-1.65-8.46-8.51-1.65-16.29-2.11-23.14-1.39-1.13,4.69-3.57,10.66-8.84,12.63-1.04,.39-2.13,.59-3.24,.59Zm-4.97-34.79c1.37,.27,4.79,.91,9.43,1.53h.09s0,.11,0,.11c.21,1.92,.31,4,.29,6.18-.01,2.18-.11,4.23-.28,6.1v.09s-.09,.02-.09,.02c-6.4,1.5-11.16,4.16-12.73,7.12-1.75,3.31-1.23,7.32,1.33,10.22,1.78,2.02,4.3,3.18,6.91,3.18,1.08,0,2.14-.19,3.15-.57,4.11-1.54,7.12-5.88,8.71-12.55l.02-.08h.08c6.91-.75,14.78-.28,23.38,1.39l.08,.02v.08c.47,2.69,1.02,5.52,1.65,8.41l8.19-1.8c-.32-1.47-.63-2.95-.91-4.41l-.04-.19,.19,.05c4.69,1.3,9.54,2.93,14.42,4.83l3.05-7.81c-6.42-2.51-12.82-4.55-19.01-6.08l-.08-.02v-.08c-.67-5.45-.87-10.29-.58-14.38v-.09s.09-.02,.09-.02c5.81-1.38,10.23-3.59,13.13-6.58h0c3.06-3.14,3.52-7.37,1.17-10.77-2.68-3.87-7.97-5.22-12.58-3.21-3.13,1.36-7.27,4.77-9.22,13.28l-.02,.08h-.08c-8.04,.92-17.01,.42-23.13-.16h-.08s-.02-.09-.02-.09c-1.52-5.22-4.09-9.08-7.64-11.48-6.99-4.73-15.03-1.93-16.12-1.52l3.13,7.78c.75-.26,5.03-1.57,8.35,.72,1.06,.73,1.99,1.81,2.77,3.2l.12,.22-.24-.04c-1.9-.3-3.68-.61-5.28-.92l-1.63,8.22Zm4.97,26.17c-.18,0-.39-.08-.62-.33-.11-.13-.29-.38-.25-.63v-.04s.04-.03,.04-.03c.48-.45,1.57-1.04,2.91-1.57l.29-.12-.14,.28c-.64,1.27-1.39,2.16-2.01,2.39h0c-.06,.02-.14,.04-.22,.04Zm-.63-.89c0,.13,.1,.29,.2,.4,.2,.22,.38,.3,.57,.23h0c.4-.15,1.06-.75,1.73-1.99-1.62,.67-2.29,1.18-2.5,1.37Zm34.88-11.25l-.16-.03c-7.51-1.27-14.53-1.69-20.88-1.24h-.14s0-.13,0-.13c.1-1.5,.15-3.1,.16-4.76,0-1.75-.05-3.52-.18-5.25v-.14s.13,.01,.13,.01c7.64,.64,14.54,.69,20.51,.15h.14s0,.12,0,.12c-.13,3.34,.01,7.07,.4,11.11l.02,.16Zm-16-1.68c4.93,0,10.2,.47,15.73,1.39-.38-3.93-.51-7.58-.39-10.85-5.91,.53-12.73,.48-20.27-.15,.12,1.69,.18,3.42,.17,5.13,0,1.62-.06,3.18-.15,4.64,1.6-.11,3.24-.16,4.91-.16Zm26.14-20.36l.14-.28c1.22-2.44,2.56-3.16,3.07-3.36h0c.3-.11,.61-.17,.9-.17,.62,0,1,.25,1.14,.36l.1,.08-.08,.1s-.08,.1-.14,.15c-1.14,1.18-2.77,2.19-4.85,3.01l-.29,.12Zm4.12-3.57c-.27,0-.54,.05-.82,.16h0c-.47,.18-1.66,.82-2.79,2.95,1.9-.79,3.4-1.74,4.46-2.84l.04-.04c-.16-.1-.46-.23-.89-.23Z"/>
  <path class="cls-1" d="M138.2,165.86c-.65-.67-.72-1.14-.63-1.74,.67-4.33-1.07-6.43-2.64-7.43-4.63-2.94-10.74,1.19-20.87,8.04-4.86,3.28-9.88,6.67-13.57,8.26-1.22,.52-1.86,.57-2.11,.57-.68-.99-.8-4.81-.21-7.8l-8.46-1.68c-.39,1.95-2.06,11.91,3.3,16.25,1.18,.96,2.94,1.85,5.39,1.85,1.55,0,3.37-.35,5.5-1.27,4.43-1.9,9.8-5.53,14.99-9.03,3.06-2.06,7.22-4.88,10.08-6.41,.22,2.37,1.26,4.55,3.07,6.41,8.37,8.59,32.43,8.04,43.98,6.55l-1.1-8.55c-15.79,2.03-32.6,.19-36.71-4.02Z"/>
  <path d="M98.39,182.3c-2.09,0-3.93-.63-5.46-1.87-5.41-4.38-3.73-14.4-3.34-16.37l.02-.12,8.69,1.72-.02,.12c-.56,2.86-.47,6.6,.16,7.65,.31,0,.94-.1,2-.56,3.68-1.58,8.7-4.97,13.54-8.24,10.18-6.87,16.31-11.01,21.01-8.04,1.6,1.02,3.37,3.16,2.7,7.55-.09,.57-.02,1,.6,1.63h0c4.08,4.19,20.85,6.01,36.6,3.99l.12-.02,.02,.12,1.12,8.67-.12,.02c-11.57,1.5-35.67,2.03-44.08-6.59-1.79-1.84-2.83-3.96-3.09-6.31-2.86,1.55-6.93,4.3-9.91,6.32-5.19,3.51-10.56,7.13-15.01,9.04-1.98,.85-3.84,1.28-5.55,1.28Zm-8.59-18.08c-.43,2.19-1.93,11.8,3.28,16.02,2.72,2.2,6.46,2.41,10.77,.56,4.43-1.9,9.78-5.52,14.97-9.02,3.04-2.06,7.22-4.87,10.09-6.42l.16-.08,.02,.18c.22,2.36,1.24,4.49,3.04,6.34,8.32,8.53,32.18,8.01,43.76,6.54l-1.07-8.31c-15.79,2.01-32.57,.15-36.69-4.07-.68-.7-.76-1.22-.67-1.84,.66-4.26-1.04-6.33-2.59-7.31-4.56-2.89-10.65,1.22-20.73,8.02-4.87,3.29-9.9,6.69-13.6,8.28-1.11,.48-1.78,.58-2.15,.58h-.08l-.03-.05c-.7-1.02-.82-4.77-.26-7.77l-8.22-1.63Z"/>
  <path d="M264.44,146.07c-1.76-7.45-4.66-13.26-6.44-16.38,5.4-8.7,6.63-15.16,3.77-19.69l-2.27-4.01c-3.78-5.99-12.19-4.92-13.13-4.78l-.2,.03,1.27,8.73,.03,.2,2.61,3.68c.47-.06,1.01-.08,1.54-.06-.55,1.92-1.86,4.9-4.91,9.41l-.03,.05,.03,4.93v.06l.04,.05c.57,.82,11.03,16.34,7.1,34.99l-1.12-3.41-2.31-4.16-.19,.06c-.11,.03-11.3,3.68-23.09,5.71-7.2,1.24-13.04,1.62-17.35,1.14-1.98-.22-3.56-.63-4.7-1.19,.34-3.39,4.78-7.19,13.51-13.52,6.38-4.62,12.97-9.4,17.04-15.39,3.82-5.62,2.92-9.51,1.5-11.77l-1.93-3.41c-.11-.21-.22-.42-.34-.61-3.9-6.2-15.39-5.85-21.96-5.07-6.17-4.95-11.06-6.2-14.95-3.82-6.76,4.14-4.42,17.13-3.1,22.53l.05,.2,2.59,3.66,8.38-2.04c-1.2-4.93-1.55-10.69-.85-12.66,.79,.23,2.69,1.07,6.14,4.04l3.45,1c4.24-.63,8.09-.66,10.87-.37-3.27,4.5-8.97,8.65-14.51,12.66-10.13,7.34-21.61,15.66-15.69,27.19,.2,.39,.45,.73,.69,1.08l-.2-.22,2.96,4.32-.15-.3c2.91,4.4,8.73,6.62,17.7,6.62,4.25,0,9.2-.49,14.86-1.47,8.6-1.48,16.68-3.71,21.01-5-1.19,3.21-2.85,6.47-5.1,9.73l-.11,.17,2.72,3.85,7.09,4.9c8.54-12.36,11.19-26.77,7.66-41.66Zm-37.22,15.81c10.96-1.88,21.42-5.17,22.95-5.66l1.33,4.04c-3.23,1-12.36,3.69-21.88,5.32-15.7,2.7-22.7,.91-24.02-1.67-.35-.68-.51-1.36-.51-2.06,3.29,1.52,10.24,2.06,22.13,.02Zm-29.02-53.69c3.74-2.29,8.5-1.03,14.55,3.84l.07,.05h.08c6.46-.78,17.85-1.17,21.65,4.87,.32,.51,.61,1.11,.83,1.79-4.88-4.03-14.43-3.63-20.06-2.96-4.28-3.45-9.94-6.82-14.78-3.85-5.18,3.17-4.91,11.68-3.92,17.82l-1.39,.34c-1.3-5.42-3.49-17.94,2.97-21.89Zm13.05,28.99c5.64-4.09,11.45-8.31,14.74-12.93,1.86,.22,3.2,.59,3.76,1-.06,.32-.31,1.09-1.21,2.43-3.22,4.74-9.19,9.07-14.97,13.25-9.5,6.88-20.19,14.63-16.44,25.05-.55-.65-1.05-1.34-1.44-2.11-5.76-11.22,5.57-19.43,15.57-26.68Zm35.39-35.6c1.55-.19,9.08-.85,12.53,4.62,.35,.56,.64,1.15,.87,1.78-4.09-3.58-10.39-2.79-11.19-2.67l.64,4.38c-.58-.04-1.16-.03-1.66,.02l-1.19-8.14Zm.46,21.8c3.08-4.57,4.42-7.6,4.97-9.57,1.13,.09,2.16,.37,2.43,.8,.02,.03,1.53,2.7-5.16,12.61l.03,4.74c-1.11-2.14-2.01-3.5-2.24-3.84l-.03-4.74Zm5.56,45.56c1.63-.49,2.64-.82,2.77-.86l-1.33-4.04c3.07-13.45-1.36-25.36-4.47-31.53,2.19,3.38,15.54,25.78,1.15,48.63l-3.26-2.26c2.28-3.33,3.94-6.66,5.13-9.94Z"/>
  <path class="cls-1" d="M216.17,144.01c6.38-4.62,12.97-9.4,17.04-15.39,3.82-5.62,2.92-9.51,1.5-11.77-3.86-6.14-15.4-5.74-21.85-4.97-4.28-3.45-9.94-6.82-14.78-3.85-6.65,4.07-4.32,16.96-3.01,22.31l8.38-2.04c-1.2-4.93-1.55-10.69-.85-12.66,.79,.23,2.69,1.07,6.14,4.04l3.45,1c7.45-1.11,13.69-.36,15.1,.68-.06,.32-.3,1.09-1.21,2.43-3.22,4.74-9.19,9.07-14.97,13.25-10.06,7.29-21.47,15.56-15.63,26.93,2.63,5.13,8.69,7.68,18.38,7.68,4.25,0,9.2-.49,14.86-1.47,12.41-2.14,23.78-5.85,24.26-6l-2.69-8.19c-.11,.04-11.32,3.69-23.12,5.71-15.7,2.7-22.7,.91-24.02-1.67-2.12-4.13,2.1-8.1,13.02-16.01Z"/>
  <path d="M213.87,171.76c-9.77,0-15.81-2.53-18.49-7.74-5.89-11.47,5.56-19.77,15.66-27.08,5.77-4.18,11.73-8.5,14.94-13.22,.85-1.24,1.1-1.99,1.17-2.31-1.45-.96-7.49-1.72-14.94-.62h-.03s-.03,0-.03,0l-3.5-1.02c-3.26-2.81-5.12-3.7-5.99-3.99-.66,2.09-.27,7.74,.89,12.49l.03,.12-.12,.03-8.49,2.07-.03-.12c-1.31-5.38-3.64-18.33,3.07-22.44,3.86-2.37,8.73-1.11,14.88,3.83,6.54-.77,18.03-1.14,21.91,5.03,1.45,2.3,2.36,6.23-1.5,11.91-4.08,6-10.68,10.79-17.06,15.41h0c-10.86,7.87-15.06,11.81-12.98,15.86,.71,1.38,3.03,2.36,6.53,2.74,4.32,.48,10.16,.1,17.37-1.14,11.88-2.04,23-5.67,23.1-5.71l.12-.04,.04,.12,2.72,8.31-.11,.04c-.48,.16-11.79,3.86-24.28,6.01-5.65,.97-10.66,1.47-14.88,1.47Zm5.55-51.75c3.89,0,6.94,.5,7.95,1.25l.06,.05-.02,.08c-.07,.35-.31,1.13-1.23,2.47-3.23,4.75-9.21,9.09-15,13.28-10.03,7.26-21.39,15.5-15.6,26.78,2.63,5.12,8.61,7.61,18.27,7.61,4.21,0,9.2-.49,14.84-1.46,11.95-2.06,22.83-5.54,24.13-5.96l-2.61-7.96c-1.22,.39-11.78,3.75-23.02,5.68-15.76,2.7-22.81,.88-24.15-1.73-2.16-4.21,2.08-8.21,13.05-16.16h0c6.37-4.62,12.95-9.39,17-15.36,3.78-5.57,2.9-9.41,1.49-11.64-3.82-6.07-15.25-5.69-21.73-4.91h-.05s-.04-.03-.04-.03c-6.08-4.9-10.87-6.15-14.64-3.84-6.53,4-4.29,16.66-2.99,22.06l8.14-1.99c-1.16-4.85-1.53-10.6-.81-12.62l.04-.11,.11,.03c.83,.24,2.74,1.1,6.17,4.05l3.4,.99c2.53-.38,5.01-.54,7.22-.54Z"/>
  <path class="cls-1" d="M259.33,106.1c-3.71-5.88-12-4.83-12.93-4.69l1.24,8.53c1.63-.22,3.97,.09,4.4,.76,.02,.03,1.53,2.7-5.16,12.61l.03,4.87c.72,1.05,17.48,25.91,.32,50.74l7.09,4.9c8.54-12.36,11.19-26.77,7.66-41.66-1.76-7.45-4.66-13.26-6.44-16.38,5.4-8.7,6.63-15.16,3.77-19.69Z"/>
  <path d="M254.37,183.99l-.1-.07-7.19-4.97,.07-.1c17.12-24.78,.4-49.56-.32-50.6l-.02-.03v-.04l-.03-4.9,.02-.03c6.56-9.74,5.17-12.46,5.15-12.48-.36-.57-2.56-.94-4.28-.7l-.12,.02-1.28-8.77,.12-.02c.94-.14,9.3-1.2,13.05,4.74h0c2.88,4.57,1.66,11.03-3.73,19.75,1.64,2.89,4.63,8.8,6.42,16.35,3.53,14.92,.88,29.36-7.68,41.76l-.07,.1Zm-6.96-5.1l6.9,4.76c8.47-12.31,11.09-26.65,7.58-41.46-1.79-7.58-4.8-13.5-6.43-16.35l-.03-.06,.04-.06c5.37-8.67,6.61-15.06,3.77-19.56h0c-3.54-5.62-11.33-4.83-12.69-4.65l1.21,8.29c1.66-.19,3.95,.12,4.4,.83,.57,.91,.23,4.74-5.14,12.71l.03,4.79c.98,1.43,17.33,26.07,.37,50.75Z"/>
  <path d="M343.63,143.32l.07,.08-1.82-3.25c-.04-.07-.08-.15-.12-.22l-.1-.19,.02,.05c-.2-.33-.42-.65-.65-.95l3.29,2.56c4.85-6.23,10.85-15.27,7-21.85l-2.27-4.01c-3.56-6.08-12.41-4.91-13.41-4.76l-.2,.03,1.34,8.72,.03,.2,2.61,3.68c.33-.05,.69-.07,1.06-.08-.8,1.88-2.4,4.69-5.56,8.75l-.12,.16,2.6,3.79c-.29-.13-.58-.25-.89-.36-1.2-.4-3.01-.82-5.82-.56,.35-.41,.71-.81,1.01-1.23,3.56-4.97,4.03-10.57,1.37-14.51h.02s-1.64-2.93-1.64-2.93c-.02-.03-.04-.06-.05-.1l-.38-.67,.02,.05c-.39-.63-.84-1.23-1.38-1.77-6.87-7-15.59-4.19-19.24-1.72l-.16,.11,5.02,7.5,2.5,3.63c2.22-1.44,4.12-1.41,5.52-.96-.24,.74-.64,1.55-1.19,2.33-2.52,3.51-7.6,6.15-12.81,3.64-.84-.4-1.54-.83-2.14-1.28,0-2.37,1.55-4.9,2.25-5.79l-.05-.04-2.11-3.9-3.52-2.81-3.51-2.83-.13,.16c-.57,.7-5.49,7.07-3.87,14.28,.3,1.35,.9,2.95,2.03,4.58h-.01s2.18,3.13,2.18,3.13h0c1.34,2.19,3.63,4.5,7.49,6.37,1.41,.68,2.8,1.16,4.18,1.47-2.66,1.39-5.5,2.97-8.51,4.78-5.96,3.58-11.44,7.28-15.03,9.8-.94-1.66-2.29-2.78-3.99-3.33-1.98-.63-7.34-1.12-14.46,8.16l-.12,.16,2.72,3.87,6.84,5.25c1.04-1.35,2.36-2.71,3.5-3.7l.84,1.2,6.9,3.32c7.92-5.95,15.42-10.85,22-14.62l1.83,5.18,.05,.14,2.58,3.7c.37,0,.69,0,1,0-1.45,3.38-4.88,8.55-8.59,12.63l-.13,.15,2.72,3.89,3.19,2.91-3.18-2.91h0l6.37,5.81c3.5-3.83,14.61-16.98,10.74-25.42-.14-.31-.31-.59-.48-.87l.07,.08-2.03-3.58,.02,.08c-.12-.23-.24-.46-.37-.68,1.91-2.62,3.62-5.82,4.18-9.35,1.67-.47,3.04-.68,4.11-.67,2.38,12.86-3.23,25.64-3.29,25.77l-.08,.18,2.71,3.81,7.84,3.59c.33-.72,8.01-17.8,3.05-34.9-.31-1.08-.78-2.05-1.38-2.91Zm-7.74-32.17c1.61-.21,9.54-.96,12.8,4.6,.3,.51,.52,1.04,.7,1.57-4.06-3.39-10.46-2.56-11.29-2.43l.66,4.34c-.56-.02-1.13,0-1.63,.06l-1.25-8.13Zm5.02,12.17c1.32,.02,2.64,.25,2.95,.59,.01,.02,.84,2.54-5.28,10.78l-3.23-2.52c3.17-4.1,4.77-6.94,5.57-8.85Zm-4.55,12.72c2.72,.91,4.72,2.87,5.74,5.56-.92-.8-2-1.43-3.23-1.84-1.94-.64-4.73-1.06-9.42,.07-.36-.76-.77-1.5-1.26-2.22,.77-.65,1.47-1.35,2.12-2.07,2.98-.33,4.83,.1,6.05,.51Zm-7.01-21.82c.96,.97,1.66,2.1,2.12,3.34-6.53-6.17-14.56-3.78-18.23-1.45l-2.45-3.67c3.65-2.38,11.98-4.93,18.56,1.78Zm-6.96,10.84c.59-.82,1.01-1.66,1.25-2.43,1.13,.45,1.88,1.14,2.13,1.4,.76,.78,.27,2.89-1.11,4.82-2.57,3.58-7.75,6.27-13.06,3.7-2.53-1.22-4-2.67-4.38-4.31-.04-.17-.04-.35-.06-.53,.56,.39,1.19,.76,1.92,1.11,5.42,2.61,10.7-.12,13.31-3.77Zm-22.16-12.68l6.4,5.17c-.2,.28-.45,.66-.71,1.11l-3.29-2.65c-.56,.69-5.43,6.99-3.83,14.11,.1,.43,.23,.89,.39,1.36-1.53-1.87-2.29-3.76-2.63-5.31-1.49-6.64,2.74-12.58,3.66-13.78Zm-15.84,41.04c1.67,.54,2.97,1.66,3.87,3.33l.11,.2,.19-.13c3.59-2.51,9.13-6.27,15.19-9.91,3.19-1.91,6.17-3.57,8.96-5.01,1.1,.21,2.19,.33,3.26,.33,1.54,0,3.03-.21,4.46-.58,.31,.35,.58,.69,.8,1.02-4.09,1.76-9.06,4.32-15.13,7.97-5.95,3.57-11.41,7.26-15.2,9.92-.93-1.73-2.26-2.87-3.99-3.43-1.83-.59-6.64-1.02-13.1,6.68l-3.3-2.53c6.9-8.92,12.01-8.47,13.89-7.87Zm28.69,3.06c2.13-1.21,4.16-2.3,6.07-3.27-1.69,2.17-3.63,3.94-4.7,4.75l1.28,3.63c-.27,0-.54,0-.85,0l-1.8-5.11Zm5.54,9.24c2.19,.11,2.82,.63,2.83,.63,.91,1.95-3.64,9.49-8.32,14.94l-3.11-2.84c3.52-3.9,7.12-9.18,8.59-12.73Zm8.05-6.78c.11,.24,.17,.49,.25,.74-.37-.31-.77-.59-1.21-.84,.17-.22,.35-.45,.52-.68,.15,.26,.31,.51,.44,.79Zm8.52-11.17c.36,.03,.68,.08,.95,.17,.28,.09,.43,.14,.59,.69,3.05,10.52,.06,21.5-1.62,26.35l-3.16-1.45c.69-1.63,5.47-13.63,3.25-25.76Z"/>
  <path d="M365.38,128.94c1.36-8.84,.83-15.12-1.62-19.01h0s-1.69-2.97-1.69-2.97c-.2-.41-.43-.8-.67-1.17l-.02-.04v.02c-.82-1.27-1.85-2.28-3.09-3.04-6.52-3.99-14.65,1.62-15.55,2.27l-.16,.12,2.72,3.95,5.03,7c1.29-.91,3.12-1.72,4.43-1.97,.21,2,.17,5.02-.53,9.6-4.58,29.86-4.27,47.66,1.04,59.53l.08,.18,2.54,3.64,7.87-3.52c-4.51-10.06-4.62-26.9-.37-54.58Zm-7.31-25.88c1.76,1.07,3.07,2.68,3.97,4.82-.44-.4-.91-.77-1.42-1.09-5.85-3.58-13.02,.71-14.92,1.98l-2.57-3.58c1.44-1,8.92-5.82,14.94-2.14Zm-3.46,20.69c.71-4.61,.75-7.68,.54-9.72,.41-.04,.75,0,.96,.12,.03,.02,2.54,1.72,.74,13.48-4.04,26.29-4.27,43.2-.64,54.94l-.67,.3c-5.2-11.79-5.47-29.49-.92-59.12Z"/>
  <path class="cls-1" d="M281.25,162.29c.06,.46,.12,1.05,.14,1.79l6.9,3.32c10.64-7.99,20.52-14.1,28.42-18.09-1.69,2.17-3.63,3.94-4.7,4.75l2.73,7.74c3.39-.09,4.26,.65,4.27,.65,.97,2.08-4.29,10.55-9.27,16.02l3.19,2.91-3.18-2.91,6.37,5.81c3.5-3.83,14.61-16.98,10.74-25.42-.77-1.68-1.97-2.99-3.58-3.93,2.22-2.79,4.32-6.38,4.96-10.39,2.48-.69,4.35-.87,5.46-.5,.28,.09,.43,.14,.59,.69,4.05,13.97-2.54,28.76-2.61,28.9l7.84,3.59c.33-.72,8.01-17.8,3.05-34.9-.91-3.16-3.09-5.45-6.14-6.47-1.93-.64-4.73-1.06-9.42,.07-.36-.76-.77-1.5-1.26-2.22,1.35-1.13,2.53-2.39,3.49-3.74,4-5.58,4.11-11.96,.26-15.88-6.78-6.91-15.38-4.13-18.98-1.7l4.79,7.17c4.36-2.81,7.46-.02,8.03,.57,.76,.78,.27,2.89-1.11,4.82-2.57,3.58-7.75,6.27-13.06,3.7-2.53-1.22-4-2.67-4.38-4.31-.61-2.62,1.34-5.83,2.14-6.85l-3.37-2.69,3.36,2.71-6.71-5.42c-.56,.69-5.43,6.99-3.83,14.11,.67,2.99,2.79,7.19,9.05,10.21,2.76,1.33,5.49,1.91,8.1,1.91,1.54,0,3.03-.21,4.46-.58,.31,.35,.58,.69,.8,1.02-4.09,1.76-9.06,4.32-15.13,7.97-5.95,3.57-11.41,7.26-15.2,9.92-.93-1.73-2.26-2.87-3.99-3.43-1.94-.63-7.2-1.08-14.24,8.09l6.84,5.25c1.26-1.63,2.94-3.32,4.2-4.28Z"/>
  <path d="M316.12,184.45l-.09-.08-3.18-2.91h0s-3.27-2.99-3.27-2.99l.08-.09c5.9-6.48,10-14.1,9.26-15.86-.2-.13-1.1-.62-3.61-.62-.18,0-.37,0-.56,0h-.09s-.03-.08-.03-.08l-2.76-7.82,.07-.05c1.06-.82,2.79-2.4,4.33-4.3-6.07,3.1-15.71,8.66-27.91,17.83l-.06,.04-.07-.03-6.96-3.35v-.07c-.02-.57-.06-1.09-.11-1.56-1.28,1.01-2.86,2.65-4.01,4.13l-.07,.1-.1-.07-6.94-5.32,.07-.1c7.09-9.25,12.41-8.77,14.37-8.13,1.71,.55,3.05,1.68,3.99,3.37,3.59-2.52,9.1-6.24,15.1-9.85,5.61-3.37,10.66-6.03,15.02-7.92-.18-.26-.4-.54-.66-.84-4.25,1.08-8.52,.59-12.56-1.36-6.31-3.04-8.44-7.28-9.12-10.29-1.61-7.17,3.29-13.51,3.85-14.21l.08-.09,.09,.08,3.36,2.71,3.47,2.76-.08,.09c-.79,1-2.71,4.17-2.11,6.74,.37,1.6,1.82,3.03,4.32,4.23,5.25,2.53,10.37-.13,12.91-3.67,1.33-1.85,1.83-3.94,1.12-4.67-.56-.58-3.6-3.32-7.88-.55l-.1,.06-.07-.1-4.86-7.27,.1-.07c3.63-2.45,12.3-5.26,19.14,1.71,3.89,3.97,3.79,10.41-.25,16.04-.96,1.33-2.11,2.57-3.43,3.69,.42,.62,.8,1.29,1.17,2.05,4.99-1.18,7.74-.59,9.39-.04,3.08,1.03,5.29,3.36,6.22,6.55,4.97,17.15-2.73,34.26-3.06,34.98l-.05,.11-8.06-3.69,.05-.11c.07-.15,6.61-14.98,2.6-28.82-.14-.49-.25-.52-.51-.61-1.05-.35-2.89-.19-5.31,.49-.56,3.4-2.2,6.85-4.89,10.26,1.57,.94,2.75,2.26,3.51,3.91,3.9,8.51-7.25,21.71-10.76,25.56l-.08,.09Zm-6.21-5.99l6.19,5.65c3.57-3.93,14.44-16.89,10.64-25.2-.75-1.65-1.94-2.95-3.53-3.88l-.12-.07,.09-.11c2.73-3.44,4.4-6.91,4.94-10.33v-.08s.09-.02,.09-.02c2.54-.71,4.4-.88,5.53-.5,.32,.11,.5,.19,.67,.77,3.85,13.3-1.97,27.49-2.57,28.88l7.62,3.49c.73-1.64,7.79-18.15,2.99-34.7-.9-3.11-3.06-5.38-6.06-6.39-1.63-.54-4.36-1.13-9.35,.07l-.1,.02-.04-.09c-.39-.83-.8-1.55-1.25-2.2l-.06-.09,.08-.07c1.33-1.12,2.5-2.37,3.47-3.71,3.97-5.53,4.07-11.85,.27-15.73-6.66-6.79-15.1-4.14-18.73-1.75l4.66,6.97c4.38-2.76,7.5,.05,8.08,.65,.81,.83,.34,2.97-1.1,4.98-2.6,3.62-7.84,6.33-13.21,3.74-2.56-1.23-4.06-2.71-4.45-4.39-.6-2.58,1.21-5.69,2.07-6.83l-6.52-5.27c-.82,1.04-5.26,7.11-3.73,13.91,.67,2.96,2.77,7.13,8.99,10.13,4.02,1.93,8.25,2.41,12.47,1.32l.07-.02,.05,.05c.32,.37,.6,.72,.81,1.04l.08,.12-.13,.06c-4.38,1.88-9.46,4.56-15.12,7.96-6.06,3.64-11.61,7.4-15.2,9.91l-.11,.08-.06-.12c-.91-1.69-2.23-2.83-3.92-3.37-1.9-.61-7.08-1.07-14.03,7.96l6.65,5.1c1.2-1.54,2.85-3.22,4.14-4.21l.16-.13,.03,.21c.07,.51,.12,1.1,.14,1.73l6.77,3.25c12.52-9.4,22.34-15.01,28.38-18.06l.48-.24-.33,.42c-1.6,2.06-3.49,3.82-4.65,4.72l2.67,7.58c.17,0,.33,0,.48,0,2.51,0,3.46,.48,3.73,.66h.04l.03,.07c.98,2.11-4.22,10.56-9.21,16.06Z"/>
  <path class="cls-1" d="M341.87,137.5c4.85-6.23,10.85-15.27,7-21.85-3.5-5.97-12.22-4.82-13.2-4.67l1.31,8.52c1.64-.25,4.02,.03,4.46,.5,.01,.03,.94,2.82-6.36,12.2l6.8,5.3Z"/>
  <path d="M341.89,137.67l-.09-.07-6.9-5.37,.07-.09c6.88-8.83,6.41-11.79,6.35-12.06-.43-.4-2.7-.7-4.33-.44l-.12,.02-.02-.12-1.32-8.64,.12-.02c.99-.15,9.78-1.32,13.33,4.72,3.9,6.64-2.13,15.73-7,21.99l-.08,.1Zm-6.65-5.49l6.61,5.15c4.82-6.2,10.71-15.14,6.91-21.62-3.36-5.72-11.55-4.83-12.96-4.62l1.27,8.28c1.67-.22,4,.06,4.45,.55l.02,.03s1.05,2.77-6.3,12.23Z"/>
  <path class="cls-1" d="M342.85,105.15l5.03,7c1.86-1.32,4.91-2.47,5.8-1.91,.03,.02,2.54,1.72,.74,13.48-4.58,29.82-4.27,47.59,1.02,59.41l7.87-3.52c-4.51-10.06-4.62-26.9-.37-54.58,1.82-11.83,.26-19.07-4.76-22.14-6.41-3.92-14.43,1.62-15.33,2.27Z"/>
  <path d="M355.38,183.3l-.05-.11c-5.31-11.85-5.61-29.63-1.03-59.48,1.77-11.55-.66-13.34-.69-13.36-.76-.48-3.68,.5-5.66,1.91l-.1,.07-.07-.1-5.1-7.1,.1-.07c.9-.65,8.98-6.23,15.46-2.27,5.07,3.1,6.64,10.38,4.82,22.26-4.25,27.66-4.14,44.47,.36,54.52l.05,.11-.11,.05-7.98,3.57Zm-2.36-73.31c.3,0,.55,.05,.72,.16,.03,.01,2.62,1.69,.8,13.6-4.56,29.7-4.27,47.43,.97,59.24l7.65-3.42c-4.47-10.1-4.57-26.93-.33-54.54,1.81-11.77,.27-18.98-4.71-22.02-6.15-3.77-13.83,1.3-15.1,2.19l4.89,6.81c1.55-1.07,3.81-2.01,5.11-2.01Z"/>
  <path d="M442.12,132.99c-1.3-6.06-3.34-10.56-5.25-13.7l.02,.02-1.3-2.31h0c-.07-.12-.14-.23-.2-.36,1.16-2.46,2.05-5.69,.5-8.44l.03,.03-1.93-3.37-.28-.48c-.09-.17-.18-.34-.29-.5l-.1-.17,.02,.06c-.15-.23-.3-.45-.48-.67-4.27-4.96-14.68-1.74-22.66,1.83l-.18,.08,3.61,8.05,.08,.18,2.54,3.64c2.64-1.18,5.52-2.19,7.95-2.86l.54,3.05s1.23,1.22,2.67,3.83c-.03-.03-.06-.04-.1-.07,0,0,.06,.06,.13,.14,1.29,2.36,2.76,5.84,3.73,10.66,.5,2.49,.79,5.05,.93,7.64l-2.19-6.75-2.31-4.16-.19,.06c-5.8,1.88-10.83,2.62-15,2.2-.09-.14-.17-.27-.26-.41l.07,.08-1.07-1.98,.02,.07c-.81-1.56-1.78-3.05-2.94-4.44-5.24-6.28-9.38-4.69-10.92-3.7-2.94,1.88-3.66,5.8-1.79,9.77,.28,.6,.63,1.17,1,1.73l-.07-.08,2.64,3.85-.05-.11c1.22,1.89,3.01,3.63,5.38,5.01-.23,1.1-.62,2.13-1.2,3-2.11,3.22-5.98,4.28-10.62,2.93-1.09-.32-1.97-.87-2.69-1.53-.09-.37-.15-.74-.18-1.1-.35-3.67,1.44-6.89,4.78-8.61l-3.95-7.67-2.35-4.17-.18,.09c-6.57,3.38-10.23,10.01-9.53,17.29,.29,3.06,1.39,5.85,3.05,8.19l-.13-.12,2.33,3.38-.05-.13c2.03,3.21,5.12,5.65,8.86,6.74,2.12,.62,4.21,.92,6.21,.92,5.91,0,11.09-2.63,14.27-7.48,1.72-2.63,2.67-5.62,2.86-8.72,4.55,.16,9.97-.58,16.28-2.59,.43,14.31-3.94,29.39-8.13,40.37l-.07,.19,2.7,3.79,8.06,3.07c8.18-21.44,10.66-40.04,7.38-55.28Zm-14.77-4.12l1.31,4.03c-6.22,1.87-10.84,2.19-14.16,1.8-.48-1.25-1.09-2.47-1.8-3.65,4.11,.35,9.03-.37,14.65-2.18Zm-29.82-8.29c1.44-.92,5.35-2.41,10.39,3.62,.98,1.18,1.82,2.43,2.55,3.73-5.12-6.1-9.13-4.57-10.61-3.62-2.55,1.63-3.35,4.86-2.19,8.3-.71-.87-1.32-1.79-1.78-2.78-1.78-3.77-1.12-7.49,1.64-9.26Zm-5.04,26.14c4.83,1.41,8.86,.28,11.07-3.09,.58-.88,.98-1.92,1.23-3.02,.78,.43,1.61,.84,2.51,1.18,.07,2.19-.5,4.16-1.47,5.64-2.16,3.3-6.11,4.39-10.84,3.01-2.7-.79-4.21-2.83-4.87-4.91,.67,.51,1.45,.93,2.38,1.2Zm-4.45-22.92l2.02,3.92c-6.17,3.42-9.58,9.8-8.91,16.81,.16,1.62,.54,3.17,1.11,4.61-1.84-2.39-3.04-5.32-3.35-8.54-.67-7.05,2.82-13.47,9.14-16.8Zm22.5-18.59c7.83-3.49,17.93-6.6,22.01-1.85,.69,.8,1.13,1.71,1.35,2.7-4.74-3.22-13.96-.28-21.19,2.95l1.58,3.53c-.13,.06-.27,.11-.39,.17l-3.36-7.5Zm14.13,8.69c1.03-.27,1.97-.47,2.74-.58-.25,.49-.59,1.09-1.06,1.81l1.01,4.9c-.86-1.47-1.61-2.42-2.03-2.89l-.67-3.24Zm4.01,8.64c3.63,5.21,12.36,22.9-.97,59.85l-3.2-1.22c12.19-32.06,8.09-50.24,4.18-58.63Z"/>
  <path class="cls-1" d="M427.48,128.62c-6.88,2.23-11.87,2.59-15.42,2.18-.91-2.35-2.24-4.63-3.98-6.72-5.14-6.16-9.16-4.61-10.66-3.66-2.85,1.82-3.54,5.64-1.71,9.51,1.51,3.2,4.53,6.19,9.15,7.96,.07,2.19-.5,4.16-1.47,5.64-2.16,3.3-6.11,4.39-10.84,3.01-3.5-1.02-5.01-4.14-5.26-6.72-.35-3.67,1.44-6.89,4.78-8.61l-3.95-7.67c-6.5,3.35-10.11,9.9-9.42,17.1,.65,6.77,5.13,12.34,11.42,14.18,2.12,.62,4.21,.92,6.21,.92,5.91,0,11.09-2.63,14.27-7.48,1.72-2.63,2.67-5.62,2.86-8.73,4.65,.16,10.19-.61,16.67-2.71l-2.66-8.2Z"/>
  <path d="M396.32,155.86c-2.03,0-4.13-.31-6.23-.93-6.33-1.85-10.85-7.46-11.5-14.28-.7-7.25,2.94-13.85,9.48-17.21l.11-.05,4.05,7.88-.11,.05c-3.3,1.7-5.06,4.87-4.72,8.49,.24,2.54,1.73,5.61,5.17,6.62,4.68,1.37,8.58,.29,10.71-2.96,.99-1.51,1.5-3.46,1.45-5.49-4.24-1.64-7.49-4.48-9.14-8-1.85-3.93-1.15-7.81,1.76-9.67,1.52-.97,5.61-2.54,10.81,3.69,1.71,2.05,3.05,4.3,3.98,6.68,4.23,.47,9.37-.26,15.3-2.19l.11-.04,.04,.11,2.7,8.32-.11,.04c-6.05,1.96-11.63,2.87-16.6,2.72-.21,3.13-1.2,6.12-2.87,8.67-3.14,4.79-8.37,7.53-14.37,7.53h-.02Zm-8.24-32.15c-6.39,3.34-9.93,9.81-9.25,16.92,.64,6.72,5.09,12.25,11.33,14.07,2.08,.61,4.15,.92,6.16,.92h.02c5.91,0,11.07-2.71,14.17-7.42,1.66-2.54,2.65-5.54,2.84-8.67v-.12s.13,0,.13,0c4.92,.17,10.49-.73,16.52-2.67l-2.58-7.97c-5.95,1.92-11.11,2.64-15.36,2.15h-.07s-.03-.08-.03-.08c-.92-2.39-2.25-4.64-3.96-6.69-5.07-6.08-9.03-4.57-10.5-3.64-2.8,1.79-3.47,5.55-1.67,9.36,1.64,3.48,4.87,6.29,9.09,7.9l.08,.03v.08c.07,2.11-.45,4.13-1.48,5.71-2.19,3.34-6.19,4.46-10.98,3.06-3.55-1.04-5.09-4.21-5.34-6.83-.35-3.68,1.42-6.91,4.74-8.67l-3.84-7.45Z"/>
  <path class="cls-1" d="M439.68,129.09c-1.68-7.79-4.57-13.04-6.85-16.08,1.37-2.8,2.49-6.74-.12-9.78-4.19-4.87-14.51-1.66-22.42,1.88l3.52,7.87c3.95-1.77,8.49-3.18,11.17-3.57-.25,.49-.59,1.09-1.06,1.81l1.22,5.9c-.06-.04-.15-.1-.26-.2,.18,.16,17.32,17.29-.63,64.36l8.06,3.07c8.18-21.44,10.66-40.04,7.38-55.28Z"/>
  <path d="M432.37,184.52l-8.28-3.16,.04-.11c5.12-13.41,10.5-32.91,7.12-49.67-2.08-10.3-6.41-14.52-6.45-14.55l.16-.18-1.17-5.64,.03-.04c.36-.56,.68-1.1,.94-1.59-2.78,.44-7.21,1.87-10.9,3.52l-.11,.05-.05-.11-3.57-7.98,.11-.05c7.95-3.56,18.32-6.78,22.56-1.85,2.1,2.44,2.16,5.75,.18,9.84,1.79,2.39,5.01,7.61,6.83,16.07h0c3.29,15.26,.8,33.88-7.39,55.35l-.04,.11Zm-7.97-3.3l7.83,2.99c8.13-21.37,10.6-39.91,7.33-55.1-1.83-8.48-5.06-13.68-6.83-16.03l-.05-.06,.03-.07c1.97-4.03,1.93-7.27-.11-9.64-4.12-4.79-14.31-1.64-22.17,1.87l3.43,7.65c3.79-1.69,8.33-3.13,11.09-3.53l.23-.03-.11,.21c-.28,.55-.63,1.15-1.04,1.78l1.23,5.93c2.28,2.63,15.65,20.65-.87,64.04Z"/>
  <path d="M71.64,268.76c-6.94-2.69-16.69-2.92-29.03-.69,1.56-1.83,3.01-3.66,4.26-5.43,2.54-3.61,2.01-6.21,1.16-7.73h0s-1.78-3.12-1.78-3.12c.43,.24,.67,.38,.69,.39l4.36-.04c.14-.08,13.69-8.06,27.64-8.25l-.12-8.62-2.24-4.11h-.2c-12.88,.18-25.01,5.77-29.72,8.22-.74-.4-1.7-.91-2.8-1.48,6.08-2.98,9.27-1.61,9.31-1.59-.11-.05-.16-.09-.16-.09l4.29-7.48-2.16-3.98-.17-.1c-.48-.28-2.86-1.5-6.82-1.43,.95-1,1.77-2.09,2.43-3.24,2.76-4.82,2.44-10.2-.79-15.09l.02,.02-1.62-2.95,.02,.05c-.67-1.19-1.5-2.36-2.5-3.49l-.13-.15-6.76,5.98,.13,.15c3.07,3.47,2.34,5.77,1.53,7.19-2.22,3.87-8.78,6.65-13.5,5.71-.73-.14-1.35-.38-1.88-.68-.62-6.41,9.79-10.12,9.9-10.15l-1.36-4.08-1.35-4.1-2.31-4.16-.19,.06s-4.17,1.36-8.16,4.27c-7.36,5.37-8.25,11.46-7.7,15.62,.29,2.23,1.01,4.19,2.04,5.89l-.11-.13,.22,.31c.13,.2,.26,.39,.4,.58l2,2.9-.13-.32c1.9,3.4,5.11,5.72,9.39,6.56,.99,.19,2,.29,3.03,.32-.37,.28-.74,.55-1.11,.85-4.59-1.96-8.97-3.63-13.04-4.94-6.22-2.01-10.88-1.44-13.87,1.71-4.99,5.26-1.74,14.68-1.04,16.52l.07,.19,2.56,3.65,8.06-3.07c-1.14-3.03-1.4-6.61-.82-7.29,0,0,1.11-.58,4.77,.6,8.09,2.62,16.09,6.24,21.89,9.1-2.74,.11-6.3,.82-10.96,2.15-3.25,.92-6.35,1.97-8.43,2.69-2.58-2.66-5.19-3.05-6.94-2.89-4.57,.41-8.45,4.77-11.53,12.96l-.11,.31,2.7,3.79,4,1.57,4.02,1.59,.1-.26c1.61-4.29,3.12-6.3,3.89-7.02,.24,.26,.59,.7,1.03,1.43l5.24,1.82c2.73-1.04,5.54-1.99,8.19-2.8-6.41,6.79-13.23,12.75-13.32,12.82l-.13,.11,4.53,7.58,2.53,3.66c8.99-3.41,35.12-11.16,47.89-6.22l3.12-8.04-2.18-4.02-.19-.07Zm-30.81-56.86c.86-1.51,1.64-3.92-1.44-7.5l6.16-5.45c1.06,1.22,1.91,2.48,2.58,3.77-.04-.05-.08-.1-.12-.15l-6.46,5.71c3.16,3.57,2.4,5.94,1.55,7.42-2.25,3.93-8.92,6.76-13.71,5.81-2.46-.48-3.8-1.86-4.21-4.28,.51,.25,1.08,.44,1.73,.57,4.87,.95,11.63-1.91,13.92-5.91Zm-18.96-13.01c3.46-2.52,7.01-3.85,7.86-4.15l1.29,3.9h0l.07,.21c-1.52,.61-4.23,1.84-6.89,3.78-7.28,5.31-8.17,11.32-7.62,15.43,.16,1.17,.46,2.26,.83,3.29-1.61-1.93-2.69-4.36-3.07-7.22-.54-4.05,.34-9.98,7.54-15.24Zm49.44,70.18l-1.03,2.67c-7.66-1.81-17.93-1.31-30.67,1.55-.74,.17-1.46,.33-2.18,.51,1.61-1.69,3.23-3.45,4.76-5.23,12.38-2.29,22.17-2.13,29.12,.5Zm-24.74-29.29l.09,.05,.09-.05c4.59-2.4,16.62-7.99,29.44-8.22l.05,3.81c-11.85,.8-22.62,5.78-27.14,8.14-1.77-.96-4.54-2.42-7.97-4.09,.81-.51,1.57-.93,2.3-1.3,1.26,.65,2.32,1.22,3.13,1.66ZM3.02,228.19c2.87-3.02,7.4-3.57,13.46-1.6,4.08,1.32,8.49,2.99,13.11,4.97l.11,.05,.09-.08c.55-.44,1.08-.81,1.62-1.21,5.95,0,12.19-2.58,16.3-6.67,3.74-.15,6.12,.86,6.88,1.25l-1.47,2.56c-4.23-.56-11.46,.24-21.02,7.8-4.11-1.76-8.58-3.51-13.13-4.98-6.14-1.99-10.74-1.43-13.66,1.66-3.08,3.24-2.96,8.11-2.27,11.74l-1.04,.4c-.81-2.17-3.65-10.98,1.02-15.91Zm8.9,21.77c1.68-.14,4.2,.22,6.7,2.86l.09,.09,.12-.04c2.07-.72,5.23-1.79,8.53-2.73,5.11-1.45,8.85-2.17,11.63-2.15,2.95,1.47,5.24,2.69,6.59,3.43,.19,.4,.34,.85,.43,1.38-2.83-1.76-7.62-1.4-16.27,1.06-3.24,.92-6.36,1.97-8.54,2.73-2.49-2.62-5.01-3.09-6.86-2.92-3.98,.36-7.43,3.8-10.29,10.22l-3.29-1.31c3.01-7.98,6.76-12.23,11.16-12.62Zm18.26,12.75c2.71-.81,5.22-1.47,7.25-1.89-7,8.66-17.85,18.18-18.7,18.93l-2.26-3.79c.99-.87,7.58-6.69,13.71-13.25Z"/>
  <path class="cls-1" d="M21.75,198.72c-7.28,5.32-8.17,11.32-7.62,15.43,.84,6.34,4.9,10.68,11.15,11.92,1.2,.24,2.44,.35,3.69,.35,7.58,0,15.64-4.17,19.17-10.33,3.21-5.6,2.27-11.95-2.57-17.42l-6.46,5.71c3.16,3.57,2.4,5.94,1.55,7.42-2.25,3.93-8.92,6.76-13.71,5.81-2.57-.51-3.92-1.96-4.27-4.59-.86-6.54,9.79-10.32,9.9-10.35l-1.36-4.09,1.35,4.09-2.7-8.19c-.17,.06-4.23,1.41-8.11,4.24Z"/>
  <path d="M28.97,226.54c-1.28,0-2.53-.12-3.71-.35-6.3-1.24-10.4-5.62-11.25-12.02-.55-4.13,.34-10.19,7.67-15.54h0c3.89-2.84,7.97-4.2,8.14-4.26l.11-.04,1.39,4.21,1.4,4.2-.11,.04c-.11,.04-10.67,3.77-9.82,10.22,.34,2.57,1.67,3.99,4.18,4.48,.62,.12,1.28,.18,1.96,.18,4.45,0,9.68-2.55,11.62-5.93,.83-1.44,1.57-3.77-1.54-7.28l-.08-.09,.09-.08,6.55-5.79,.08,.09c4.88,5.51,5.82,11.92,2.59,17.56-3.51,6.12-11.43,10.39-19.27,10.39Zm-7.15-27.72c-7.24,5.28-8.11,11.24-7.58,15.31,.83,6.29,4.86,10.59,11.06,11.81,1.17,.23,2.41,.35,3.67,.35,7.76,0,15.6-4.22,19.06-10.27,3.17-5.52,2.26-11.78-2.48-17.19l-6.28,5.55c3.12,3.58,2.34,5.97,1.49,7.47-2.28,3.97-8.99,6.83-13.84,5.87-2.63-.52-4.01-2.01-4.37-4.69-.83-6.28,8.64-9.99,9.85-10.44l-2.63-7.96c-.7,.24-4.41,1.6-7.96,4.19h0Z"/>
  <path class="cls-1" d="M46.66,239.6c-1.77-.96-4.54-2.42-7.96-4.09,7.85-4.92,11.99-3.13,12.04-3.11-.11-.05-.16-.09-.16-.09l4.29-7.48c-1.03-.59-10.28-5.27-25.2,6.54-4.11-1.76-8.58-3.51-13.13-4.98-6.14-1.99-10.74-1.43-13.66,1.66-4.91,5.17-1.69,14.49-1,16.31l8.06-3.07c-1.14-3.03-1.4-6.61-.82-7.29,0,0,1.11-.58,4.77,.6,15.36,4.97,30.48,13.59,30.63,13.67l4.36-.04c.14-.08,13.69-8.06,27.64-8.25l-.12-8.62c-12.85,.17-24.88,5.71-29.73,8.25Z"/>
  <path d="M44.48,248.39l-.03-.02c-.15-.09-15.27-8.7-30.61-13.66-3.32-1.07-4.5-.68-4.66-.62-.49,.65-.31,4.06,.86,7.15l.04,.11-.11,.04-8.17,3.11-.04-.11c-.7-1.83-3.94-11.21,1.02-16.43,2.96-3.12,7.6-3.69,13.79-1.69,4.07,1.32,8.47,2.98,13.07,4.95,14.97-11.82,24.27-7.08,25.28-6.5l.11,.06-.06,.1-4.23,7.38s.03,.01,.04,.02h0l-.1,.22s-4.11-1.73-11.75,2.99c3.35,1.64,6.03,3.05,7.72,3.97,4.68-2.44,16.83-8.05,29.72-8.23h.12s.12,8.86,.12,8.86h-.12c-13.85,.19-27.44,8.15-27.58,8.23l-.03,.02h-.03l-4.39,.04Zm-34.37-14.66c.75,0,1.96,.15,3.81,.75,15.04,4.86,29.87,13.24,30.62,13.67l4.29-.04c.7-.41,13.98-8.02,27.55-8.25l-.11-8.38c-12.85,.21-24.94,5.82-29.55,8.23l-.06,.03-.06-.03c-1.71-.93-4.49-2.4-7.96-4.09l-.19-.1,.18-.11c6.75-4.23,10.82-3.52,11.88-3.21l4.19-7.32c-1.42-.77-10.51-4.86-24.96,6.59l-.06,.05-.07-.03c-4.62-1.98-9.04-3.66-13.12-4.98-6.09-1.97-10.65-1.43-13.54,1.63-4.77,5.02-1.78,14.02-1.01,16.07l7.83-2.99c-1.12-3.04-1.36-6.59-.76-7.3l.02-.02s.29-.17,1.07-.17Z"/>
  <path class="cls-1" d="M37.17,269.38c-.74,.17-1.46,.33-2.18,.51,3.43-3.58,6.87-7.5,9.45-11.15,3-4.26,1.72-7.12,.69-8.44-2.51-3.23-7.34-3.33-17.82-.34-3.24,.92-6.35,1.97-8.54,2.73-2.49-2.62-5.01-3.09-6.86-2.92-4.49,.4-8.31,4.72-11.35,12.83l-.05,.12,4.01,1.58-4.01-1.59,8.01,3.18,.1-.26c1.61-4.29,3.12-6.3,3.89-7.02,.24,.26,.59,.7,1.03,1.43l5.24,1.82c5.84-2.22,12.05-4.07,16.22-4.93-7.25,8.96-18.66,18.89-18.78,19.01l4.35,7.29c8.99-3.41,35.12-11.16,47.89-6.22l3.12-8.04c-7.9-3.06-19.48-2.92-34.4,.43Z"/>
  <path d="M20.51,283.35l-.05-.09-4.4-7.38,.08-.07c.11-.1,11.35-9.9,18.56-18.73-4.35,.93-10.39,2.77-15.87,4.86l-.04,.02-5.32-1.85-.02-.04c-.39-.65-.71-1.07-.93-1.31-.54,.54-2.07,2.35-3.77,6.89l-.14,.37-.11-.05-8.13-3.21,.09-.23c3.06-8.16,6.92-12.5,11.46-12.91,1.74-.16,4.34,.22,6.91,2.9,2.08-.73,5.21-1.78,8.47-2.71,10.54-3,15.41-2.89,17.95,.39,1.05,1.35,2.36,4.26-.69,8.59-2.22,3.15-5.3,6.81-9.18,10.87,.59-.14,1.18-.28,1.78-.41h0c14.95-3.35,26.55-3.5,34.47-.43l.11,.04-.04,.11-3.16,8.15-.11-.04c-12.74-4.94-38.82,2.81-47.81,6.22l-.09,.04Zm-4.15-7.41l4.25,7.11c9.07-3.42,34.97-11.08,47.77-6.22l3.03-7.82c-7.88-3.01-19.39-2.85-34.22,.48h0c-.74,.17-1.46,.33-2.17,.51l-.4,.1,.29-.3c3.99-4.18,7.17-7.92,9.43-11.14,2.96-4.2,1.71-7,.7-8.3-2.47-3.19-7.27-3.27-17.69-.3-3.29,.94-6.46,2-8.53,2.73l-.07,.03-.05-.06c-2.52-2.66-5.07-3.03-6.76-2.88-4.44,.4-8.22,4.69-11.25,12.75l7.79,3.09,.05-.14c1.82-4.86,3.46-6.63,3.92-7.06l.09-.08,.08,.09c.32,.34,.67,.82,1.02,1.41l5.15,1.79c5.62-2.14,11.83-4.02,16.2-4.92l.33-.07-.21,.26c-6.9,8.53-17.71,18.07-18.72,18.95Z"/>
  <path d="M170.08,271.61l-2.28-4.14-.2,.04c-.19,.04-19.35,3.76-27.51-6.13l-.13-.16-4.8,3.96c-.07-.64-.18-1.29-.38-1.94-.16-.53-.42-1.04-.72-1.53l.07,.07-2.16-3.81s-.01-.02-.02-.03l-.04-.07h0c-1.1-1.87-3.17-3.4-5.79-4.39,1.35-1.22,2.66-2.17,3.43-2.65l-2.16-3.84-4.11-6.71c3.72-2.54,5.97-6.47,6.27-10.47,.26-3.47-.52-6.72-2.27-9.54l.02,.02-1.96-3.5,.04,.11c-.63-1.14-1.4-2.22-2.33-3.22-8.94-9.63-28.92-9.91-31.17-9.91h-.2v9.02s2.64,3.7,2.64,3.7c4.78,0,17.81,1.17,23.75,6.19,.22,.79,.32,1.63,.25,2.56-.26,3.5-4.32,5.41-7.93,5.12-1.13-.08-2.6-.39-3.83-1.29-.12-.75-.16-1.58-.1-2.55l-2.23-4.09-9-.64v.2c-.37,5.05,1.05,8.58,2.69,10.94l-.05-.06,2.48,3.6v-.02c.49,.75,1.01,1.39,1.52,1.93,2.58,2.72,6.24,4.38,10.32,4.67,.51,.04,1,.05,1.49,.05,1.66,0,3.21-.22,4.65-.6-.58,.5-1.18,1.04-1.78,1.64-3.21,3.19-5.28,6.52-6.13,9.9-8.23,3.32-14.9,10.79-19.83,22.22l-.08,.19,2.7,3.8,7.92,3.42c3.82-8.85,8.29-13.52,12.13-15.98l1.43,2.07v-.02c1.2,1.97,2.91,3.52,5.06,4.53,4.19,1.96,9.18,1.38,12.43-1.44,1.14-.99,1.95-2.19,2.46-3.51l1.08,1.57c6.87,8.32,17.86,10.08,25.93,10.08,5.6,0,9.79-.85,10.2-.94l-1.77-8.44Zm-30.18-9.82c8.05,9.49,25.52,6.54,27.58,6.15l.83,3.96c-4.96,.68-19.12,1.79-25.94-6.48l-5.67,4.68c-.61-.5-1.2-1.02-1.77-1.59,.25-.91,.33-1.86,.28-2.84l4.7-3.88Zm-13.29,4.45c-.12,.25-1.2,.8-2.58,.47-1.04-.25-1.71-.9-2.13-1.68,2.38,.03,4.06,.71,4.71,1.17,0,.03,0,.05,0,.05Zm5.54-6.84c.02,.07,.03,.15,.05,.22-2.12-1.73-5.26-2.9-8.86-3.16,.74-.96,1.59-1.87,2.44-2.66,3.23,1.17,5.62,3.17,6.37,5.61Zm-40.08-55.22c3.02,.02,22.07,.51,30.67,9.78,1.09,1.18,1.97,2.46,2.64,3.83-.02-.02-.03-.04-.05-.06-8.88-9.56-28.78-9.84-31.02-9.84v4.6c-.85-.05-1.61-.07-2.24-.08v-8.22Zm18.28,26.6c3.78,.26,8.08-1.75,8.36-5.49,.06-.75-.01-1.44-.13-2.1,.15,.14,.31,.27,.44,.41,1.48,1.6,2.09,3.37,1.93,5.58-.27,3.62-4.44,5.57-8.15,5.31-2.09-.15-5.28-1.03-6.16-4.83,1.22,.76,2.61,1.04,3.7,1.12Zm-14.75-8.54l8.2,.58c-.08,1.43,.07,2.59,.38,3.56l-6.33-.45c-.22,3.09,.24,5.59,.99,7.61-1.81-2.24-3.58-5.86-3.25-11.31Zm15.05,32.18l.1-.04,.02-.1c.82-3.34,2.86-6.64,6.05-9.81,.85-.84,1.69-1.58,2.47-2.22,1.33-.44,2.55-1.02,3.65-1.73l1.9,3.1c-.71,.46-3.21,2.12-5.72,4.61-3.23,3.21-5.27,6.53-6.1,9.9-5.92,2.36-12.95,7.75-18.64,19.58l-3.35-1.44c4.9-11.26,11.5-18.62,19.62-21.86Z"/>
  <path d="M135.09,213.75c.41-.2,.87-.35,1.32-.47-.04,.53-.1,1.09-.2,1.75-3.75,24.75,4.35,39.43,4.7,40.05l.1,.17,2.51,3.63,7.5-4.25c-.05-.09-3.46-6.28-4.34-17.5,.66,.22,1.37,.43,2.12,.63,.94,8.76,3.45,14.38,5.72,17.81l-.03-.03,.1,.14c.12,.18,.23,.34,.35,.5l1.92,2.76-.02-.05c1.35,2.14,2.63,3.5,3.45,4.24l5.76-6.41c-.14-.13-.43-.41-.81-.87l.81,.87-2.16-3.92-.15-.13c-.14-.12-.57-.54-1.14-1.31-1.18-2.73-2.3-6.65-2.74-12.1,.25,0,.49,.02,.75,.02,.89,0,1.81-.02,2.76-.07l-.46-8.61-2.25-4.12h-.2c-.13,.02-.26,.02-.39,.02,.21-2.17,.49-4.47,.9-6.95,1.03-6.33,.55-10.96-1.44-14.08l.06,.06-2.14-3.8,.02,.05c-.65-1.1-1.46-2.04-2.46-2.79-4.72-3.57-10.58-.98-11.23-.68l-.18,.08,3.74,7.99,.09,.18,2.54,3.64c.08-.04,.17-.07,.28-.11-.02,1.08-.14,2.43-.41,4.12-.62,3.8-1.04,7.53-1.25,11.09-.64-.17-1.21-.36-1.74-.54,.14-1.47,.31-2.96,.54-4.53,.78-5.17,.24-9.15-1.59-11.88l.04,.04-1.76-3.15,.04,.15c-.68-1.34-1.58-2.47-2.76-3.33-5.08-3.71-11.84-.53-12.59-.16l-.18,.09,3.98,8.1,2.53,3.64Zm1.52,1.34c.11-.72,.17-1.34,.21-1.91,.82-.18,1.54-.21,1.77-.06,.21,.18,.89,1.7,.26,5.84-2.59,17.11,.49,29.37,2.74,35.5l-.42,.24c-.97-1.81-8.11-16.15-4.55-39.61Zm12.62,22.78c.62,.16,1.26,.32,1.94,.46,.44,7.84,2.1,13.47,3.96,17.42-2.3-3.32-4.92-8.94-5.9-17.89Zm14.11,14.97l-.02,.02s-.03-.05-.04-.08c.02,.02,.04,.05,.06,.06Zm-3.05-25.93l.2,3.74c-.24,0-.49,0-.72,0,.06-1.19,.15-2.44,.27-3.73,.08,0,.17,0,.25,0Zm-16.16-28.3c1.17-.51,6.4-2.49,10.64,.72,1.4,1.06,2.44,2.48,3.12,4.26-.19-.17-.36-.36-.56-.52-4.63-3.5-10.39-.96-11.03-.66l1.66,3.54c-.12,.03-.25,.07-.34,.1l-3.49-7.45Zm4.58,27.16l.24,.06v-.25c.22-3.61,.64-7.41,1.28-11.29,.29-1.77,.41-3.18,.43-4.3,.59-.14,1.28-.21,1.48-.05,.02,.01,1.44,1.43,.33,8.22-.67,4.11-1.07,7.86-1.26,11.31-2.02-.53-3.56-1.14-4.61-1.63,.05-.86,.13-1.76,.21-2.66,.58,.19,1.2,.39,1.91,.58Zm-19.6-23.57c1.29-.61,7.38-3.15,12,.21,1.41,1.03,2.42,2.45,3.08,4.21-.18-.15-.34-.32-.53-.46-4.98-3.64-11.64-.51-12.39-.14l1.71,3.47c-.08,.03-.17,.06-.25,.1l-3.63-7.38Z"/>
  <path class="cls-1" d="M139.93,261.51l-6.65,5.49c6.87,8.32,17.86,10.08,25.93,10.08,5.6,0,9.79-.85,10.2-.94l-1.77-8.44c-.19,.04-19.4,3.88-27.71-6.2Z"/>
  <path d="M159.21,277.2c-8.06,0-19.11-1.76-26.02-10.13l-.08-.09,.09-.08,6.74-5.56,.08,.09c2.36,2.86,7.19,6.36,16.81,6.85,5.89,.3,10.73-.68,10.78-.69l.12-.03,.03,.12,1.79,8.56-.12,.03c-.45,.1-4.6,.94-10.23,.94Zm-25.76-10.19c6.85,8.22,17.78,9.95,25.76,9.95,5.25,0,9.31-.76,10.06-.91l-1.72-8.2c-1.63,.32-19.52,3.5-27.63-6.17l-6.47,5.33Z"/>
  <path class="cls-1" d="M95.42,222.02c-.45,6.35,1.93,10.29,4,12.48,2.58,2.72,6.24,4.38,10.32,4.67,.51,.04,1,.05,1.49,.05,9.35,0,15.38-6.57,15.88-13.32,.34-4.57-1.12-8.75-4.21-12.09-8.88-9.56-28.78-9.84-31.02-9.84v8.62c5.05,0,19.34,1.3,24.71,7.09,1.48,1.6,2.09,3.37,1.93,5.58-.27,3.62-4.44,5.57-8.15,5.31-2.57-.19-6.81-1.47-6.35-7.95l-8.6-.61Z"/>
  <path d="M111.24,239.35c-.48,0-.99-.02-1.5-.05-4.11-.3-7.8-1.97-10.4-4.71-2.09-2.2-4.49-6.17-4.04-12.57v-.12s.13,0,.13,0l8.72,.62v.12c-.46,6.38,3.71,7.64,6.23,7.82,.22,.02,.45,.03,.67,.03,3.46,0,7.1-1.89,7.35-5.22,.16-2.17-.44-3.91-1.9-5.49-5.34-5.76-19.58-7.04-24.62-7.05h-.12v-8.86h.12c2.25,0,22.2,.28,31.11,9.88,3.12,3.36,4.59,7.58,4.25,12.18-.48,6.51-6.26,13.43-16,13.43Zm-15.71-17.2c-.41,6.24,1.93,10.11,3.98,12.27,2.56,2.7,6.2,4.34,10.25,4.64,.51,.04,1.01,.05,1.48,.05,9.6,0,15.28-6.8,15.76-13.21,.34-4.54-1.11-8.69-4.18-12-8.7-9.37-28.07-9.79-30.81-9.8v8.38c5.17,.03,19.32,1.35,24.67,7.13,1.51,1.62,2.13,3.42,1.96,5.67-.26,3.47-4.01,5.44-7.59,5.44-.23,0-.46,0-.69-.02-2.6-.19-6.87-1.48-6.47-7.96l-8.36-.59Z"/>
  <path class="cls-1" d="M141.23,202.25c-4.98-3.64-11.64-.51-12.39-.14l3.81,7.74c1.3-.62,3.11-.89,3.5-.63,.22,.18,.89,1.7,.26,5.84-3.74,24.69,4.33,39.31,4.67,39.92l7.5-4.25c-.05-.09-3.46-6.28-4.34-17.5,1.31,.43,2.81,.84,4.48,1.19,.89,15.89,6.82,22.75,9.12,24.81l5.76-6.41c-.7-.63-5.19-5.14-6.19-17.46,.25,0,.49,.02,.75,.02,.89,0,1.81-.02,2.76-.07l-.46-8.61c-1.1,.06-2.14,.06-3.15,.04,.16-3.3,.53-6.98,1.2-11.08,1.34-8.23,.15-13.62-3.64-16.49-4.63-3.5-10.39-.96-11.03-.66l3.66,7.81c.55-.26,1.87-.5,2.17-.27,.02,.01,1.44,1.43,.33,8.22-.67,4.11-1.07,7.86-1.26,11.31-2.02-.53-3.56-1.14-4.61-1.63,.13-2.39,.38-4.92,.78-7.6,1.03-6.81-.22-11.55-3.71-14.1Z"/>
  <path d="M157.87,259.41l-.09-.08c-2.46-2.21-8.26-9.04-9.16-24.8-1.48-.31-2.9-.69-4.23-1.12,.9,11.12,4.27,17.21,4.31,17.27l.06,.11-7.72,4.36-.06-.11c-.35-.61-8.43-15.27-4.69-40,.61-4.04-.03-5.57-.22-5.73-.31-.2-2.03,0-3.37,.65l-.11,.05-.05-.11-3.86-7.85,.11-.05c.75-.37,7.47-3.53,12.51,.15h0c3.53,2.58,4.79,7.36,3.76,14.21-.38,2.52-.64,5.05-.78,7.5,.92,.42,2.4,1.02,4.37,1.55,.21-3.57,.63-7.33,1.26-11.17,1.09-6.66-.28-8.1-.3-8.12-.21-.16-1.45,.02-2.03,.29l-.11,.05-.05-.11-3.71-7.92,.11-.05c.65-.3,6.47-2.87,11.15,.67,3.83,2.9,5.04,8.33,3.69,16.6-.62,3.81-1.02,7.49-1.2,10.94,1.1,.02,2.07,0,3.02-.04h.12s0,.11,0,.11l.47,8.73h-.12c-.91,.06-1.84,.08-2.76,.08-.15,0-.29,0-.43,0-.06,0-.13,0-.19,0,.43,5.12,1.5,9.47,3.18,12.94,1.32,2.72,2.6,3.99,2.96,4.31l.09,.08-.08,.09-5.84,6.5Zm-13.75-26.35l.17,.06c1.4,.46,2.9,.86,4.47,1.19l.09,.02v.09c.87,15.55,6.51,22.37,9,24.65l5.6-6.23c-1.04-.98-5.18-5.58-6.14-17.46v-.13s.12,0,.12,0c.11,0,.22,0,.33,0,.14,0,.28,0,.42,0,.88,0,1.76-.02,2.63-.07l-.45-8.37c-.95,.04-1.93,.05-3.04,.03h-.12s0-.13,0-.13c.17-3.5,.58-7.23,1.21-11.09,1.34-8.18,.16-13.54-3.6-16.37-4.38-3.31-9.78-1.15-10.8-.69l3.56,7.59c.6-.24,1.85-.47,2.18-.21,.02,.01,1.51,1.42,.38,8.34-.64,3.89-1.06,7.69-1.26,11.3v.15s-.15-.04-.15-.04c-2.12-.56-3.69-1.2-4.63-1.64l-.07-.03v-.08c.14-2.49,.4-5.05,.79-7.61,1.02-6.76-.21-11.46-3.66-13.98h0c-4.75-3.46-11.03-.72-12.15-.18l3.7,7.52c1.26-.57,3.06-.87,3.51-.57,.29,.24,.94,1.84,.32,5.96-3.61,23.83,3.8,38.26,4.6,39.74l7.3-4.13c-.46-.87-3.47-6.93-4.3-17.45v-.18Z"/>
  <path class="cls-1" d="M120.9,252.56c2-2.62,4.88-4.79,6.21-5.62l-4.5-7.35c-.12,.07-3.02,1.86-5.93,4.74-3.23,3.21-5.27,6.53-6.1,9.9-6.34,2.53-13.93,8.51-19.82,22.15l7.92,3.42c3.93-9.1,8.54-13.79,12.45-16.18,1.14,3.06,3.25,5.42,6.17,6.78,4.19,1.96,9.18,1.38,12.43-1.44,2.75-2.38,3.72-5.97,2.61-9.6-1.12-3.67-5.7-6.36-11.44-6.79Zm3.27,9.78c-.12,.25-1.2,.8-2.58,.47-1.04-.25-1.71-.9-2.13-1.68,2.38,.03,4.06,.71,4.71,1.17,0,.03,0,.05,0,.05Z"/>
  <path d="M98.75,279.95l-.11-.05-8.03-3.46,.05-.11c4.93-11.42,11.6-18.89,19.82-22.19,.85-3.37,2.9-6.7,6.12-9.9,2.73-2.71,5.42-4.44,5.94-4.75l.1-.06,.07,.1,4.56,7.46-.1,.06c-1.23,.76-4.03,2.85-6.04,5.41,5.68,.48,10.21,3.22,11.33,6.86,1.13,3.67,.14,7.31-2.65,9.73-3.28,2.85-8.33,3.44-12.56,1.46-2.87-1.34-5-3.66-6.18-6.71-4.86,3.03-8.99,8.43-12.28,16.05l-.05,.11Zm-7.82-3.64l7.7,3.32c3.33-7.68,7.52-13.11,12.45-16.13l.12-.08,.05,.14c1.14,3.06,3.25,5.38,6.11,6.71,4.14,1.94,9.09,1.37,12.3-1.42,2.71-2.35,3.67-5.9,2.57-9.48-1.1-3.59-5.66-6.29-11.34-6.71l-.22-.02,.13-.18c1.99-2.6,4.82-4.75,6.14-5.58l-4.38-7.15c-.71,.45-3.24,2.12-5.8,4.66-3.2,3.18-5.25,6.5-6.07,9.85l-.02,.06-.06,.02c-8.16,3.26-14.79,10.65-19.7,21.97Zm31.54-13.28c-.28,0-.58-.03-.89-.11-.97-.24-1.72-.83-2.21-1.75l-.1-.18h.2c2.46,.03,4.16,.76,4.78,1.19l.05,.04v.06s0,.07-.01,.1h0c-.12,.25-.84,.65-1.82,.65Zm-2.79-1.79c.46,.75,1.11,1.24,1.95,1.44,1.26,.31,2.2-.14,2.4-.36-.63-.4-2.16-1.03-4.35-1.09Z"/>
  <path d="M266.93,268.18l-.19-.06c-2.39-.75-4.74-1.35-7.05-1.87l5.88-3.51c-6.94-11.63-7.85-24.77-2.95-42.61,1.57-5.72,1.29-10.15-.77-13.26l.14,.14-1.98-3.53s0,0,0,0v-.02s0,0,0,0c-.57-1.03-1.32-1.93-2.25-2.7-6.82-5.66-19.42,.02-21.88,1.21l-.18,.09,3.94,8.12,2.53,3.64c3.52-1.7,7.56-2.76,10.13-2.82-.1,.79-.29,1.74-.61,2.89-.3,1.1-.6,2.24-.88,3.39-.42-.07-.84-.11-1.26-.11h-.11c-5.63,.11-10.53,6.92-13.67,12.68-2.75-.33-5.08-.09-7.01,.7,1.44-3.01,1.91-6.39,1.17-9.67-.43-1.9-1.07-3.5-1.87-4.88l.05,.07-2.41-4.26s-.03-.06-.05-.08l-.02-.03h0c-3.79-6.19-10.94-7.41-16.92-8.43-4.17-.71-8.49-1.45-11.87-3.62l-.17-.11-4.88,7.59,2.72,3.85c1.32,.85,2.69,1.53,4.07,2.1-2.5,4.43-3.72,11.09,.36,16.68l-.04-.04,1.99,2.87-.02-.06c.81,1.35,1.9,2.65,3.34,3.85,2.9,2.43,6.33,3.66,9.81,3.66,2.8,0,5.63-.79,8.26-2.4,.37-.22,.72-.46,1.06-.7-.37,1.54-.45,3.29-.21,5.23-1.7,.27-3.27,.59-4.79,.98-15.49,3.96-22.96,1.41-22.96,1.41l-3.36,8.37,2.7,3.79c.55,.22,3.82,1.42,10.16,1.42,4.46,0,10.45-.6,18.09-2.55,14.72-3.76,21.18,2.07,21.45,2.32l-.05-.05,6.11-6.09-2.16-3.9-.14-.14c-.28-.28-2.86-2.77-7.89-4.48-.5-.17-1.02-.32-1.54-.46,.28,.06,.55,.12,.86,.2l4.97-2.31c1.1-2.29,2.48-4.62,3.81-6.54-.36,10.92,2.01,20.53,7.18,29.21l.1,.17,1.6,2.21c-18.21-3.53-33.65-.5-42.52,2.2-.15-.29-.33-.58-.53-.85l.07,.08-1.94-3.5,.09,.27c-.43-.8-.95-1.54-1.63-2.16-5.43-4.92-15.46-.32-18.4,1.21l-.18,.09,4.15,8.01,2.53,3.63c1.44-.75,3.11-1.4,4.61-1.84-.12,.33-.25,.67-.4,1.04l-.05,.13,2.68,3.85,5.96,5.44c.24-.12,24.84-12.29,54.85-2.9l2.58-8.23-2.19-4.04Zm-30.72-65.92c2.8-1.34,14.8-6.55,21.27-1.18,1.26,1.05,2.16,2.37,2.74,3.93-.06-.06-.11-.12-.18-.18-6.71-5.58-19.23,.05-21.67,1.24l1.68,3.47c-.09,.04-.18,.08-.26,.12l-3.59-7.4Zm-18.42,28.03c-1.3,.79-4.67,2.32-8.05-.51-1.3-1.09-1.93-2.28-2.15-3.44,3.34,2.46,6.59,1,7.87,.22,2.35-1.43,4.55-4.46,3.81-7.73,0,0,0-.01,0-.02,1.15,.92,1.84,2.16,2.25,3.97,.71,3.17-1.43,6.12-3.72,7.52Zm-8.1-14.41c4.39,.75,7.23,1.36,9.06,2.54,.04,.16,.09,.31,.13,.48,.69,3.08-1.4,5.94-3.63,7.3-1.24,.76-4.48,2.22-7.73-.43-.2-2.37,1.16-4.52,1.77-5.35l-2.16-3.95-1.9-1.43c1.53,.32,3.03,.59,4.47,.83Zm-12.89-15.78c3.42,2.14,7.7,2.87,11.87,3.58,6.29,1.07,13.92,2.38,17.37,9.65-3.95-4.07-9.85-5.08-14.9-5.94-4.2-.72-8.54-1.46-11.96-3.65l-3.29,5.12c-1.2-.51-2.38-1.11-3.53-1.84l4.45-6.92Zm2.17,13.13c1.77,.7,3.55,1.22,5.32,1.62l2.28,1.72c-.22,.31-.49,.74-.75,1.25l-3.42-2.57c-2.62,3.45-4.64,9.34-2.67,14.87-4.52-5.59-3.3-12.41-.76-16.89Zm-3.35,31.85c.62,.18,2.39,.61,5.44,.71,3.45,.13,9.26-.17,17.38-2.24,1.57-.4,3.19-.73,4.95-1l.19-.03-.03-.19c-.29-2.19-.17-4.12,.32-5.79,1.96-1.51,3.52-3.38,4.61-5.45,1.97-.92,4.43-1.2,7.36-.82l.14,.02,.07-.12c3.08-5.69,7.91-12.48,13.39-12.59,.49,0,.99,.04,1.47,.14l.19,.04,.04-.19c.29-1.21,.6-2.41,.92-3.56,.33-1.18,.51-2.17,.62-3,.86,.02,1.51,.17,1.87,.46,.43,.36,.93,2.15-.24,6.39-.33,1.21-.64,2.39-.92,3.57-.57-.11-1.09-.15-1.51-.14-5.6,.1-10.49,7.04-13.56,12.69-4.74-.61-8.27,.46-10.52,3.2-2.13,2.59-2.41,5.98-2,9.08-1.62,.25-3.27,.57-4.97,1-15.66,4-22.88,1.48-22.95,1.46l.07,.03-1.95,4.82c-1.82-.3-2.97-.67-3.46-.85l3.09-7.64Zm56.14-15.25s0,.03,0,.05c-.03,0-.05,0-.08,0l.08-.04Zm-4.03,18.06l-1.18,1.18c-1.08-.58-2.37-1.18-3.91-1.7-2.57-.87-5.31-1.38-8.2-1.55-.3-1.53-.31-2.75-.01-3.15,0,0,.23-.13,.78-.19,1.72,.27,3.37,.65,4.92,1.18,4.47,1.51,6.95,3.64,7.59,4.24Zm1.06-14.33c1.1-1.52,2.13-2.74,2.91-3.33-1.76,12.44-.39,23.1,4.19,32.7l-.1,.06c-5.16-8.72-7.46-18.4-7-29.42Zm8.55,32.16s.01,.03,.02,.04c0,0,0,0,0,0v-.04Zm.26,.49c.18,.32,.35,.64,.54,.95l1.02-.61c2.38,.52,4.79,1.13,7.24,1.89l-.86,2.76c-21.49-5.75-39.82-1.96-49.79,1.29,0-1.44-.24-2.87-.85-4.19,8.91-2.71,24.43-5.73,42.7-2.09Zm-64.86-2.97c3.09-1.58,12.64-5.82,17.77-1.17,1.01,.92,1.7,2.07,2.12,3.41-5.42-4.21-14.88,.11-17.72,1.58l1.77,3.41s-.1,.05-.15,.07l-3.78-7.3Zm14.38,9.03c.03,.55-.05,1.82-.87,4.18l-2.74-2.5c.17-.43,.31-.82,.44-1.19,1.32-.36,2.48-.56,3.16-.48Z"/>
  <path class="cls-1" d="M213.34,268.59c0-2.42-.66-4.84-2.67-6.66-5.33-4.83-15.26-.28-18.17,1.24l3.97,7.66c2.91-1.51,6.72-2.61,8.24-2.45,.04,.65-.08,2.3-1.41,5.63l5.96,5.44c.24-.12,24.84-12.29,54.85-2.9l2.58-8.23c-23.01-7.21-42.83-3.15-53.35,.27Z"/>
  <path d="M209.24,279.59l-.06-.05-6.02-5.5,.03-.08c1.25-3.12,1.42-4.75,1.4-5.48-1.6-.11-5.31,1.01-8.07,2.44l-.11,.06-.05-.11-4.02-7.76,.11-.05c2.93-1.52,12.92-6.1,18.31-1.22,1.76,1.6,2.67,3.81,2.71,6.59,9.99-3.24,30.06-7.49,53.26-.22l.11,.04-.04,.11-2.61,8.34-.11-.04c-29.96-9.38-54.52,2.77-54.76,2.89l-.08,.04Zm-5.8-5.62l5.84,5.33c1.53-.74,25.57-11.99,54.75-2.9l2.5-8c-23.22-7.23-43.27-2.91-53.16,.31l-.16,.05v-.17c0-2.78-.88-4.99-2.63-6.58-5.21-4.72-14.9-.36-17.93,1.2l3.86,7.44c2.66-1.36,6.15-2.42,7.86-2.42,.12,0,.24,0,.34,.02h.1s0,.11,0,.11c.04,.69-.09,2.34-1.39,5.61Z"/>
  <path class="cls-1" d="M207.25,211.98c7.92,1.35,10.78,2.24,11.82,6.89,.71,3.17-1.43,6.12-3.72,7.52-1.29,.79-4.67,2.32-8.05-.51-4.21-3.52-1.41-8.04-.46-9.35l-6.89-5.19c-3.66,4.82-6.2,14.44,1.81,21.15,2.9,2.43,6.33,3.66,9.81,3.66,2.8,0,5.63-.79,8.26-2.4,6-3.66,9.08-10.4,7.65-16.77-2.4-10.71-11.49-12.26-18.79-13.5-4.2-.72-8.55-1.46-11.96-3.65l-4.66,7.25c4.9,3.15,10.36,4.08,15.18,4.9Z"/>
  <path d="M211.58,236.26c-3.58,0-7.01-1.28-9.89-3.69-8.08-6.76-5.52-16.45-1.83-21.31l.07-.1,7.08,5.33-.07,.1c-.94,1.28-3.69,5.73,.43,9.18,3.32,2.78,6.64,1.28,7.92,.5,2.25-1.37,4.37-4.27,3.67-7.39-1.03-4.58-3.87-5.46-11.73-6.79-4.83-.82-10.3-1.75-15.22-4.92l-.1-.07,.06-.1,4.73-7.35,.1,.06c3.4,2.19,7.73,2.93,11.92,3.64,7.34,1.25,16.47,2.81,18.89,13.59,1.44,6.42-1.66,13.21-7.7,16.9-2.59,1.58-5.47,2.42-8.33,2.42Zm-11.6-24.76c-3.6,4.82-6.03,14.27,1.86,20.88,2.84,2.38,6.21,3.63,9.74,3.63,2.81,0,5.64-.82,8.2-2.38,5.96-3.63,9.01-10.32,7.59-16.64-2.38-10.63-11.43-12.17-18.69-13.41-4.17-.71-8.48-1.45-11.91-3.61l-4.54,7.05c4.85,3.09,10.26,4.01,15.03,4.82h0c7.98,1.36,10.86,2.26,11.92,6.98,.72,3.23-1.45,6.23-3.78,7.65-1.32,.8-4.76,2.36-8.19-.52-4.19-3.51-1.58-7.98-.54-9.42l-6.7-5.04Z"/>
  <path class="cls-1" d="M202.43,254.26c4.46,0,10.45-.6,18.09-2.55,14.72-3.76,21.18,2.07,21.45,2.32l-.05-.05,6.11-6.09c-.27-.28-2.83-2.74-7.82-4.43-2.57-.87-5.31-1.38-8.2-1.55-.3-1.53-.31-2.75-.01-3.15,0,0,1.13-.71,5.15,.34l4.97-2.31c2.14-4.45,5.34-9.09,7.14-10.46-2.03,14.3,.09,26.25,6.46,36.94l7.4-4.42c-6.94-11.63-7.85-24.77-2.95-42.61,1.96-7.12,1.09-12.27-2.56-15.31-6.71-5.58-19.23,.05-21.67,1.24l3.76,7.76c4.96-2.39,10.98-3.54,12.4-2.36,.43,.36,.93,2.15-.24,6.39-.33,1.21-.64,2.39-.92,3.57-.57-.12-1.09-.15-1.51-.14-5.6,.1-10.49,7.04-13.56,12.69-4.74-.61-8.27,.46-10.52,3.2-2.13,2.59-2.41,5.98-2,9.08-1.62,.25-3.27,.57-4.97,1-15.66,4-22.88,1.48-22.95,1.46l.07,.03-3.23,7.99c.55,.22,3.82,1.42,10.16,1.42Z"/>
  <path d="M255.69,263.43l-.06-.1c-6.33-10.6-8.46-22.61-6.52-36.71-1.86,1.6-4.87,6.06-6.87,10.23l-.02,.04-.04,.02-5.01,2.33h-.04c-3.67-.97-4.89-.45-5.04-.37-.25,.37-.24,1.51,.03,2.94,2.9,.18,5.64,.71,8.13,1.55,5,1.69,7.58,4.18,7.86,4.46l.09,.08-.09,.08-6.11,6.09-.03-.03-.08,.09c-.27-.25-6.67-6.04-21.34-2.29-6.62,1.69-12.72,2.55-18.12,2.55-6.34,0-9.61-1.19-10.2-1.43l-.11-.05,.05-.11,3.23-7.99,.04,.02,.04-.11c.07,.03,7.36,2.51,22.88-1.46,1.55-.4,3.14-.72,4.86-.99-.47-3.79,.21-6.84,2.04-9.06,2.26-2.74,5.81-3.84,10.55-3.25,3.12-5.74,8.01-12.58,13.62-12.68h.11c.44,0,.88,.04,1.32,.12,.28-1.18,.58-2.34,.89-3.46,1.19-4.34,.6-6,.28-6.27-1.38-1.15-7.34,0-12.27,2.38l-.11,.05-3.87-7.97,.11-.05c2.45-1.19,15.03-6.85,21.8-1.22,3.7,3.07,4.57,8.26,2.6,15.43-4.89,17.8-3.98,30.91,2.94,42.52l.06,.1-.1,.06-7.51,4.48Zm-6.26-37.37l-.04,.29c-2,14.12,.09,26.15,6.39,36.75l7.2-4.29c-6.9-11.64-7.8-24.78-2.9-42.6,1.94-7.07,1.09-12.18-2.52-15.18-6.56-5.45-18.76-.08-21.43,1.2l3.66,7.54c4.97-2.37,10.98-3.49,12.41-2.3,.48,.4,.98,2.22-.2,6.52-.32,1.15-.62,2.35-.92,3.57l-.03,.11-.11-.02c-.49-.1-.99-.16-1.49-.14-5.52,.1-10.36,6.93-13.45,12.63l-.04,.07h-.08c-4.69-.61-8.2,.45-10.42,3.14-1.8,2.19-2.47,5.21-1.97,8.99l.02,.12-.12,.02c-1.76,.27-3.38,.6-4.96,1-14.25,3.64-21.62,1.86-22.84,1.51l-3.15,7.78c.82,.31,4.03,1.37,10,1.37,5.38,0,11.46-.86,18.06-2.54,13.78-3.52,20.36,1.34,21.42,2.22l5.94-5.92c-.54-.52-3.07-2.76-7.68-4.32-2.5-.85-5.25-1.37-8.16-1.55h-.09s-.02-.1-.02-.1c-.31-1.61-.31-2.82,.01-3.24,.03-.03,1.16-.77,5.24,.28l4.9-2.27c2.1-4.36,5.31-9.05,7.15-10.47l.23-.18Z"/>
  <path d="M300.48,247.63l-4.28-.33h0l8.58,.65v-.11c.05-.77,.45-7.76,1.81-15.01,1.78-9.49,3.92-12.5,4.81-13.39,.2,3-.35,6.91-1.03,9.5l-.04,.14,2.67,3.81,6.95,4.4s2.71-2.19,8.63-3.72c5.56-1.44,15.15-2.59,29.31,.09l1.6-8.47-2.2-4.07-.2-.04c-16.15-3.05-27.45-1.61-34.58,.47-.29-2.34-.96-4.6-2.19-6.49l.07,.08-1.89-3.37s0-.01-.01-.02l-.04-.07v.02c-.19-.35-.4-.69-.63-1.01-1.83-2.57-4.52-4.06-7.78-4.31-2.44-.19-4.8,.64-6.79,2.39-7.66,6.74-9.38,28.25-9.72,34.68v.2s2.64,3.72,2.64,3.72l4.31,.24Zm11.29-28.49s.05-.03,.06-.03c.79,.06,1.04,.33,1.25,.62,1.4,1.97,1.14,7.01,.43,10.91l-2.71-1.71c.7-2.7,1.24-6.72,.98-9.78Zm45.05,2.32l-.6,3.18c-15.98-2.53-26.87-.58-33.54,1.78,.07-1.44,.04-2.95-.12-4.44,7.05-2.07,18.24-3.52,34.26-.52Zm-53.3-12.36c1.91-1.68,4.17-2.48,6.49-2.29,3.14,.24,5.73,1.67,7.49,4.14,.47,.67,.88,1.41,1.22,2.22-1.67-1.56-3.79-2.47-6.26-2.65-2.4-.18-4.69,.63-6.64,2.34-6.43,5.65-8.63,21.8-9.37,30.55l-2.5-.19c.38-6.72,2.13-27.58,9.57-34.12Z"/>
  <path d="M375.4,255.65l-.16-.12c-19.84-15.1-47.36-5.65-67.46,1.26-5.56,1.91-10.37,3.56-14.04,4.34-1.38,.29-3.6,.61-5.14,.11-.16-1.84,.07-3.91,.44-5.36l-2.19-4.05-8.72-2.32-.05,.19c-.28,1.04-2.4,9.65,1.67,15.62l-.06-.06,2.49,3.62-.04-.1c.39,.61,.82,1.21,1.34,1.76,2.33,2.46,5.51,3.69,9.48,3.69,1.56,0,3.24-.19,5.05-.57,4.19-.88,9.24-2.62,15.08-4.63,18.22-6.26,43.16-14.83,59.25-2.58l5.22-6.86-2.16-3.94Zm-81.57,5.87c3.69-.78,8.51-2.44,14.09-4.35,19.96-6.86,47.27-16.24,66.92-1.44l-1.03,1.35c-19.37-11.36-44.71-2.66-63.52,3.8-5.58,1.92-10.39,3.57-14.06,4.34-1.83,.39-5.11,.82-6.48-.61-.62-.65-.96-1.73-1.11-2.95,1.63,.46,3.81,.15,5.19-.15Zm-15.41-11.52l7.94,2.13c-.09,.39-.17,.82-.24,1.27v.02s0,.05,0,.05c-.08,.51-.13,1.05-.16,1.6l-1.07-.28-4.17-1.12c-.23,.86-1.74,7,.14,12.44-4.77-5.54-2.87-14.37-2.44-16.1Z"/>
  <path class="cls-1" d="M317.52,233.41s2.71-2.19,8.63-3.72c5.56-1.44,15.15-2.59,29.31,.09l1.6-8.47c-17.78-3.36-29.7-1.31-36.81,1.21,.18-3.98-.29-8.46-2.58-11.68-1.79-2.52-4.43-3.98-7.63-4.23-2.4-.18-4.69,.63-6.64,2.34-7.61,6.69-9.31,28.13-9.65,34.54l4.31,.24-4.3-.33,8.6,.66v-.11c.05-.77,.45-7.76,1.81-15.01,2.31-12.3,5.23-13.73,5.23-13.74,.79,.06,1.04,.33,1.25,.62,1.7,2.39,.96,9.29-.07,13.19l6.95,4.4Z"/>
  <path d="M302.45,244.18h-.12s-4.3-.34-4.3-.34l-4.42-.24v-.12c.35-6.42,2.05-27.9,9.7-34.63,1.8-1.58,3.88-2.4,6.07-2.4,.22,0,.44,0,.67,.03,3.24,.24,5.91,1.72,7.72,4.28,1.93,2.72,2.81,6.61,2.61,11.58,6.9-2.41,18.83-4.53,36.71-1.15l.12,.02-.02,.12-1.62,8.59-.12-.02c-14.14-2.67-23.72-1.53-29.26-.09-5.85,1.51-8.55,3.68-8.58,3.7l-.07,.05-.08-.05-7.03-4.45,.02-.09c1.03-3.89,1.77-10.74,.09-13.09-.19-.27-.41-.5-1.12-.56-.32,.2-2.99,2.16-5.14,13.64-1.37,7.26-1.76,14.22-1.8,14.99l-.02,.23Zm-4.4-.58l4.18,.32c.04-.82,.44-7.76,1.81-15.01,2.21-11.76,5.02-13.66,5.28-13.81l.03-.03h.05c.84,.07,1.12,.37,1.34,.67,1.71,2.4,1,9.26-.03,13.21l6.81,4.31c.46-.35,3.18-2.29,8.61-3.69,5.55-1.44,15.13-2.59,29.24,.06l1.56-8.24c-17.9-3.36-29.8-1.19-36.63,1.22l-.17,.06v-.18c.24-5-.62-8.9-2.55-11.61-1.77-2.49-4.38-3.94-7.54-4.17-2.36-.19-4.63,.62-6.55,2.31-7.49,6.59-9.23,27.61-9.6,34.25l4.18,.32Z"/>
  <path class="cls-1" d="M307.85,256.98c-5.58,1.92-10.39,3.57-14.06,4.34-1.83,.39-5.11,.82-6.48-.61-1.6-1.67-1.36-6.2-.7-8.74l-4.17-1.1,4.16,1.12-8.33-2.23c-.3,1.11-2.76,11.05,2.77,16.88,2.33,2.46,5.51,3.69,9.48,3.69,1.56,0,3.24-.19,5.04-.57,4.19-.88,9.24-2.62,15.08-4.63,18.22-6.26,43.16-14.83,59.25-2.58l5.22-6.86c-19.75-15.04-47.22-5.6-67.27,1.29Z"/>
  <path d="M290.53,270.45c-4.01,0-7.23-1.26-9.57-3.73-5.58-5.89-3.1-15.88-2.8-16.99l.03-.12,4.33,1.16,4.23,1.12-.03,.12c-.65,2.51-.89,6.98,.67,8.62,1.33,1.4,4.56,.96,6.37,.57,3.67-.77,8.48-2.43,14.05-4.34h0c20.08-6.9,47.58-16.34,67.38-1.27l.1,.07-.07,.1-5.29,6.96-.1-.07c-16.03-12.21-40.94-3.65-59.13,2.6-5.85,2.01-10.9,3.74-15.1,4.63-1.8,.38-3.51,.57-5.07,.57Zm-12.16-20.55c-.4,1.55-2.56,11.02,2.77,16.65,2.3,2.43,5.46,3.65,9.4,3.65,1.54,0,3.23-.19,5.02-.57,4.18-.88,9.22-2.61,15.06-4.62,18.22-6.26,43.13-14.82,59.27-2.64l5.08-6.67c-19.69-14.9-47.07-5.49-67.06,1.38h0c-5.58,1.92-10.39,3.57-14.07,4.35-1.86,.4-5.18,.83-6.59-.64-1.6-1.68-1.41-6.14-.76-8.72l-8.1-2.17Z"/>
  <path d="M357.96,14.49c.06-2.16-.47-4.07-1.5-5.61l.04,.04-2.07-3.67s-.05-.09-.08-.14l-.02-.03h0c-.56-.88-1.27-1.66-2.13-2.29-4.81-3.53-12.33-1.19-13.79-.69l-.19,.07,2.93,8.53,2.57,3.65c.58-.2,1.22-.36,1.86-.48-1.4,2.54-3.74,4.83-4.77,5.67l-.07,.06-.24,6.69,.07,.06c.13,.12,1.31,1.28,2.58,3.59v.17s.1,.1,.2,.21c2.08,3.93,4.27,10.88,2.41,21.3l-.03,.2,2.67,3.74,8.49,1.51c2.7-15.15-1.74-24.92-4.98-29.75,2.61-2.87,5.9-7.52,6.04-12.83Zm-19.22-12.08c1.8-.59,8.76-2.58,13.23,.7,1.36,1,2.32,2.37,2.86,4-.1-.08-.2-.17-.3-.25-4.73-3.47-12.16-1.16-13.61-.66l1.29,3.77c-.28,.07-.55,.15-.81,.23l-2.67-7.78Zm2.19,23.7l.22-6.33c1.12-.93,3.55-3.35,4.93-6.01,1.38-.22,2.67-.25,3.23-.03,.02,.1,.03,.27,.03,.52-.1,3.72-4.44,8.1-5.95,9.33l-.2,5.58c-1.06-1.79-2-2.8-2.27-3.07Zm3.53,5.53c2.01,2.77,5.53,9.33,4.45,20.32l-2.69-.48c1.6-9.19,.07-15.7-1.75-19.84Z"/>
  <path d="M354.1,65.06l-1.53-2.76s-.01-.02-.02-.03l-.24-.44,.02,.06c-6.55-11.42-31.51-15.1-37.55-15.82l2.39-3.95-2.16-3.97-.93,1.54h0l.93-1.54-.17-.11c-.3-.18-.62-.4-.95-.64,1.71-1.05,3.71-2.36,5.97-3.97l2.47,3.48c.16,.06,2.55,1.04,4.89,3.58,.48,.96,.91,2.02,1.23,3.22l.05,.19,2.58,3.66,8.32-2.27c-.72-2.62-1.75-4.85-2.92-6.76l.07,.09-1.69-2.99v.04c-2.1-3.87-4.85-6.51-7.17-8.23,3.22-2.66,5.21-5.7,5.75-8.81,.45-2.58-.17-5.05-1.55-7.02l.12,.12-2-3.55c-.05-.08-.09-.17-.14-.24l-.05-.09v.04c-1.19-1.89-3.06-3.35-5.4-4.05-6.06-1.81-13.51,2.21-23.38,12.57-.32-1.05-.74-1.93-1.25-2.62l.02,.02-1.72-3.13s-.02-.04-.04-.07l-.11-.2,.02,.05c-.98-1.7-2.31-2.65-3.48-3.16-5.02-2.21-10.82,1.73-12.48,2.99l-.16,.12,2.72,3.94,5.21,6.87c.41-.31,.94-.64,1.48-.94,.49,1.57,1.16,3.24,2,4.99-6.94,8.5-12.12,16.26-12.17,16.34l-.11,.17,2.72,3.85,7.17,4.79c.05-.08,4.15-6.2,9.76-13.28,3.75,5.35,8.26,10.04,12.08,12.35l1.59-2.63-.96,8.11,1.86,1.81c-8-.41-16.78,1.11-21.36,5.73-2.53,2.55-3.6,5.88-3.04,9.39,.26,1.62,.92,3.09,1.94,4.41l-.06-.05,1.77,2.5-.05-.19c3.98,7.73,18.27,9.53,28.41,9.53,3.04,0,5.71-.16,7.6-.37,7.65-.84,25.55-2.81,25.74-15.98,.03-2.51-.73-4.74-2.06-6.72h0Zm-39.64-26.78l-.69,1.13c-.4-.38-.81-.79-1.21-1.21,.3-.18,.63-.38,.96-.57,.32,.24,.64,.46,.94,.65Zm8.68-3.51c-1.15-.92-2.15-1.47-2.71-1.74,1.46-1.05,3.01-2.2,4.69-3.51l-1.98,5.26Zm1.81-17.6c-.09,.49-.53,1.85-2.84,3.71-6.8,5.52-11.87,8.75-14.99,10.51-.26-.38-.51-.76-.76-1.15,11.41-13.02,16.33-14.08,17.63-14.08,.22,0,.33,.03,.36,.04,.68,.2,.63,.79,.6,.96Zm3.2,24.42c.39,.51,.77,1.08,1.13,1.69l-.49,.14c-.18-.65-.4-1.25-.64-1.83Zm6.24-5.98c-3.48-4.16-7.38-6.07-8.63-6.6,.53-.42,1.07-.85,1.62-1.29,2.24,1.64,4.92,4.19,7,7.9Zm-10.07-31.38c2.96,.88,5.12,3.04,6.08,5.72-1.01-.88-2.2-1.59-3.58-2.01-6.22-1.86-14.1,2.62-24.59,14.01-.36-1.11-.61-2.15-.7-3.1-.07-.74-.2-1.38-.35-1.99,9.84-10.37,17.22-14.41,23.14-12.64Zm-29.99,3.44c1.43,.63,3.11,1.94,4,4.59-.5-.38-1-.66-1.48-.87-4.5-1.98-9.68,1.11-11.77,2.6l-2.66-3.5c1.8-1.33,7.25-4.87,11.91-2.82Zm-.67,17.77l.08-.1-.06-.12c-.87-1.81-1.55-3.52-2.05-5.12,.46-.24,.92-.45,1.3-.58,0,.04,0,.08,.01,.13,.27,2.89,1.37,6.2,2.99,9.56-5.02,6.14-9.13,11.91-11.06,14.69l-3.34-2.23c.79-1.18,5.71-8.41,12.11-16.24Zm28.61,35.92l-1.02-1.87c9.69,1.7,19.19,4.82,23.65,8.23,0,0,0,.02,0,.03-.05,3.62-5.9,6.02-17.88,7.34-6.07,.67-13.3,.38-18.85-.76-2.51-.52-4.31-1.12-5.59-1.7,2.66-2.65,10.9-3.88,18.4-2.74l1.3-8.52Zm-19.96,11.58c1.33,.61,3.19,1.24,5.78,1.77,5.59,1.15,12.86,1.45,18.98,.77,11.94-1.31,17.89-3.76,18.21-7.47,1.46,1.2,2.28,2.43,2.27,3.64-.05,3.74-5.96,6.2-18.06,7.53-6.1,.67-13.35,.38-18.91-.77-6.72-1.38-8.51-3.41-8.61-4.01-.09-.53-.03-.97,.35-1.47Zm12.45-26.48c6.22,.75,32.28,4.61,37.74,16.62-8.7-9.24-30.28-12.32-35.48-12.94l-.57,4.84c-.89-.13-1.78-.26-2.66-.36l.97-8.16Zm-20.63,16.35c4.03-4.06,11.39-5.69,18.57-5.69,1.17,0,2.33,.04,3.48,.13l-.17,1.46c1.11,.13,2.23,.29,3.36,.46l-.28,1.82c-8.32-.68-17.85,.72-22.66,5.58-2.48,2.5-3.54,5.78-2.98,9.21,.06,.35,.17,.66,.26,.99-1.69-1.85-2.3-3.67-2.5-4.93-.54-3.37,.49-6.58,2.93-9.04Z"/>
  <path class="cls-1" d="M346.88,9.84c.02,.1,.03,.27,.03,.52-.1,3.72-4.44,8.1-5.95,9.33l-.23,6.51c.34,.33,8.33,8.18,5.25,25.45l8.49,1.51c2.7-15.15-1.74-24.92-4.98-29.75,2.61-2.87,5.9-7.52,6.04-12.83,.09-3.24-1.13-5.96-3.43-7.64-4.73-3.47-12.16-1.16-13.61-.66l2.8,8.15c2-.68,4.69-.95,5.59-.6Z"/>
  <path d="M354.56,53.29l-.12-.02-8.61-1.53,.02-.12c3.07-17.24-4.88-25.02-5.22-25.34l-.04-.04v-.05s.23-6.56,.23-6.56l.04-.03c1.5-1.23,5.81-5.56,5.91-9.24,0-.19,0-.33-.02-.43-.94-.31-3.54-.02-5.44,.62l-.11,.04-.04-.11-2.84-8.27,.11-.04c1.45-.5,8.93-2.83,13.72,.68,2.33,1.71,3.57,4.46,3.48,7.74-.14,5.26-3.33,9.87-6.01,12.83,3.05,4.56,7.68,14.43,4.95,29.76l-.02,.12Zm-8.45-1.75l8.25,1.47c2.68-15.26-1.97-25.05-4.99-29.54l-.05-.08,.06-.07c2.66-2.93,5.87-7.52,6.01-12.75,.08-3.2-1.12-5.88-3.38-7.54-4.58-3.36-11.71-1.25-13.38-.68l2.72,7.93c1.98-.65,4.65-.92,5.56-.56l.06,.03v.07c.04,.15,.05,.33,.04,.54-.1,3.73-4.39,8.09-5.95,9.38l-.23,6.4c.69,.68,8.23,8.54,5.27,25.4Z"/>
  <path class="cls-1" d="M318.52,65.98l1.3-8.52c-8.94-1.36-20.4-.27-25.84,5.22-2.48,2.5-3.54,5.78-2.98,9.21,1.64,10.13,18.1,12.34,29.38,12.34,3.04,0,5.71-.16,7.6-.37,7.65-.84,25.55-2.81,25.74-15.98,.23-16.14-32.57-20.85-39.14-21.63l-1.02,8.56c14.98,1.79,31.61,7.54,31.54,12.95-.05,3.74-5.96,6.2-18.06,7.53-6.1,.67-13.35,.38-18.91-.77-6.72-1.38-8.51-3.41-8.61-4.01-.1-.63-.04-1.13,.6-1.77,2.64-2.66,10.9-3.9,18.42-2.76Z"/>
  <path d="M320.37,84.34c-4.95,0-12.15-.41-18.34-2.38-6.66-2.12-10.42-5.5-11.16-10.07-.56-3.48,.51-6.79,3.02-9.32,5.47-5.52,16.97-6.61,25.94-5.25l.12,.02-.02,.12-1.31,8.64-.12-.02c-7.48-1.14-15.7,.09-18.31,2.72-.6,.61-.66,1.05-.56,1.66,.12,.73,2.35,2.65,8.51,3.91,5.56,1.14,12.79,1.43,18.88,.76,12.03-1.32,17.9-3.75,17.95-7.41,.03-2.45-3.53-5.19-10.05-7.72-6.05-2.35-13.84-4.21-21.38-5.11h-.12s1.04-8.82,1.04-8.82h.12c6.59,.8,39.48,5.52,39.25,21.77-.19,13.27-18.16,15.25-25.84,16.1-2.17,.24-4.88,.37-7.62,.37Zm-7.68-27.3c-7.19,0-14.58,1.63-18.62,5.71-2.45,2.48-3.5,5.71-2.95,9.11,.72,4.47,4.42,7.79,10.99,9.88,6.16,1.95,13.33,2.36,18.27,2.36,2.74,0,5.43-.13,7.59-.37,7.62-.84,25.45-2.8,25.63-15.86,.22-15.94-32.09-20.67-38.92-21.5l-.99,8.32c15,1.81,31.6,7.6,31.52,13.05-.05,3.81-6,6.31-18.17,7.65-6.11,.67-13.37,.38-18.95-.77-6.82-1.4-8.6-3.44-8.71-4.11-.11-.66-.04-1.2,.63-1.87,2.65-2.67,10.88-3.93,18.4-2.81l1.26-8.29c-2.22-.33-4.6-.51-6.99-.51Z"/>
  <path class="cls-1" d="M288.43,46.53c.05-.08,4.15-6.2,9.76-13.28,3.75,5.35,8.26,10.04,12.08,12.35l4.46-7.38c-1.41-.85-3-2.23-4.61-3.92,3.09-1.82,7.3-4.58,12.55-8.69l-2.78,7.4c.27,.1,6.57,2.67,8.75,10.65l8.32-2.27c-3.06-11.17-11.68-15.45-13.64-16.29,.59-.46,1.18-.93,1.79-1.43,3.31-2.69,5.35-5.78,5.9-8.93,.83-4.8-1.95-9.3-6.63-10.7-6.22-1.86-14.1,2.62-24.59,14.01-.36-1.11-.61-2.15-.7-3.1-.44-4.66-2.79-6.63-4.68-7.46-4.91-2.16-10.64,1.72-12.27,2.96l5.21,6.87c.85-.65,2.21-1.39,3.15-1.7,0,.04,0,.08,.01,.13,.27,2.89,1.37,6.2,2.99,9.56-6.83,8.36-11.99,16.06-12.24,16.42l7.17,4.79Zm33.12-34.27c.22,0,.33,.03,.36,.04,.68,.2,.63,.79,.6,.96-.09,.49-.53,1.85-2.84,3.71-6.8,5.52-11.87,8.75-14.99,10.51-.26-.38-.51-.76-.76-1.15,11.41-13.02,16.33-14.08,17.63-14.08Z"/>
  <path d="M288.46,46.69l-.1-.06-7.27-4.86,.07-.1c.05-.08,5.24-7.86,12.2-16.37-1.71-3.56-2.71-6.76-2.97-9.51-.91,.33-2.15,1.01-2.97,1.63l-.1,.07-.07-.1-5.28-6.97,.1-.07c1.65-1.25,7.42-5.17,12.39-2.98,1.92,.85,4.31,2.85,4.75,7.56,.08,.83,.29,1.8,.63,2.87,10.48-11.35,18.29-15.76,24.57-13.89,4.74,1.42,7.56,5.97,6.72,10.84-.56,3.19-2.61,6.3-5.94,9.01-.55,.45-1.09,.87-1.62,1.29h-.01c2.11,.95,10.53,5.34,13.53,16.3l.03,.12-.12,.03-8.43,2.31-.03-.12c-2.17-7.93-8.41-10.47-8.68-10.58l-.11-.04,.04-.11,2.63-7c-4.28,3.33-8.35,6.14-12.1,8.36,1.63,1.69,3.17,3,4.48,3.79l.1,.06-.06,.1-4.53,7.48-.1-.06c-3.7-2.24-8.19-6.82-12.02-12.25-5.43,6.88-9.48,12.89-9.65,13.15l-.07,.1Zm-.14-.23l.1,.07-.1-.07Zm-6.9-4.75l6.97,4.66c.57-.84,4.52-6.64,9.7-13.19l.1-.13,.09,.13c3.8,5.42,8.25,9.99,11.94,12.25l4.34-7.17c-1.33-.83-2.9-2.16-4.54-3.87l-.1-.11,.13-.08c3.87-2.28,8.09-5.2,12.54-8.68l.34-.26-2.89,7.69c.89,.38,6.58,3.09,8.68,10.57l8.08-2.21c-3.09-11.12-11.82-15.36-13.54-16.1l-.19-.08,.33-.26c.53-.42,1.07-.84,1.62-1.29,3.28-2.67,5.31-5.73,5.85-8.86,.83-4.74-1.93-9.19-6.55-10.57-6.2-1.85-13.98,2.59-24.46,13.98l-.14,.15-.06-.2c-.38-1.17-.62-2.22-.7-3.12-.43-4.6-2.74-6.54-4.61-7.36-4.77-2.09-10.31,1.58-12.05,2.88l5.06,6.68c.88-.65,2.18-1.34,3.08-1.65l.14-.05,.03,.28c.26,2.75,1.26,5.95,2.98,9.52l.03,.07-.05,.06c-6.54,8-11.53,15.37-12.16,16.31Zm23.21-14.06l-.06-.09c-.26-.38-.51-.77-.76-1.15l-.05-.08,.06-.07c2.9-3.31,12.76-14.12,17.72-14.12,.23,0,.36,.03,.4,.04,.62,.19,.76,.69,.69,1.1-.09,.51-.54,1.89-2.88,3.79-6.85,5.56-11.94,8.79-15.01,10.52l-.1,.05Zm-.57-1.3c.21,.33,.43,.65,.65,.98,3.07-1.74,8.12-4.96,14.88-10.45,2.27-1.84,2.71-3.16,2.79-3.64,.03-.19,.05-.66-.52-.83-.07-.02-4.5-1.23-17.8,13.94Z"/>
</svg>