<?xml version="1.0" encoding="UTF-8"?>
<svg id="Layer_1" data-name="Layer 1" xmlns="http://www.w3.org/2000/svg" viewBox="0 0 425.8 306.2">
  <path d="M8.71,53.66c.47,2.37,1.85,4.42,3.87,5.76,1.34,.89,2.86,1.41,4.43,1.51,3.66,10.35,10.69,16.21,19.63,16.21,10.07,0,17.62-7.17,20.95-19.26,.67,.67,1.44,1.23,2.26,1.66v22.48c0,4.95,4.02,8.97,8.97,8.97,4.04,0,7.46-2.68,8.58-6.35v1.47c0,4.95,4.02,8.97,8.97,8.97s8.97-4.02,8.97-8.97v-24.08l1.17,.06c2.42,.12,4.73-.72,6.53-2.35,1.8-1.63,2.85-3.86,2.96-6.27,.04-.74-.03-1.47-.17-2.19l1.49,.54v1.44c0,2.98,2.43,5.41,5.41,5.41h51.95c1.55,1.13,3.4,1.73,5.31,1.73,.35,0,.71-.02,1.06-.06,2.41-.28,4.57-1.48,6.07-3.37,2.96-3.74,2.5-9.11-.95-12.3V14.59c0-5.05-4.11-9.17-9.17-9.17s-9.17,4.11-9.17,9.17v5.66h-17.36l-7.1-4.53c-2.39-1.52-5.22-1.79-7.72-.96v-.16c0-5.05-4.11-9.17-9.17-9.17s-9.17,4.11-9.17,9.17v1.61c-1.27-.09-2.54,.1-3.77,.55-2.28,.85-4.08,2.52-5.09,4.72-1.01,2.2-1.1,4.66-.25,6.94,.33,.88,.77,1.68,1.33,2.4-1.53,.22-2.98,.84-4.2,1.77V10.24c0-4.95-4.02-8.97-8.97-8.97-4.64,0-8.47,3.54-8.93,8.06-1.07-3.75-4.54-6.5-8.63-6.5-4.95,0-8.97,4.02-8.97,8.97v15.25l-2.19,.31c-3.26-12.28-10.87-19.46-20.86-19.46-.1,0-.2,0-.3,0-11.45,0-19.62,9.77-21.74,25.76-1.59,.6-2.98,1.64-4.03,3.04-1.46,1.94-2.08,4.33-1.74,6.72,.17,1.18,.56,2.29,1.15,3.29-1.36,1.96-1.94,4.45-1.43,6.96Z"/>
  <path d="M187.39,32.57c-3,0-5.44,2.44-5.44,5.44v29.97c-1.38-1.07-3.11-1.71-4.99-1.71H106.93c-4.52,0-8.19,3.67-8.19,8.19s3.67,8.19,8.19,8.19h70.02c4.52,0,8.19-3.67,8.19-8.19,0-.02,0-.04,0-.05,.44,.2,.91,.34,1.41,.42,1.35,3.67,4.83,5.95,8.53,5.95,1.03,0,2.09-.18,3.11-.55l8.21-3.01c1.49-.55,2.81-1.49,3.82-2.7,8.18-.36,15.36-1.04,22.44-2.1-.09,1.26,.08,2.53,.52,3.75,.9,2.47,2.8,4.35,5.13,5.29v4.56c0,5.05,4.11,9.17,9.17,9.17s9.17-4.11,9.17-9.17V51.99c.96-.13,1.9-.42,2.79-.87l.36-.18c1.13,.7,2.42,1.13,3.77,1.25,2.38,.21,4.74-.59,6.49-2.2,1.98-1.82,3.76-4,5.29-6.49,.13-.03,.26-.06,.39-.09,.55,.9,1.16,1.84,1.84,2.85,2.39,3.53,5.96,5.55,9.81,5.55h0c3.83,0,7.39-2.01,9.76-5.52,.64-.95,1.3-1.95,1.95-3.01,1.6,2.65,3.49,4.94,5.64,6.87,1.74,1.55,4.07,2.34,6.41,2.13,1.55-.13,3.03-.69,4.28-1.59l2.06,1.09c.16,1.04,.49,2.03,.96,2.93-4.71-1.26-10.22-1.9-16.45-1.86-13.77-.06-24.09,2.96-29.87,8.76-3.22,3.23-4.9,7.28-4.87,11.72-.03,4.46,1.63,8.52,4.81,11.73,5.67,5.73,16.01,8.75,29.91,8.75,21.49,0,34.33-7.66,34.33-20.48,0-4.48-1.73-8.57-4.99-11.81-.75-.75-1.58-1.45-2.48-2.1,.63-.15,1.23-.36,1.81-.64l.92,.49c4.42,2.35,9.92,.66,12.27-3.75,1.13-2.13,1.37-4.59,.66-6.91-.71-2.32-2.28-4.22-4.41-5.36l-4.17-2.21V9.26c0-5.11-4.16-9.26-9.26-9.26s-9.26,4.16-9.26,9.26v11.16l-9.2-1.14c-.12-1.39-.18-2.82-.16-4.27v-1.07c0-4.89-3.98-8.87-8.87-8.87s-8.87,3.98-8.87,8.87v.32l-5.85,.57v-.89c0-4.89-3.98-8.87-8.87-8.87s-8.87,3.98-8.87,8.87v1.07c0,1.78-.1,3.53-.3,5.22l-3.87,1.2c-2.31,.72-4.2,2.29-5.33,4.44-.21,.39-.38,.8-.53,1.21V10.34c0-5.05-4.11-9.17-9.17-9.17s-9.17,4.11-9.17,9.17V51.56c-2.02-1.18-4.49-1.59-6.92-.94l-7.82,2.09c-.49,.13-.95,.3-1.4,.5-.79-1.93-2.19-3.47-3.9-4.45h6.61c3,0,5.44-2.44,5.44-5.44V14.22c0-3-2.44-5.44-5.44-5.44h-34.74c-4.52,0-8.19,3.67-8.19,8.19s3.67,8.19,8.19,8.19h22.75v7.41h-25.5Zm11.98,19.09v-2.9h9.21l-9.21,2.9Z"/>
  <path d="M37.57,179.56c9.85,0,17.41-6.91,20.81-18.75l2.4,.39v23.23c0,4.95,4.02,8.97,8.97,8.97,4.04,0,7.46-2.68,8.58-6.35v1.47c0,4.95,4.02,8.97,8.97,8.97s8.97-4.02,8.97-8.97v-24.74c1.67-1.39,2.83-3.35,3.18-5.53,.48-2.94-.56-5.86-2.58-7.87l11.93,6.08v.13c0,2.98,2.43,5.41,5.41,5.41h45.92c1.7,1.48,3.82,2.22,5.95,2.22s4.25-.74,5.95-2.22h.22c2.98,0,5.41-2.43,5.41-5.41v-38.67c0-5.05-4.11-9.17-9.17-9.17s-9.17,4.11-9.17,9.17v5.66h-20.96l-4.88-3.87c-1.87-1.48-4.14-2.1-6.34-1.93-.08-4.99-4.16-9.02-9.17-9.02s-9.17,4.11-9.17,9.17v2.05c-4.06-.92-8.37,1.07-10.22,4.99-1.03,2.19-1.14,4.65-.32,6.93,.05,.14,.11,.29,.17,.43-.74,.06-1.47,.21-2.17,.45v-20.12c0-4.95-4.02-8.97-8.97-8.97-4.64,0-8.47,3.54-8.93,8.06-1.07-3.75-4.54-6.5-8.63-6.5-4.95,0-8.97,4.02-8.97,8.97v14.14c-.92-.88-2.03-1.57-3.25-2.01-3.69-10.24-10.8-16.03-19.8-16.03h-.31c-10.82,0-18.65,8.52-21.3,23-1.94,.62-3.61,1.87-4.76,3.6-1.35,2.02-1.83,4.43-1.37,6.81,.06,.29,.13,.58,.22,.86l-4.54,1.84c-4.64,1.88-6.88,7.18-5.01,11.81,1.88,4.64,7.17,6.88,11.81,5.01l4.8-1.94c3.42,11.53,10.79,18.27,20.29,18.27Z"/>
  <path d="M423.22,107.32c-1.7-1.76-3.99-2.75-6.44-2.79-.05,0-.1,0-.15,0-2.39,0-4.65,.91-6.38,2.58-1.41,1.37-2.33,3.12-2.66,5.03-1.95-.37-3.95-.09-5.74,.82-2.16,1.09-3.76,2.96-4.52,5.26-.31,.93-.46,1.89-.46,2.84l-5.53-10.95c-2.26-4.46-7.72-6.26-12.19-4.01-1.78,.9-3.18,2.36-4.03,4.1-.64-.07-1.3-.11-1.96-.12-1.26-.01-2.53,.08-3.77,.27l-.68-.92c-2.97-4.02-8.67-4.87-12.69-1.9-1.94,1.44-3.21,3.55-3.57,5.95-.21,1.43-.09,2.85,.35,4.18-1.96-.05-3.93,.53-5.6,1.77-4.02,2.97-4.87,8.67-1.9,12.69l2.26,3.05c-.51,2.8-.8,5.76-.85,8.82-.01,.86,0,1.7,.02,2.53-.32-.12-.65-.23-.99-.32-1.32-.35-2.65-.38-3.92-.15v-30.64c0-4.89-3.98-8.87-8.87-8.87-4.31,0-7.92,3.09-8.71,7.18-1.3-3.29-4.51-5.62-8.26-5.62-4.89,0-8.87,3.98-8.87,8.87v9.89c-2.27-9.07-10.93-15.25-22.23-15.25-7.08,0-13.33,2.38-17.6,6.69-3.58,3.62-5.46,8.26-5.41,13.4,0,1.14,.07,2.25,.25,3.34-.9,.4-1.73,.95-2.47,1.65-.45,.42-.86,.88-1.21,1.37v-25.32c0-5.05-4.11-9.17-9.17-9.17s-9.17,4.11-9.17,9.17v40.74c-2.23-.6-4.56-.36-6.6,.73l-6.36,3.37c-.13-.58-.33-1.16-.59-1.72-.99-2.17-2.77-3.84-5.01-4.69h5.12c3,0,5.44-2.44,5.44-5.44v-29.1c0-3-2.44-5.44-5.44-5.44h-34.74c-4.52,0-8.19,3.67-8.19,8.19s3.67,8.19,8.19,8.19h22.76v7.41h-25.5c-3,0-5.44,2.44-5.44,5.44v31.13c-1.43-1.21-3.28-1.95-5.29-1.95H108.42c-4.52,0-8.19,3.67-8.19,8.19s3.67,8.19,8.19,8.19h70.02c4.52,0,8.19-3.67,8.19-8.19,0-.4-.04-.79-.09-1.17,.78,.44,1.68,.69,2.64,.69h1.73c.02,.06,.05,.13,.07,.19,.91,2.24,2.64,3.99,4.88,4.94,1.14,.48,2.34,.72,3.54,.72s2.3-.22,3.4-.67l6.56-2.66c1.53-.62,2.85-1.65,3.83-2.95,5.53-.27,10.63-.69,15.53-1.27,1.34,.12,2.68-.05,3.94-.51,.67-.09,1.34-.19,2.01-.29,.63-.1,1.24-.27,1.83-.51-1.03,2.66-.81,5.77,.89,8.32,.72,1.09,1.65,1.98,2.73,2.66v3.15c0,5.05,4.11,9.17,9.17,9.17s9.17-4.11,9.17-9.17v-10.44c1.22-2.5,1.22-5.4,0-7.92v-4.5l17.28,4.51v14.59c0,4.89,3.98,8.87,8.87,8.87s8.87-3.98,8.87-8.87v-10.71c1.36,2.48,4,4.17,7.02,4.17h6.63v9.26c0,4.89,3.98,8.87,8.87,8.87,3.6,0,6.7-2.15,8.09-5.24v.46c0,4.89,3.98,8.87,8.87,8.87s8.87-3.98,8.87-8.87v-16.78c1.98-.3,3.86-1.23,5.28-2.73,1.15-1.14,1.96-2.56,2.37-4.12l1.03-3.97c1.41,3.03,3.2,5.69,5.35,7.89,4.39,4.49,10.02,6.9,16.22,6.95,13.47,.34,23.44-9.99,25.93-26.51l8.85,.14-.58,36.86c-.04,2.45,.88,4.77,2.58,6.52,1.7,1.76,3.99,2.75,6.44,2.79,.05,0,.1,0,.15,0,2.39,0,4.65-.91,6.38-2.58,1.76-1.7,2.75-3.99,2.79-6.44l1.19-75.67c.04-2.45-.88-4.77-2.58-6.52Zm-24.61,19.34l4.78,9.46-5.33-.08c-.23-1.51-.53-2.99-.9-4.42,.95-1.48,1.45-3.21,1.45-4.96Zm-91.49,9.9v.6s-.09-.06-.14-.09c.05-.17,.09-.34,.14-.51Zm-92.59,14.85l-8.86,4.06c-2.06,.94-3.63,2.6-4.51,4.58v-8.86h13.89c-.18,.07-.35,.14-.52,.22Z"/>
  <path d="M339.27,233.66c-1.03-2.19-2.85-3.85-5.13-4.67-2.28-.83-4.75-.71-6.93,.31-2.19,1.03-3.85,2.85-4.67,5.13-.83,2.28-.71,4.75,.31,6.93l1.91,4.07c-1.67-1.06-3.23-2.23-4.66-3.52l-3.35-15.8c-.73-3.44-3.38-6.07-6.65-6.9-1.73-2.68-4.74-4.4-8.04-4.4-4.64,0-8.52,3.32-9.38,7.72-2.35-1.67-5.46-2.21-8.36-1.15-3.39,1.23-5.6,4.28-5.94,7.65-1.83-.43-3.81-.29-5.66,.51-4.59,1.99-6.71,7.34-4.72,11.93l.81,1.88-10.33-3.37v-21.53c0-5.11-4.16-9.26-9.26-9.26s-9.26,4.16-9.26,9.26v14.64l-4.68-1.73c-.02-4.62-1.78-8.81-5.1-12.1-4.52-4.48-11.53-6.94-19.7-6.94h-.64c-14.77,0-25.14,7.81-25.26,19.07v.08c0,.08,0,.16,0,.24-1.67,1.47-2.76,3.53-3,5.82,0,.03,0,.06,0,.09l-3.16-1.24v-19.4c0-4.84-3.94-8.78-8.78-8.78h-.19c-4.84,0-8.78,3.94-8.78,8.78v10.66c-.08-.03-.16-.05-.24-.08l-.74-.23v-8.8c0-4.84-3.94-8.78-8.78-8.78s-8.78,3.94-8.78,8.78v3.63c-.87-.07-1.75-.01-2.6,.17-4.34-5.36-10.94-8.47-18.26-8.47-6.92,0-13.08,2.65-17.39,7.37l-10.89-4.07c-1.57-1.87-3.84-3.05-6.31-3.23l-1.45-.1c-1.25-2.78-3.85-4.85-7.01-5.3l-13.57-1.9c-.96-.34-1.97-.51-3-.51h-8.56c-4.01,0-7.43,2.62-8.62,6.24l-4.07,.3c-.39,.03-.77,.08-1.15,.16l-7.94-.35c-2.42-.1-4.73,.74-6.52,2.38-1.79,1.64-2.83,3.87-2.94,6.29-.02,.44,0,.89,.04,1.32-4.74,1.2-7.7,5.98-6.62,10.78,1.1,4.88,5.97,7.96,10.84,6.86l1.11-.25c2.04,3.4,5.99,6.82,13.42,9.02h-15.56c-4.36,0-7.9,3.54-7.9,7.9v.39c0,4.36,3.54,7.9,7.9,7.9h3.56c-1.42,1.43-2.29,3.39-2.29,5.56,0,2.47,1.14,4.68,2.92,6.13-1.71,.72-2.92,2.42-2.92,4.39v20.3c0,2.63,2.14,4.77,4.77,4.77h56.96c4.36,0,7.9-3.54,7.9-7.9v-.19c0-3.2-1.92-5.97-4.67-7.21,1.39-.83,2.33-2.36,2.33-4.1v-19.33c0-.89-.25-1.72-.67-2.43h2.52c3.79,0,6.96-2.68,7.72-6.24l2.42-1.25c4.13,3.66,9.51,5.64,15.45,5.64,.13,0,.26,0,.39,0,9.29,0,16.84-4.85,20.67-12.5v5.48c0,1.43,.35,2.78,.96,3.97-4.11,.9-7.2,4.57-7.2,8.95v.04c-.07,7.19-8.08,13.9-19.94,16.71-2.44,.58-4.47,2.2-5.57,4.44-1.09,2.22-1.13,4.8-.11,7.06,1.6,3.54,5.38,5.47,9.19,4.71,10.39-2.08,19.48-7.11,25.58-14.05,6.05,6.93,15.15,11.96,25.62,14.05,.55,.11,1.11,.16,1.65,.16,3.21,0,6.17-1.86,7.54-4.88,1.02-2.26,.98-4.83-.11-7.06-1.1-2.24-3.13-3.86-5.58-4.44-11.92-2.82-19.94-9.52-19.94-16.67v-.08c0-1.61-.42-3.11-1.15-4.43,3.79-.97,6.61-4.4,6.61-8.49v-2.66l.88-.18c-.69,1.44-1,3.04-.87,4.64,.09,1.18,.42,2.33,.96,3.39v2.04c0,4.84,3.94,8.78,8.78,8.78h.19c4.08,0,7.52-2.8,8.5-6.57l21.74-1.74c.69-.01,1.38-.03,2.07-.05v4.66c-1-.37-2.09-.59-3.22-.59-5.11,0-9.26,4.16-9.26,9.26v19.36c0,2.61,2.12,4.73,4.73,4.73h58.07c4.52,0,8.19-3.67,8.19-8.19s-3.67-8.19-8.19-8.19h-44.27v-5.82c.98,.35,2.02,.56,3.12,.56,5.05,0,9.17-4.11,9.17-9.17v-6.79c.79-.23,1.54-.56,2.24-.99,.72-.06,1.44-.13,2.15-.2-.92,1.26-1.46,2.8-1.46,4.48,0,4.19,3.41,7.61,7.61,7.61h9.35c.86,4.22,4.6,7.41,9.08,7.41,5.11,0,9.26-4.16,9.26-9.26v-11.75l6.1,.85c.26,.39,.55,.75,.86,1.1,2.13,3.26,6.1,4.75,9.87,3.62,1.57-.47,3.13-1.03,4.67-1.66,2.45,1.46,5.53,1.72,8.24,.54,3.59-1.55,5.66-5.16,5.45-8.87,1.07,0,2.14-.17,3.17-.54,3.38-1.23,5.59-4.26,5.93-7.62,.19,.25,.38,.51,.57,.76,.65,1.35,1.62,2.51,2.84,3.39,6.14,6.67,13.98,11.52,22.7,14.06,3.33,.97,6.9-.16,9.12-2.7,1.69,.22,3.44-.03,5.04-.77,4.53-2.12,6.49-7.54,4.36-12.06l-8.13-17.34Zm-99.32,25.64h-.92c.33-.3,.64-.62,.91-.97v.97Zm-142.66-21.16c-1.77,1.25-3.02,3.07-3.55,5.13l-3.71,1.92c-1.62,.84-2.92,2.12-3.77,3.67h-6.46c9.34-2.79,13.11-7.56,14.48-11.85l3.01,1.13Z"/>
  <path d="M337.45,275.66h-69.82c-4.57,0-8.29,3.72-8.29,8.29s3.72,8.29,8.29,8.29h69.82c4.57,0,8.29-3.72,8.29-8.29s-3.72-8.29-8.29-8.29Z"/>
</svg>