<?xml version="1.0" encoding="UTF-8"?>
<svg id="Layer_1" data-name="Layer 1" xmlns="http://www.w3.org/2000/svg" viewBox="0 0 375.49 298.11">
  <defs>
    <style>
      .cls-1 {
        fill: #3fc46f;
      }
    </style>
  </defs>
  <path class="cls-1" d="M349.86,259.29h-.03l-.1-.05v-.09c-3.56,0-6.44-2.88-6.44-6.44h-.02v.07h-.03v-.02c-3.56,0-6.44-2.88-6.44-6.44h-12.99c0,6.79-5.26,12.36-11.93,12.84h-.88l-.16-64.68h-12.91v26.79c-.46,6.69-6.03,11.98-12.85,11.98v.03h-.05s-19.28,.13-19.28,.13v12.91l19.28-.14h.08l-.02,.14v.03c7.11,0,12.88,5.77,12.88,12.88h12.97v19.4h12.91v-6.55l.07,.07h.03c0-4.26,2.07-8.03,5.25-10.38,.55,.72,.96,1.56,1.17,2.47v1.47c3.56,0,6.44,2.88,6.44,6.44h.02s.1,0,.1,0v.03c7.06,0,12.79,5.68,12.88,12.72h-.13l-103.29,.19c.02-7.1,5.78-12.85,12.88-12.85v-.03l25.85-.06v-12.91l-58.27-.11v-.02c-3.56,0-6.44-2.88-6.44-6.44h-.02l-.06-.15h-12.91l-.1,.05,.09-19.35v.06s0,.05,0,.05v.03c7.11,0,12.88,5.77,12.88,12.88h.03l.02-.07h25.85l.05-.15h.02c0-3.28,2.45-5.98,5.62-6.38h.92v-1.08c.44-2.67,2.52-4.78,5.17-5.27h1.22l-.03-25.91v-.03c-7.11,0-12.88-5.77-12.88-12.88h-.08s-25.85,0-25.85,0h-.02s-.03,0-.03,0c0,7.11-5.77,12.88-12.88,12.88v.02h-12.88l-.1-.02h-.03c0,4.74-2.57,8.89-6.39,11.12-3.86-2.22-6.46-6.39-6.46-11.17h-.03l-.05,.07h-12.91l-.04,12.88c-7.1-.02-12.85-5.78-12.85-12.88h-25.98c0,7.11-5.77,12.88-12.88,12.88v12.91h0l-38.94-.15c-7.11,0-12.88-5.77-12.88-12.88h12.88s-.07-.08-.07-.08h.07l.1-.06h.02c0-3.32,2.51-6.05,5.74-6.4h.58v.13h.02s0-.09,0-.13h.1v-1c.54-3.02,3.17-5.31,6.33-5.31v-.02l.12-.1v-12.91l-.21-.1v-.02c-3.02,0-5.54-2.08-6.24-4.88v-1.5h-.2s0-.04,0-.07h-.02v.07h-.51c-3.23-.35-5.74-3.08-5.74-6.4h-.02l-.07-.12H207.09v-12.91l-38.87-.02h0c-7.11,0-12.95-5.8-12.95-12.91h0v-1.17c.48-6.24,5.39-11.23,11.6-11.82h27.28l-.07-51.68c0-3.56,3.06-6.54,6.62-6.54v-.02h-.08v-12.9s0-.02-.02-.02h-12.9c0,3.57-2.89,6.46-6.46,6.46v.02l-.03-.03-14.84,.02s0,0,0,0c-5.83-.79-10.42-5.48-11.06-11.35,0,0,0,0,0,0v-3.1s0,0,0,0c.73-6.42,6.18-11.4,12.79-11.4v-.03l.1-.03,26.05-.02s.02,0,.02-.02V.15s0-.02-.02-.02l-51.95-.09s-.02,0-.02,.02V12.9s0,.02-.02,.02h-12.84l-.06,.19h-.02c0,3.4-2.64,6.18-5.98,6.42h-.38v-.04h-.02s0,.03,0,.04h-.02v.02s-.03,0-.04,0v.02h.04v.38c-.23,3.23-2.84,5.8-6.09,5.97h-13.34s-12.96,0-12.96,0c-7.11,0-12.88-5.82-12.88-12.94h-12.93s-.02,0-.02,.02v12.92h-13.02s-.02,0-.02,.02v12.91s0,.02-.02,.02h-12.86s-.02,0-.02,.02v12.89s0,.02-.02,.02c-6.99-.07-12.86-5.76-12.96-12.74v-.18H12.91c0,3.57-2.89,6.46-6.46,6.46v.03s0,.02-.02,.02H.02s-.02,0-.02,.02v19.37H.06c3.55,.01,6.42,2.89,6.42,6.44h-.02c3.57,0,6.46,2.89,6.46,6.46h0v.03h12.91s.13,0,.13,0c0-7.11,5.76-12.8,12.86-12.81,0,0,.02,0,.02,.02v12.78s0,.02,.02,.02h12.92v12.91h.03l-.03,.06h90.63v.02h-.12v12.86s0,.02-.02,.02h-13.37v1.44c-.55,5.9-5.07,10.65-10.88,11.53l-21-.04v-.02c-3.56,0-6.44-2.88-6.44-6.44h-.02v.14h-6.46v-.02c-3.56,0-6.44-2.88-6.44-6.44h-.02l-.02-.1h-12.91v13.01h-.1v-.07h-12.91v12.94h-12.9l-.06,12.97-.1-.06v-.02c-3.56,0-6.44-2.88-6.44-6.44h-.02v-6.46H.02v32.34H6.44v.02c3.56,0,6.44,2.88,6.44,6.44h.02v.02H51.76v12.98h-12.82l-.06,.19h-.02c0,3.16-2.28,5.79-5.28,6.33h-1.03v-.06h-.02c0,.06,0,.11,0,.17-.03,0-.06,0-.1,0v.02h.1c-.1,3.47-2.94,6.25-6.43,6.25v.02l-.12,.07v12.91l.21,.13v.02c3.23,0,5.9,2.39,6.36,5.49v.82h.07s0,0,0,0h-.16v.02c.06,0,.11,0,.17,0,0,.03,0,.06,0,.1h.02v-.1c3.47,.1,6.25,2.94,6.25,6.43h.02l.11-.25-.08,.31h12.91c0,7.11-5.8,12.95-12.91,12.95L.02,233.18v12.91H13v12.87l51.89,.09,.06,.05v.03c4.26,0,8.03,2.07,10.38,5.25-1.08,.81-2.41,1.3-3.86,1.3v.02h-.08c0,3.25-2.4,5.92-5.53,6.37h-13.89v.09h-.06v-.09h-12.91v.09h-13.03v25.83H103.75v-12.91h-25.83v-1.25c.49-2.71,2.68-4.82,5.42-5.21h.97v-.09h.02c0-3.56,2.88-6.44,6.44-6.44v-.07l.06-25.88h-.04v-.05h25.97v.11l.03,.05v.03c7.11,0,12.88,5.77,12.88,12.88h25.87c-.01,7.11-5.77,12.9-12.88,12.9v.03l.05,.1-.09-.04h-.03c0,7.11-5.77,12.88-12.88,12.88v12.99h13.04c0-7.11,5.77-12.88,12.88-12.88v-.03h-.04s.03,0,.03,0h0v-.39c.14-4.6,2.68-8.59,6.41-10.76,3.84,2.23,6.42,6.38,6.42,11.14h.03l.05-.05v.05h-.03v.04c7.11,0,12.88,5.77,12.88,12.88h12.97v-12.91h.03v-.04c-7.11,0-12.88-5.77-12.88-12.88h-.18l.1-.1v-.03c-7.11,0-12.88-5.79-12.88-12.9h12.91v-12.91h0s.05,0,.05,0h.03c0-4.74,2.57-8.89,6.39-11.12,3.86,2.22,6.46,6.39,6.46,11.17h0v12.89h0v12.93h13.11s0,.08,0,.08v25.92l155.07-.29,.17-25.62v-.03h0s-.56-.01-.56-.01c-6.85-.29-12.32-5.94-12.32-12.87Zm-116.58-51.89v.07s0,0,0,0l-.02-.07h.03Zm0,.1c7.11,0,12.88,5.77,12.88,12.88h.03l.04-.06c-.01,3.54-2.89,6.41-6.44,6.41v.02h.1v.07h-.02c0,3.56-2.88,6.44-6.44,6.44v.02h-.15s0-.02,0-.02c-7.11,0-12.88-5.77-12.88-12.88s5.77-12.88,12.88-12.88ZM20.69,62.1s-.02,0-.02,0c-.73-.98-1.19-2.18-1.26-3.47v-.36h-.02s0,0,0,0h-.02s-.02,0-.02,0c-1.4,0-2.68-.46-3.74-1.22,0,0,0-.02,0-.02,1.03-1.37,2.33-2.52,3.82-3.39,0,0,.01,0,.02,0,1.92,1.11,3.52,2.71,4.64,4.62,0,0,0,.01,0,.02-.87,1.49-2.03,2.8-3.4,3.83Zm-1.27,91.51c-1.95-1.12-3.57-2.73-4.71-4.66,1.13-2,2.78-3.67,4.77-4.82,1.95,1.14,3.58,2.77,4.71,4.73-1.14,1.98-2.79,3.62-4.77,4.76Zm13.23,60h0s.03-.02,.03-.02l-.03,.02ZM142.36,38.82V12.97s0-.02,.02-.02h25.92c7.11,0,12.86,4.08,12.86,12.97s-6.1,12.94-12.49,12.94v.03h-.44l-25.79-.04v.04l-.07-.07h0Zm-62.14,7.67c.86-.64,1.88-1.07,2.99-1.22,0,0,0,0,0,0h.79v-.2c.11-3.45,2.93-6.22,6.4-6.23l13.13-.02h0s12.97,0,12.97,0c4.74,0,8.82,2.7,11.06,6.52,0,0,0,.01,0,.02-2.24,3.81-6.38,6.47-11.12,6.47h-25.78c-4.26,0-8.1-2.11-10.45-5.3,0,0,0-.02,0-.02Zm62.14,31.22v-.06l-58.26,.06c-3.55,0-6.45-2.88-6.46-6.43,0,0,0-.02-.02-.02h-12.93s0-6.53,0-6.53c0,0,0-.02,.02-.02h77.68v12.98h-.04Zm-.01,25.86s0-.02,.02-.02h25.88v-.02h.04v.05s0,0,0,.02c7.12,0,12.9,5.77,12.9,12.9v.08c0,7.11-5.77,12.88-12.88,12.88v.03l-25.88-.04v.04h-.07v-25.93Zm-25.86,25.86h.01v.07h-.01v-.07Zm-25.9,.1l19.46-.03v.02c3.56,0,6.44,2.88,6.44,6.44h6.47v.02c1.43,0,2.74,.47,3.81,1.26-2.35,3.1-6.08,5.11-10.27,5.11v.03l-.04,.06h-25.87v-.05c-4.76,0-8.91-2.58-11.14-6.42,2.23-3.84,6.38-6.42,11.14-6.42Zm-25.95,25.83v-.02h77.74l-.03,6.54h-12.91v-.07h-.02c0,3.56-2.88,6.44-6.44,6.44v.02l-58.31,.06v-.06h-.04v-12.91Zm.31,51.94l-.09-.09-12.94-.08v-.02c-3.56,0-6.44-2.88-6.44-6.44,0-3.86,3.31-6.51,6.38-6.52h0s13.1,0,13.1,0l.37,.1v.02c2.94,0,5.42,1.97,6.19,4.66v3.51c-.77,2.69-3.25,4.66-6.19,4.66v.02h-.37v.17Zm77.68,12.99h.09l.95,.07h-1s-1.15-.07-1.15-.07h1.11Zm-12.95,14.13v-1.14h.03v-.16l.04,.16-.07,1.14Zm19.49,5.14v.18h-.02c0,3.56-2.88,6.44-6.44,6.44v.02l-.06,.05h-.97l.98-.05v-.03c-7.11,0-12.88-5.77-12.88-12.88s5.76-12.88,12.88-12.88c7.11,0,12.88,5.77,12.88,12.88h.07c-.09,3.48-2.93,6.28-6.43,6.28Zm19.34-19.26v.07h-.72l.72-.07Zm.03,38.85h-12.89s0-.21,0-.21c0-3.55,2.88-6.44,6.43-6.44v.03h.02c0-3.19,2.32-5.83,5.37-6.34h1.07v-.11l.02,13.07h-.02Zm51.88,13.04l-.02-.03h.02v.03Zm.04,.06c7,.06,12.67,5.71,12.76,12.7-7-.06-12.67-5.71-12.76-12.7Zm12.82,12.86h-.03v-.12h.03v.12Zm12.91,0v-.12l.15,.12h-.15Z"/>
  <path class="cls-1" d="M362.58,129.52v12.88h-.09v-.03h-.86c-6.71-.44-12.02-6.02-12.02-12.85h-.03l-.04-.12h-12.98c0,7.11-5.77,12.88-12.88,12.88v.07l-.08,.11-.03-.08-.05-51.63h-12.91v12.91h.08s-.07,.01-.07,.01h-12.91v25.79s0,0,0,0l-.06,.12h-.02c0,3.52-2.83,6.38-6.34,6.44v-.1h-.02s0,.07,0,.1c-.03,0-.05,0-.07,0v.02h.07c-.06,3.5-2.92,6.32-6.43,6.32v.02l-.08,.1v-.04h-12.86c.03-7.08,5.79-12.82,12.88-12.82v-.03l-.02-.07v-25.84l-.08-.08v-.03c-6.87,0-12.48-5.38-12.86-12.16v-.65h-.02s0-.03,0-.04l.06-.07h25.88v-.05h0c0-3.56,2.88-6.44,6.44-6.44v-.02h.02c0-3.56,2.88-6.44,6.44-6.44v-12.93l.14-.02v-.03c-7.11,0-12.88-5.77-12.88-12.88h-38.96c0,3.56-2.88,6.44-6.44,6.44v.02h-.02c0,3.56-2.88,6.44-6.44,6.44v.02l-.04,.02v12.91l-.07,.08v.03c7.11,0,12.88,5.77,12.88,12.88h.03l.11-.03-.06,.11h-12.91l-.06-.07h-.03c0,7.11-5.77,12.88-12.88,12.88v.11s-.03-.01-.03-.01l.18-58.29h12.78V25.89h.09c0-4.76,2.59-8.92,6.43-11.15,3.84,2.23,6.42,6.38,6.42,11.14h.07v12.94h12.91v-12.93s.02,0,.02,0c0-4.76,2.58-8.91,6.41-11.14,3.85,2.23,6.44,6.39,6.44,11.15h.03l.05,.06-.02,.03v.03c7.11,0,12.88,5.77,12.88,12.88h.03l.12-.1h12.95l-.15,.1,.15,19.38h12.91l-.07-58.26h-12.91l.07,25.81v.06l-.04,.08v-.08h-1.1c-6.6-.56-11.78-6.09-11.78-12.83h-.13s.04-.14,.04-.14v-.03c-7.11,0-12.88-5.77-12.88-12.88h-.03l-.09,.02h-12.91V12.97s-12.9,0-12.9,0l-.04,.04v-.03h0V.02h-13.01c0,7.11-5.77,12.88-12.88,12.88v.07s.01,.08,.01,.08h-.05s.01-.01,.01-.01V.13h-12.93V181.26h12.91v-12.99l.03,.08v.03c7.11,0,12.88,5.77,12.88,12.88h.03l.06-.09h12.89v.07h.03c0-7.11,5.77-12.88,12.88-12.88v-.1s0-.09,0-.09l19.44,.23v-11.19c3.82,2.23,6.39,6.38,6.39,11.13h13.01l.07-.16v12.91h12.91v-25.71l.08-.28v.02c3.56,0,6.44,2.88,6.44,6.44h.09v.02c3.56,0,6.44,2.88,6.44,6.44h12.92v.26h.03c0-4.24,2.05-8,5.21-10.35,.75,1.05,1.2,2.34,1.2,3.74h.1v.02c3.56,0,6.44,2.88,6.44,6.44h.02v.23h-.03v12.91h12.91l.03-51.72h-12.91ZM232.98,25.97h.05s-.05,.01-.05,.01h0Zm0,12.91h.05s-.05,0-.05,0h0Zm32.43,32.3v-.02h.02c0-3.56,2.88-6.44,6.44-6.44v-.02h13.05l-.09,.02v.03c4.2,0,7.93,2.01,10.28,5.12-1.07,.79-2.39,1.27-3.83,1.27v.02h-.02c0,3.56-2.88,6.44-6.44,6.44v.09s-.05,0-.05,0h-12.91l.02-.05v-.03c-4.21,0-7.95-2.02-10.3-5.15,1.07-.8,2.4-1.28,3.84-1.28Zm-19.48,45.37h.09c0-7.11,5.77-12.88,12.88-12.88v-.03h0s.06,0,.06,0v.03c7.11,0,12.88,5.77,12.88,12.88h0s-.04,.01-.04,.01h-.03c0,6.94-5.49,12.59-12.36,12.87h-.49s-.02,.01-.03,.01v.03h.02s-.06,0-.06,0v-.02c-3.55,0-6.44-2.88-6.44-6.43h.04v-.02c-3.56,0-6.44-2.88-6.44-6.44h-.07v-.02Zm25.91,25.85v12.82h-.08v.09l-19.32-.02c-3.56,0-6.44-2.88-6.44-6.44h-.02l-.06-.09h-12.95v-19.28h.03s0,0,0,0v.02c3.56,0,6.44,2.88,6.44,6.44h.02v.02c3.56,0,6.44,2.88,6.44,6.44h.07l25.84-.05,.03,.05h-.02Zm72.51,10.21c-.77-1.03-1.23-2.3-1.27-3.68h0v-.02s0,0,0,0c0-.05,0-.09,0-.14h-.02v.14c-1.45,0-2.78-.5-3.85-1.31,1.04-1.41,2.36-2.6,3.87-3.49,1.93,1.11,3.55,2.71,4.68,4.63-.87,1.51-2.03,2.82-3.41,3.86Z"/>
</svg>