<?xml version="1.0" encoding="UTF-8"?>
<svg id="Layer_1" data-name="Layer 1" xmlns="http://www.w3.org/2000/svg" viewBox="0 0 419.03 299.55">
  <defs>
    <style>
      .cls-1 {
        fill: #fff;
      }
    </style>
  </defs>
  <path class="cls-1" d="M221.45,165.72c.64,1.21,1.67,2.05,2.86,2.45-5.61,.67-11.14,1.07-16.93,1.31,.29-1.05,.24-2.19-.19-3.27-.1-.26-.22-.48-.36-.71,.41-.09,.83-.21,1.22-.38l8.89-4.06c.24-.1,.46-.24,.67-.38,1.43-.12,2.84-.26,4.22-.4-1.12,1.55-1.33,3.65-.38,5.44Z"/>
  <path class="cls-1" d="M276.46,255.95c.14,.33,.33,.64,.55,.93-2.05,.96-4.17,1.77-6.34,2.43-1.7,.5-3.53-.03-4.67-1.31,1.02,.64,2.27,.91,3.55,.71l2.24-.38c2.03-.34,3.58-1.84,4.1-3.7l.57,1.33Z"/>
  <path class="cls-1" d="M288.63,249.15c-.91,.83-1.86,1.62-2.82,2.34l-3.74-8.63c.59-.48,1.15-.98,1.7-1.52l1.7,4.68c.55,1.52,1.74,2.62,3.15,3.12Z"/>
  <path class="cls-1" d="M332.53,255.66c-.07,.5-.22,1-.48,1.46-1.03,1.89-3.27,2.82-5.32,2.24-7.84-2.29-15.02-6.77-20.53-12.59,.91,.4,1.96,.5,3.01,.28,2.69-.57,4.44-3.15,4.05-5.82,4.29,4.06,9.82,7.35,16.1,9.32,.1,.03,.21,.07,.31,.12l1.52,3.24c.33,.69,.79,1.29,1.34,1.76Z"/>
  <path class="cls-1" d="M303.8,219.68c-.14,0-.26,.03-.4,.05-2.41,.52-4.1,2.67-4.1,5.06,0,.36,.03,.72,.12,1.08l3.63,17.14c-1.22-1.62-2.32-3.32-3.27-5.1-.21-.38-.6-.62-1.03-.62h-.02c-.43,0-.81,.22-1.02,.6-.79,1.43-1.67,2.81-2.67,4.13l-3.89-10.75c1.38-3.01,2.14-6.18,2.17-9.33v-.79c0-2.94,2.39-5.34,5.34-5.34,2.43,0,4.48,1.64,5.13,3.86Z"/>
  <path class="cls-1" d="M334.13,276.79c2.24,0,4.06,1.83,4.06,4.06s-1.83,4.06-4.06,4.06h-69.95c-2.24,0-4.06-1.83-4.06-4.06s1.83-4.06,4.06-4.06h69.95Z"/>
  <path class="cls-1" d="M248.76,285.98c2.19,0,3.98,1.79,3.98,3.98s-1.79,3.98-3.98,3.98h-58.17c-.28,0-.5-.22-.5-.52v-19.37c0-2.79,2.26-5.06,5.05-5.06s5.05,2.27,5.05,5.06v10.78c0,.64,.52,1.15,1.15,1.15h47.43Z"/>
  <path class="cls-1" d="M212.49,257.31v9.99c0,2.74-2.22,4.96-4.96,4.96s-4.94-2.22-4.94-4.96v-9.89c0-.29-.12-.55-.33-.76-.15-.14-.34-.24-.53-.28l5.37-.43c1.14,1.17,2.82,1.79,4.56,1.5l.83-.14Z"/>
  <path class="cls-1" d="M218.42,248.73l15.45,2.15c-.24,1.5-1.43,2.76-3.01,2.98-4.05,.59-8.37,1.08-12.9,1.46,1.1-1.14,1.65-2.77,1.38-4.43-.14-.81-.46-1.53-.91-2.17Z"/>
  <path class="cls-1" d="M250.78,253.24v16.31c0,2.77-2.26,5.05-5.05,5.05s-5.05-2.27-5.05-5.05v-1.64c0-.41-.33-.74-.74-.74h-12.68c-1.86,0-3.38-1.53-3.38-3.39s1.52-3.39,3.38-3.39h12.68c.41,0,.74-.33,.74-.74v-7.82l10.09,1.41Z"/>
  <path class="cls-1" d="M250.78,215.24v24.28l-2.88-.93c-.93-1.43-2.53-2.38-4.34-2.36h-1.27l-1.6-.59v-20.41c0-2.79,2.27-5.05,5.05-5.05s5.05,2.26,5.05,5.05Z"/>
  <path class="cls-1" d="M227.53,228.22c0,.84-.07,1.65-.22,2.45l-9.18-3.39c-.65-4.2-5.17-6.92-11.56-6.8-4.41-.05-7.96,1.03-10.01,3.1-1.24,1.26-1.89,2.88-1.86,4.65,0,.4,.02,.79,.09,1.15l-2.86-.93c-2.12-.69-4.37,.07-5.68,1.74-.29,.05-.57,.12-.84,.19-.14-.69-.19-1.41-.21-2.15,.1-9.01,8.66-15.02,21.35-14.91h.02c7.25-.05,13.33,1.98,17.1,5.73,2.53,2.5,3.86,5.68,3.86,9.18Z"/>
  <path class="cls-1" d="M172.32,289.07c.53,1.08,.55,2.36,.05,3.46-.77,1.74-2.63,2.69-4.51,2.31-11.09-2.2-20.44-7.96-25.68-15.78-.17-.28-.48-.45-.81-.45-.31,0-.62,.17-.81,.43-5.3,7.84-14.66,13.61-25.66,15.79-1.86,.38-3.74-.57-4.51-2.31-.5-1.1-.48-2.38,.05-3.46,.55-1.1,1.55-1.91,2.76-2.19,13.81-3.27,23.15-11.64,23.23-20.82v-.09c0-2.72,2.22-4.94,4.96-4.94s4.94,2.22,4.94,4.94v.09c0,9.16,9.33,17.53,23.23,20.82,1.21,.28,2.22,1.08,2.76,2.19Z"/>
  <path class="cls-1" d="M170.56,258.88v1.38c0,2.51-2.05,4.56-4.56,4.56h-.19c-2.51,0-4.56-2.05-4.56-4.56v-2.69c.96,1.07,2.34,1.72,3.86,1.72,.14,0,.28,0,.41-.02l5.05-.4Z"/>
  <path class="cls-1" d="M168.49,248.63l-3.81,.31c-1.38,.1-2.6,.76-3.44,1.72v-5.36l3.51-.72c.05,.02,.12,.05,.19,.09l.34,.14c.33,1.77,1.58,3.2,3.2,3.82Z"/>
  <path class="cls-1" d="M149.67,237.11l-3.7,.76c-1.41,.29-2.57,1.15-3.29,2.27v-5.18l6.99,2.15Z"/>
  <path class="cls-1" d="M151.81,247.23v5.8c0,2.5-2.05,4.55-4.56,4.55s-4.56-2.05-4.56-4.55v-7.25c.95,1.43,2.57,2.32,4.32,2.32,.34,0,.69-.03,1.05-.1l3.75-.77Z"/>
  <path class="cls-1" d="M170.56,213.75v21.97l-1.27-.5c-1.19-1.07-2.84-1.58-4.51-1.24l-5.98,1.24c.1-.21,.19-.43,.26-.65,.53-1.74,.09-3.55-1.02-4.86h1.7c.83,0,1.5-.67,1.5-1.5v-14.47c0-2.51,2.05-4.55,4.56-4.55h.19c2.51,0,4.56,2.03,4.56,4.55Z"/>
  <path class="cls-1" d="M151.81,215.32v11.61l-9.13-2.81v-8.8c0-2.51,2.05-4.56,4.56-4.56s4.56,2.05,4.56,4.56Z"/>
  <path class="cls-1" d="M134.5,236.52c.88,0,1.72-.22,2.45-.62-.1,5.79-2.14,10.92-5.77,14.55-3.51,3.51-8.35,5.44-13.64,5.37-5.3,.03-10.18-1.84-13.66-5.32-.33-.33-.65-.67-.95-1.03l7.97-4.13c1.76,1.5,4.03,2.34,6.65,2.34,5.25,0,9.16-3.72,10.2-9.35l5.11-1.81h1.64Z"/>
  <path class="cls-1" d="M134.2,224.23c-.38,.33-.71,.72-.96,1.17l-2.15,.76h-6.32c-.05-.07-.12-.14-.19-.21-1.88-1.84-4.31-2.81-7.03-2.74-2.86-.05-5.36,.91-7.25,2.79-1.45,1.41-2.46,3.31-3,5.49l-9.13,5.27c-.03-.5-.03-1-.03-1.52-.02-1.17,.05-2.32,.21-3.43,1.76-.31,3.31-1.52,3.96-3.29,.22-.59,.33-1.21,.33-1.79,0-1.26-.46-2.48-1.29-3.41,.71-1.08,1.52-2.08,2.41-3,3.5-3.53,8.39-5.46,13.79-5.46s10.23,1.95,13.74,5.49c1.14,1.15,2.12,2.45,2.91,3.86Z"/>
  <path class="cls-1" d="M87.96,295.04v.19c0,2.03-1.65,3.69-3.69,3.69H27.22c-.29,0-.53-.26-.53-.55v-20.34c0-.29,.24-.55,.53-.55h47.31c.65,0,1.19-.53,1.19-1.19v-3.93c0-.65-.53-1.19-1.19-1.19H30.36c-2.01,0-3.67-1.65-3.67-3.69s1.65-3.69,3.67-3.69h54.71c.31,0,.55,.24,.55,.55v19.36c0,.31-.24,.55-.55,.55H37.78c-.65,0-1.21,.53-1.21,1.19v4.72c0,.65,.55,1.19,1.21,1.19h46.5c2.03,0,3.69,1.65,3.69,3.69Z"/>
  <path class="cls-1" d="M95.39,253.62v.38c0,2.03-1.65,3.69-3.67,3.69H21.18c-2.03,0-3.67-1.65-3.67-3.69v-.38c0-2.03,1.64-3.69,3.67-3.69h28.93c.65,0,1.19-.53,1.19-1.21v-3.87c0-.62-.48-1.15-1.12-1.19-13.92-.96-22.37-5.05-24.27-11.59l4.31-.96c1.19-.26,2.19-.93,2.91-1.83l2.86,.12c.1,4.87,6.8,7.23,20.46,7.23,10.09,0,16.27-1.27,18.87-3.93,.93-.96,1.39-2.12,1.38-3.41,.02-1.19-.41-2.24-1.31-3.15-.83-.83-2-1.53-3.55-2.12l.03-.09c.52,.21,1.07,.36,1.67,.4l7.03,.5c.59,.91,1.45,1.64,2.51,2.03l3.84,1.45c.03,.31,.05,.64,.05,.96,0,8.27-8.75,13.38-24.66,14.38-.62,.03-1.12,.57-1.12,1.19v3.87c0,.67,.53,1.21,1.19,1.21h22.9c-.05,.84,.14,1.72,.55,2.53,1.31,2.53,4.44,3.53,6.97,2.22l2.55-1.33c.02,.09,.02,.17,.02,.26Z"/>
  <path class="cls-1" d="M355.76,116.95l5.6,7.56c-.76,1.08-1.43,2.34-2,3.75l-5.91-7.97c-.05-.09-.12-.15-.19-.22,.76-1.14,1.6-2.19,2.5-3.12Z"/>
  <path class="cls-1" d="M417,106.86c.91,.95,1.41,2.2,1.39,3.53l-1.19,75.79c-.03,1.33-.57,2.55-1.52,3.48-.95,.91-2.2,1.43-3.51,1.39-2.74-.05-4.93-2.31-4.87-5.03l.62-40.14c.02-.55-.43-1.02-.98-1.03l-15-.22h-.02c-.52,0-.95,.4-1,.91-1.46,15.9-10.13,25.94-22.03,25.69-5.11-.05-9.71-2.01-13.31-5.68-5.29-5.44-8.11-14.24-7.96-24.82,.05-3.39,.41-6.56,1.05-9.47l3.31,4.46c1.24,1.69,3.36,2.39,5.3,1.95-.09,1.03-.14,2.12-.15,3.22-.12,8.39,1.72,14.97,5.24,18.53,1.88,1.91,4.12,2.88,6.68,2.89h.29c2.5,0,4.72-.91,6.6-2.69,3.6-3.43,5.68-9.94,5.87-18.36,.12-12.52-4.13-20.58-11.14-21.35-.14-.33-.31-.65-.53-.95l-5.48-7.39c1.58-.43,3.25-.65,5.01-.65h.17c1.77,.03,3.46,.31,5.06,.79,.07,.5,.22,.98,.46,1.45l6.32,12.5c1.27,2.55,4.41,3.58,6.96,2.29,.22-.12,.45-.24,.65-.4,.83,2.55,1.38,5.37,1.65,8.39,.05,.52,.46,.91,.98,.93l15.12,.22h.02c.55,0,1-.43,1-.98l.02-1.48c.98,.14,2-.03,2.94-.5,2.55-1.29,3.58-4.41,2.29-6.96l-4.96-9.8,.12-7.15c.03-2.7,2.26-4.87,4.94-4.87h.09c1.33,.02,2.55,.55,3.48,1.5Z"/>
  <path class="cls-1" d="M334.29,166.89v21.35c0,2.57-2.1,4.65-4.67,4.65s-4.65-2.08-4.65-4.65v-25.02l9.32,3.67Z"/>
  <path class="cls-1" d="M334.29,112.04v41.59l-.5,1.93-8.82-3.46v-6.97c.88-1.58,.83-3.46,0-4.96v-28.12c0-2.57,2.08-4.65,4.65-4.65s4.67,2.08,4.67,4.65Z"/>
  <path class="cls-1" d="M317.29,113.61v24.94c-.53,.4-.98,.9-1.34,1.52l-3.55,6.13-4.43-2.1v-30.48c0-2.57,2.08-4.65,4.65-4.65s4.67,2.08,4.67,4.65Z"/>
  <path class="cls-1" d="M302.53,152.98c.05,.1,.1,.21,.17,.29-.38,1.33-1.5,2.34-2.91,2.58-.59,.09-1.17,.19-1.79,.28,.45-.41,.81-.91,1.08-1.5l1.27-2.69,2.17,1.03Z"/>
  <path class="cls-1" d="M317.29,160.21v23.92c0,2.57-2.1,4.67-4.67,4.67s-4.65-2.1-4.65-4.67v-12.4c0-.6-.5-1.1-1.12-1.1h-9.76c-2.08,0-3.77-1.7-3.77-3.79s1.69-3.77,3.77-3.77h9.76c.62,0,1.12-.5,1.12-1.12v-5.41l9.32,3.67Z"/>
  <path class="cls-1" d="M285.82,166.27v15.12c0,2.58-2.08,4.67-4.65,4.67s-4.67-2.08-4.67-4.67v-17.55l9.02,2.36c.1,.03,.19,.05,.29,.07Z"/>
  <path class="cls-1" d="M282.12,149.78l-1.17,4.53-15.9-4.13c4.96-.05,10.92-.14,17.07-.4Z"/>
  <path class="cls-1" d="M300.08,128.35c0,2.89-.72,5.53-2.08,7.77l-7.39-.28-1.1-.52c-.41-.19-.86-.33-1.29-.4,2-1.53,3.15-3.81,3.15-6.58,0-2.32-.83-4.36-2.38-5.87-1.79-1.76-4.46-2.7-7.53-2.65h-.26c-5.79,0-9.73,3.39-9.83,8.54,.05,3,1.39,5.41,3.69,6.92l-11-.41c-.95-1.98-1.43-4.18-1.41-6.53-.03-4.01,1.41-7.63,4.2-10.44,3.46-3.51,8.66-5.44,14.62-5.44,10.8,0,18.62,6.68,18.62,15.88Z"/>
  <path class="cls-1" d="M250.74,174.11v11.06c0,2.74-2.22,4.96-4.96,4.96s-4.94-2.22-4.94-4.96v-5.7c1.17,.14,2.41-.12,3.46-.83l5.37-3.58c.41-.28,.76-.59,1.07-.95Z"/>
  <path class="cls-1" d="M250.74,156.3v11.09c-1.65-1.98-4.62-2.43-6.82-.96l-3.08,2.07v-59.12c0-2.74,2.22-4.96,4.94-4.96s4.96,2.22,4.96,4.96v39.85c-.57,.62-1,1.38-1.22,2.24-.46,1.77,.05,3.58,1.22,4.84Z"/>
  <path class="cls-1" d="M174.85,170.55c2.19,0,3.96,1.79,3.96,3.98s-1.77,3.98-3.96,3.98H104.7c-2.19,0-3.98-1.79-3.98-3.98s1.79-3.98,3.98-3.98h70.14Z"/>
  <path class="cls-1" d="M224.36,113.27v29.14c0,.67-.55,1.22-1.22,1.22h-27.9c-1.03,0-1.88,.84-1.88,1.86v14.29c0,.5,.21,.96,.55,1.33,.36,.36,.84,.53,1.34,.55,1.91-.02,3.79-.05,5.6-.1,.07,.34,.17,.69,.33,1.02,.09,.15,.17,.33,.26,.48-.33,.07-.67,.15-1,.29l-6.56,2.67c-1.67,.67-2.79,2.14-3.12,3.79h-5.17c-.67,0-1.22-.55-1.22-1.22v-31.48c0-.67,.55-1.22,1.22-1.22h27.92c1.03,0,1.86-.84,1.86-1.88v-12.14c0-1.03-.83-1.88-1.86-1.88h-25.16c-2.19,0-3.98-1.77-3.98-3.98s1.79-3.96,3.98-3.96h34.79c.67,0,1.22,.53,1.22,1.22Z"/>
  <path class="cls-1" d="M157.76,154.46h-47.26c-.65,0-1.19-.52-1.19-1.17v-2.36l2.41,1.22c2.55,1.29,5.68,.28,6.97-2.26,.69-1.36,.72-2.88,.21-4.2l.46-.17c.29,.69,1,1.19,1.81,1.19h28.83l7.75,7.75Z"/>
  <path class="cls-1" d="M119.38,145.52l-.46,.17c-.43-1.15-1.29-2.17-2.48-2.77l-7.11-3.63v-5.17l9.9,4.65v5.99c0,.26,.05,.52,.15,.76Z"/>
  <path class="cls-1" d="M169.84,114.54v38.75c0,.65-.53,1.17-1.19,1.17h-1.74c1.17-1.98,.91-4.58-.79-6.29l-6.18-6.18v-8.04c0-1.07-.88-1.95-1.96-1.95h-8.01l-.62-.62c-1.95-1.93-5.06-2-7.1-.21l-8.49-6.73h24.33c1.02,0,1.84-.83,1.84-1.83v-8.08c0-2.72,2.22-4.94,4.94-4.94s4.96,2.22,4.96,4.94Z"/>
  <path class="cls-1" d="M122.87,129.04l-13.55-6.37v-8.13c0-2.72,2.22-4.94,4.96-4.94s4.94,2.22,4.94,4.94v7.41c-.6,1.98,.02,4.22,1.72,5.56l1.93,1.53Z"/>
  <path class="cls-1" d="M88.31,158.44v26.83c0,2.62-2.14,4.75-4.75,4.75s-4.75-2.14-4.75-4.75v-27.81l7.13,1.15c.83,.14,1.62,.07,2.38-.17Z"/>
  <path class="cls-1" d="M70.73,156.15v25.02c0,2.62-2.14,4.75-4.75,4.75s-4.75-2.14-4.75-4.75v-26.56l9.51,1.53Z"/>
  <path class="cls-1" d="M88.31,109.27v39.3c-.22-.07-.48-.14-.72-.17l-8.78-1.43v-37.7c0-2.62,2.14-4.75,4.75-4.75s4.75,2.14,4.75,4.75Z"/>
  <path class="cls-1" d="M70.73,110.84v24.25c-.5-.19-1.05-.31-1.62-.33l-7.89-.29v-23.63c0-2.62,2.12-4.75,4.75-4.75s4.75,2.14,4.75,4.75Z"/>
  <path class="cls-1" d="M43.21,144.16l8.87,.33c-.91,.77-1.57,1.86-1.77,3.12-.05,.28-.07,.55-.07,.81,0,1.29,.48,2.51,1.29,3.44-2.17,12.76-8.63,20.18-17.79,20.18-8.68,0-14.97-7.37-17.27-19.51l8.56-3.46c1.07,8.65,4.12,13.47,8.71,13.47,5.72,0,9.04-6.49,9.47-18.38Z"/>
  <path class="cls-1" d="M50.39,126.39c-.22,0-.46,.03-.71,.09l-8.09,1.6c-.77-2.48-1.83-4.39-3.13-5.67-1.34-1.31-2.94-1.98-4.72-1.95-1.64-.02-3.13,.59-4.39,1.83-1.83,1.79-3.15,4.84-3.91,8.99l-9.4,1.86c1.03-7.77,3.58-13.93,7.44-17.74,2.86-2.82,6.3-4.24,10.2-4.24h.07c7.87-.07,13.78,5.48,16.65,15.22Z"/>
  <path class="cls-1" d="M320.87,46.07l8.51,4.51c-.9,.86-2.12,1.39-3.46,1.39-2.79,0-5.05-2.27-5.05-5.05v-.86Z"/>
  <path class="cls-1" d="M327.6,61.05c2.48,2.46,3.75,5.44,3.75,8.83,0,10.2-11.28,16.27-30.16,16.27-12.59,0-22.16-2.67-26.95-7.51-2.41-2.45-3.63-5.39-3.6-8.78-.03-3.34,1.19-6.29,3.65-8.75,4.84-4.86,14.23-7.53,26.45-7.53h.45c12.12-.05,21.51,2.58,26.4,7.46Zm-6.54,8.83c0-5.6-6.87-8.54-19.86-8.54s-20.25,2.94-20.25,8.54,6.99,8.42,20.25,8.52c12.81-.1,19.86-3.13,19.86-8.52Z"/>
  <path class="cls-1" d="M330.96,5.7V39.71l-10.09-5.37v-3.03c1.89-.59,3.38-2.22,3.63-4.31,.31-2.51-1.27-4.86-3.63-5.58V5.7c0-2.79,2.26-5.05,5.05-5.05s5.05,2.26,5.05,5.05Z"/>
  <path class="cls-1" d="M313.4,42.49c-.07,.12-.15,.24-.24,.36l-.07,.07c-.74,.95-1.86,1.55-3.07,1.65-1.19,.1-2.34-.28-3.22-1.07-3.56-3.17-6.29-7.58-8.13-13.09l-.21-.6c.46-.15,.88-.38,1.27-.65l7.04,.88c-.59,.33-1.12,.76-1.55,1.31-.76,.95-1.12,2.08-1.12,3.2,0,1.53,.67,3.05,1.96,4.06l3.51,2.79c1.1,.88,2.48,1.22,3.81,1.08Z"/>
  <path class="cls-1" d="M268.19,37.04l3.48-.55c-1.48,2.7-3.25,4.99-5.32,6.89-.88,.81-2.03,1.21-3.25,1.1-1.22-.1-2.36-.74-3.12-1.72-.03-.05-.07-.09-.09-.14l5.84-2.93c1.15-.59,2-1.53,2.46-2.65Z"/>
  <path class="cls-1" d="M298.21,29.9l-.15,.52c-1.08,3.65-3.24,7.11-5.18,10.01-1.58,2.32-3.87,3.67-6.29,3.67s-4.72-1.34-6.32-3.7c-1.17-1.72-2.48-3.79-3.58-6.01,.93-1.1,1.38-2.58,1.14-4.1-.14-.81-.45-1.55-.9-2.17l2.67-.83c.67-.21,1.27-.55,1.77-.96,.93,3.07,2.26,6.03,4.15,8.63,.24,.33,.62,.53,1.03,.53s.79-.21,1.03-.53c1-1.38,1.84-2.86,2.55-4.41h.15l6.8-.43c.38-.03,.76-.1,1.12-.21Z"/>
  <path class="cls-1" d="M303.56,19.2l-2.72-.34s0-.07-.02-.12c-.26-2.82-2.81-4.93-5.65-4.65l-1.52,.15c.03-.96,.05-1.89,.05-2.77v-1.08c0-2.57,2.08-4.65,4.65-4.65s4.67,2.08,4.67,4.65v1.07c-.03,2.38,.1,5.01,.53,7.75Z"/>
  <path class="cls-1" d="M279.38,11.47c0,1.34,.03,2.81,.15,4.32-.77,.29-1.45,.77-1.98,1.38-.34,.03-.71,.1-1.03,.21l-7.16,2.22c.55-3.1,.71-5.94,.71-8.13v-1.08c0-2.57,2.08-4.65,4.67-4.65s4.65,2.08,4.65,4.65v1.08Z"/>
  <path class="cls-1" d="M251.55,43.73v38.85c0,2.72-2.22,4.94-4.96,4.94s-4.94-2.22-4.94-4.94v-7.89c.31-.05,.64-.14,.95-.24l2.96-1.08c2.67-.98,4.06-3.96,3.08-6.65-.98-2.67-3.98-4.06-6.65-3.08l-.34,.12V6.77c0-2.72,2.22-4.94,4.94-4.94s4.96,2.22,4.96,4.94v28.48c-2.07,1.45-2.82,4.25-1.67,6.56,.4,.79,.98,1.45,1.67,1.91Z"/>
  <path class="cls-1" d="M234.71,60.72c.03,1.98-1.38,3.72-3.38,4.03-8.16,1.22-15.84,1.84-24.13,2.15,.38-1.08,.41-2.29-.02-3.44-.4-1.05-1.08-1.89-1.95-2.5l7.92-2.5c2.29-.14,4.49-.31,6.66-.5,0,.45,.05,.91,.17,1.36,.6,2.31,2.72,3.84,4.99,3.84,.45,0,.9-.05,1.34-.17l7.84-2.1c.19-.05,.36-.1,.53-.17Z"/>
  <path class="cls-1" d="M225.17,10.66v29.16c0,.67-.53,1.21-1.22,1.21h-27.9c-1.03,0-1.88,.84-1.88,1.88v14.28c0,.52,.21,.98,.57,1.34s.81,.53,1.33,.53h.28c.43,.91,1.1,1.65,1.91,2.15l-5.92,2.19c-1.76,.64-2.94,2.12-3.27,3.82h-2.65c-.67,0-1.22-.55-1.22-1.22v-31.5c0-.67,.55-1.22,1.22-1.22h27.92c1.03,0,1.86-.83,1.86-1.86v-12.16c0-1.03-.83-1.86-1.86-1.86h-25.16c-2.19,0-3.98-1.79-3.98-3.98s1.79-3.98,3.98-3.98h34.79c.69,0,1.22,.55,1.22,1.22Z"/>
  <path class="cls-1" d="M168.34,11.02v31.74l-9.9-7.85v-4.46c0-1.08-.88-1.96-1.95-1.96h-6.17l-2-1.58c-1.26-1-2.86-1.33-4.34-1l-7.8-4.98h20.42c1,0,1.83-.81,1.83-1.83V11.02c0-2.72,2.22-4.94,4.96-4.94s4.94,2.22,4.94,4.94Z"/>
  <polygon class="cls-1" points="117.74 34.17 117.74 38.32 107.84 34.68 107.84 29.64 117.74 34.17"/>
  <path class="cls-1" d="M125.13,26.16l-17.29-7.92v-7.22c0-2.72,2.22-4.94,4.94-4.94s4.96,2.22,4.96,4.94v8.08c0,1.02,.81,1.83,1.83,1.83h.19c.29,1.31,1.08,2.5,2.27,3.25l3.1,1.98Z"/>
  <path class="cls-1" d="M162.02,50.96h-52.99c-.65,0-1.19-.53-1.19-1.19v-4.06l7.16,2.63c2.67,.98,5.65-.41,6.63-3.08,.21-.59,.31-1.19,.31-1.77,0-.09,0-.19-.02-.28h30.31l9.78,7.75Z"/>
  <path class="cls-1" d="M173.35,67.04c2.19,0,3.98,1.77,3.98,3.96s-1.79,3.98-3.98,3.98H103.21c-2.19,0-3.96-1.79-3.96-3.98s1.77-3.96,3.96-3.96h70.14Z"/>
  <path class="cls-1" d="M87.36,54.44v28.24c0,2.62-2.14,4.75-4.75,4.75s-4.75-2.14-4.75-4.75v-28.69l9.51,.45Z"/>
  <path d="M417.47,106.41c1.03,1.07,1.6,2.5,1.57,3.98l-1.19,75.81c-.02,1.48-.62,2.89-1.69,3.93-1.07,1.02-2.45,1.58-3.91,1.58h-.09c-3.08-.05-5.56-2.6-5.51-5.7l.64-40.14c0-.19-.15-.36-.36-.36l-15-.22c-.14,0-.33,.14-.34,.33-1.48,16.02-10.16,26.28-22.18,26.28-.17,0-.33,0-.5-.02-5.29-.03-10.06-2.07-13.78-5.87-5.41-5.55-8.3-14.54-8.15-25.28,.05-3.63,.46-7.04,1.21-10.14l.5,.69c-.64,2.91-1,6.08-1.05,9.47-.15,10.57,2.67,19.37,7.96,24.82,3.6,3.67,8.2,5.63,13.31,5.68,11.9,.24,20.56-9.8,22.03-25.69,.05-.52,.48-.91,1-.91h.02l15,.22c.55,.02,1,.48,.98,1.03l-.62,40.14c-.05,2.72,2.14,4.98,4.87,5.03,1.31,.03,2.57-.48,3.51-1.39,.95-.93,1.48-2.15,1.52-3.48l1.19-75.79c.02-1.33-.48-2.58-1.39-3.53-.93-.95-2.15-1.48-3.48-1.5h-.09c-2.69,0-4.91,2.17-4.94,4.87l-.12,7.15-.62-1.26,.09-5.91c.02-1.5,.64-2.89,1.7-3.93,1.07-1.05,2.48-1.6,3.98-1.58,1.5,.03,2.89,.64,3.94,1.7Z"/>
  <path d="M413.33,127.18c1.29,2.55,.26,5.67-2.29,6.96-.95,.46-1.96,.64-2.94,.5l.28-17.26,4.96,9.8Z"/>
  <path d="M407.75,116.13l.62,1.26-.28,17.26c-.22-.02-.43-.05-.64-.1l.29-18.41Z"/>
  <path d="M408.1,134.64l-.02,1.48c0,.55-.45,.98-1,.98h-.02l-15.12-.22c-.52-.02-.93-.41-.98-.93-.28-3.01-.83-5.84-1.65-8.39,.19-.14,.38-.28,.55-.45,.88,2.67,1.46,5.61,1.76,8.78,.02,.19,.15,.33,.34,.33l15.1,.24c.19-.03,.36-.15,.38-.36l.02-1.57c.21,.05,.41,.09,.64,.1Z"/>
  <path d="M407.75,116.13l-.29,18.41c-1.41-.34-2.67-1.29-3.38-2.69l-5.98-11.83c-1.29-2.55-.26-5.68,2.29-6.96,2.55-1.29,5.67-.26,6.96,2.29l.4,.77Z"/>
  <path d="M390.94,121c1.05,2.1,.53,4.6-1.08,6.11-2.69-8.35-8.04-14.12-15.02-16.1-.09-1.96,.96-3.87,2.82-4.8,2.53-1.29,5.67-.26,6.96,2.29l6.32,12.5Z"/>
  <path d="M389.86,127.11c-.17,.17-.36,.31-.55,.45-2.57-8.16-7.7-13.85-14.4-15.84-.05-.24-.07-.46-.07-.71,6.97,1.98,12.33,7.75,15.02,16.1Z"/>
  <path d="M389.31,127.56c-.21,.15-.43,.28-.65,.4-2.55,1.29-5.68,.26-6.96-2.29l-6.32-12.5c-.24-.46-.4-.95-.46-1.45,6.7,2,11.83,7.68,14.4,15.84Z"/>
  <path d="M370.67,119.91c7.01,.77,11.26,8.83,11.14,21.35-.19,8.42-2.27,14.93-5.87,18.36-1.88,1.77-4.1,2.69-6.6,2.69h-.29c-2.57-.02-4.8-.98-6.68-2.89-3.51-3.56-5.36-10.14-5.24-18.53,.02-1.1,.07-2.19,.15-3.22,.22-.03,.45-.1,.67-.19-.09,1.1-.15,2.24-.17,3.41-.12,8.21,1.67,14.62,5.05,18.07,1.76,1.79,3.84,2.69,6.22,2.7h.02c2.43,.07,4.6-.77,6.42-2.51,3.46-3.29,5.48-9.64,5.67-17.89,.12-11.93-3.79-19.68-10.23-20.65-.07-.24-.14-.46-.26-.69Z"/>
  <path d="M374.84,111.01c0,.24,.02,.46,.07,.71-1.6-.48-3.29-.76-5.06-.79h-.17c-1.76,0-3.43,.22-5.01,.65l-.41-.57c1.72-.5,3.53-.74,5.44-.74h.17c1.74,.03,3.39,.29,4.98,.74Z"/>
  <path d="M370.93,120.6c.6,2.01-.09,4.29-1.88,5.61-2.29,1.69-5.56,1.21-7.25-1.08l-.05-.07c2-2.93,4.65-4.56,7.8-4.56h.15c.41,0,.83,.03,1.22,.1Z"/>
  <path d="M370.67,119.91c.12,.22,.19,.45,.26,.69-.4-.07-.81-.1-1.22-.1h-.15c-3.15,0-5.8,1.64-7.8,4.56l-.4-.55c2.1-3,4.89-4.67,8.2-4.67h.15c.33,0,.65,.03,.96,.07Z"/>
  <path d="M370.14,118.97c.22,.29,.4,.62,.53,.95-.31-.03-.64-.07-.96-.07h-.15c-3.31,0-6.1,1.67-8.2,4.67l-5.6-7.56c2.51-2.63,5.51-4.48,8.9-5.37l5.48,7.39Z"/>
  <path d="M364.25,111.01l.41,.57c-3.39,.9-6.39,2.74-8.9,5.37l-.4-.53c2.5-2.62,5.49-4.48,8.89-5.41Z"/>
  <path d="M362.29,108.38l1.96,2.63c-3.39,.93-6.39,2.79-8.89,5.41l-1.39-1.89c-1.7-2.29-1.21-5.55,1.08-7.23,2.29-1.7,5.55-1.21,7.23,1.08Z"/>
  <path d="M361.36,124.51l.4,.55c-.74,1.08-1.39,2.36-1.95,3.81l-.45-.6c.57-1.41,1.24-2.67,2-3.75Z"/>
  <path d="M360.31,129.56c.69,.93,1.02,2.01,1.02,3.08,0,1.58-.72,3.15-2.08,4.17-.4,.29-.83,.52-1.27,.67,.29-3.27,.91-6.18,1.84-8.61l.5,.69Z"/>
  <path d="M359.36,128.27l.45,.6c-.93,2.43-1.55,5.34-1.84,8.61-.22,.09-.45,.15-.67,.19,.31-3.62,1.02-6.79,2.07-9.4Z"/>
  <path d="M353.45,120.29l5.91,7.97c-1.05,2.62-1.76,5.79-2.07,9.4-1.95,.45-4.06-.26-5.3-1.95l-3.31-4.46c.95-4.34,2.51-8.11,4.58-11.19,.07,.07,.14,.14,.19,.22Z"/>
  <path d="M355.36,116.42l.4,.53c-.9,.93-1.74,1.98-2.5,3.12-.14-.19-.29-.34-.46-.48,.77-1.15,1.64-2.22,2.57-3.17Z"/>
  <path d="M352.8,119.59c.17,.14,.33,.29,.46,.48-2.07,3.08-3.63,6.85-4.58,11.19l-.5-.69c.96-4.25,2.55-7.94,4.62-10.99Z"/>
  <path d="M346.22,119.21c2.01-1.5,4.8-1.29,6.58,.38-2.07,3.05-3.65,6.73-4.62,10.99l-3.05-4.12c-.69-.91-1.02-2-1.02-3.07,0-1.6,.72-3.17,2.1-4.18Z"/>
  <path d="M341.45,146.66c2.76,.72,4.43,3.56,3.7,6.32l-2.76,10.61c-.24,.93-.74,1.74-1.39,2.38-1.41,1.52-3.65,2.12-5.7,1.33l-.38-.15v-15.96l.21-.79c.72-2.76,3.56-4.43,6.32-3.72Z"/>
  <path d="M340.55,249.51c.33,.71,.48,1.45,.48,2.19,0,1.95-1.1,3.82-2.96,4.7-1.65,.77-3.51,.59-4.96-.31,.24-1.03,.17-2.12-.24-3.12-.6-1.46-1.81-2.58-3.32-3.05-.09-.03-.19-.05-.28-.09l-6.25-13.3c-1.21-2.58-.09-5.68,2.5-6.89,2.58-1.22,5.68-.09,6.89,2.48l8.15,17.38Z"/>
  <path d="M337.52,43.19c2.53,1.33,3.5,4.48,2.15,7.01-1.34,2.51-4.49,3.48-7.01,2.14l-2.69-1.43c1.02-1.02,1.64-2.43,1.64-3.98v-6.87l5.91,3.13Z"/>
  <path d="M334.13,276.13c2.6,0,4.72,2.12,4.72,4.72s-2.12,4.72-4.72,4.72h-69.95c-2.6,0-4.72-2.12-4.72-4.72s2.12-4.72,4.72-4.72h69.95Zm4.06,4.72c0-2.24-1.83-4.06-4.06-4.06h-69.95c-2.24,0-4.06,1.83-4.06,4.06s1.83,4.06,4.06,4.06h69.95c2.24,0,4.06-1.83,4.06-4.06Z"/>
  <path d="M334.92,167.14v21.11c0,2.91-2.38,5.3-5.3,5.3s-5.3-2.39-5.3-5.3v-25.28l.65,.26v25.02c0,2.57,2.08,4.65,4.65,4.65s4.67-2.08,4.67-4.65v-21.35l.64,.24Z"/>
  <polygon points="334.92 151.17 334.92 167.14 334.29 166.89 334.29 153.63 334.92 151.17"/>
  <path d="M334.92,112.04v39.13l-.64,2.46v-41.59c0-2.57-2.1-4.65-4.67-4.65s-4.65,2.08-4.65,4.65v28.12c-.17-.33-.4-.64-.65-.93v-27.19c0-2.93,2.38-5.3,5.3-5.3s5.3,2.38,5.3,5.3Z"/>
  <polygon points="334.29 153.63 334.29 166.89 324.97 163.23 324.97 152.1 333.79 155.56 334.29 153.63"/>
  <path d="M332.87,252.97c.41,1,.48,2.08,.24,3.12-.21-.14-.4-.28-.59-.43,.05-.24,.07-.48,.07-.72,0-.59-.1-1.17-.33-1.72-.5-1.17-1.41-2.1-2.6-2.55l-.4-.83c.09,.03,.19,.05,.28,.09,1.52,.46,2.72,1.58,3.32,3.05Z"/>
  <path d="M333.11,256.09c-.1,.46-.26,.91-.5,1.34-.93,1.72-2.74,2.76-4.63,2.76-.48,0-.96-.07-1.43-.21-11.61-3.38-21.82-11.5-27.35-21.75-.09-.17-.26-.28-.45-.28h-.02c-.19,0-.36,.1-.45,.26-.88,1.57-1.88,3.1-2.98,4.56-.02-.1-.05-.19-.09-.28l-.17-.46c1-1.33,1.88-2.7,2.67-4.13,.21-.38,.59-.6,1.02-.6h.02c.43,0,.83,.24,1.03,.62,.95,1.77,2.05,3.48,3.27,5.1v.03c.38,1.74,1.58,3.1,3.13,3.72,5.51,5.82,12.69,10.3,20.53,12.59,2.05,.59,4.29-.34,5.32-2.24,.26-.46,.41-.96,.48-1.46,.19,.15,.38,.29,.59,.43Z"/>
  <path d="M332.6,254.93c0,.24-.02,.48-.07,.72-.55-.46-1.02-1.07-1.34-1.76l-1.52-3.24c1.19,.45,2.1,1.38,2.6,2.55,.22,.55,.33,1.14,.33,1.72Z"/>
  <path d="M331.62,40.06v6.87c0,1.55-.62,2.96-1.64,3.98l-.6-.33c.98-.91,1.58-2.22,1.58-3.65v-7.22l.65,.34Z"/>
  <path d="M331.62,5.7V40.06l-.65-.34V5.7c0-2.79-2.27-5.05-5.05-5.05s-5.05,2.26-5.05,5.05v15.72c-.21-.07-.43-.12-.65-.15V5.7c0-3.15,2.55-5.7,5.7-5.7s5.7,2.55,5.7,5.7Z"/>
  <path d="M330.96,39.71v7.22c0,1.43-.6,2.74-1.58,3.65l-8.51-4.51v-11.73l10.09,5.37Z"/>
  <path d="M329.98,50.91c-1.03,1.05-2.48,1.7-4.06,1.7-3.15,0-5.7-2.55-5.7-5.68v-1.21l.65,.34v.86c0,2.77,2.26,5.05,5.05,5.05,1.34,0,2.57-.53,3.46-1.39l.6,.33Z"/>
  <path d="M329.67,250.66c-.1-.05-.21-.09-.31-.12-6.29-1.96-11.81-5.25-16.1-9.32l-.05-.31-.17-.81c4.24,4.24,9.83,7.68,16.24,9.73l.4,.83Z"/>
  <path d="M328.05,60.59c2.62,2.6,3.94,5.73,3.94,9.3,0,10.59-11.5,16.93-30.79,16.93-12.95,0-22.42-2.67-27.42-7.72-2.55-2.57-3.82-5.67-3.79-9.23-.03-3.51,1.26-6.61,3.84-9.2,5.01-5.05,14.76-7.78,27.37-7.73,12.3-.03,21.84,2.65,26.85,7.65Zm3.31,9.3c0-3.39-1.27-6.37-3.75-8.83-4.89-4.87-14.28-7.51-26.4-7.46h-.45c-12.23,0-21.61,2.67-26.45,7.53-2.46,2.46-3.69,5.41-3.65,8.75-.03,3.39,1.19,6.34,3.6,8.78,4.79,4.84,14.36,7.51,26.95,7.51,18.87,0,30.16-6.08,30.16-16.27Z"/>
  <path d="M324.97,140.17c.83,1.5,.88,3.38,0,4.96v-4.96Z"/>
  <polygon points="324.97 152.1 324.97 163.23 324.31 162.97 324.31 151.84 324.97 152.1"/>
  <path d="M324.97,145.13v6.97l-.65-.26v-5.56l.6-1.05,.05-.1Z"/>
  <path d="M324.97,140.17v4.96l-.05,.1-.6,1.05v-7.04c.26,.29,.48,.6,.65,.93Z"/>
  <path d="M320.87,21.42c2.36,.72,3.94,3.07,3.63,5.58-.26,2.08-1.74,3.72-3.63,4.31v-9.89Z"/>
  <path d="M324.31,151.84v11.13l-6.39-2.51v-22.32c.77-.43,1.64-.65,2.51-.65s1.77,.22,2.58,.69c.5,.29,.95,.65,1.29,1.07v7.04l-2.62,4.53,2.62,1.03Z"/>
  <path d="M320.87,34.34v11.73l-.65-.34v-11.69c.21,.09,.4,.17,.59,.28l.07,.03Z"/>
  <path d="M320.87,31.31v3.03l-.07-.03c-.19-.1-.38-.19-.59-.28v-2.55c.22-.05,.45-.1,.65-.17Z"/>
  <path d="M320.87,21.42v9.89c-.21,.07-.43,.12-.65,.17v-10.21c.22,.03,.45,.09,.65,.15Z"/>
  <path d="M320.22,34.03v11.69l-4.27-2.27c-.59-.31-1.08-.72-1.5-1.21-.07,.02-.14,.05-.21,.07,.98-2,.53-4.43-1.19-5.92-5.42-4.67-7.85-11.09-8.82-17.12l15.76,1.96c.07,.02,.15,.02,.22,.03v10.21c-.48,.09-.98,.1-1.5,.03l-5.84-.72,3.13,2.48c.28,.22,.52,.45,.72,.71,1.12-.36,2.34-.38,3.48,.05Z"/>
  <path d="M317.92,160.45v23.68c0,2.93-2.38,5.32-5.3,5.32s-5.3-2.39-5.3-5.32v-12.4c0-.24-.21-.46-.46-.46h-9.76c-2.43,0-4.43-1.98-4.43-4.43s2-4.43,4.43-4.43h9.76c.26,0,.46-.21,.46-.46v-5.67l.65,.26v5.41c0,.62-.5,1.12-1.12,1.12h-9.76c-2.08,0-3.77,1.69-3.77,3.77s1.69,3.79,3.77,3.79h9.76c.62,0,1.12,.5,1.12,1.1v12.4c0,2.57,2.08,4.67,4.65,4.67s4.67-2.1,4.67-4.67v-23.92l.64,.24Z"/>
  <path d="M317.92,138.13v22.32l-.64-.24v-21.66c.21-.17,.41-.31,.64-.41Z"/>
  <path d="M317.92,113.61v24.52c-.22,.1-.43,.24-.64,.41v-24.94c0-2.57-2.1-4.65-4.67-4.65s-4.65,2.08-4.65,4.65v30.48l-.65-.31v-30.17c0-2.93,2.38-5.3,5.3-5.3s5.3,2.38,5.3,5.3Z"/>
  <path d="M317.29,138.55v21.66l-9.32-3.67v-12.45l4.43,2.1,3.55-6.13c.36-.62,.81-1.12,1.34-1.52Z"/>
  <path d="M301.2,61.34c12.99,0,19.86,2.94,19.86,8.54s-7.04,8.42-19.86,8.52c-13.26-.1-20.25-3.05-20.25-8.52s6.99-8.54,20.25-8.54Zm0,16.41c12.38-.1,19.2-2.89,19.2-7.87,0-6.53-10.44-7.89-19.2-7.89-12.83,0-19.62,2.72-19.62,7.89,0,6.72,12.3,7.82,19.62,7.87Z"/>
  <path d="M313.05,36.39c1.72,1.5,2.17,3.93,1.19,5.92-.28,.07-.57,.14-.84,.17,1.17-1.81,.86-4.18-.77-5.6-2.38-2.07-4.2-4.44-5.58-6.99-1.86-3.43-2.93-7.13-3.48-10.69l.67,.07c.96,6.03,3.39,12.45,8.82,17.12Z"/>
  <path d="M314.24,42.31c-.15,.33-.34,.64-.59,.93l-.05,.07c-.86,1.1-2.14,1.79-3.53,1.91-.14,0-.29,.02-.43,.02-1.22,0-2.38-.45-3.29-1.26-3.43-3.07-6.11-7.25-7.97-12.45-1.17,3.39-3.15,6.56-4.98,9.25-1.7,2.51-4.18,3.96-6.82,3.96s-5.15-1.46-6.85-4c-1.15-1.67-2.43-3.69-3.51-5.87,.17-.14,.33-.31,.46-.5,1.1,2.22,2.41,4.29,3.58,6.01,1.6,2.36,3.89,3.7,6.32,3.7s4.7-1.34,6.29-3.67c1.95-2.89,4.1-6.35,5.18-10.01l.15-.52c.09-.02,.17-.05,.26-.09l.21,.6c1.84,5.51,4.56,9.92,8.13,13.09,.88,.79,2.03,1.17,3.22,1.07,1.21-.1,2.32-.71,3.07-1.65l.07-.07c.09-.12,.17-.24,.24-.36,.28-.03,.57-.1,.84-.17Z"/>
  <path d="M312.62,36.89c1.64,1.41,1.95,3.79,.77,5.6-1.33,.14-2.7-.21-3.81-1.08l-3.51-2.79c-1.29-1.02-1.96-2.53-1.96-4.06,0-1.12,.36-2.26,1.12-3.2,.43-.55,.96-.98,1.55-1.31l.26-.14c1.38,2.55,3.2,4.93,5.58,6.99Z"/>
  <path d="M313.26,241.22c.4,2.67-1.36,5.25-4.05,5.82-1.05,.22-2.1,.12-3.01-.28-1.12-1.21-2.17-2.45-3.13-3.75l-3.63-17.14c-.09-.36-.12-.72-.12-1.08,0-2.39,1.69-4.55,4.1-5.06,.14-.02,.26-.05,.4-.05,.14,.46,.21,.96,.21,1.48v.79c-.05,6.89,3.46,13.78,9.25,19.27Z"/>
  <path d="M313.21,240.91l.05,.31c-5.79-5.49-9.3-12.38-9.25-19.27v-.79c0-.52-.07-1.02-.21-1.48,.22-.03,.43-.05,.65-.05,.14,.5,.21,1,.21,1.53v.79c-.05,6.44,3.1,12.9,8.37,18.15l.17,.81Z"/>
  <path d="M309.56,223.73l3.48,16.38c-5.27-5.25-8.42-11.71-8.37-18.15v-.79c0-.53-.07-1.03-.21-1.53,2.41-.02,4.58,1.65,5.1,4.1Z"/>
  <polygon points="307.97 144.09 307.97 156.54 307.32 156.29 307.32 143.78 307.97 144.09"/>
  <path d="M307.32,143.78v12.5l-2.07-.81c-.84-.33-1.55-.88-2.1-1.53,.24-.53,.36-1.12,.36-1.72,0-.14,0-.29-.02-.43-.12-1.17-.69-2.22-1.58-2.94-.93-.74-2.07-1.07-3.24-.93-5.18,.6-10.85,.98-16.38,1.22l.41-1.58c.15-.59,.41-1.12,.72-1.6l-3.15-.12,.03-.95c.38,.02,.77,.02,1.15,.02,7.82,0,14.14-3.41,17.22-8.75h.14c2.84,.1,5.08,2.51,4.98,5.36,0,.19-.02,.4-.05,.59l3.56,1.69Z"/>
  <path d="M307.04,29.9l-.26,.14-7.04-.88c-.4,.28-.81,.5-1.27,.65l-.12-.38-.14,.46c-.36,.1-.74,.17-1.12,.21l-6.8,.43h-.15c2.43-5.25,3.31-11.23,3.53-16.29l1.52-.15c2.84-.28,5.39,1.83,5.65,4.65,.02,.05,.02,.09,.02,.12l2.72,.34c.55,3.56,1.62,7.27,3.48,10.69Z"/>
  <path d="M304.23,19.27l-.67-.07c-.43-2.74-.57-5.37-.53-7.75v-1.07c0-2.57-2.1-4.65-4.67-4.65s-4.65,2.08-4.65,4.65v1.08c0,.88-.02,1.81-.05,2.77l-.65,.05c.03-.98,.05-1.93,.05-2.82v-1.08c0-2.93,2.38-5.3,5.3-5.3s5.3,2.38,5.3,5.3v1.08c-.02,2.38,.12,5.05,.57,7.8Z"/>
  <path d="M304.46,219.63c-.22,0-.43,.02-.65,.05-.65-2.22-2.7-3.86-5.13-3.86-2.94,0-5.34,2.39-5.34,5.34v.79c-.03,3.15-.79,6.32-2.17,9.33l-.33-.88c1.17-2.76,1.83-5.61,1.84-8.46v-.79c0-3.29,2.69-5.99,5.99-5.99,2.76,0,5.11,1.91,5.79,4.46Z"/>
  <path d="M303.49,151.79c.02,.14,.02,.29,.02,.43,0,.6-.12,1.19-.36,1.72-.17-.21-.33-.43-.45-.67,.14-.45,.19-.93,.14-1.43-.09-.98-.57-1.88-1.34-2.5s-1.76-.9-2.74-.79c-5.27,.6-11.04,.98-16.64,1.22l.17-.64c5.53-.24,11.19-.62,16.38-1.22,1.17-.14,2.31,.19,3.24,.93,.9,.72,1.46,1.77,1.58,2.94Z"/>
  <path d="M303.06,243.01c.96,1.31,2.01,2.55,3.13,3.75-1.55-.62-2.76-1.98-3.13-3.72v-.03Z"/>
  <path d="M302.84,151.84c.05,.5,0,.98-.14,1.43-.07-.09-.12-.19-.17-.29l-2.17-1.03-1.27,2.69c-.28,.59-.64,1.08-1.08,1.5-1.91,.28-3.96,.53-6.15,.77-.28-.14-.52-.33-.74-.52l-.15,.6c-1.31,.14-2.69,.26-4.12,.38-.57,.05-1.02,.53-1.02,1.12v7.78c-.1-.02-.19-.03-.29-.07l-9.02-2.36v-4.68c0-.29-.12-.59-.33-.79-.22-.21-.48-.33-.79-.33h-.03c-4.05,.14-8.13,.22-11.78,.26h-.03c-2,0-3.72-1.48-4.01-3.44-.19-1.17,.14-2.36,.91-3.27,.77-.9,1.89-1.41,3.07-1.41h1.55l15.9,4.13,1.17-4.53c5.6-.24,11.37-.62,16.64-1.22,.98-.1,1.96,.17,2.74,.79s1.26,1.52,1.34,2.5Z"/>
  <path d="M302.7,153.27c.12,.24,.28,.46,.45,.67-.55,1.31-1.76,2.31-3.25,2.55-.98,.15-2,.31-3.05,.46,.43-.21,.81-.5,1.15-.83,.62-.09,1.21-.19,1.79-.28,1.41-.24,2.53-1.26,2.91-2.58Z"/>
  <path d="M300.74,128.35c0,2.88-.72,5.51-2.05,7.8l-.69-.03c1.36-2.24,2.08-4.87,2.08-7.77,0-9.2-7.82-15.88-18.62-15.88-5.96,0-11.16,1.93-14.62,5.44-2.79,2.81-4.24,6.42-4.2,10.44-.02,2.34,.46,4.55,1.41,6.53l-.76-.02c-.88-1.98-1.33-4.18-1.31-6.51-.03-4.18,1.48-7.96,4.39-10.9,3.6-3.63,8.96-5.63,15.09-5.63,11.16,0,19.27,6.96,19.27,16.53Z"/>
  <path d="M298,136.12l.69,.03c-3.08,5.34-9.4,8.75-17.22,8.75-.38,0-.77,0-1.15-.02-5.67-.24-10.59-2.2-13.95-5.6-1.31-1.31-2.32-2.79-3.07-4.43l.76,.02c.67,1.45,1.6,2.77,2.77,3.94,3.46,3.5,8.66,5.42,14.64,5.42,7.58,0,13.57-3.12,16.53-8.13Z"/>
  <path d="M298.34,29.43l.12,.38c-.09,.03-.17,.07-.26,.09l.14-.46Z"/>
  <path d="M290.61,135.84l7.39,.28c-2.96,5.01-8.96,8.13-16.53,8.13-5.98,0-11.18-1.93-14.64-5.42-1.17-1.17-2.1-2.5-2.77-3.94l11,.41c1.67,1.12,3.86,1.74,6.41,1.79,2.74-.05,5.06-.81,6.75-2.15,.43,.07,.88,.21,1.29,.4l1.1,.52Z"/>
  <path d="M298,156.13c-.34,.33-.72,.62-1.15,.83-1.19,.15-2.43,.31-3.72,.46-.33-.09-.64-.19-.95-.34-.12-.05-.22-.1-.33-.17,2.19-.24,4.24-.5,6.15-.77Z"/>
  <path d="M295.31,242.77c.15,.48,.22,.98,.22,1.48,0,2.12-1.33,4.12-3.43,4.89-.91,.33-1.86,.38-2.74,.19,2.2-2,4.22-4.2,5.94-6.56Z"/>
  <path d="M295.23,242.5c.03,.09,.07,.17,.09,.28-1.72,2.36-3.74,4.56-5.94,6.56-.26-.03-.5-.1-.74-.19,2.41-2.14,4.58-4.53,6.42-7.11l.17,.46Z"/>
  <path d="M296.85,156.96c-1.12,.6-2.45,.79-3.72,.46,1.29-.15,2.53-.31,3.72-.46Z"/>
  <path d="M291.16,231.29l3.89,10.75c-1.84,2.58-4.01,4.98-6.42,7.11-1.41-.5-2.6-1.6-3.15-3.12l-1.7-4.68c3.2-3,5.73-6.42,7.39-10.06Z"/>
  <path d="M293.01,14.29l.65-.05c-.22,5.06-1.1,11.04-3.53,16.29-.24,.02-.48,.02-.71,0,2.46-5.2,3.36-11.19,3.58-16.24Z"/>
  <path d="M280.9,15.47l12.11-1.17c-.22,5.05-1.12,11.04-3.58,16.24-2.46-.26-4.48-2.29-4.63-4.84-.02-.07,0-.14-.02-.21l-2.88,.29-.02,.02c-1-3.43-1.5-6.96-1.72-10.2,.24-.07,.48-.12,.74-.14Z"/>
  <path d="M292.18,157.08c.31,.15,.62,.26,.95,.34-.77,.09-1.55,.17-2.36,.24l.19-.67c.31-.03,.6-.07,.9-.09,.1,.07,.21,.12,.33,.17Z"/>
  <path d="M292.02,161.21c0,.43-.05,.86-.17,1.29-.64,2.45-2.94,4.03-5.37,3.86v-7.87c0-.24,.19-.45,.43-.46,1.33-.1,2.62-.22,3.86-.36l-.03,.14c.81,.93,1.29,2.14,1.29,3.41Z"/>
  <path d="M290.84,230.41l.33,.88c-1.65,3.63-4.18,7.06-7.39,10.06l-.22-.65c3.24-3.08,5.73-6.6,7.28-10.28Z"/>
  <path d="M290.96,156.99l-.19,.67c-1.24,.14-2.53,.26-3.86,.36-.24,.02-.43,.22-.43,.46v7.87c-.22-.02-.43-.03-.65-.09v-7.78c0-.59,.45-1.07,1.02-1.12,1.43-.12,2.81-.24,4.12-.38Z"/>
  <path d="M288.85,224.95l1.98,5.46c-1.55,3.69-4.05,7.2-7.28,10.28l-4.43-12.21c-.98-2.69,.41-5.67,3.1-6.63,2.67-.98,5.67,.41,6.63,3.1Z"/>
  <path d="M289.42,30.53c.22,.02,.46,.02,.71,0-.71,1.55-1.55,3.03-2.55,4.41-.24,.33-.62,.53-1.03,.53s-.79-.21-1.03-.53c-1.89-2.6-3.22-5.56-4.15-8.63,.19-.17,.36-.34,.52-.52,.91,3.12,2.24,6.13,4.15,8.77,.12,.15,.31,.26,.52,.26s.38-.1,.5-.26c.91-1.26,1.7-2.62,2.38-4.03Z"/>
  <path d="M288.99,122.48c1.55,1.52,2.38,3.55,2.38,5.87,0,2.77-1.15,5.05-3.15,6.58-.33-.07-.64-.1-.95-.09,2.19-1.39,3.44-3.65,3.44-6.49,0-2.14-.76-4.01-2.17-5.41-1.67-1.64-4.17-2.5-7.08-2.46h-.24c-5.42,0-9.11,3.13-9.21,7.89,.07,3.19,1.72,5.67,4.49,6.97l-1.45-.05c-2.29-1.52-3.63-3.93-3.69-6.92,.1-5.15,4.05-8.54,9.83-8.54h.26c3.07-.05,5.73,.9,7.53,2.65Z"/>
  <path d="M288.63,249.15c.24,.09,.48,.15,.74,.19-1.05,.98-2.15,1.91-3.31,2.77l-.1-.26-.15-.36c.96-.72,1.91-1.52,2.82-2.34Z"/>
  <path d="M287.27,134.85c.31-.02,.62,.02,.95,.09-1.69,1.34-4.01,2.1-6.75,2.15-2.55-.05-4.74-.67-6.41-1.79l1.45,.05c1.39,.67,3.07,1.05,4.96,1.08,2.31-.03,4.29-.6,5.8-1.58Z"/>
  <path d="M286.48,166.36v15.03c0,2.93-2.38,5.32-5.3,5.32s-5.3-2.39-5.3-5.32v-17.7l.64,.15v17.55c0,2.58,2.1,4.67,4.67,4.67s4.65-2.08,4.65-4.67v-15.12c.22,.05,.43,.07,.65,.09Z"/>
  <path d="M286.06,252.11c.95,2.55-.28,5.44-2.79,6.54-2.07,.9-4.39,.33-5.86-1.26,3.07-1.45,5.98-3.24,8.65-5.29Z"/>
  <path d="M285.96,251.85l.1,.26c-2.67,2.05-5.58,3.84-8.65,5.29-.15-.14-.31-.33-.41-.52,3.12-1.46,6.08-3.27,8.8-5.39l.15,.36Z"/>
  <path d="M282.07,242.86l3.74,8.63c-2.72,2.12-5.68,3.93-8.8,5.39-.22-.29-.41-.6-.55-.93l-.57-1.33c.22-.72,.28-1.5,.14-2.27-.12-.74-.4-1.41-.81-2.01-.15-.84-.52-1.64-1.08-2.31,2.91-1.45,5.58-3.19,7.94-5.17Z"/>
  <path d="M284.55,135.64c.81-.5,1.76-.77,2.72-.79-1.52,.98-3.5,1.55-5.8,1.58-1.89-.03-3.56-.41-4.96-1.08l8.04,.29Z"/>
  <path d="M283.55,240.69l.22,.65c-.55,.53-1.12,1.03-1.7,1.52l-.26-.6c.6-.52,1.19-1.03,1.74-1.57Z"/>
  <path d="M282.29,149.14l-.17,.64c-6.15,.26-12.11,.34-17.07,.4l-2.26-.59c.22-.05,.46-.07,.71-.07,5.29-.03,11.93-.1,18.79-.38Z"/>
  <path d="M281.81,242.26l.26,.6c-2.36,1.98-5.03,3.72-7.94,5.17-.12-.17-.28-.34-.45-.5,3-1.46,5.73-3.25,8.13-5.27Z"/>
  <path d="M277.64,232.61l4.17,9.64c-2.39,2.01-5.13,3.81-8.13,5.27-.36-.34-.79-.65-1.26-.88l-4.29-9.92c-1.14-2.6,.09-5.67,2.69-6.8,2.62-1.14,5.68,.09,6.82,2.69Z"/>
  <path d="M280.16,15.6c.22,3.24,.72,6.77,1.72,10.2-.15,.17-.33,.34-.52,.52-1.07-3.53-1.6-7.18-1.83-10.52,.19-.09,.4-.15,.62-.19Z"/>
  <path d="M279.54,15.79c.22,3.34,.76,6.99,1.83,10.52-.5,.41-1.1,.76-1.77,.96l-2.67,.83c.45,.62,.76,1.36,.9,2.17,.24,1.52-.21,3-1.14,4.1-.65-1.36-1.24-2.79-1.64-4.24l-.29-1.05-.33,1.03c-.77,2.32-1.69,4.44-2.76,6.37l-3.48,.55c-.46,1.12-1.31,2.07-2.46,2.65l-5.84,2.93c-1.26-1.77-1-4.29,.65-5.77,5.39-4.84,7.8-11.49,8.82-17.26l7.16-2.22c.33-.1,.69-.17,1.03-.21,.53-.6,1.21-1.08,1.98-1.38Z"/>
  <path d="M280.31,144.89l-.03,.95-18.1-.65c-2.77-.1-4.99-2.41-4.99-5.17v-.19c.1-2.86,2.53-5.1,5.37-4.99l.74,.03c.74,1.64,1.76,3.12,3.07,4.43,3.36,3.39,8.28,5.36,13.95,5.6Z"/>
  <path d="M280.04,11.47c0,1.29,.03,2.69,.12,4.13-.22,.03-.43,.1-.62,.19-.12-1.52-.15-2.98-.15-4.32v-1.08c0-2.57-2.08-4.65-4.65-4.65s-4.67,2.08-4.67,4.65v1.08c0,2.19-.15,5.03-.71,8.13l-.71,.22c.6-3.19,.76-6.11,.76-8.35v-1.08c0-2.93,2.39-5.3,5.3-5.3s5.32,2.38,5.32,5.3v1.08Z"/>
  <path d="M277.01,256.88c.1,.19,.26,.38,.41,.52-2.12,1.02-4.32,1.86-6.56,2.53-2.39,.71-4.98-.38-6.13-2.6-.14-.26-.26-.53-.33-.83,.41,.62,.96,1.14,1.6,1.5,1.14,1.27,2.96,1.81,4.67,1.31,2.17-.65,4.29-1.46,6.34-2.43Z"/>
  <path d="M276.51,159.16v4.68l-.64-.15v-4.53c0-.12-.05-.24-.15-.33-.09-.09-.19-.12-.33-.14-4.08,.14-8.15,.22-11.8,.26h-.05c-2.31,0-4.31-1.72-4.67-4-.21-1.36,.19-2.74,1.07-3.79,.74-.86,1.76-1.43,2.86-1.58l2.26,.59h-1.55c-1.17,0-2.29,.52-3.07,1.41-.77,.91-1.1,2.1-.91,3.27,.29,1.96,2.01,3.44,4.01,3.44h.03c3.65-.03,7.73-.12,11.78-.26h.03c.31,0,.57,.12,.79,.33,.21,.21,.33,.5,.33,.79Z"/>
  <path d="M276.68,34.37c-.14,.19-.29,.36-.46,.5-.59-1.15-1.1-2.36-1.52-3.6-.64,1.83-1.38,3.53-2.22,5.1l-.81,.12c1.07-1.93,1.98-4.05,2.76-6.37l.33-1.03,.29,1.05c.4,1.45,.98,2.88,1.64,4.24Z"/>
  <path d="M276.02,252.35c.14,.77,.09,1.55-.14,2.27l-2.67-6.13c.31-.15,.62-.31,.91-.46,.57,.67,.93,1.46,1.08,2.31,.41,.6,.69,1.27,.81,2.01Z"/>
  <path d="M273.22,248.49l2.67,6.13c-.52,1.86-2.07,3.36-4.1,3.7l-2.24,.38c-1.27,.21-2.53-.07-3.55-.71-.29-.29-.52-.62-.71-.98-.62-1.19-.69-2.6-.17-3.86,.52-1.26,1.57-2.2,2.84-2.62,1.81-.59,3.56-1.27,5.25-2.05Z"/>
  <path d="M275.87,159.16v4.53l-22.65-5.91c-.69-.17-1.29-.48-1.83-.9v-8.25c1.22-.91,2.84-1.29,4.43-.88l6.97,1.83c-1.1,.15-2.12,.72-2.86,1.58-.88,1.05-1.27,2.43-1.07,3.79,.36,2.27,2.36,4,4.67,4h.05c3.65-.03,7.72-.12,11.8-.26,.14,.02,.24,.05,.33,.14,.1,.09,.15,.21,.15,.33Z"/>
  <path d="M274.7,31.27c.41,1.24,.93,2.45,1.52,3.6-.72,.69-1.65,1.17-2.7,1.33l-1.03,.17c.84-1.57,1.58-3.27,2.22-5.1Z"/>
  <path d="M273.68,247.53c.17,.15,.33,.33,.45,.5-.29,.15-.6,.31-.91,.46l-.26-.6c.24-.1,.48-.22,.72-.36Z"/>
  <path d="M273.68,247.53c-.24,.14-.48,.26-.72,.36l-.53-1.24c.46,.22,.9,.53,1.26,.88Z"/>
  <path d="M272.96,247.89l.26,.6c-1.69,.77-3.44,1.46-5.25,2.05-1.27,.41-2.32,1.36-2.84,2.62-.52,1.26-.45,2.67,.17,3.86,.19,.36,.41,.69,.71,.98-.64-.36-1.19-.88-1.6-1.5-.4-1.17-.34-2.43,.12-3.58,.6-1.43,1.77-2.53,3.25-3,1.79-.57,3.53-1.26,5.18-2.03Z"/>
  <path d="M272.43,246.65l.53,1.24c-1.65,.77-3.39,1.46-5.18,2.03-1.48,.46-2.65,1.57-3.25,3-.46,1.15-.52,2.41-.12,3.58-.31-.43-.53-.93-.69-1.45l-12.28-1.7v-13.61l20.3,6.61c.24,.09,.46,.17,.69,.29Z"/>
  <path d="M271.67,36.49l.81-.12c-1.57,2.94-3.48,5.44-5.68,7.49-1.02,.93-2.36,1.39-3.75,1.27-1.41-.14-2.72-.84-3.58-1.98-.05-.07-.12-.15-.15-.24l.59-.29c.02,.05,.05,.09,.09,.14,.76,.98,1.89,1.62,3.12,1.72,1.22,.1,2.38-.29,3.25-1.1,2.07-1.89,3.84-4.18,5.32-6.89Z"/>
  <path d="M268.65,19.82l.71-.22c-1.02,5.77-3.43,12.42-8.82,17.26-1.65,1.48-1.91,4-.65,5.77l-.59,.29c-1.39-2.03-1.07-4.87,.81-6.54,5.17-4.62,7.53-10.95,8.54-16.55Z"/>
  <path d="M262.82,21.63l5.84-1.81c-1.02,5.6-3.38,11.93-8.54,16.55-1.88,1.67-2.2,4.51-.81,6.54l-2.46,1.22c-1.52,.74-3.22,.69-4.63-.03v-9.25l5.53-2.76c.15-1.36,.84-2.6,1.88-3.44-.09-.19-.15-.36-.21-.55-.84-2.72,.69-5.63,3.41-6.48Z"/>
  <path d="M248.76,285.35c2.55,0,4.63,2.07,4.63,4.62s-2.08,4.63-4.63,4.63h-58.17c-.64,0-1.15-.53-1.15-1.17v-19.37c0-3.15,2.57-5.7,5.7-5.7s5.7,2.55,5.7,5.7v10.78c0,.28,.22,.52,.5,.52h47.43Zm3.98,4.62c0-2.19-1.79-3.98-3.98-3.98h-47.43c-.64,0-1.15-.52-1.15-1.15v-10.78c0-2.79-2.26-5.06-5.05-5.06s-5.05,2.27-5.05,5.06v19.37c0,.29,.22,.52,.5,.52h58.17c2.19,0,3.98-1.79,3.98-3.98Z"/>
  <path d="M252.21,44.1v38.47c0,3.08-2.51,5.6-5.61,5.6s-5.6-2.51-5.6-5.6v-7.82c.21-.02,.43-.03,.65-.07v7.89c0,2.72,2.22,4.94,4.94,4.94s4.96-2.22,4.96-4.94V43.73c.21,.15,.43,.28,.65,.38Z"/>
  <path d="M252.21,34.86v9.25c-.22-.1-.45-.22-.65-.38v-8.47c.21-.14,.41-.28,.65-.4Z"/>
  <path d="M252.21,6.77v28.09c-.24,.12-.45,.26-.65,.4V6.77c0-2.72-2.22-4.94-4.96-4.94s-4.94,2.22-4.94,4.94V63.75l-.65,.24V6.77c0-3.08,2.51-5.6,5.6-5.6s5.61,2.51,5.61,5.6Z"/>
  <path d="M251.4,168.39c.79,1.53,.74,3.31,0,4.77v-4.77Z"/>
  <path d="M251.55,35.25v8.47c-.69-.46-1.27-1.12-1.67-1.91-1.15-2.31-.4-5.11,1.67-6.56Z"/>
  <path d="M251.43,253.35v16.21c0,3.13-2.55,5.68-5.7,5.68s-5.7-2.55-5.7-5.68v-1.64c0-.05-.03-.1-.09-.1h-12.68c-2.22,0-4.03-1.81-4.03-4.03s1.81-4.05,4.03-4.05h12.68c.05,0,.09-.03,.09-.09v-7.9l.65,.09v7.82c0,.41-.33,.74-.74,.74h-12.68c-1.86,0-3.38,1.53-3.38,3.39s1.52,3.39,3.38,3.39h12.68c.41,0,.74,.33,.74,.74v1.64c0,2.77,2.27,5.05,5.05,5.05s5.05-2.27,5.05-5.05v-16.31l.65,.1Z"/>
  <polygon points="251.43 239.74 251.43 253.35 250.78 253.24 250.78 239.52 251.43 239.74"/>
  <path d="M251.43,215.24v24.51l-.65-.22v-24.28c0-2.79-2.26-5.05-5.05-5.05s-5.05,2.26-5.05,5.05v20.41l-.65-.26v-20.15c0-3.15,2.57-5.7,5.7-5.7s5.7,2.55,5.7,5.7Z"/>
  <path d="M251.4,173.16v12c0,3.1-2.51,5.61-5.61,5.61s-5.6-2.51-5.6-5.61v-5.82c.21,.05,.43,.09,.65,.12v5.7c0,2.74,2.22,4.96,4.94,4.96s4.96-2.22,4.96-4.96v-11.06c.26-.29,.46-.62,.65-.95Z"/>
  <path d="M251.4,168.39v4.77c-.19,.33-.4,.65-.65,.95v-6.72c.14,.15,.26,.31,.36,.48,.12,.17,.21,.34,.29,.52Z"/>
  <path d="M251.4,156.89v11.5c-.09-.17-.17-.34-.29-.52-.1-.17-.22-.33-.36-.48v-11.09c.21,.21,.41,.41,.65,.59Z"/>
  <path d="M251.4,148.64v8.25c-.24-.17-.45-.38-.65-.59v-7.08c.21-.21,.43-.41,.65-.59Z"/>
  <path d="M251.4,109.37v39.27c-.22,.17-.45,.38-.65,.59v-39.85c0-2.74-2.22-4.96-4.96-4.96s-4.94,2.22-4.94,4.96v59.12l-.65,.43v-59.55c0-3.1,2.51-5.6,5.6-5.6s5.61,2.5,5.61,5.6Z"/>
  <path d="M250.78,239.52v13.73l-10.09-1.41v-16.19l1.6,.59h1.27c1.81-.02,3.41,.93,4.34,2.36l2.88,.93Z"/>
  <path d="M250.74,167.39v6.72c-.31,.36-.65,.67-1.07,.95l-5.37,3.58c-1.05,.71-2.29,.96-3.46,.83v-10.97l3.08-2.07c2.2-1.46,5.17-1.02,6.82,.96Z"/>
  <path d="M250.74,149.23v7.08c-1.17-1.26-1.69-3.07-1.22-4.84,.22-.86,.65-1.62,1.22-2.24Z"/>
  <path d="M248.64,66.72c.98,2.69-.41,5.67-3.08,6.65l-2.96,1.08c-.31,.1-.64,.19-.95,.24v-10.94l.34-.12c2.67-.98,5.67,.41,6.65,3.08Z"/>
  <path d="M241.65,63.75v10.94c-.22,.03-.45,.05-.65,.07v-10.76l.65-.24Z"/>
  <path d="M241,64v10.76c-2.17,.07-4.25-1.24-5.05-3.39-.98-2.67,.41-5.67,3.08-6.65l1.96-.72Z"/>
  <path d="M240.84,168.5v10.97c-.22-.03-.45-.07-.65-.12v-10.42l.65-.43Z"/>
  <polygon points="240.69 235.64 240.69 251.83 240.03 251.75 240.03 235.39 240.69 235.64"/>
  <path d="M240.19,168.93v10.42c-1.21-.29-2.32-1.03-3.07-2.15-1.57-2.38-.93-5.6,1.45-7.18l1.62-1.08Z"/>
  <path d="M240.03,235.39v16.36l-5.51-.77c.05-.31,.05-.64,.03-.96-.09-1.15-.62-2.19-1.52-2.91-.88-.74-2-1.08-3.15-.96-15.21,1.6-32.12,1.93-46.65,2.05-.22,0-.45,.02-.67,.07,.52-.48,.93-1.08,1.21-1.79,.24-.62,.34-1.24,.34-1.86,0-2.08-1.26-4.05-3.29-4.86l-3.39-1.33,5.34-.15c-.59-.84-.95-1.88-.95-2.96,0-.19,.02-.36,.03-.55,.19-1.84,1.36-3.36,2.93-4.1,1.48,7.87,9.75,12.95,21.46,12.95h.62c7.39,0,13.54-2.08,17.34-5.87,1.95-1.93,3.2-4.25,3.72-6.82l12.11,4.48Z"/>
  <path d="M238.83,156.51c1.33,2.53,.36,5.68-2.15,7.01l-2.32,1.22c.19-.57,.24-1.21,.17-1.84l-.02-.1c-.14-1.24-.77-2.36-1.76-3.12-1-.77-2.24-1.12-3.5-.93-2.24,.31-4.51,.6-6.85,.84,.34-.34,.76-.64,1.21-.88l8.21-4.36c2.51-1.33,5.67-.36,7.01,2.15Z"/>
  <path d="M237.83,54.56c.62,2.34-.46,4.75-2.48,5.87,0-.05-.02-.09-.02-.14l-.02-.09c-.14-1.26-.76-2.36-1.76-3.13-1-.77-2.24-1.1-3.5-.93-3.29,.46-6.66,.84-10.18,1.17,.26-2,1.7-3.77,3.77-4.32l7.84-2.1c2.76-.72,5.61,.91,6.34,3.67Z"/>
  <path d="M235.35,60.43c.19,2.43-1.5,4.58-3.93,4.96-8.27,1.26-16.07,1.88-24.49,2.19,.1-.21,.21-.43,.28-.67,8.28-.31,15.96-.93,24.13-2.15,2-.31,3.41-2.05,3.38-4.03,.22-.09,.43-.19,.64-.29Z"/>
  <path d="M235.33,60.29c0,.05,.02,.09,.02,.14-.21,.1-.41,.21-.64,.29,0-.12-.02-.24-.03-.36l-.02-.09c-.12-1.07-.65-2.03-1.5-2.69-.86-.67-1.93-.95-3.01-.79-3.32,.46-6.75,.86-10.32,1.17,0-.22,.02-.43,.05-.65,3.51-.33,6.89-.71,10.18-1.17,1.26-.17,2.5,.15,3.5,.93,1,.77,1.62,1.88,1.76,3.13l.02,.09Z"/>
  <path d="M234.68,60.36c.02,.12,.03,.24,.03,.36-.17,.07-.34,.12-.53,.17l-7.84,2.1c-.45,.12-.9,.17-1.34,.17-2.27,0-4.39-1.53-4.99-3.84-.12-.45-.17-.91-.17-1.36,3.56-.31,6.99-.71,10.32-1.17,1.08-.15,2.15,.12,3.01,.79,.84,.65,1.38,1.62,1.5,2.69l.02,.09Z"/>
  <path d="M234.55,250.01c.02,.33,.02,.65-.03,.96l-.65-.09c.03-.28,.05-.55,.03-.83-.07-.96-.53-1.84-1.27-2.46s-1.69-.91-2.67-.81c-15.24,1.6-32.17,1.93-46.72,2.05-1.12,.02-2.19,.5-2.91,1.34-.72,.86-1.07,1.98-.91,3.08,.28,1.91,1.93,3.36,3.86,3.36,5.63,0,11.75-.05,18.22-.26h.03c.07,0,.14,0,.21,.02l-10.52,.84c-2.74,.03-5.39,.05-7.94,.05-1.14,0-2.17-.41-2.98-1.12s-1.36-1.69-1.52-2.81c-.19-1.29,.21-2.6,1.05-3.58,.03-.03,.07-.09,.12-.12l.02-.02c.98-.19,1.88-.65,2.6-1.38,.22-.05,.45-.07,.67-.07,14.54-.12,31.45-.45,46.65-2.05,1.15-.12,2.27,.22,3.15,.96,.9,.72,1.43,1.76,1.52,2.91Z"/>
  <path d="M234.52,162.9c.07,.64,.02,1.27-.17,1.84l-.9,.48c.34-.67,.5-1.45,.41-2.26l-.02-.1c-.12-1.07-.65-2.01-1.5-2.69-.86-.65-1.93-.95-3.01-.79-2.45,.34-4.94,.64-7.51,.9,.15-.24,.36-.48,.57-.69,2.34-.24,4.62-.53,6.85-.84,1.26-.19,2.5,.15,3.5,.93,.98,.76,1.62,1.88,1.76,3.12l.02,.1Z"/>
  <path d="M233.87,250.88l.65,.09c-.28,1.79-1.7,3.27-3.58,3.53-4.34,.64-8.97,1.17-13.85,1.57,.33-.22,.62-.46,.86-.74,4.53-.38,8.85-.88,12.9-1.46,1.58-.22,2.77-1.48,3.01-2.98Z"/>
  <path d="M233.45,165.22l.9-.48c-.48,1.67-1.89,2.98-3.74,3.25-7.94,1.21-15.43,1.83-23.46,2.14,.1-.21,.17-.43,.22-.65,5.79-.24,11.31-.64,16.93-1.31,1.31,.46,2.81,.4,4.13-.29l.6-.33c.48-.05,.98-.14,1.48-.21,1.31-.19,2.38-1.02,2.93-2.12Z"/>
  <path d="M233.9,250.06c.02,.28,0,.55-.03,.83l-15.45-2.15c.45,.64,.77,1.36,.91,2.17,.28,1.65-.28,3.29-1.38,4.43-1.46,.14-2.96,.26-4.48,.36-.55,.05-.98,.52-.98,1.07v.55l-.83,.14c-1.74,.29-3.43-.33-4.56-1.5l-5.37,.43c-.07-.02-.14-.02-.21-.02h-.03c-6.48,.21-12.59,.26-18.22,.26-1.93,0-3.58-1.45-3.86-3.36-.15-1.1,.19-2.22,.91-3.08,.72-.84,1.79-1.33,2.91-1.34,14.55-.12,31.48-.45,46.72-2.05,.98-.1,1.93,.19,2.67,.81s1.21,1.5,1.27,2.46Z"/>
  <path d="M233.87,162.97c.09,.81-.07,1.58-.41,2.26l-4.41,2.32c-1.58,.24-3.17,.45-4.74,.62-1.19-.4-2.22-1.24-2.86-2.45-.95-1.79-.74-3.89,.38-5.44,2.57-.26,5.06-.55,7.51-.9,1.08-.15,2.15,.14,3.01,.79,.84,.67,1.38,1.62,1.5,2.69l.02,.1Z"/>
  <path d="M229.04,167.55l-.6,.33c-1.33,.69-2.82,.76-4.13,.29,1.57-.17,3.15-.38,4.74-.62Z"/>
  <path d="M228.18,228.22c0,.91-.09,1.83-.26,2.69l-.62-.24c.15-.79,.22-1.6,.22-2.45,0-3.5-1.33-6.68-3.86-9.18-3.77-3.75-9.85-5.79-17.1-5.73h-.02c-12.69-.1-21.25,5.91-21.35,14.91,.02,.74,.07,1.46,.21,2.15-.22,.09-.41,.17-.62,.28-.15-.77-.22-1.58-.24-2.43,.1-9.33,8.82-15.57,21.72-15.57h.6c7.3,0,13.42,2.1,17.27,5.92,2.65,2.63,4.05,5.96,4.05,9.64Z"/>
  <path d="M227.3,230.67l.62,.24c-.52,2.57-1.77,4.89-3.72,6.82-3.81,3.79-9.95,5.87-17.34,5.87h-.62c-11.71,0-19.98-5.08-21.46-12.95,.21-.1,.4-.19,.62-.28,1.34,7.7,9.52,12.68,21.15,12.57,7.32,.05,13.45-1.96,17.2-5.68,1.86-1.86,3.07-4.1,3.55-6.6Z"/>
  <path d="M218.13,227.27l9.18,3.39c-.48,2.5-1.69,4.74-3.55,6.6-3.75,3.72-9.89,5.73-17.2,5.68-11.62,.1-19.8-4.87-21.15-12.57,.28-.07,.55-.14,.84-.19,1.31-1.67,3.56-2.43,5.68-1.74l2.86,.93c.19,1.27,.74,2.38,1.67,3.34,1.96,2.03,5.55,3.2,10.09,3.25h.02c7.1-.1,11.56-3.07,11.64-7.75,0-.33-.03-.64-.09-.95Z"/>
  <path d="M225.82,10.66v29.16c0,1.02-.84,1.86-1.88,1.86h-27.9c-.67,0-1.22,.55-1.22,1.22v14.28c0,.33,.14,.64,.36,.88,.24,.22,.57,.36,.88,.34h.03v.02c.07,.22,.15,.43,.24,.64h-.28c-.52,0-.98-.19-1.33-.53-.36-.36-.57-.83-.57-1.34v-14.28c0-1.03,.84-1.88,1.88-1.88h27.9c.69,0,1.22-.53,1.22-1.21V10.66c0-.67-.53-1.22-1.22-1.22h-34.79c-2.19,0-3.98,1.79-3.98,3.98s1.79,3.98,3.98,3.98h25.16c1.03,0,1.86,.83,1.86,1.86v12.16c0,1.03-.83,1.86-1.86,1.86h-27.92c-.67,0-1.22,.55-1.22,1.22v31.5c0,.67,.55,1.22,1.22,1.22h2.65c-.05,.21-.09,.41-.09,.64h-2.57c-1.03,0-1.86-.83-1.86-1.86v-31.5c0-1.03,.83-1.86,1.86-1.86h27.92c.67,0,1.22-.55,1.22-1.22v-12.16c0-.67-.55-1.22-1.22-1.22h-25.16c-2.55,0-4.62-2.07-4.62-4.62s2.07-4.63,4.62-4.63h34.79c1.03,0,1.88,.84,1.88,1.88Z"/>
  <path d="M225.01,113.27v29.14c0,1.03-.84,1.88-1.88,1.88h-27.9c-.67,0-1.22,.53-1.22,1.21v14.29c0,.33,.12,.64,.36,.86,.24,.24,.55,.36,.88,.36,1.88-.02,3.7-.05,5.49-.1,0,.22,.05,.45,.1,.65-1.81,.05-3.69,.09-5.6,.1-.5-.02-.98-.19-1.34-.55-.34-.36-.55-.83-.55-1.33v-14.29c0-1.02,.84-1.86,1.88-1.86h27.9c.67,0,1.22-.55,1.22-1.22v-29.14c0-.69-.55-1.22-1.22-1.22h-34.79c-2.19,0-3.98,1.77-3.98,3.96s1.79,3.98,3.98,3.98h25.16c1.03,0,1.86,.84,1.86,1.88v12.14c0,1.03-.83,1.88-1.86,1.88h-27.92c-.67,0-1.22,.55-1.22,1.22v31.48c0,.67,.55,1.22,1.22,1.22h5.17c-.05,.21-.09,.43-.09,.65h-5.08c-1.03,0-1.86-.84-1.86-1.88v-31.48c0-1.03,.83-1.88,1.86-1.88h27.92c.67,0,1.22-.55,1.22-1.22v-12.14c0-.67-.55-1.22-1.22-1.22h-25.16c-2.55,0-4.62-2.08-4.62-4.63s2.07-4.62,4.62-4.62h34.79c1.03,0,1.88,.84,1.88,1.88Z"/>
  <path d="M222.4,159.59c-.21,.21-.41,.45-.57,.69-1.38,.14-2.79,.28-4.22,.4,.31-.21,.6-.45,.86-.71,1.33-.12,2.63-.24,3.93-.38Z"/>
  <path d="M219.88,57.31c-.03,.22-.05,.43-.05,.65-2.17,.19-4.37,.36-6.66,.5l1.22-.38c.34-.1,.65-.24,.95-.43,1.55-.1,3.05-.22,4.55-.34Z"/>
  <path d="M219.49,154.19c.91,2,.43,4.31-1.02,5.79-5.48,.46-11.31,.77-17.72,.93-.21-2.14,.95-4.25,3-5.2l8.87-4.06c2.58-1.19,5.68-.03,6.87,2.55Z"/>
  <path d="M218.47,159.97c-.26,.26-.55,.5-.86,.71-5.2,.43-10.73,.72-16.76,.88-.05-.21-.1-.43-.1-.65,6.41-.15,12.24-.46,17.72-.93Z"/>
  <path d="M218.13,227.27c.05,.31,.09,.62,.09,.95-.09,4.68-4.55,7.65-11.64,7.75h-.02c-4.55-.05-8.13-1.22-10.09-3.25-.93-.96-1.48-2.07-1.67-3.34l.71,.22c.21,1,.69,1.89,1.43,2.65,1.84,1.93,5.27,3.01,9.64,3.07,6.7-.09,10.92-2.82,11-7.1-.02-.43-.07-.83-.15-1.22l.71,.28Z"/>
  <path d="M218.13,227.27l-.71-.28c-.83-3.65-5.01-5.98-10.85-5.87h-.34c-4.08,0-7.32,1.02-9.2,2.91-1.14,1.14-1.7,2.55-1.67,4.18-.02,.48,.03,.95,.14,1.38l-.71-.22c-.07-.36-.09-.76-.09-1.15-.03-1.77,.62-3.39,1.86-4.65,2.05-2.07,5.6-3.15,10.01-3.1,6.39-.12,10.9,2.6,11.56,6.8Z"/>
  <path d="M217.78,51.6c.74,2.38-.33,4.91-2.45,6.06-5.89,.43-12.23,.67-19.24,.74-.84-2.7,.67-5.61,3.39-6.48l11.78-3.72c2.72-.84,5.65,.67,6.51,3.39Z"/>
  <path d="M217.61,160.68c-.21,.14-.43,.28-.67,.38l-8.89,4.06c-.4,.17-.81,.29-1.22,.38,.14,.22,.26,.45,.36,.71,.43,1.08,.48,2.22,.19,3.27-4.96,.21-10.11,.29-15.71,.33h-.91c.33-1.65,1.45-3.12,3.12-3.79l6.56-2.67c.33-.14,.67-.22,1-.29-.09-.15-.17-.33-.26-.48-.15-.33-.26-.67-.33-1.02,6.03-.15,11.56-.45,16.76-.88Z"/>
  <path d="M217.42,227c.09,.4,.14,.79,.15,1.22-.09,4.27-4.31,7.01-11,7.1-4.37-.05-7.8-1.14-9.64-3.07-.74-.76-1.22-1.65-1.43-2.65l6.32,2.07,4.37,.46c-.5-1.17-.57-2.51-.09-3.79,.98-2.67,3.98-4.05,6.65-3.07l4.67,1.72Z"/>
  <path d="M217.95,255.33c-.24,.28-.53,.52-.86,.74-1.17,.1-2.36,.19-3.56,.28-.22,.02-.38,.19-.38,.41v.45l-.65,.1v-.55c0-.55,.43-1.02,.98-1.07,1.52-.1,3.01-.22,4.48-.36Z"/>
  <path d="M213.53,256.34c1.21-.09,2.39-.17,3.56-.28-.59,.4-1.27,.69-2.01,.81l-1.93,.33v-.45c0-.22,.15-.4,.38-.41Z"/>
  <path d="M196.1,58.4c7.01-.07,13.35-.31,19.24-.74-.29,.19-.6,.33-.95,.43l-1.22,.38c-5.2,.33-10.75,.52-16.83,.59-.09-.21-.17-.41-.24-.64v-.02Z"/>
  <path d="M213.17,58.47l-7.92,2.5c.86,.6,1.55,1.45,1.95,2.5,.43,1.15,.4,2.36,.02,3.44-4.65,.19-9.51,.28-14.72,.31h-3.43c.33-1.7,1.52-3.19,3.27-3.82l5.92-2.19c-.81-.5-1.48-1.24-1.91-2.15,6.08-.07,11.62-.26,16.83-.59Z"/>
  <path d="M213.15,257.21v10.09c0,3.08-2.51,5.6-5.61,5.6s-5.6-2.51-5.6-5.6v-9.89c0-.1-.03-.21-.12-.29-.09-.07-.19-.14-.31-.12-3.55,.12-6.99,.19-10.3,.22l10.52-.84c.19,.03,.38,.14,.53,.28,.21,.21,.33,.46,.33,.76v9.89c0,2.74,2.22,4.96,4.94,4.96s4.96-2.22,4.96-4.96v-9.99l.65-.1Z"/>
  <path d="M207.38,169.48c-.05,.22-.12,.45-.22,.65-4.89,.21-9.97,.29-15.48,.33h-1c0-.22,.03-.45,.09-.65h.91c5.6-.03,10.75-.12,15.71-.33Z"/>
  <path d="M207.21,66.91c-.07,.24-.17,.46-.28,.67-4.56,.17-9.32,.24-14.45,.28h-3.51c0-.22,.03-.43,.09-.64h3.43c5.22-.03,10.07-.12,14.72-.31Z"/>
  <path d="M207.16,170.13c-.5,1.24-1.5,2.27-2.82,2.81l-6.56,2.67c-2.63,1.07-5.67-.21-6.75-2.84-.31-.76-.41-1.55-.34-2.31h1c5.51-.03,10.59-.12,15.48-.33Z"/>
  <path d="M206.93,67.58c-.57,1.14-1.55,2.05-2.82,2.51l-8.21,3.01c-2.69,.98-5.67-.4-6.65-3.08-.26-.72-.36-1.46-.28-2.17h3.51c5.13-.03,9.89-.1,14.45-.28Z"/>
  <path d="M191.21,257.22l-19.99,1.6v-11.71l5.84,2.29c.95,.38,1.96,.43,2.89,.24-.05,.03-.09,.09-.12,.12-.84,.98-1.24,2.29-1.05,3.58,.15,1.12,.71,2.1,1.52,2.81s1.84,1.12,2.98,1.12c2.55,0,5.2-.02,7.94-.05Z"/>
  <path d="M184.11,244.6c0,.62-.1,1.24-.34,1.86-.28,.71-.69,1.31-1.21,1.79-1,.15-1.91,.64-2.6,1.38l-.02,.02c-.93,.19-1.95,.14-2.89-.24l-5.84-2.29v-8.52l6.22-.17,3.39,1.33c2.03,.81,3.29,2.77,3.29,4.86Z"/>
  <path d="M182.56,248.25c-.72,.72-1.62,1.19-2.6,1.38,.69-.74,1.6-1.22,2.6-1.38Z"/>
  <path d="M174.85,169.91c2.55,0,4.62,2.07,4.62,4.62s-2.07,4.63-4.62,4.63H104.7c-2.55,0-4.63-2.08-4.63-4.63s2.08-4.62,4.63-4.62h70.14Zm3.96,4.62c0-2.19-1.77-3.98-3.96-3.98H104.7c-2.19,0-3.98,1.79-3.98,3.98s1.79,3.98,3.98,3.98h70.14c2.19,0,3.96-1.79,3.96-3.98Z"/>
  <polygon points="177.43 238.42 171.21 238.59 171.21 235.99 177.43 238.42"/>
  <path d="M173.35,66.39c2.55,0,4.63,2.07,4.63,4.62s-2.08,4.63-4.63,4.63H103.21c-2.55,0-4.62-2.08-4.62-4.63s2.07-4.62,4.62-4.62h70.14Zm3.98,4.62c0-2.19-1.79-3.96-3.98-3.96H103.21c-2.19,0-3.96,1.77-3.96,3.96s1.77,3.98,3.96,3.98h70.14c2.19,0,3.98-1.79,3.98-3.98Z"/>
  <path d="M172.9,288.77c.62,1.27,.65,2.74,.07,4.01-.77,1.72-2.48,2.79-4.31,2.79-.31,0-.62-.03-.95-.1-11.25-2.24-20.75-8.09-26.07-16.05-.07-.1-.15-.15-.28-.15-.1,0-.21,.05-.26,.14-5.41,7.99-14.91,13.85-26.07,16.07-2.17,.45-4.34-.65-5.25-2.69-.57-1.27-.55-2.74,.07-4,.64-1.29,1.79-2.22,3.2-2.55,13.5-3.2,22.63-11.31,22.72-20.18v-.09c0-3.08,2.51-5.6,5.61-5.6s5.6,2.51,5.6,5.6v.09c0,8.85,9.13,16.96,22.73,20.18,1.39,.33,2.55,1.26,3.19,2.53Zm-.53,3.75c.5-1.1,.48-2.38-.05-3.46-.53-1.1-1.55-1.91-2.76-2.19-13.9-3.29-23.23-11.66-23.23-20.82v-.09c0-2.72-2.22-4.94-4.94-4.94s-4.96,2.22-4.96,4.94v.09c-.09,9.18-9.42,17.55-23.23,20.82-1.21,.28-2.2,1.08-2.76,2.19-.53,1.08-.55,2.36-.05,3.46,.77,1.74,2.65,2.69,4.51,2.31,11-2.19,20.36-7.96,25.66-15.79,.19-.26,.5-.43,.81-.43,.33,0,.64,.17,.81,.45,5.24,7.82,14.59,13.57,25.68,15.78,1.88,.38,3.74-.57,4.51-2.31Z"/>
  <path d="M171.21,258.82v1.43c0,2.88-2.34,5.22-5.22,5.22h-.19c-2.88,0-5.22-2.34-5.22-5.22v-3.62c.19,.33,.41,.64,.65,.93v2.69c0,2.51,2.05,4.56,4.56,4.56h.19c2.51,0,4.56-2.05,4.56-4.56v-1.38l.65-.05Z"/>
  <polygon points="171.21 247.11 171.21 258.82 170.56 258.88 170.56 246.87 171.21 247.11"/>
  <polygon points="171.21 238.59 171.21 247.11 170.56 246.87 170.56 238.61 171.21 238.59"/>
  <polygon points="171.21 235.99 171.21 238.59 170.56 238.61 170.56 235.73 171.21 235.99"/>
  <path d="M171.21,213.75v22.23l-.65-.26v-21.97c0-2.51-2.05-4.55-4.56-4.55h-.19c-2.51,0-4.56,2.03-4.56,4.55v14.47c0,.83-.67,1.5-1.5,1.5h-1.7c-.19-.24-.41-.46-.65-.65h2.36c.46,0,.84-.38,.84-.84v-14.47c0-2.88,2.34-5.2,5.22-5.2h.19c2.88,0,5.22,2.32,5.22,5.2Z"/>
  <path d="M171.58,47.84c0,1.14-.36,2.27-1.12,3.22-1.76,2.22-5.05,2.6-7.27,.83l-.36-.29h4.32c1.02,0,1.84-.81,1.84-1.83v-6.49l.64,.5c1.27,1.02,1.95,2.53,1.95,4.06Z"/>
  <path d="M170.56,246.87v12l-5.05,.4c-.14,.02-.28,.02-.41,.02-1.52,0-2.89-.65-3.86-1.72v-6.91c.84-.96,2.07-1.62,3.44-1.72l3.81-.31c-1.62-.62-2.88-2.05-3.2-3.82l5.27,2.07Z"/>
  <path d="M170.56,238.61v8.27l-5.27-2.07c-.07-.28-.1-.57-.1-.86-.09-2.84,2.17-5.24,5.03-5.32l.34-.02Z"/>
  <path d="M170.56,235.73v2.88l-.34,.02c-2.86,.09-5.11,2.48-5.03,5.32,0,.29,.03,.59,.1,.86l-.34-.14c-.07-.03-.14-.07-.19-.09l-3.51,.72v-5.96c0-.83-.67-1.5-1.5-1.5h-6.44c-.83,0-1.5,.67-1.5,1.5v7.89l-3.75,.77c-.36,.07-.71,.1-1.05,.1-1.76,0-3.38-.9-4.32-2.32v-5.65c.72-1.12,1.88-1.98,3.29-2.27l3.7-.76-6.99-2.15v-10.83l9.13,2.81v1.29c0,.83,.67,1.5,1.5,1.5h4.74c1.1,1.31,1.55,3.12,1.02,4.86-.07,.22-.15,.45-.26,.65l5.98-1.24c1.67-.34,3.32,.17,4.51,1.24l1.27,.5Z"/>
  <path d="M170.47,114.54v38.75c0,1-.81,1.83-1.83,1.83h-2.2c.17-.21,.33-.41,.46-.65h1.74c.65,0,1.19-.52,1.19-1.17v-38.75c0-2.72-2.22-4.94-4.96-4.94s-4.94,2.22-4.94,4.94v8.08c0,1-.83,1.83-1.84,1.83h-24.33l-.83-.65h25.16c.65,0,1.19-.52,1.19-1.17v-8.08c0-3.08,2.51-5.6,5.6-5.6s5.6,2.51,5.6,5.6Z"/>
  <path d="M168.99,43.28v6.49c0,1.02-.83,1.83-1.84,1.83h-4.32l-.81-.64h5.13c.65,0,1.19-.53,1.19-1.19v-7.01l.65,.52Z"/>
  <path d="M168.99,11.02V43.28l-.65-.52V11.02c0-2.72-2.22-4.94-4.94-4.94s-4.96,2.22-4.96,4.94v8.08c0,1.02-.83,1.83-1.83,1.83h-20.42l-1.02-.65h21.44c.65,0,1.17-.52,1.17-1.17V11.02c0-3.08,2.51-5.6,5.61-5.6s5.6,2.51,5.6,5.6Z"/>
  <path d="M168.34,42.76v7.01c0,.65-.53,1.19-1.19,1.19h-5.13l-9.78-7.75h4.25c1.07,0,1.95-.88,1.95-1.96v-6.34l9.9,7.85Z"/>
  <path d="M166.12,148.17c1.7,1.7,1.96,4.31,.79,6.29h-9.14l-7.75-7.75h7.96c1.08,0,1.96-.88,1.96-1.95v-2.77l6.18,6.18Z"/>
  <path d="M157.76,154.46h9.14c-.14,.24-.29,.45-.46,.65h-8.03l-.65-.65Z"/>
  <path d="M166.44,155.12c-.1,.14-.21,.26-.33,.38-2,2.01-5.3,2.01-7.32,0l-.38-.38h8.03Z"/>
  <path d="M162.83,51.6h-53.8c-1.02,0-1.84-.81-1.84-1.83v-4.31l.65,.24v4.06c0,.65,.53,1.19,1.19,1.19h52.99l.81,.64Z"/>
  <path d="M161.24,250.66v6.91c-.24-.29-.46-.6-.65-.93v-5.06c.17-.33,.4-.64,.65-.91Z"/>
  <path d="M161.24,245.31v5.36c-.26,.28-.48,.59-.65,.91v-6.13l.65-.14Z"/>
  <path d="M161.24,239.35v5.96l-.65,.14v-6.1c0-.46-.38-.84-.84-.84h-6.44c-.48,0-.86,.38-.86,.84v7.77l-.64,.12v-7.89c0-.83,.67-1.5,1.5-1.5h6.44c.83,0,1.5,.67,1.5,1.5Z"/>
  <path d="M160.59,251.57v5.06c-.36-.64-.59-1.34-.65-2.12-.09-1.07,.15-2.07,.65-2.94Z"/>
  <path d="M160.59,239.35v6.1l-8.15,1.67v-7.77c0-.46,.38-.84,.86-.84h6.44c.46,0,.84,.38,.84,.84Z"/>
  <path d="M159.93,141.99v2.77c0,1.07-.88,1.95-1.96,1.95h-7.96l-.64-.64h8.59c.72,0,1.31-.59,1.31-1.31v-3.43l.65,.65Z"/>
  <path d="M159.93,133.95v8.04l-.65-.65v-7.39c0-.71-.59-1.29-1.31-1.29h-7.35l-.65-.65h8.01c1.08,0,1.96,.88,1.96,1.95Z"/>
  <path d="M159.28,141.34v3.43c0,.72-.59,1.31-1.31,1.31h-8.59l-.12-.12c-.09,.05-.17,.09-.26,.12h-4.43c-.34-.15-.67-.36-.98-.6l-9.82-7.78c-.03,.67-.19,1.34-.48,1.98-1.21,2.58-4.31,3.69-6.89,2.48l-6.53-3.07v-5.13c0-.71,.59-1.29,1.31-1.29h29.43l8.66,8.68Z"/>
  <path d="M158.44,34.91v6.34c0,1.08-.88,1.96-1.95,1.96h-4.25l-.83-.65h5.08c.71,0,1.29-.59,1.29-1.31v-6.85l.65,.52Z"/>
  <path d="M158.44,30.45v4.46l-.65-.52v-3.94c0-.72-.59-1.31-1.29-1.31h-5.34l-.83-.65h6.17c1.07,0,1.95,.88,1.95,1.96Z"/>
  <path d="M158.42,155.12h-47.91c-1.02,0-1.83-.83-1.83-1.83v-2.69l.64,.33v2.36c0,.65,.53,1.17,1.19,1.17h47.26l.65,.65Z"/>
  <path d="M158.04,229.72h-4.74c-.83,0-1.5-.67-1.5-1.5v-1.29l.64,.19v1.1c0,.46,.38,.84,.86,.84h4.08c.24,.19,.46,.41,.65,.65Z"/>
  <path d="M157.78,34.39v6.85c0,.72-.59,1.31-1.29,1.31h-5.08l-2.57-2.03c-.86-.05-1.7-.31-2.46-.81l-13.02-8.3c.57,1.31,.6,2.82-.03,4.2-1.19,2.6-4.27,3.74-6.87,2.55l-8.08-3.7v-4.01c0-.72,.59-1.31,1.31-1.31h31.46l6.63,5.25Z"/>
  <path d="M157.38,229.07h-4.08c-.48,0-.86-.38-.86-.84v-1.1l3.19,.98c.67,.21,1.26,.53,1.76,.96Z"/>
  <path d="M152.44,247.11v5.92c0,2.86-2.32,5.2-5.2,5.2s-5.22-2.34-5.22-5.2v-8.71c.14,.53,.36,1.02,.65,1.46v7.25c0,2.5,2.05,4.55,4.56,4.55s4.56-2.05,4.56-4.55v-5.8l.64-.12Z"/>
  <path d="M152.44,215.32v11.8l-.64-.19v-11.61c0-2.51-2.05-4.56-4.56-4.56s-4.56,2.05-4.56,4.56v8.8l-.65-.21v-8.59c0-2.88,2.34-5.2,5.22-5.2s5.2,2.32,5.2,5.2Z"/>
  <path d="M152.24,43.21h-30.31c0-.22-.03-.43-.07-.65h29.55l.83,.65Z"/>
  <path d="M151.15,29.14h-31.46c-.72,0-1.31,.59-1.31,1.31v4.01l-.64-.29v-3.72c0-1.08,.88-1.96,1.95-1.96h30.64l.83,.65Z"/>
  <path d="M150.62,132.66h-29.43c-.72,0-1.31,.59-1.31,1.29v5.13l-.65-.31v-4.82c0-1.07,.88-1.95,1.96-1.95h28.78l.65,.65Z"/>
  <path d="M150.32,28.48h-30.64c-1.07,0-1.95,.88-1.95,1.96v3.72l-9.9-4.53v-11.4l17.29,7.92-3.1-1.98c-1.19-.76-1.98-1.95-2.27-3.25h16.43l7.8,4.98c1.48-.33,3.08,0,4.34,1l2,1.58Z"/>
  <path d="M150.01,146.71h-28.83c-.81,0-1.52-.5-1.81-1.19-.1-.24-.15-.5-.15-.76v-5.99l.65,.31v5.68c0,.72,.59,1.31,1.31,1.31h23.39c1.41,.67,3.05,.65,4.43,0h.38l.64,.64Z"/>
  <path d="M149.96,132h-28.78c-1.08,0-1.96,.88-1.96,1.95v4.82l-9.9-4.65v-11.45l13.55,6.37-1.93-1.53c-1.7-1.34-2.32-3.58-1.72-5.56v.67c0,1,.83,1.83,1.84,1.83h12.69l8.49,6.73c2.03-1.79,5.15-1.72,7.1,.21l.62,.62Z"/>
  <path d="M144.57,146.07h4.43c-1.38,.65-3.01,.67-4.43,0Z"/>
  <path d="M142.68,240.14v5.65c-.29-.45-.52-.93-.65-1.46v-2.74c.14-.52,.36-1,.65-1.45Z"/>
  <path d="M142.68,234.95v5.18c-.29,.45-.52,.93-.65,1.45v-6.82l.65,.19Z"/>
  <polygon points="142.68 224.12 142.68 234.95 142.02 234.77 142.02 223.92 142.68 224.12"/>
  <path d="M142.02,241.59v2.74c-.03-.1-.07-.22-.09-.33-.17-.83-.12-1.64,.09-2.41Z"/>
  <path d="M142.02,223.92v10.85l-2.27-.71c-.12,.05-.24,.12-.38,.15l-.79,.29c-.28,.36-.6,.69-.98,.95v-.21c.03-4.22-.96-8.15-2.88-11.45,1.26-.9,2.91-1.22,4.49-.74l2.81,.86Z"/>
  <path d="M137.6,235.25v.22c-.21,.15-.41,.29-.65,.43v-.65c.03-4.06-.91-7.85-2.74-11.02,.15-.17,.33-.31,.52-.43,1.91,3.31,2.91,7.23,2.88,11.45Z"/>
  <path d="M136.94,235.9c.24-.14,.45-.28,.65-.43,0,6.13-2.12,11.61-5.96,15.45-3.6,3.6-8.52,5.56-13.92,5.56h-.38c-5.42,0-10.37-1.96-13.93-5.53-.38-.38-.74-.77-1.08-1.19l.6-.29c.29,.36,.62,.71,.95,1.03,3.48,3.48,8.35,5.36,13.66,5.32,5.29,.07,10.13-1.86,13.64-5.37,3.63-3.63,5.67-8.77,5.77-14.55Z"/>
  <path d="M136.94,235.25v.65c-.72,.4-1.57,.62-2.45,.62h-1.64l-5.11,1.81c.19-.96,.28-2,.28-3.08,0-3.69-1.15-6.91-3.25-9.09h6.32l2.15-.76c.26-.45,.59-.84,.96-1.17,1.83,3.17,2.77,6.96,2.74,11.02Z"/>
  <path d="M136.18,20.92h-16.43c-.03-.21-.07-.43-.09-.65h15.5l1.02,.65Z"/>
  <path d="M135.17,20.27h-15.5c-.1-1.1,.14-2.24,.77-3.24,1.53-2.41,4.75-3.12,7.16-1.58l7.56,4.82Z"/>
  <path d="M134.72,223.8c-.19,.12-.36,.26-.52,.43-.79-1.41-1.77-2.7-2.91-3.86-3.51-3.55-8.4-5.49-13.74-5.49s-10.3,1.93-13.79,5.46c-.9,.91-1.7,1.91-2.41,3-.12-.17-.28-.33-.45-.46,.69-1.08,1.5-2.08,2.39-3,3.62-3.65,8.68-5.65,14.26-5.65s10.56,2.01,14.21,5.7c1.15,1.15,2.14,2.46,2.96,3.87Z"/>
  <path d="M133.76,124.44h-12.69c-1.02,0-1.84-.83-1.84-1.83v-.67c.14-.48,.36-.95,.65-1.39v2.07c0,.65,.53,1.17,1.19,1.17h11.87l.83,.65Z"/>
  <path d="M132.93,123.79h-11.87c-.65,0-1.19-.52-1.19-1.17v-2.07c.07-.1,.14-.21,.22-.31,1.77-2.24,5.05-2.62,7.28-.84l5.55,4.39Z"/>
  <path d="M128.02,235.25c0,1.08-.09,2.12-.28,3.08l-.71,.24c.22-1.03,.34-2.15,.34-3.32,0-3.63-1.17-6.77-3.27-8.83-.09-.09-.19-.19-.29-.26h.95c2.1,2.19,3.25,5.41,3.25,9.09Z"/>
  <path d="M127.04,238.57l.71-.24c-1.03,5.63-4.94,9.35-10.2,9.35-2.62,0-4.89-.84-6.65-2.34l.46-.24c.05-.02,.09-.05,.14-.09h.05c1.62,1.31,3.67,2.03,5.99,2.03,4.8,0,8.42-3.36,9.49-8.47Z"/>
  <path d="M127.38,235.25c0,1.17-.12,2.29-.34,3.32l-2.14,.76c.19,.65,.26,1.34,.17,2.05-.33,2.82-2.91,4.87-5.75,4.55l-7.77-.91c-2.55-2.01-4.05-5.46-4.05-9.76,0-1.52,.21-2.94,.6-4.24l3.32-1.91c.84-1.74,2.62-2.94,4.67-2.94h7.72c.1,.07,.21,.17,.29,.26,2.1,2.07,3.27,5.2,3.27,8.83Z"/>
  <path d="M124.77,226.15h-.95c-1.69-1.55-3.86-2.36-6.27-2.31h-.19c-2.6,0-4.87,.91-6.61,2.62-1.21,1.19-2.1,2.74-2.63,4.55l-.81,.48c.53-2.19,1.55-4.08,3-5.49,1.89-1.88,4.39-2.84,7.25-2.79,2.72-.07,5.15,.9,7.03,2.74,.07,.07,.14,.14,.19,.21Z"/>
  <path d="M121.93,43.21c.02,.09,.02,.19,.02,.28,0,.59-.1,1.19-.31,1.77-.98,2.67-3.96,4.06-6.63,3.08l-7.16-2.63v-11.02l9.9,3.63v2.93c0,1.08,.88,1.96,1.95,1.96h2.24Z"/>
  <path d="M121.93,43.21h-2.24c-1.07,0-1.95-.88-1.95-1.96v-2.93l.64,.22v2.7c0,.72,.59,1.31,1.31,1.31h2.17c.03,.22,.07,.43,.07,.65Z"/>
  <path d="M121.86,42.55h-2.17c-.72,0-1.31-.59-1.31-1.31v-2.7l.17,.07c1.79,.65,3,2.2,3.31,3.94Z"/>
  <path d="M119.88,114.54v6.01c-.29,.45-.52,.91-.65,1.39v-7.41c0-2.72-2.22-4.94-4.94-4.94s-4.96,2.22-4.96,4.94v8.13l-.64-.29v-7.84c0-3.08,2.51-5.6,5.6-5.6s5.6,2.51,5.6,5.6Z"/>
  <path d="M119.76,20.92h-.19c-1.02,0-1.83-.81-1.83-1.83V11.02c0-2.72-2.22-4.94-4.96-4.94s-4.94,2.22-4.94,4.94v7.22l-.65-.31v-6.91c0-3.08,2.51-5.6,5.6-5.6s5.6,2.51,5.6,5.6v8.08c0,.65,.53,1.17,1.19,1.17h.1c.02,.22,.05,.45,.09,.65Z"/>
  <path d="M118.91,145.7c.52,1.33,.48,2.84-.21,4.2-1.29,2.53-4.43,3.55-6.97,2.26l-2.41-1.22v-11.64l7.11,3.63c1.19,.6,2.05,1.62,2.48,2.77Z"/>
  <polygon points="118.38 34.46 118.38 38.54 117.74 38.32 117.74 34.17 118.38 34.46"/>
  <path d="M111.56,245.01h-.05c-.05,.03-.09,.07-.14,.09l-.46,.24c-2.55-2.15-4.05-5.7-4.05-10.09,0-1.33,.15-2.58,.45-3.75l.81-.48c-.4,1.29-.6,2.72-.6,4.24,0,4.31,1.5,7.75,4.05,9.76Z"/>
  <path d="M110.9,245.34l-7.97,4.13c-2.86-3.34-4.51-7.77-4.75-12.71l9.13-5.27c-.29,1.17-.45,2.43-.45,3.75,0,4.39,1.5,7.94,4.05,10.09Z"/>
  <polygon points="109.32 139.29 109.32 150.93 108.68 150.6 108.68 138.98 109.32 139.29"/>
  <polygon points="109.32 134.12 109.32 139.29 108.68 138.98 108.68 133.83 109.32 134.12"/>
  <polygon points="109.32 122.67 109.32 134.12 108.68 133.83 108.68 122.38 109.32 122.67"/>
  <path d="M108.68,138.98v11.62l-15.6-7.96c-2.55-1.29-3.56-4.43-2.27-6.97,1.29-2.53,4.43-3.55,6.97-2.26l10.9,5.56Z"/>
  <path d="M108.68,122.38v11.45l-7.8-3.67c-2.58-1.22-3.7-4.32-2.48-6.89,1.21-2.58,4.31-3.7,6.89-2.5l3.39,1.6Z"/>
  <polygon points="107.84 34.68 107.84 45.71 107.18 45.47 107.18 34.44 107.84 34.68"/>
  <polygon points="107.84 29.64 107.84 34.68 107.18 34.44 107.18 29.33 107.84 29.64"/>
  <polygon points="107.84 18.24 107.84 29.64 107.18 29.33 107.18 17.93 107.84 18.24"/>
  <path d="M107.18,34.44v11.02l-11.85-4.34c-2.1-.76-3.39-2.76-3.39-4.86,0-.59,.1-1.19,.31-1.77,.98-2.69,3.96-4.06,6.63-3.08l8.3,3.03Z"/>
  <path d="M107.18,17.93v11.4l-6.35-2.91c-2.58-1.19-3.74-4.27-2.55-6.87,1.19-2.58,4.27-3.74,6.87-2.55l2.03,.93Z"/>
  <path d="M102.93,249.47l-.6,.29c-2.82-3.34-4.48-7.73-4.79-12.64l.64-.36c.24,4.94,1.89,9.37,4.75,12.71Z"/>
  <path d="M102.64,226.74c0,.59-.1,1.21-.33,1.79-.65,1.77-2.2,2.98-3.96,3.29,.41-3.15,1.45-6.03,3-8.49,.83,.93,1.29,2.15,1.29,3.41Z"/>
  <path d="M102.33,249.77l-6.32,3.27c-.29-2.12-2.1-3.75-4.29-3.75h-6.37c.24-1.57,1.21-3.01,2.72-3.79l5.55-2.86c-.09-1.88,.84-3.74,2.57-4.72l1.36-.79c.31,4.91,1.96,9.3,4.79,12.64Z"/>
  <path d="M100.9,222.87c.17,.14,.33,.29,.45,.46-1.55,2.46-2.58,5.34-3,8.49-.21,.03-.43,.07-.65,.07,.41-3.34,1.5-6.41,3.2-9.02Z"/>
  <path d="M99.26,221.87c.62,.22,1.17,.57,1.64,1-1.7,2.62-2.79,5.68-3.2,9.02-.67,.05-1.38-.05-2.05-.31l-8.04-3.01c-.15-2.72-1.26-5.1-3.27-7.11-4.7-4.68-14.16-7.15-27.35-7.15h-1.07c-4.31,0-8.2,.26-11.68,.77l-.1-2.29c-.05-.26-.07-.53-.07-.83,0-2.84,2.32-5.17,5.18-5.17h8.56c.72,0,1.39,.14,2.01,.41l14.05,1.96c2.57,.36,4.44,2.6,4.44,5.13l4.31,.29c1.77,.14,3.27,1.15,4.12,2.58l12.52,4.68Z"/>
  <path d="M98.38,49.53v.26c-.14,2.84-2.58,5.06-5.42,4.93l-4.94-.24v-10.37l5.44,.26c2.76,.14,4.93,2.45,4.93,5.17Z"/>
  <path d="M97.69,231.89c.22,0,.45-.03,.65-.07-.15,1.1-.22,2.26-.21,3.43,0,.52,0,1.02,.03,1.52l-.64,.36c-.03-.62-.05-1.24-.05-1.88-.02-1.14,.05-2.26,.21-3.36Z"/>
  <path d="M96.04,253.62v.38c0,2.39-1.95,4.34-4.32,4.34H21.18c-2.39,0-4.32-1.95-4.32-4.34v-.38c0-2.39,1.93-4.34,4.32-4.34h28.93c.29,0,.53-.24,.53-.55v-3.87c0-.29-.22-.52-.5-.55-14.26-.98-22.94-5.24-24.87-12.07l.64-.15c1.89,6.54,10.35,10.63,24.27,11.59,.64,.03,1.12,.57,1.12,1.19v3.87c0,.67-.53,1.21-1.19,1.21H21.18c-2.03,0-3.67,1.65-3.67,3.69v.38c0,2.03,1.64,3.69,3.67,3.69H91.72c2.01,0,3.67-1.65,3.67-3.69v-.38c0-.09,0-.17-.02-.26l.64-.33c.02,.19,.03,.38,.03,.59Z"/>
  <path d="M96.01,253.04l-.64,.33c-.12-1.91-1.72-3.43-3.65-3.43h-6.42c0-.22,.02-.43,.05-.65h6.37c2.19,0,4,1.64,4.29,3.75Z"/>
  <path d="M95.37,253.36l-2.55,1.33c-2.53,1.31-5.67,.31-6.97-2.22-.41-.81-.6-1.69-.55-2.53h6.42c1.93,0,3.53,1.52,3.65,3.43Z"/>
  <path d="M88.96,148.81c2.03,.96,3.27,3.19,2.89,5.51-.28,1.76-1.41,3.17-2.89,3.86v-9.37Z"/>
  <path d="M88.96,158.18v27.09c0,2.98-2.43,5.41-5.41,5.41s-5.41-2.43-5.41-5.41v-27.92l.65,.1v27.81c0,2.62,2.14,4.75,4.75,4.75s4.75-2.14,4.75-4.75v-26.83c.22-.07,.43-.15,.65-.26Z"/>
  <path d="M88.96,148.81v9.37c-.22,.1-.43,.19-.65,.26v-9.87c.22,.07,.45,.15,.65,.24Z"/>
  <path d="M88.96,109.27v39.54c-.21-.09-.43-.17-.65-.24v-39.3c0-2.62-2.14-4.75-4.75-4.75s-4.75,2.14-4.75,4.75v37.7l-.65-.1v-37.59c0-2.98,2.43-5.41,5.41-5.41s5.41,2.43,5.41,5.41Z"/>
  <path d="M88.62,295.04v.19c0,2.39-1.95,4.32-4.34,4.32H27.22c-.65,0-1.19-.53-1.19-1.19v-20.34c0-.65,.53-1.19,1.19-1.19h47.31c.29,0,.53-.26,.53-.55v-3.93c0-.29-.24-.55-.53-.55H30.36c-2.38,0-4.32-1.93-4.32-4.32s1.95-4.32,4.32-4.32h54.71c.67,0,1.21,.53,1.21,1.19v19.36c0,.65-.53,1.21-1.21,1.21H37.78c-.31,0-.55,.24-.55,.53v4.72c0,.29,.24,.53,.55,.53h46.5c2.39,0,4.34,1.95,4.34,4.34Zm-.65,.19v-.19c0-2.03-1.65-3.69-3.69-3.69H37.78c-.65,0-1.21-.53-1.21-1.19v-4.72c0-.65,.55-1.19,1.21-1.19h47.29c.31,0,.55-.24,.55-.55v-19.36c0-.31-.24-.55-.55-.55H30.36c-2.01,0-3.67,1.65-3.67,3.69s1.65,3.69,3.67,3.69h44.17c.65,0,1.19,.53,1.19,1.19v3.93c0,.65-.53,1.19-1.19,1.19H27.22c-.29,0-.53,.26-.53,.55v20.34c0,.29,.24,.55,.53,.55h57.06c2.03,0,3.69-1.65,3.69-3.69Z"/>
  <path d="M88.31,148.57v9.87c-.76,.24-1.55,.31-2.38,.17l-7.13-1.15v-10.49l8.78,1.43c.24,.03,.5,.1,.72,.17Z"/>
  <path d="M88.02,54.47v28.21c0,2.98-2.43,5.39-5.41,5.39s-5.41-2.41-5.41-5.39v-28.73l.65,.03v28.69c0,2.62,2.14,4.75,4.75,4.75s4.75-2.14,4.75-4.75v-28.24l.65,.03Z"/>
  <polygon points="88.02 44.1 88.02 54.47 87.36 54.44 87.36 44.07 88.02 44.1"/>
  <path d="M88.02,6.68V44.1l-.65-.03V6.68c0-2.63-2.14-4.75-4.75-4.75s-4.75,2.12-4.75,4.75v25.56c-.21-.1-.43-.21-.65-.26V6.68c0-2.98,2.43-5.41,5.41-5.41s5.41,2.43,5.41,5.41Z"/>
  <path d="M87.6,228.57c.03,.24,.03,.48,.03,.72,0,8.66-8.97,14-25.26,15.03-.29,.02-.52,.26-.52,.53v3.87c0,.31,.24,.55,.53,.55h22.96c-.03,.22-.05,.43-.05,.65h-22.9c-.65,0-1.19-.53-1.19-1.21v-3.87c0-.62,.5-1.15,1.12-1.19,15.91-1,24.66-6.11,24.66-14.38,0-.33-.02-.65-.05-.96l.67,.24Z"/>
  <path d="M87.6,228.57l-.67-.24c-.21-2.45-1.24-4.6-3.07-6.41-4.63-4.62-14.12-6.99-27.42-6.96-19.55-.09-30.84,5.13-30.93,14.33,0,.98,.14,1.91,.4,2.79l-.64,.15c-.28-.93-.41-1.91-.41-2.94,.09-7.44,6.99-12.4,19.37-14.21,3.48-.52,7.37-.77,11.68-.77h1.07c13.19,0,22.65,2.46,27.35,7.15,2.01,2.01,3.12,4.39,3.27,7.11Z"/>
  <polygon points="87.36 44.07 87.36 54.44 77.86 53.99 77.86 43.62 87.36 44.07"/>
  <path class="cls-1" d="M87.36,6.68V44.07l-9.51-.45v-2.07c1.76-.83,2.96-2.6,2.96-4.67,0-1.43-.59-2.7-1.53-3.65-.41-.41-.9-.76-1.43-1V6.68c0-2.63,2.14-4.75,4.75-4.75s4.75,2.12,4.75,4.75Z"/>
  <path d="M86.93,228.32l-3.84-1.45c-1.07-.4-1.93-1.12-2.51-2.03l-7.03-.5c-.6-.03-1.15-.19-1.67-.4-1.95-.84-3.25-2.82-3.13-5.05l-8.15-1.14c-.24,2.05-1.7,3.77-3.69,4.36h-.46c-13.38,0-20.46,2.48-20.46,7.16v.12l-2.86-.12c-.72,.9-1.72,1.57-2.91,1.83l-4.31,.96c-.26-.88-.4-1.81-.4-2.79,.09-9.2,11.38-14.41,30.93-14.33,13.3-.03,22.78,2.34,27.42,6.96,1.83,1.81,2.86,3.96,3.07,6.41Z"/>
  <path d="M79.28,33.24c.95,.95,1.53,2.22,1.53,3.65,0,2.07-1.21,3.84-2.96,4.67v-9.32c.53,.24,1.02,.59,1.43,1Z"/>
  <polygon points="78.8 146.97 78.8 157.46 78.15 157.35 78.15 146.87 78.8 146.97"/>
  <polygon points="78.15 146.87 78.15 157.35 71.38 156.27 71.38 145.76 78.15 146.87"/>
  <polygon points="77.86 43.62 77.86 53.99 77.2 53.96 77.2 43.59 77.86 43.62"/>
  <path d="M77.86,41.56v2.07l-.65-.03v-1.77c.22-.05,.45-.15,.65-.26Z"/>
  <path d="M77.86,32.24v9.32c-.21,.1-.43,.21-.65,.26v-9.83c.22,.05,.45,.15,.65,.26Z"/>
  <polygon points="77.2 43.59 77.2 53.96 70.43 53.63 70.43 43.28 77.2 43.59"/>
  <path d="M77.2,31.98v9.83c-.5,.17-1.02,.26-1.57,.26h-5.2v-10.35h5.2c.55,0,1.07,.09,1.57,.26Z"/>
  <path d="M76.7,229.31c.02,1.29-.45,2.45-1.38,3.41-2.6,2.65-8.78,3.93-18.87,3.93-13.66,0-20.36-2.36-20.46-7.23l.65,.03c.15,4.36,6.82,6.56,19.8,6.56,9.78,0,15.96-1.27,18.41-3.75,.83-.84,1.21-1.81,1.19-2.96,.02-1-.34-1.91-1.12-2.69-2.45-2.5-8.83-3.82-18.48-3.82-2.82,0-5.37,.1-7.63,.34-.02-.1-.05-.19-.09-.28l7.1-.52c.38-.02,.74-.09,1.08-.21,6.61,.03,11.61,.67,14.93,1.91,1.55,.59,2.72,1.29,3.55,2.12,.9,.91,1.33,1.96,1.31,3.15Z"/>
  <path d="M74.1,139.94v.19c-.09,1.88-1.17,3.5-2.72,4.34v-9.09c1.62,.9,2.72,2.62,2.72,4.56Z"/>
  <path d="M71.38,156.27v24.9c0,2.98-2.43,5.41-5.41,5.41s-5.41-2.43-5.41-5.41v-26.66l.65,.1v26.56c0,2.62,2.12,4.75,4.75,4.75s4.75-2.14,4.75-4.75v-25.02l.65,.12Z"/>
  <polygon points="71.38 145.76 71.38 156.27 70.73 156.15 70.73 145.66 71.38 145.76"/>
  <path d="M71.38,144.47v1.29l-.65-.1v-.9c.22-.07,.45-.17,.65-.29Z"/>
  <path d="M71.38,135.38v9.09c-.21,.12-.43,.22-.65,.29v-9.68c.22,.09,.45,.19,.65,.29Z"/>
  <path d="M71.38,110.84v24.54c-.21-.1-.43-.21-.65-.29v-24.25c0-2.62-2.14-4.75-4.75-4.75s-4.75,2.14-4.75,4.75v23.63l-.65-.02v-23.61c0-2.98,2.43-5.41,5.41-5.41s5.41,2.43,5.41,5.41Z"/>
  <path d="M70.73,145.66v10.49l-9.51-1.53v-8.37c0-.74-.62-1.34-1.36-1.34h-5.92c-.93,0-1.69,.71-1.76,1.64-.14,1.86-.34,3.63-.65,5.32-.81-.93-1.29-2.15-1.29-3.44,0-.26,.02-.53,.07-.81,.21-1.26,.86-2.34,1.77-3.12l-8.87-.33c.02-.86,.03-1.74,.03-2.65,0-5.48-.57-10.01-1.65-13.43l8.09-1.6c.24-.05,.48-.09,.71-.09,.77,2.62,1.34,5.56,1.65,8.78,.1,1.02,.95,1.77,1.96,1.77h5.56c.91,0,1.65-.74,1.65-1.65v-.83l7.89,.29c.57,.02,1.12,.14,1.62,.33v9.68c-.62,.26-1.29,.36-2,.34l-1.84-.07,3.84,.62Z"/>
  <path d="M70.43,53.63v24.94c0,2.98-2.43,5.41-5.41,5.41s-5.41-2.43-5.41-5.41v-25.47c.1,.02,.21,.03,.31,.03l.34,.02v25.42c0,2.63,2.14,4.75,4.75,4.75s4.75-2.12,4.75-4.75v-24.97l.65,.03Z"/>
  <polygon points="70.43 43.28 70.43 53.63 69.78 53.59 69.78 43.24 70.43 43.28"/>
  <polygon points="70.43 42.07 70.43 43.28 69.78 43.24 69.78 42.07 70.43 42.07"/>
  <rect x="69.78" y="31.72" width=".65" height="10.35"/>
  <path d="M70.43,8.23V31.72h-.65V8.23c0-2.62-2.14-4.75-4.75-4.75s-4.75,2.14-4.75,4.75V26.9c-.22,0-.43,.02-.65,.05V8.23c0-2.98,2.43-5.41,5.41-5.41s5.41,2.43,5.41,5.41Z"/>
  <path class="cls-1" d="M69.78,53.59v24.97c0,2.63-2.14,4.75-4.75,4.75s-4.75-2.12-4.75-4.75v-25.42l9.51,.45Z"/>
  <path d="M69.78,43.24v10.35l-9.51-.45v-9.49c0-.33-.12-.64-.31-.86h.46l9.35,.45Z"/>
  <path class="cls-1" d="M69.78,42.07v1.17l-9.35-.45h-.46c-.24-.31-.62-.5-1.05-.5h-5.92c-.91,0-1.69,.72-1.76,1.64-1.17,15.98-8.06,25.52-18.44,25.52-7.89,0-13.79-6.08-16.55-16.29l8.78-1.76c1.48,5.53,4.15,8.54,7.77,8.54,2.84,0,7.23-1.76,8.87-11.88l3.65-.72c2.51-.52,4.24-2.79,4.15-5.27h20.32Z"/>
  <path d="M69.78,31.72v10.35h-20.32c.09,2.48-1.64,4.75-4.15,5.27l-3.65,.72c.4-2.5,.64-5.53,.64-9.16s-.24-6.7-.71-9.4l8.9-1.26c.26,1.38,.45,2.82,.6,4.32,.1,1.02,.95,1.79,1.98,1.79h5.55c.91,0,1.65-.74,1.65-1.65v-5.8c2.57-.02,4.82,1.86,5.18,4.46,.02,.12,.02,.24,.03,.36h4.29Z"/>
  <path class="cls-1" d="M69.78,8.23V31.72h-4.29c-.02-.12-.02-.24-.03-.36-.36-2.6-2.62-4.48-5.18-4.46V8.23c0-2.62,2.14-4.75,4.75-4.75s4.75,2.14,4.75,4.75Z"/>
  <path d="M61.22,146.25v8.37l-.65-.1v-8.27c0-.38-.33-.71-.71-.71h-5.92c-.59,0-1.07,.46-1.1,1.05-.15,2.05-.4,3.98-.72,5.82-.21-.15-.4-.34-.59-.55,.31-1.69,.52-3.46,.65-5.32,.07-.93,.83-1.64,1.76-1.64h5.92c.74,0,1.36,.6,1.36,1.34Z"/>
  <path d="M61.22,134.47v.83c0,.91-.74,1.65-1.65,1.65h-5.56c-1.02,0-1.86-.76-1.96-1.77-.31-3.22-.88-6.17-1.65-8.78,.24-.02,.46-.02,.69,0,.76,2.62,1.29,5.53,1.6,8.71,.07,.69,.64,1.19,1.33,1.19h5.56c.55,0,1-.45,1-1v-.84l.65,.02Z"/>
  <path d="M60.56,146.25v8.27l-5.98-.96c-.95-.15-1.79-.55-2.48-1.12v-.02c.33-1.84,.57-3.77,.72-5.82,.03-.59,.52-1.05,1.1-1.05h5.92c.38,0,.71,.33,.71,.71Z"/>
  <path d="M60.56,134.45v.84c0,.55-.45,1-1,1h-5.56c-.69,0-1.26-.5-1.33-1.19-.31-3.19-.84-6.1-1.6-8.71,2.27,.17,4.24,1.84,4.7,4.15,.26,1.33-.02,2.63-.67,3.7l5.46,.21Z"/>
  <path d="M60.27,43.66v9.49l-.34-.02c-.1,0-.21-.02-.31-.03v-9.44c0-.38-.29-.69-.67-.71,.33-.09,.67-.14,1.02-.15,.19,.22,.31,.53,.31,.86Z"/>
  <path d="M60.27,26.9v5.8c0,.91-.74,1.65-1.65,1.65h-5.55c-1.03,0-1.88-.77-1.98-1.79-.15-1.5-.34-2.94-.6-4.32l.65-.09c.26,1.39,.45,2.84,.6,4.36,.07,.67,.64,1.19,1.33,1.19h5.55c.55,0,1-.45,1-1v-5.75c.22-.03,.43-.05,.65-.05Z"/>
  <path d="M59.62,43.66v9.44c-2.69-.28-4.74-2.63-4.62-5.37,.12-2.34,1.79-4.25,3.94-4.77,.38,.02,.67,.33,.67,.71Z"/>
  <path d="M59.62,26.95v5.75c0,.55-.45,1-1,1h-5.55c-.69,0-1.26-.52-1.33-1.19-.15-1.52-.34-2.96-.6-4.36l8.46-1.21h.02Z"/>
  <path d="M58.91,42.3c.43,0,.81,.19,1.05,.5-.34,.02-.69,.07-1.02,.15h-5.96c-.57,0-1.07,.45-1.1,1.03-1.21,16.36-8.34,26.13-19.1,26.13-8.21,0-14.35-6.29-17.15-16.83l.6-.12c2.76,10.21,8.66,16.29,16.55,16.29,10.38,0,17.27-9.54,18.44-25.52,.07-.91,.84-1.64,1.76-1.64h5.92Z"/>
  <path d="M56.45,222.12h.46c-.34,.12-.71,.19-1.08,.21l-7.1,.52c.03,.09,.07,.17,.09,.28-7.9,.77-12.18,2.89-12.18,6.17v.15l-.65-.03v-.12c0-4.68,7.08-7.16,20.46-7.16Z"/>
  <path d="M52.11,152.41v.02c-2.32,12.8-8.97,20.27-18.38,20.27s-15.5-7.54-17.89-19.93l.62-.24c2.31,12.14,8.59,19.51,17.27,19.51,9.16,0,15.62-7.42,17.79-20.18,.19,.21,.38,.4,.59,.55Z"/>
  <path d="M51.14,28.16l-.65,.09c-2.27-12.49-8.73-19.77-17.7-19.68h-.14c-3.87,0-7.28,1.43-10.13,4.25-4.29,4.25-6.97,11.4-7.73,20.48l-.64,.1c.74-9.3,3.5-16.65,7.92-21.04,3-2.98,6.6-4.46,10.71-4.44,9.37-.09,16.03,7.41,18.36,20.25Z"/>
  <path d="M51.08,126.39c-.22-.02-.45-.02-.69,0-2.88-9.75-8.78-15.29-16.65-15.22h-.07c-3.89,0-7.34,1.41-10.2,4.24-3.86,3.81-6.41,9.97-7.44,17.74l-.67,.14c1.03-8.03,3.67-14.38,7.65-18.34,3.01-2.96,6.61-4.46,10.73-4.43,8.23-.1,14.4,5.7,17.34,15.88Z"/>
  <path class="cls-1" d="M50.49,28.24l-8.9,1.26c-.76-4.48-2.14-7.77-4.08-9.68-1.34-1.33-2.93-1.98-4.7-1.95-1.65-.02-3.13,.59-4.39,1.83-2.27,2.24-3.77,6.42-4.39,12.28l-9.23,1.31c.76-9.08,3.44-16.22,7.73-20.48,2.84-2.82,6.25-4.25,10.13-4.25h.14c8.97-.09,15.43,7.2,17.7,19.68Z"/>
  <path d="M49.03,224.55v.26c-.12,2.84-2.55,5.06-5.39,4.94l-6.99-.31v-.15c0-3.27,4.27-5.39,12.18-6.17,.14,.45,.21,.93,.21,1.43Z"/>
  <path d="M44.14,212.79l.1,2.29c-12.38,1.81-19.29,6.77-19.37,14.21,0,1.03,.14,2.01,.41,2.94l-3.93,.88c-2.77,.62-5.56-1.14-6.18-3.93-.64-2.77,1.14-5.56,3.91-6.18l4.34-.98c-1.02-1-1.64-2.39-1.57-3.93,.12-2.84,2.55-5.08,5.39-4.94l8.51,.36c.34-.09,.71-.15,1.07-.19l7.32-.53Z"/>
  <path d="M43.24,141.51c0,.91-.02,1.79-.03,2.65l-.67-.02c.03-.84,.05-1.72,.05-2.63,0-5.46-.55-9.94-1.64-13.31l.64-.12c1.08,3.43,1.65,7.96,1.65,13.43Z"/>
  <path d="M42.53,144.15l.67,.02c-.43,11.88-3.75,18.38-9.47,18.38-4.6,0-7.65-4.82-8.71-13.47l.64-.26c.98,8.4,3.81,13.09,8.08,13.09,5.24,0,8.39-6.44,8.8-17.76Z"/>
  <path d="M42.59,141.51c0,.91-.02,1.79-.05,2.63l-4.91-.19c-.05,.02-.09,.05-.14,.07l-11.83,4.79c-.26-2.19-.4-4.63-.4-7.3,0-4.01,.29-7.47,.84-10.37l14.85-2.94c1.08,3.38,1.64,7.85,1.64,13.31Z"/>
  <path d="M42.29,38.9c0,3.63-.24,6.66-.64,9.16l-.71,.15c.45-2.67,.69-5.79,.69-9.32s-.22-6.65-.67-9.32l.62-.09c.46,2.7,.71,5.86,.71,9.4Z"/>
  <path d="M40.95,48.22l.71-.15c-1.64,10.13-6.03,11.88-8.87,11.88-3.62,0-6.29-3.01-7.77-8.54l.64-.14c1.38,5.2,3.82,8.03,7.13,8.03,4.1,0,6.92-3.93,8.16-11.07Z"/>
  <path d="M41.59,29.5l-.62,.09c-.74-4.32-2.05-7.47-3.91-9.3-1.22-1.21-2.63-1.79-4.27-1.76h-.09c-1.45,0-2.74,.55-3.84,1.64-2.15,2.12-3.56,6.11-4.18,11.73l-.65,.09c.62-5.86,2.12-10.04,4.39-12.28,1.26-1.24,2.74-1.84,4.39-1.83,1.77-.03,3.36,.62,4.7,1.95,1.95,1.91,3.32,5.2,4.08,9.68Z"/>
  <path d="M41.59,128.08l-.64,.12c-.74-2.32-1.72-4.12-2.96-5.32-1.21-1.19-2.63-1.77-4.25-1.76h-.1c-1.45,0-2.72,.55-3.82,1.64-1.7,1.67-2.94,4.51-3.7,8.39l-.67,.14c.76-4.15,2.08-7.2,3.91-8.99,1.26-1.24,2.76-1.84,4.39-1.83,1.77-.03,3.38,.64,4.72,1.95,1.31,1.27,2.36,3.19,3.13,5.67Z"/>
  <path d="M41.64,38.9c0,3.53-.24,6.65-.69,9.32l-15.29,3.05c-.86-3.24-1.33-7.39-1.33-12.37,0-2.57,.12-4.91,.34-7.01l16.29-2.31c.45,2.67,.67,5.79,.67,9.32Z"/>
  <path d="M25.43,131.28l.67-.14c-.55,2.89-.84,6.35-.84,10.37,0,2.67,.14,5.11,.4,7.3l-.64,.26c-.28-2.27-.41-4.79-.41-7.56,0-3.91,.28-7.34,.83-10.23Z"/>
  <path d="M25.66,51.27l-.64,.14c-.88-3.31-1.34-7.51-1.34-12.5,0-2.51,.12-4.82,.34-6.92l.65-.09c-.22,2.1-.34,4.44-.34,7.01,0,4.98,.46,9.13,1.33,12.37Z"/>
  <path d="M16.03,133.14l9.4-1.86c-.55,2.89-.83,6.32-.83,10.23,0,2.77,.14,5.29,.41,7.56l-8.56,3.46c-.64-3.34-.96-7.03-.96-11.02,0-2.94,.17-5.75,.53-8.37Z"/>
  <path d="M25.02,51.41l-8.78,1.76c-1.1-4.12-1.69-8.92-1.69-14.26,0-1.95,.09-3.81,.24-5.61l9.23-1.31c-.22,2.1-.34,4.41-.34,6.92,0,4.99,.46,9.2,1.34,12.5Z"/>
  <path d="M16.46,152.53l-.62,.24c-.65-3.41-1-7.18-1-11.26,0-2.89,.17-5.65,.52-8.23l.67-.14c-.36,2.62-.53,5.42-.53,8.37,0,4,.33,7.68,.96,11.02Z"/>
  <path d="M16.24,53.16l-.6,.12c-1.12-4.17-1.72-9.01-1.72-14.38,0-1.91,.07-3.74,.24-5.51l.64-.1c-.15,1.81-.24,3.67-.24,5.61,0,5.34,.59,10.14,1.69,14.26Z"/>
  <path d="M15.84,152.77l-8.71,3.53c-.64,.26-1.29,.38-1.93,.38-2.05,0-4.01-1.22-4.82-3.24-1.07-2.63,.22-5.67,2.86-6.73l9.09-3.69c-1.19-.72-2.08-1.93-2.38-3.41-.57-2.79,1.27-5.53,4.06-6.08l1.34-.26c-.34,2.58-.52,5.34-.52,8.23,0,4.08,.34,7.85,1,11.26Z"/>
  <path d="M15.63,53.28l-.9,.17c-2.79,.57-5.53-1.26-6.1-4.05-.52-2.62,1.05-5.2,3.55-5.98-1.67-.65-2.94-2.17-3.22-4.08-.4-2.81,1.58-5.44,4.41-5.86l.77-.1c-.17,1.77-.24,3.6-.24,5.51,0,5.37,.6,10.21,1.72,14.38Z"/>
</svg>