<?xml version="1.0" encoding="UTF-8"?>
<svg id="Layer_1" data-name="Layer 1" xmlns="http://www.w3.org/2000/svg" viewBox="0 0 466.94 100.21">
  <defs>
    <style>
      .cls-1 {
        fill: none;
      }

      .cls-2 {
        fill: #fff;
      }
    </style>
  </defs>
  <g>
    <polygon class="cls-1" points="96.05 79.78 96.05 79.78 96.05 79.78 96.05 79.78"/>
    <path d="M123.26,1.62h-7.22c-.18,0-.35,.06-.49,.17l-5.11,3.97c-.12,.1-.21,.22-.27,.37l-6.29,18.3c-.18,.52-.82,.71-1.26,.36l-4.78-3.83c-.27-.22-.65-.23-.94-.04l-6.09,4.06c-.41,.27-.96,.12-1.17-.33l-5.08-11.01c-.03-.05-.06-.11-.09-.15L75.58,1.93c-.15-.2-.39-.31-.63-.31h-5.62V25.87h-21.92V1.62h-5.72c-.38,0-.71,.27-.78,.64l-4.64,22.61c-.08,.37-.4,.64-.78,.64h-6.11c-.35,0-.66-.23-.76-.56L21.64,2.28V100.21h-.41V1.73c-.12-.07-.25-.11-.39-.11H8.54c-.34,0-.65,.22-.76,.55L.04,25.38c-.03,.08-.04,.17-.04,.25v49.81c0,.08,.01,.17,.04,.25l7.76,23.97c.11,.33,.41,.55,.76,.55h13.45c.37,0,.7-.26,.78-.62l5.42-23.81c.08-.36,.41-.62,.78-.62h6.08c.36,0,.68,.25,.77,.6l6.21,23.86c.09,.35,.41,.6,.77,.6h32.34c.29,0,.55-.15,.69-.4l6.66-11.56s.04-.08,.06-.12l4.78-12.78H35.69v-.41h51.75v.2l.89-2.39c.14-.36,.48-.52,.82-.49l-6.43-7.58,.31-.26,13.01,15.34s0,0,0,0l15.65-10.5-5.95-7.01,.31-.26,6.08,7.16-.17,.15,.13,.19-10.26,6.89c.28,.02,.55,.17,.68,.46l6.47,14.83c.05,.12,.14,.23,.24,.31l6.96,5.41c.14,.11,.31,.17,.49,.17h6.62c.09,0,.16-.04,.24-.06V1.69c-.09-.03-.17-.07-.26-.07ZM18.06,100.21h-.41V51.91h-6.21v-.2h0c0,3.16-2.56,5.72-5.72,5.72s-5.72-2.56-5.72-5.72,2.56-5.72,5.72-5.72,5.72,2.56,5.72,5.72h0v-.2h6.21V1.62h.41V100.21ZM89.9,37.24l-7.99-6.33,.25-.32,7.88,6.24,7.07-4.64,.22,.34-7.19,4.72-.11-.17-.13,.16Zm4.12,24.68l-.36-.19,16.55-31.07,.36,.19-16.55,31.07Z"/>
    <path d="M159.18,28.06l10.18-22.58c-.14-.05-.28-.08-.43-.05l-5.85,1.11-7.43,16.48,3.53,5.03Z"/>
    <rect x="47.81" y="1.62" width="21.11" height="23.84"/>
    <path d="M166.59,93.67c-3.16,0-5.72-2.56-5.72-5.72s2.56-5.72,5.72-5.72c1.05,0,2.02,.3,2.87,.8V6.27l-10,22.18,4.74,6.75-.33,.23-4.6-6.56-2.94,6.52-.37-.17,3.04-6.74-3.53-5.03-6.18,13.71-.37-.17,6.28-13.93-3.19-4.54-2.55,5.75-6.01,13.11c-.29,.62-1.17,.62-1.45,0l-5.4-11.88-6.12-11.94-6.51-11.54s-.02-.02-.03-.03V97.23s.02-.02,.03-.03l6.5-10.45,6.07-9.1c.04-.06,.07-.12,.09-.19l5.48-16.44c.23-.68,1.15-.74,1.47-.1l5.85,11.7s.03,.06,.04,.1l5.98,17.33c.08,.24,.27,.42,.51,.5l14.08,4.51c.45,.14,.93-.14,1.03-.6l1.01-4.94c-.68,2.39-2.86,4.16-5.48,4.16Z"/>
    <path d="M177.59,34.59l-7.73-28.55V83.27c1.48,1.03,2.45,2.74,2.45,4.68,0,.25-.04,.49-.07,.73l5.37-26.35c.01-.05,.02-.11,.02-.16v-27.38c0-.07,0-.14-.03-.21Z"/>
    <path d="M162.6,6.64l-5.39,1.03c-.26,.05-.47,.22-.58,.46l-4.43,9.98,3.19,4.54,7.22-16Z"/>
    <polygon class="cls-2" points="163.86 35.43 164.2 35.2 159.46 28.44 159.26 28.87 163.86 35.43"/>
    <polygon class="cls-2" points="155.65 23.03 155.46 23.46 158.99 28.49 159.18 28.06 155.65 23.03"/>
    <polygon class="cls-2" points="155.38 22.64 152.19 18.1 152 18.53 155.19 23.07 155.38 22.64"/>
    <circle class="cls-2" cx="5.72" cy="51.7" r="5.72"/>
    <path class="cls-2" d="M172.24,88.68l-.17,.83c.08-.27,.13-.55,.17-.83Z"/>
    <path class="cls-2" d="M169.86,83.27v6.68h-.41v-6.92c-.85-.49-1.82-.8-2.87-.8-3.16,0-5.72,2.56-5.72,5.72s2.56,5.72,5.72,5.72c2.61,0,4.79-1.76,5.48-4.16l.17-.83c.03-.24,.07-.48,.07-.73,0-1.94-.97-3.65-2.45-4.68Z"/>
    <path class="cls-2" d="M21.61,2.18l.03,.1v-.66h-.41v.11c.17,.1,.31,.25,.38,.45Z"/>
    <path class="cls-2" d="M21.64,100.21V2.28l-.03-.1c-.06-.2-.2-.36-.38-.45V100.21h.41Z"/>
    <polygon class="cls-2" points="17.65 51.5 17.86 51.5 17.86 51.7 17.86 51.7 17.86 51.7 17.86 51.91 17.65 51.91 17.65 100.21 18.06 100.21 18.06 1.62 17.65 1.62 17.65 51.5"/>
    <rect class="cls-2" x="11.44" y="51.7" width="6.21" height=".2"/>
    <rect class="cls-2" x="11.44" y="51.5" width="6.21" height=".2"/>
    <rect class="cls-2" x="17.65" y="51.5" width=".2" height=".2"/>
    <rect class="cls-2" x="17.65" y="51.7" width=".2" height=".2"/>
    <polygon class="cls-2" points="87.44 75.36 87.44 75.16 87.36 75.36 87.44 75.36"/>
    <polygon class="cls-2" points="35.69 74.96 35.69 75.36 87.36 75.36 87.44 75.16 87.44 74.96 35.69 74.96"/>
    <polygon class="cls-2" points="69.32 25.87 69.32 1.62 68.92 1.62 68.92 25.46 47.81 25.46 47.81 1.62 47.41 1.62 47.41 25.87 69.32 25.87"/>
    <path class="cls-2" d="M101.33,76.5l-4.72,3.15c-.17,.11-.37,.15-.56,.13h0s0,0,0,0c-.19-.03-.37-.12-.5-.28l-5.86-6.96c-.14-.17-.34-.24-.54-.26l6.82,8.04,5.86-3.93c-.17-.01-.34,.01-.5,.11Z"/>
    <path class="cls-2" d="M95.55,79.5c.13,.16,.31,.25,.5,.28l-13.01-15.34-.31,.26,6.43,7.58c.2,.02,.39,.08,.54,.26l5.86,6.96Z"/>
    <path class="cls-2" d="M111.96,69.31l-.14,.12-.13-.15-15.65,10.5c.19,.03,.39-.01,.56-.13l4.72-3.15c.16-.1,.33-.13,.5-.11l10.26-6.89-.13-.19Z"/>
    <polygon class="cls-2" points="111.96 69.31 112.13 69.16 106.06 62 105.75 62.26 111.7 69.28 111.87 69.17 111.96 69.31"/>
    <polygon class="cls-2" points="111.96 69.31 111.87 69.17 111.7 69.28 111.82 69.43 111.96 69.31"/>
    <polygon class="cls-2" points="90.03 36.83 82.16 30.59 81.91 30.91 89.9 37.24 90.02 37.08 89.91 36.91 90.03 36.83"/>
    <polygon class="cls-2" points="97.33 32.53 97.11 32.19 90.03 36.83 90.15 36.92 90.02 37.08 90.13 37.25 97.33 32.53"/>
    <polygon class="cls-2" points="90.03 36.83 89.91 36.91 90.02 37.08 90.15 36.92 90.03 36.83"/>
    <polygon class="cls-2" points="93.66 61.73 94.02 61.92 110.57 30.84 110.21 30.65 93.66 61.73"/>
    <path class="cls-2" d="M123.92,2v-.38h-.41v.07c.17,.06,.31,.16,.41,.31Z"/>
    <path class="cls-2" d="M123.52,97.57h.41v-.35c-.1,.14-.24,.23-.41,.28v.06Z"/>
    <path class="cls-2" d="M123.52,1.69V97.51c.16-.05,.31-.14,.41-.28V2c-.1-.15-.24-.25-.41-.31Z"/>
    <polygon class="cls-2" points="155.95 35.23 156.32 35.4 159.26 28.87 158.99 28.49 155.95 35.23"/>
    <path class="cls-2" d="M159.46,28.44l10-22.18v-.75s-.06-.02-.09-.04l-10.18,22.58,.27,.39Z"/>
    <polygon class="cls-2" points="158.99 28.49 159.26 28.87 159.46 28.44 159.18 28.06 158.99 28.49"/>
    <polygon class="cls-2" points="148.91 37 149.28 37.16 155.46 23.46 155.19 23.07 148.91 37"/>
    <polygon class="cls-2" points="155.65 23.03 163.09 6.54 162.6 6.64 155.38 22.64 155.65 23.03"/>
    <polygon class="cls-2" points="155.38 22.64 155.19 23.07 155.46 23.46 155.65 23.03 155.38 22.64"/>
    <path class="cls-2" d="M169.7,5.72l-.25,.55V83.03c.14,.08,.28,.15,.41,.24V6.01c-.04-.11-.09-.2-.16-.29Z"/>
    <path class="cls-2" d="M169.46,89.95h.41v-6.68c-.13-.09-.27-.16-.41-.24v6.92Z"/>
    <path class="cls-2" d="M169.46,5.52v.75l.25-.55c-.07-.09-.15-.15-.25-.2Z"/>
  </g>
  <g>
    <polygon points="337.35 49.42 337.35 9.03 335.96 9.55 335.96 49.42 337.35 49.42"/>
    <polygon points="335.96 49.83 335.96 84.98 337.35 85.48 337.35 49.83 335.96 49.83"/>
    <path d="M327.03,12.9c-.13,.05-.25,.14-.34,.25l-5.72,7.15c-.15,.19-.38,.3-.62,.3h-6.22c2.86,.31,5.1,2.71,5.1,5.66,0,3.09-2.45,5.59-5.52,5.7v4.67h5.52v.41h-12.97v13.94h13.17v10.87h-13.17v10.92c0,.44,.36,.8,.8,.8h11.12c.23,0,.45,.1,.6,.27l6.19,7.04,6.7-20.47-12.99,13.3-.29-.28,14.21-14.55-7.28,22.24h-.02s.01,0,.02,0l10.25,3.71V9.7l-8.53,3.2Zm.57,42.45c-3.16,0-5.72-2.56-5.72-5.72s2.56-5.72,5.72-5.72,5.72,2.56,5.72,5.72-2.56,5.72-5.72,5.72Z"/>
    <rect x="306.25" y="51.38" width="12.76" height="10.06"/>
    <path d="M354.46,71.56v-.41h4.87V19.98l-4.26-9.8c-.03-.07-.08-.14-.13-.21L346.51,.28c-.33-.38-.93-.36-1.24,.04l-6.12,7.92c-.09,.12-.21,.21-.35,.26l-1.05,.39V85.62l1.22,.44c.14,.05,.27,.14,.36,.26l5.62,7.23c.28,.37,.82,.41,1.16,.11l13.21-11.8v-10.3h-4.87Zm-1.03-8h-5.28v20.05h-.41v-20.05h-5.28v-.41h10.97v.2h0v.2Zm-5.48-8.21c-3.16,0-5.72-2.56-5.72-5.72s2.56-5.72,5.72-5.72,5.72,2.56,5.72,5.72-2.56,5.72-5.72,5.72Z"/>
    <path d="M313.29,31.95c-3.06-.11-5.52-2.61-5.52-5.7s2.23-5.34,5.1-5.66h-5.82c-.44,0-.8,.36-.8,.8v15.23h7.04v-4.67Z"/>
    <path d="M466.85,47.69l-4.79-9.27c-.1-.19-.27-.33-.48-.4l-7.39-2.25c-.18-.05-.36-.04-.53,.02l-5.41,2.21c-.18,.07-.37,.08-.56,.02l-19.82-6.61c-.29-.1-.6-.02-.82,.19l-6.14,6.14c-.23,.23-.57,.3-.86,.18l-14.56-5.82c-.13-.05-.24-.13-.32-.24l-10.3-12.74c-.15-.19-.38-.3-.62-.3h-12.77c-.34,0-.64,.21-.75,.53l-6.48,18.23c-.11,.32-.41,.53-.75,.53h-5.77c-.32,0-.61-.19-.73-.48l-7.27-16.72v60.04l5.99-23.39c.08-.29,.31-.52,.6-.58l5.73-1.25c.39-.08,.78,.13,.92,.5l6.55,17.38c.06,.15,.16,.29,.3,.38l6.63,4.51c.13,.09,.29,.14,.45,.14h6.39c.25,0,.48-.11,.63-.31l11.9-15.38c.09-.12,.22-.21,.36-.26l13.4-4.85c.28-.1,.59-.04,.81,.16l7.11,6.56c.2,.19,.48,.26,.75,.19l18.64-4.95c.07-.02,.14-.03,.21-.03h6.37c.08,0,.15-.01,.23-.03l6.53-1.92c.18-.05,.33-.16,.44-.32l1.18-1.73h-89.1v-.41h89.38l4.69-6.89c.17-.24,.18-.56,.05-.82Zm-66.56,.54l-8.93-13.04-4.5,12.99-.38-.13,4.76-13.75,9.39,13.7-.33,.23Z"/>
    <path class="cls-2" d="M327.6,43.91c-3.16,0-5.72,2.56-5.72,5.72s2.56,5.72,5.72,5.72,5.72-2.56,5.72-5.72-2.56-5.72-5.72-5.72Z"/>
    <circle class="cls-2" cx="347.95" cy="49.63" r="5.72"/>
    <path class="cls-2" d="M313.5,20.53c-.21,0-.42,.04-.62,.06h1.25c-.21-.02-.41-.06-.62-.06Z"/>
    <path class="cls-2" d="M307.78,26.25c0,3.09,2.45,5.59,5.52,5.7v-5.7h.41v5.7c3.06-.11,5.52-2.61,5.52-5.7s-2.23-5.34-5.1-5.66h-1.25c-2.86,.31-5.1,2.71-5.1,5.66Z"/>
    <polygon class="cls-2" points="337.35 9.03 337.35 49.42 337.55 49.42 337.55 49.83 337.35 49.83 337.35 85.48 337.75 85.62 337.75 8.88 337.35 9.03"/>
    <path class="cls-2" d="M359.32,19.98v51.17h.2v.41h-.2v10.3l.05-.04c.12-.11,.2-.24,.24-.4l.12-.45V20.92l-.41-.93Z"/>
    <polygon class="cls-2" points="335.76 49.83 335.76 49.42 335.96 49.42 335.96 9.55 335.56 9.7 335.56 84.83 335.96 84.98 335.96 49.83 335.76 49.83"/>
    <polygon class="cls-2" points="342.46 63.15 342.46 63.55 347.74 63.55 347.74 63.35 342.47 63.35 347.74 63.35 347.95 63.35 348.15 63.35 353.43 63.35 353.43 63.15 342.46 63.15"/>
    <rect class="cls-2" x="348.15" y="63.35" width="5.28" height=".2"/>
    <polygon class="cls-2" points="347.95 83.6 347.95 63.55 347.74 63.55 347.74 83.6 348.15 83.6 348.15 63.55 347.95 63.55 347.95 83.6"/>
    <rect class="cls-2" x="347.74" y="63.35" width=".2" height=".2"/>
    <rect class="cls-2" x="347.95" y="63.35" width=".2" height=".2"/>
    <polygon class="cls-2" points="319.22 36.63 313.7 36.63 313.7 36.83 313.29 36.83 313.29 36.63 306.25 36.63 306.25 37.03 319.22 37.03 319.22 36.63"/>
    <polygon class="cls-2" points="319.42 50.97 306.25 50.97 306.25 51.38 319.01 51.38 319.01 61.44 306.25 61.44 306.25 61.84 319.42 61.84 319.42 50.97"/>
    <path class="cls-2" d="M313.29,31.95v4.67h.41v-4.67c-.07,0-.13,.02-.2,.02s-.13-.02-.2-.02Z"/>
    <path class="cls-2" d="M313.29,26.25v5.7c.07,0,.13,.02,.2,.02s.13-.02,.2-.02v-5.7h-.41Z"/>
    <rect class="cls-2" x="313.29" y="36.63" width=".41" height=".2"/>
    <rect class="cls-2" x="335.96" y="49.42" width="1.39" height=".41"/>
    <rect class="cls-2" x="337.35" y="49.42" width=".2" height=".41"/>
    <rect class="cls-2" x="335.76" y="49.42" width=".2" height=".41"/>
    <path class="cls-2" d="M324.96,80.88l-.04,.11,.37,.12c-.12-.05-.23-.12-.31-.21l-.02-.02Z"/>
    <path class="cls-2" d="M332.59,58.87l-14.21,14.55,.29,.28,12.99-13.3-6.7,20.47,.02,.02c.08,.1,.19,.17,.31,.21h.02s7.28-22.24,7.28-22.24Z"/>
    <rect class="cls-2" x="354.46" y="71.15" width="4.87" height=".41"/>
    <rect class="cls-2" x="359.32" y="71.15" width=".2" height=".41"/>
    <polygon class="cls-2" points="386.47 48.05 386.85 48.18 391.35 35.2 400.28 48.23 400.62 48 391.23 34.3 386.47 48.05"/>
    <polygon class="cls-2" points="462.14 55.8 462.14 55.4 462.11 55.4 461.83 55.8 462.14 55.8"/>
    <polygon class="cls-2" points="372.73 55.8 461.83 55.8 462.11 55.4 372.73 55.4 372.73 55.8"/>
  </g>
  <g>
    <path d="M274.68,72.16v-.41h3.69V14.36l-6.96-2.56s0,0,0,0v30.27h-.41V11.74h-11.69c-.17,0-.33-.05-.47-.15l-6.69-4.83c-.26-.19-.62-.2-.89-.03l-13.25,8.33c-.32,.2-.75,.15-1.01-.13l-5.5-5.86c-.11-.12-.25-.2-.4-.23l-1.2-.27v15.83h-14.55V6.59l-5.29,2.94c-.21,.11-.45,.13-.67,.05l-4.79-1.84c-.07-.03-.12-.07-.18-.12V91.94l5.92-4.47c.26-.19,.6-.21,.88-.05l6.02,3.46c.15,.09,.33,.12,.51,.1l12.84-1.75c.22-.03,.41-.15,.54-.32l5.87-8.07c.25-.35,.73-.43,1.09-.19l12.39,8.26c.17,.12,.38,.13,.58,.09l8.15-4.8-6.43-4.16,.22-.34,6.71,4.34-.11,.17,.1,.17-1.23,.72h12.66s.07-.01,.1-.02v-20.92h-5.28v-.2h0v-.2h10.96v.2h0v.2h-5.28v20.81l6.43-2.27c.09-.03,.17-.08,.24-.14l.05-.04v-10.36h-3.69Zm-37.47,1.73h-25.33v-.41h25.33v.41Zm7.37-51.12l-8.56-6.33,.24-.33,8.4,6.21,6.45-3.99,.21,.35-6.56,4.06-.07-.12-.11,.14Zm2.42,53.45l-.39-.12,18-60.38,.39,.12-18,60.38Zm24.21-20.26c-3.16,0-5.72-2.56-5.72-5.72s2.56-5.72,5.72-5.72,5.72,2.56,5.72,5.72-2.56,5.72-5.72,5.72Z"/>
    <path d="M279.14,14.69c-.07-.06-.16-.12-.25-.15l-.11-.04V82.19l1.55-1.28V15.74l-1.19-1.04Z"/>
    <path d="M190.2,44.52c3.09,0,5.59,2.45,5.7,5.52h4.55V3.57l-3.1-3.18c-.15-.15-.36-.24-.57-.24h-5.1c-.39,0-.72,.28-.79,.67l-6.4,38.17s-.01,.09-.01,.13v11.12c0-3.16,2.56-5.72,5.72-5.72Z"/>
    <path d="M216.81,5.78l-1.05,.58V23.99h13.73V8.47l-12.12-2.77c-.19-.04-.39-.02-.57,.08Z"/>
    <polygon points="200.85 3.98 200.85 94.64 204.03 92.25 204.03 7.24 200.85 3.98"/>
    <path d="M298.89,49.15l-1.62-4.41v8.69l1.6-3.69c.08-.19,.09-.4,.02-.59Z"/>
    <path d="M293.6,50.44c-.11,3.06-2.61,5.52-5.7,5.52s-5.72-2.56-5.72-5.72,2.56-5.72,5.72-5.72,5.59,2.45,5.7,5.52h3.26v-6.4l-4.35-11.84c-.02-.05-.05-.11-.08-.15l-7.64-11.95c-.04-.06-.09-.12-.15-.17l-3.91-3.43V80.58l4.3-3.54c.07-.06,.13-.12,.17-.2l6.42-10.43s.04-.07,.05-.1l5.18-11.93v-3.93h-3.26Z"/>
    <path d="M195.9,50.44c-.11,3.06-2.61,5.52-5.7,5.52s-5.72-2.56-5.72-5.72v7.93s0,.08,0,.12l5.59,36.64c.05,.32,.28,.57,.59,.65l6.29,1.63c.24,.06,.49,.01,.68-.14l2.81-2.12V50.44h-4.55Z"/>
    <path class="cls-2" d="M190.2,55.96c3.09,0,5.59-2.45,5.7-5.52h-1.66v-.41h1.66c-.11-3.06-2.61-5.52-5.7-5.52s-5.72,2.56-5.72,5.72,2.56,5.72,5.72,5.72Z"/>
    <circle class="cls-2" cx="271.21" cy="50.24" r="5.72"/>
    <path class="cls-2" d="M290.54,50.24h0v-.2h3.06c-.11-3.06-2.61-5.52-5.7-5.52s-5.72,2.56-5.72,5.72,2.56,5.72,5.72,5.72,5.59-2.45,5.7-5.52h-3.06v-.2Z"/>
    <path class="cls-2" d="M204.32,7.54l-.3-.3V92.25l.41-.31V7.62s-.08-.04-.11-.07Z"/>
    <path class="cls-2" d="M271.42,42.06V11.79c-.09-.03-.18-.05-.27-.05h-.13v30.31h.41Z"/>
    <polygon class="cls-2" points="296.86 43.64 296.86 50.03 296.96 50.03 296.96 50.24 296.96 50.24 296.96 50.24 296.96 50.44 296.86 50.44 296.86 54.37 297.27 53.43 297.27 44.74 296.86 43.64"/>
    <polygon class="cls-2" points="200.45 3.57 200.45 50.03 200.65 50.03 200.65 50.44 200.45 50.44 200.45 94.95 200.85 94.64 200.85 3.98 200.45 3.57"/>
    <polygon class="cls-2" points="280.33 15.74 280.33 80.91 280.74 80.58 280.74 16.1 280.33 15.74"/>
    <polygon class="cls-2" points="278.37 14.36 278.37 71.76 278.58 71.76 278.58 72.16 278.37 72.16 278.37 82.52 278.78 82.19 278.78 14.51 278.37 14.36"/>
    <path class="cls-2" d="M195.92,50.24h4.53v-.2h-4.55c0,.07,.02,.13,.02,.2Z"/>
    <path class="cls-2" d="M195.92,50.24c0,.07-.02,.13-.02,.2h4.55v-.2h-4.53Z"/>
    <path class="cls-2" d="M194.23,50.24v.2h1.66c0-.07,.02-.13,.02-.2h-1.68Z"/>
    <path class="cls-2" d="M195.9,50.03h-1.66v.2h1.68c0-.07-.02-.13-.02-.2Z"/>
    <polygon class="cls-2" points="200.65 50.24 200.45 50.24 200.45 50.44 200.65 50.44 200.65 50.03 200.45 50.03 200.45 50.24 200.65 50.24"/>
    <path class="cls-2" d="M293.62,50.24h3.24v-.2h-3.26c0,.07,.02,.13,.02,.2Z"/>
    <path class="cls-2" d="M293.62,50.24c0,.07-.02,.13-.02,.2h3.26v-.2h-3.24Z"/>
    <path class="cls-2" d="M290.54,50.24v.2h3.06c0-.07,.02-.13,.02-.2h-3.08Z"/>
    <path class="cls-2" d="M290.54,50.24h3.08c0-.07-.02-.13-.02-.2h-3.06v.2Z"/>
    <rect class="cls-2" x="296.86" y="50.24" width=".1" height=".2"/>
    <rect class="cls-2" x="296.86" y="50.03" width=".1" height=".2"/>
    <polygon class="cls-2" points="274.68 72.16 278.37 72.16 278.37 71.96 274.68 71.96 278.37 71.96 278.37 71.76 274.68 71.76 274.68 72.16"/>
    <polygon class="cls-2" points="278.58 71.96 278.37 71.96 278.37 72.16 278.58 72.16 278.58 71.76 278.37 71.76 278.37 71.96 278.58 71.96"/>
    <rect class="cls-2" x="211.88" y="73.49" width="25.33" height=".41"/>
    <polygon class="cls-2" points="229.91 24.4 229.91 8.56 229.5 8.47 229.5 23.99 215.77 23.99 215.77 6.36 215.36 6.59 215.36 24.4 229.91 24.4"/>
    <path class="cls-2" d="M257.65,85.21l-6.31,3.71c-.08,.05-.18,.05-.27,.07l-.5,.29-11.12-7.41-.23,.34,11.33,7.55,7.93-4.66h-.43c-.14,0-.28,.04-.41,.11Z"/>
    <path class="cls-2" d="M259.61,84.21l-.11,.17-.28-.18-8.15,4.8c.09-.02,.19-.02,.27-.07l6.31-3.71c.12-.07,.26-.11,.41-.11h.43l1.23-.72-.1-.17Z"/>
    <polygon class="cls-2" points="259.61 84.21 259.72 84.04 253.01 79.69 252.79 80.03 259.22 84.2 259.51 84.03 259.61 84.21"/>
    <polygon class="cls-2" points="259.61 84.21 259.51 84.03 259.22 84.2 259.5 84.38 259.61 84.21"/>
    <polygon class="cls-2" points="244.66 22.33 236.27 16.12 236.03 16.44 244.58 22.77 244.69 22.63 244.55 22.4 244.66 22.33"/>
    <polygon class="cls-2" points="251.32 18.69 251.11 18.34 244.66 22.33 244.82 22.45 244.69 22.63 244.76 22.75 251.32 18.69"/>
    <polygon class="cls-2" points="244.66 22.33 244.55 22.4 244.69 22.63 244.82 22.45 244.66 22.33"/>
    <polygon class="cls-2" points="271.45 63.96 271.45 63.96 265.97 63.96 265.97 64.16 271.25 64.16 271.25 63.96 271.45 63.96"/>
    <polygon class="cls-2" points="276.93 63.96 276.93 63.76 265.97 63.76 265.97 63.96 271.45 63.96 276.93 63.96"/>
    <polygon class="cls-2" points="271.45 63.96 271.65 63.96 271.65 64.16 276.93 64.16 276.93 63.96 271.45 63.96 271.45 63.96"/>
    <path class="cls-2" d="M271.45,85.1v-.06h-.04c-.05,.03-.11,.03-.17,.04v.02h.41v-.13l-.2,.07v.06Z"/>
    <path class="cls-2" d="M271.45,85.04v-20.88h-.2v20.92c.06,0,.11,0,.17-.03h.04Z"/>
    <polygon class="cls-2" points="271.45 64.16 271.45 85.04 271.65 84.97 271.65 64.16 271.45 64.16"/>
    <rect class="cls-2" x="271.25" y="63.96" width=".2" height=".2"/>
    <rect class="cls-2" x="271.45" y="63.96" width=".2" height=".2"/>
    <rect class="cls-2" x="224.31" y="45.77" width="63.01" height=".41" transform="translate(138.71 278) rotate(-73.41)"/>
  </g>
</svg>