<?xml version="1.0" encoding="UTF-8"?>
<svg id="Layer_1" data-name="Layer 1" xmlns="http://www.w3.org/2000/svg" viewBox="0 0 420.74 267.61">
  <defs>
    <style>
      .cls-1 {
        fill: #3fc46f;
      }
    </style>
  </defs>
  <path class="cls-1" d="M150.75,261.38c-7.06,0-16.59-1.47-22.29-8.37l.54-.44c9.58,11.61,30.47,7.38,30.68,7.34l.14,.68c-.09,.02-3.93,.8-9.07,.8Z"/>
  <path class="cls-1" d="M197.59,264.12l-.48-.44c2-5.02,2.19-8.31,.55-9.8-3.21-2.91-12.43,1.82-12.52,1.87l-.32-.62c.4-.21,9.75-5,13.31-1.77,1.78,1.61,1.76,4.89-.05,9.76,4.55-2.05,27.94-11.49,55.92-2.73l-.21,.67c-30.79-9.64-55.94,2.93-56.19,3.06Z"/>
  <g>
    <path class="cls-1" d="M13.89,58.24c-5.4,0-9.49-2.55-11.22-7-1.99-5.11-.22-11.38,4.4-15.61,2.71-2.48,8.87-6.42,20.04-5.57-.48-2.5-1.23-4.88-2.27-6.99-2.47-5.06-6.54-7.73-12.08-7.93-4.17-.15-7.67,1.22-7.7,1.23l-.26-.65c.14-.06,14.49-5.62,20.67,7.04,1.1,2.24,1.89,4.75,2.39,7.36,6.55,.61,14.76,2.84,24.94,7.88l-.31,.63c-10.01-4.95-18.07-7.17-24.5-7.8,1.25,7.42,.14,15.57-3.24,21-2.61,4.19-6.36,6.4-10.85,6.4h-.01Zm10.19-27.6c-9.04,0-14.16,3.33-16.54,5.51-4.41,4.03-6.11,10-4.22,14.84,1.62,4.16,5.47,6.55,10.57,6.55h.01c4.23,0,7.78-2.1,10.26-6.08,3.27-5.24,4.33-13.4,3.08-20.7-1.1-.09-2.16-.13-3.16-.13Z"/>
    <path class="cls-1" d="M46.58,68.94c-2.97-18.79-2.64-34.18,1.1-51.46,.96-4.46,.45-7.6-1.52-9.34-3.71-3.28-11.47-.61-11.55-.58l-.23-.66c.33-.12,8.22-2.83,12.24,.72,2.18,1.92,2.76,5.29,1.74,10.01-3.77,17.42-4.08,32.25-1.09,51.2l-.69,.11Z"/>
    <path class="cls-1" d="M61.73,78.12c-4.39-30.86-.24-51.28,1.99-62.26,.95-4.68,1.58-7.77,1.18-9.44-.51-2.12-1.57-3.67-3.17-4.61-3.24-1.92-7.65-.74-7.69-.73l-.19-.67c.19-.05,4.73-1.27,8.23,.8,1.77,1.05,2.95,2.75,3.5,5.05,.44,1.82-.2,4.97-1.17,9.75-2.22,10.93-6.35,31.28-1.98,62.02l-.69,.1Z"/>
  </g>
  <g>
    <path class="cls-1" d="M12.37,152.33c-2.49,0-4.48-.82-5.92-1.73-3.81-2.41-6.38-7.12-6.38-11.72,0-7.31,3.32-12.89,9.35-15.71,3.39-1.58,7.37-2.21,11.64-1.94-1.57-3.14-3.59-6.25-6.04-9.23l.54-.44c2.79,3.4,4.84,6.67,6.33,9.73,8.58,.76,18.28,5.02,26.85,12.2l-.45,.54c-8.34-6.98-17.73-11.16-26.06-12,4.4,9.51,3.41,16.83,2.86,19.33-1.02,4.55-3.43,7.94-6.78,9.53-2.21,1.05-4.19,1.45-5.93,1.45Zm6.81-30.47c-3.46,0-6.67,.63-9.47,1.94-5.77,2.7-8.95,8.05-8.94,15.08,0,4.3,2.49,8.88,6.06,11.13,2.29,1.44,6.09,2.66,11.18,.24,3.16-1.5,5.43-4.72,6.4-9.06,1.3-5.81,.19-12.57-3-19.25-.75-.06-1.49-.08-2.22-.08Z"/>
    <path class="cls-1" d="M42.39,168.17c-2.72-13.51-4.75-27.45,.28-49.23,1.22-5.27,.66-8.99-1.65-11.07-4.36-3.92-13.63-.78-13.72-.74l-.23-.66c.4-.14,9.75-3.31,14.41,.88,2.51,2.26,3.14,6.21,1.86,11.75-5,21.64-2.99,35.5-.28,48.93l-.68,.14Z"/>
    <path class="cls-1" d="M58.88,173.86c-5.69-29.15-.91-51.06,1.66-62.83,.93-4.26,1.6-7.35,1.34-8.82-.2-1.12-.75-1.97-1.65-2.54-2.83-1.79-8.13-.34-8.18-.33l-.19-.67c.23-.06,5.66-1.54,8.74,.41,1.08,.68,1.74,1.69,1.97,3.01,.28,1.61-.37,4.59-1.35,9.09-2.56,11.72-7.32,33.54-1.66,62.55l-.69,.13Z"/>
  </g>
  <path class="cls-1" d="M106.04,28.54c-1.34,0-2.54-.33-3.58-1.1-6.87-5.1-1.22-21.26-.98-21.94l.66,.23c-.06,.16-5.72,16.35,.74,21.15,3.75,2.78,10.28-.91,17.85-5.17,5.51-3.11,11.76-6.63,18.03-8.25l.18,.68c-6.19,1.61-12.39,5.1-17.87,8.19-5.82,3.28-11.05,6.23-15.03,6.23Z"/>
  <path class="cls-1" d="M140.44,39.46l-.69-.1c2.47-16.78,.63-28.02-5.48-33.4-5.56-4.89-12.81-2.93-12.88-2.91l-.19-.67c.08-.02,7.68-2.08,13.53,3.06,6.3,5.54,8.23,16.99,5.71,34.03Z"/>
  <path class="cls-1" d="M97.29,50.99l.33-.1-.34,.09c-.42-1.42-2.38-8.63,.38-11.62,1.1-1.19,2.78-1.55,5-1.08,1.59,.34,3.39,.85,5.48,1.45,9.66,2.76,25.83,7.39,50.99,1.5l.16,.68c-25.33,5.93-41.61,1.27-51.34-1.51-2.07-.59-3.86-1.1-5.43-1.44-1.96-.42-3.42-.12-4.34,.87-2.55,2.76-.47,10.12-.22,10.95l-.67,.2Z"/>
  <path class="cls-1" d="M91.9,75.19c-.23-.3-5.64-7.49-4.6-11.89,.28-1.18,1-2.06,2.14-2.62,5.39-2.63,11.14,2.68,12.5,4.05,1.06-1.38,5.18-6.43,9.1-6.65,3.28-.19,3.76,2.37,4.19,4.63,.32,1.65,.61,3.22,1.82,3.91,1.06,.61,2.74,.51,5.13-.32,19.57-6.75,47.53-1.6,47.81-1.54l-.13,.69c-.28-.05-28.06-5.17-47.45,1.52-2.6,.9-4.47,.98-5.71,.26-1.48-.86-1.82-2.65-2.15-4.39-.43-2.26-.8-4.21-3.46-4.06-4.1,.24-8.77,6.63-8.82,6.7l-.54,.03c-.06-.07-6.4-6.91-11.97-4.2-.95,.46-1.53,1.17-1.76,2.15-.97,4.08,4.42,11.23,4.47,11.31l-.56,.42Z"/>
  <path class="cls-1" d="M204.14,65.13c-8.72,0-14.7-2.77-17.63-8.27-2.87-5.39-1.15-12.05,4.39-16.97,3.45-3.06,8.08-5.87,12.57-8.58,8.67-5.24,16.86-10.19,14.3-15.8-.63-1.38-1.71-2.35-3.22-2.89-6.08-2.17-17.14,3.23-17.25,3.28l-.41-.07c-1.81-1.88-7.08-6.59-9.73-5.83-.79,.23-1.31,.93-1.57,2.15-.91,4.3,.55,7.24,.57,7.27l-.62,.32c-.07-.13-1.6-3.18-.63-7.74,.31-1.47,1.01-2.37,2.06-2.67,3.31-.95,9.14,4.71,10.25,5.83,1.68-.8,11.64-5.32,17.57-3.2,1.69,.6,2.91,1.7,3.62,3.26,2.81,6.17-5.64,11.28-14.58,16.68-4.46,2.69-9.07,5.48-12.47,8.5-5.29,4.7-6.95,11.03-4.24,16.12,11.35,21.3,65.73-7.17,66.28-7.46l.33,.62c-.14,.07-13.98,7.36-29.07,11.88-7.95,2.38-14.82,3.56-20.52,3.57Z"/>
  <path class="cls-1" d="M241.34,77.17l-.67-.21c9.59-31.06-2.75-55.32-2.87-55.56l.06-.41c.09-.1,9.35-9.61,7.7-17.58-.17-.83-.59-1.36-1.28-1.64-4.12-1.67-15.71,6.15-15.82,6.23l-.39-.58c.49-.33,12.01-8.1,16.48-6.3,.91,.37,1.48,1.09,1.7,2.15,1.61,7.81-6.38,16.63-7.72,18.04,1.24,2.55,11.99,26.12,2.81,55.86Z"/>
  <path class="cls-1" d="M299.48,37c-6.91-4.18-16.58-17.58-17.37-26.07-.17-1.87-.8-3.05-1.86-3.52-2.67-1.17-7.31,2.31-7.36,2.34l-.42-.56c.2-.15,5.02-3.76,8.06-2.43,1.31,.57,2.07,1.95,2.27,4.09,.76,8.16,10.4,21.52,17.04,25.54l-.36,.6Z"/>
  <path class="cls-1" d="M319.06,37.39c-2.68-9.79-10.76-12.9-10.84-12.93l.24-.65c.08,.03,8.49,3.25,11.27,13.4l-.67,.18Z"/>
  <path class="cls-1" d="M336.67,46.96l-.69-.12c3.4-19.11-6.17-28.13-6.27-28.22l.02-.53c.07-.06,7.04-5.77,7.21-11.95,.04-1.67-.45-2.89-1.48-3.64-2.88-2.11-9-.03-9.06-.01l-.23-.66c.26-.09,6.53-2.21,9.7,.11,1.22,.89,1.81,2.32,1.76,4.23-.15,5.83-5.79,11.04-7.17,12.23,1.59,1.68,9.34,10.94,6.2,28.57Z"/>
  <path class="cls-1" d="M307.2,74.02c-4.43,0-8.93-.4-12.7-1.18-5.05-1.04-11.22-3.2-11.93-7.62-.35-2.16,.27-4.05,1.84-5.64,3.02-3.05,11.14-5.6,21.8-3.97l-.11,.69c-7.54-1.15-17.25-.22-21.2,3.78-1.4,1.42-1.95,3.11-1.64,5.03,.51,3.14,4.55,5.64,11.39,7.05,5.78,1.19,13.28,1.49,19.57,.8,18.48-2.03,20.92-6.99,20.97-11.08,.17-12.25-33.69-16.41-34.04-16.45l.08-.69c.09,.01,8.76,1.06,17.3,3.65,11.59,3.52,17.43,8.06,17.35,13.5-.12,8.34-11.6,10.67-21.59,11.77-2.25,.25-4.66,.37-7.09,.37Z"/>
  <path class="cls-1" d="M100.17,147.72c-1.45,0-2.85-.64-3.9-1.84-1.45-1.65-1.76-3.9-.79-5.73,.86-1.63,5.04-4.21,12.53-5.51,.38-2.51,.62-5.52,.64-9.16,.06-10.78-2.33-17.88-7.1-21.12-5.22-3.54-11.57-1.03-11.64-1.01l-.26-.65c.27-.11,6.75-2.67,12.28,1.07,4.98,3.37,7.47,10.67,7.41,21.7-.01,2.21-.13,5.58-.65,9.04,10.56-1.69,27.39-.87,50.49,8.17l-.25,.65c-23-9-39.89-9.71-50.36-8.02-.89,5.31-2.75,10.63-6.61,12.08-.59,.22-1.19,.33-1.78,.33Zm7.71-12.29c-7.04,1.24-11,3.57-11.78,5.05-1.01,1.91-.3,3.81,.7,4.95,1.01,1.15,2.83,2.09,4.91,1.32,1.57-.59,4.72-2.82,6.17-11.31Z"/>
  <path class="cls-1" d="M139.89,147.55c-2.85-12.96-3.76-23.5-2.72-31.36-5,.8-11.05,1.03-18.11,.71-12.17-.56-22.98-2.68-23.09-2.7l.14-.69c.32,.06,24.17,4.69,41.17,1.92,.05-.33,.1-.66,.16-.98,1.11-6.17,3.64-10.4,7.12-11.92,3.2-1.39,6.35-.1,7.68,1.83,1.26,1.83,.99,3.98-.74,5.75-2.81,2.89-7.36,4.88-13.61,5.96-.92,6.61-.57,16.51,2.68,31.33l-.68,.15Zm7.42-44.91c-.79,0-1.63,.16-2.48,.53-1.71,.74-5.42,3.36-6.83,12.13,5.44-.97,10.11-2.72,12.99-5.68,1.48-1.52,1.72-3.34,.67-4.87-.83-1.2-2.46-2.11-4.35-2.11Z"/>
  <path class="cls-1" d="M91.6,169.18c-1.12,0-2.07-.31-2.84-.94-3.63-2.94-1.93-11.69-1.86-12.06l.68,.14c-.02,.09-1.69,8.71,1.61,11.38,1.32,1.07,3.32,1.04,5.93-.08,3.91-1.68,8.95-5.08,13.82-8.37,7.35-4.97,13.71-9.25,16.08-7.75,.83,.53,1.1,1.63,.83,3.39-.29,1.86,.27,3.53,1.66,4.96,5.65,5.8,24.27,6.92,38.91,5.04l.09,.69c-14.81,1.91-33.69,.72-39.5-5.24-1.55-1.59-2.17-3.46-1.85-5.55,.22-1.43,.05-2.33-.51-2.69-1.99-1.26-8.76,3.31-15.32,7.74-4.9,3.31-9.96,6.73-13.93,8.43-1.43,.61-2.7,.92-3.81,.92Z"/>
  <path class="cls-1" d="M203.71,158.95c-7.69,0-12.5-1.8-14.34-5.39-4.17-8.13,4.67-14.53,14.02-21.31,5.88-4.26,11.97-8.67,15.47-13.83,1.87-2.76,2.33-4.94,1.37-6.47-3.01-4.78-18.45-2.53-18.61-2.5l-.28-.08c-4.93-4.25-8.46-5.78-10.5-4.54-4.28,2.62-.93,16.59-.89,16.73l-.68,.17c-.15-.59-3.51-14.61,1.2-17.49,2.3-1.41,6.07,.1,11.2,4.5,1.77-.25,16.03-2.1,19.14,2.84,1.13,1.79,.66,4.23-1.38,7.24-3.57,5.26-9.71,9.71-15.64,14-9.11,6.6-17.71,12.83-13.81,20.43,6.3,12.27,49.99-1.89,50.43-2.04l.22,.66c-.11,.04-11.24,3.67-23.03,5.7-5.36,.92-10,1.39-13.89,1.39Z"/>
  <path class="cls-1" d="M239.98,172.44l-.57-.4c18.25-26.41-.13-53.41-.31-53.68v-.39c5.22-7.75,6.97-13.44,5.07-16.46-2.1-3.33-8-2.5-8.06-2.49l-.1-.69c.26-.04,6.41-.91,8.75,2.81,2.08,3.29,.41,9.02-4.95,17.03,1.67,2.55,17.87,28.67,.18,54.28Z"/>
  <path class="cls-1" d="M300.64,126.55c-1.99,0-4.07-.44-6.18-1.46-3.78-1.82-6.04-4.28-6.72-7.31-1.18-5.25,2.79-10.24,2.96-10.45l.54,.44s-3.93,4.95-2.82,9.87c.63,2.8,2.77,5.1,6.34,6.83,7.16,3.45,14.08-.08,17.48-4.82,2.6-3.62,2.87-7.4,.7-9.61-5.61-5.72-12.38-1.26-12.67-1.07l-.39-.58c.08-.05,7.54-4.98,13.56,1.16,2.42,2.47,2.18,6.6-.63,10.51-2.57,3.58-7.05,6.5-12.17,6.5Z"/>
  <path class="cls-1" d="M322.43,166.61l-.63-.29c.07-.16,7.08-15.75,2.73-30.76-.48-1.66-1.48-2.72-3.04-3.24-11.42-3.81-47.29,23-47.65,23.27l-.56-.27c-.11-3.6-.87-5.66-2.25-6.11-2.64-.85-7.28,4.26-8.84,6.31l-.55-.42c.24-.32,5.97-7.72,9.61-6.55,1.62,.52,2.51,2.52,2.71,6.09,2.09-1.54,10.1-7.36,19.09-12.76,14.06-8.44,23.71-11.88,28.67-10.23,1.78,.59,2.95,1.84,3.49,3.71,4.42,15.26-2.69,31.09-2.77,31.24Z"/>
  <path class="cls-1" d="M300.34,172.48l-.52-.47c.12-.14,12.43-13.72,9.66-19.76-.93-2.02-3.54-2.99-7.75-2.87l-.22-.63c.09-.07,8.64-6.66,9.08-14.07,.18-3.01-1.01-5.78-3.54-8.23l.49-.5c2.68,2.6,3.94,5.55,3.75,8.78-.39,6.45-6.38,12.09-8.58,13.95,3.94,.06,6.42,1.16,7.4,3.29,2.96,6.45-9.26,19.95-9.78,20.52Z"/>
  <path class="cls-1" d="M325.18,127.24l-.55-.43c5.95-7.64,8.18-13.22,6.47-16.15-1.92-3.27-8.17-2.35-8.23-2.35l-.11-.69c.28-.04,6.78-.99,8.94,2.68,1.9,3.24-.29,8.94-6.52,16.93Z"/>
  <path class="cls-1" d="M344.9,172.38c-4.82-10.77-5.03-27.39-.7-55.59,1.44-9.35,.59-15.06-2.51-16.96-3.78-2.32-9.81,1.97-9.87,2.01l-.41-.57c.26-.19,6.47-4.6,10.64-2.04,3.37,2.06,4.32,8,2.84,17.66-4.31,28.05-4.11,44.56,.65,55.2l-.64,.29Z"/>
  <path class="cls-1" d="M381.19,143.5c-1.59,0-3.27-.25-5-.75-4.66-1.37-7.86-5.37-8.35-10.46-.52-5.4,2.2-10.32,7.09-12.83l.32,.62c-5.53,2.85-7.1,8.14-6.71,12.15,.46,4.79,3.47,8.57,7.85,9.85,6.24,1.83,11.78,.14,14.83-4.5,2.16-3.3,2.48-7.03,1.68-10.5-6.37-1.68-8.54-5.73-8.88-6.46-.9-1.9-.79-3.7,.26-4.37,.59-.38,2.3-.86,5.34,2.78,1.91,2.29,3.22,4.86,3.87,7.45,6.22,1.26,13.98-.19,19.11-1.85l.22,.66c-8.63,2.8-14.8,2.93-19.15,1.97,.77,3.78,.18,7.58-1.86,10.69-2.37,3.62-6.16,5.55-10.61,5.55Zm3.99-26.81c-.22,0-.4,.05-.54,.14-.63,.4-.83,1.73,0,3.48,1.55,3.28,4.51,5.12,8.05,5.99-.72-2.54-2.03-4.92-3.62-6.83-1.73-2.07-3.07-2.79-3.88-2.79Z"/>
  <path class="cls-1" d="M412.5,173.78l-.65-.25c18.68-48.96-.37-66.77-.57-66.91l-.1-.48c2.18-3.4,2.82-5.78,1.87-6.89-2.23-2.59-12.67,1.3-16.5,3.01l-.29-.64c.58-.26,14.29-6.34,17.31-2.83,1.18,1.37,.64,3.81-1.65,7.46,1.3,1.18,5.49,6.26,7.58,15.97,2.08,9.67,2.56,26.47-7.01,51.55Z"/>
  <g>
    <path class="cls-1" d="M24.03,212.16c-.94,0-1.86-.08-2.75-.26-4.42-.87-7.18-3.82-7.77-8.32-1.35-10.21,12.54-14.92,12.68-14.96l.22,.66c-.14,.04-13.48,4.57-12.21,14.21,.55,4.17,3.11,6.91,7.22,7.72,6.27,1.24,14.4-2.27,17.4-7.5,1.5-2.62,2.38-6.76-1.96-11.67l.52-.46c3.6,4.07,4.33,8.5,2.05,12.48-2.71,4.72-9.41,8.1-15.39,8.1Z"/>
    <path class="cls-1" d="M26.52,225.27l-.45-.54c13.44-11.22,20.99-7.11,21.31-6.93l-.35,.61c-.07-.04-7.49-4.02-20.51,6.86Z"/>
    <path class="cls-1" d="M41.14,233.92c-.15-.09-15.16-8.65-30.5-13.61-4.16-1.35-7.05-1.21-8.59,.42-3.01,3.17-.05,11.02-.02,11.1l-.65,.25c-.13-.34-3.14-8.35,.17-11.83,1.74-1.83,4.87-2.04,9.31-.6,14.51,4.69,28.72,12.59,30.45,13.57,1.68-.97,15.02-8.37,28.95-8.56v.7c-14.64,.2-28.63,8.48-28.77,8.56h-.35Z"/>
    <path class="cls-1" d="M14.59,267.61l-.35-.59c.14-.12,14.35-12.49,21.2-22.22,.65-.92,1.31-2.15,.8-2.81-1.78-2.29-14.96,1.65-23.39,4.86l-.42-.15c-1.46-2.45-2.96-3.62-4.48-3.49-2.37,.21-4.99,3.69-7.19,9.54l-.07,.18-.65-.26,.06-.17c1.35-3.59,4.15-9.67,7.78-9.99,1.75-.16,3.43,1.05,4.99,3.58,3.18-1.2,21.35-7.84,23.92-4.53,.63,.81,.37,2-.78,3.64-5.64,8.01-16.22,17.78-19.96,21.14,6.99-2.43,33.7-10.99,48.08-5.42l-.25,.65c-16.31-6.32-48.96,5.91-49.29,6.03Z"/>
  </g>
  <path class="cls-1" d="M103.91,224.62c-.34,0-.67-.01-1.01-.04-5.17-.38-10.98-3.89-10.37-12.57l.7,.05c-.58,8.16,4.88,11.47,9.73,11.82,5.57,.41,11.58-2.74,12.03-8.7,.24-3.2-.74-6-2.89-8.32-7.44-8.02-26.63-8.11-26.82-8.11v-.7s4.96,.01,10.74,1.03c7.79,1.38,13.38,3.83,16.6,7.3,2.3,2.47,3.33,5.45,3.08,8.85-.45,6.03-6.16,9.38-11.77,9.38Z"/>
  <path class="cls-1" d="M136.43,241.88c-.08-.13-7.52-13.64-4.09-36.33,.73-4.81,.13-7.96-1.79-9.35-2.72-1.99-7.3,.24-7.35,.26l-.31-.63c.2-.1,5-2.44,8.07-.2,2.14,1.56,2.84,4.94,2.07,10.02-3.4,22.44,3.93,35.75,4,35.88l-.61,.34Z"/>
  <path class="cls-1" d="M151.95,245.05c-8.33-7.49-8.76-25.69-6.39-40.23,.99-6.09,.39-10.02-1.79-11.67-2.41-1.82-6.02-.17-6.06-.15l-.3-.63c.16-.08,4.03-1.85,6.77,.22,2.41,1.82,3.1,5.97,2.06,12.34-3.57,21.89,.84,34.81,6.17,39.6l-.47,.52Z"/>
  <path class="cls-1" d="M88.35,266.36l-.64-.28c5.9-13.68,13.5-18.55,19.17-20.16,.39-7.73,9.85-13.59,10.25-13.84l.36,.6c-.1,.06-9.36,5.8-9.91,13.06,2.15-.52,3.98-.58,5.28-.51,4.53,.25,7.52,2.2,8.05,3.91,.64,2.09,.15,3.98-1.38,5.31-2,1.74-5.26,2.08-7.94,.82-1.77-.83-4.7-3.04-4.74-8.61-5.49,1.62-12.79,6.43-18.51,19.71Zm19.21-19.9c-.03,5.32,2.69,7.4,4.33,8.17,2.39,1.12,5.41,.82,7.18-.72,1.31-1.14,1.73-2.76,1.17-4.58-.45-1.47-3.42-3.2-7.42-3.42-1.28-.07-3.12,0-5.27,.54Z"/>
  <path class="cls-1" d="M201.6,221.61c-2.52,0-4.99-.89-7.09-2.64-7.72-6.46-1.23-15.2-1.16-15.28l.56,.42s-1.58,2.11-2.22,4.92c-.84,3.72,.26,6.88,3.28,9.41,3.6,3.02,8.2,3.33,12.29,.83,4.17-2.54,6.33-7.13,5.37-11.43-1.67-7.44-7.66-8.46-14.59-9.64-4.53-.77-9.22-1.57-13.32-4.21l.38-.59c3.98,2.56,8.6,3.35,13.06,4.11,6.88,1.17,13.39,2.28,15.16,10.18,1.03,4.59-1.26,9.48-5.68,12.18-1.92,1.17-3.98,1.75-6.01,1.75Z"/>
  <path class="cls-1" d="M233.79,240.09c-.08-.08-7.75-7.49-24.46-3.21-17.05,4.36-24.74,1.38-25.06,1.25l.26-.65c.08,.03,7.83,3.01,24.63-1.28,8.94-2.28,15.28-1.25,19.02,.02,4.09,1.38,6.03,3.3,6.11,3.38l-.49,.49Z"/>
  <path class="cls-1" d="M218.87,237.67c-.17-.35-4.12-8.69-.93-12.56,1.62-1.97,4.77-2.39,9.37-1.24,.93-1.88,6.47-12.72,11.14-12.8,.02,0,.04,0,.06,0,1.34,0,2.47,.86,3.37,2.56l-.62,.33c-.78-1.47-1.72-2.22-2.8-2.19-4.57,.09-10.59,12.54-10.65,12.66l-.4,.19c-4.46-1.16-7.46-.85-8.93,.93-2.9,3.52,.98,11.73,1.02,11.81l-.63,.3Z"/>
  <path class="cls-1" d="M247.79,249.85c-7.43-12.45-8.46-26.31-3.35-44.94,1.39-5.04,1.04-8.47-1.02-10.18-4.55-3.78-16.06,1.74-16.17,1.79l-.3-.63c.49-.24,12.03-5.77,16.92-1.7,2.29,1.9,2.71,5.57,1.24,10.9-5.06,18.43-4.05,32.12,3.27,44.39l-.6,.36Z"/>
  <path class="cls-1" d="M285.97,232.84l-.7-.03,.35,.02-.35-.03c.05-1.02,1.41-25.01,8.08-30.89,1.12-.98,2.33-1.43,3.63-1.33,1.96,.15,3.5,.99,4.58,2.5,3.06,4.31,1.48,12.84,.84,15.68,3.07-2.06,15.21-8.61,39.86-3.95l-.13,.69c-14.9-2.82-25.02-1.47-30.89,.17-6.32,1.76-9.15,4.18-9.18,4.21l-.57-.35c.03-.11,2.93-11.19-.51-16.03-.95-1.33-2.31-2.08-4.06-2.21-1.09-.08-2.15,.31-3.12,1.16-6.46,5.68-7.79,29.39-7.85,30.4Z"/>
  <path class="cls-1" d="M278.35,254.84c-2.79,0-4.96-.8-6.47-2.39-4-4.22-1.86-12.42-1.77-12.77l.67,.18c-.02,.08-2.13,8.17,1.6,12.11,1.99,2.1,5.32,2.68,9.88,1.71,3.8-.8,8.58-2.45,14.12-4.35,18.67-6.41,44.24-15.2,61.8-1.83l-.42,.56c-17.26-13.14-42.63-4.43-61.15,1.93-5.56,1.91-10.36,3.56-14.2,4.37-1.48,.31-2.84,.47-4.07,.47Z"/>
  <path class="cls-1" d="M149.71,220.89c-11.32,0-17.7-4.29-17.77-4.34l.4-.58c.07,.05,7.21,4.83,19.8,4.15l.04,.7c-.84,.05-1.67,.07-2.46,.07Z"/>
  <path class="cls-1" d="M273.08,39.06l-.58-.39c1.05-1.58,25.93-38.58,37.61-35.09,2.54,.76,4.06,3.19,3.76,6.04-.32,3.08-2.78,6.55-7.31,10.31-8.06,6.67-15.74,8.53-15.82,8.55l-.17-.68c.08-.02,7.61-1.84,15.54-8.41,4.33-3.58,6.77-6.99,7.06-9.84,.26-2.51-1.05-4.64-3.27-5.3-11.18-3.34-36.57,34.43-36.83,34.81Z"/>
</svg>